<svg width="399" height="82" viewBox="0 0 399 82" fill="none" xmlns="http://www.w3.org/2000/svg">
<g clip-path="url(#clip0_2056_2)">
<path d="M81.0396 0.580078H0.55957V81.0601H81.0396C85.865 68.196 88.3016 54.5592 88.2296 40.8201C88.2796 26.3101 85.9096 12.4001 81.0396 0.580078Z" fill="#D2DDEA"/>
<path d="M81.0396 0.580078H0.55957V81.0601H81.0396C85.865 68.196 88.3016 54.5592 88.2296 40.8201C88.2796 26.3101 85.9096 12.4001 81.0396 0.580078Z" stroke="#D2DDEA" stroke-width="0.13" stroke-miterlimit="3.86"/>
<path d="M174.95 81.0601H81.04C85.8631 68.1954 88.2996 54.559 88.23 40.8201C88.3 26.6501 85.95 12.4001 81.04 0.580078H174.95V81.0601Z" fill="#004B88"/>
<path d="M174.95 81.0601H81.04C85.8631 68.1954 88.2996 54.559 88.23 40.8201C88.3 26.6501 85.95 12.4001 81.04 0.580078H174.95V81.0601Z" stroke="#004B88" stroke-width="0.16" stroke-miterlimit="3.86"/>
<path fill-rule="evenodd" clip-rule="evenodd" d="M134.56 15.3C134.563 14.949 134.704 14.6133 134.953 14.366C135.203 14.1188 135.539 13.98 135.89 13.98H138.56C138.735 13.9787 138.907 14.0119 139.069 14.0776C139.23 14.1434 139.377 14.2404 139.5 14.3631C139.624 14.4858 139.722 14.6318 139.789 14.7926C139.856 14.9534 139.89 15.1258 139.89 15.3V39.47C139.888 39.8219 139.747 40.1587 139.498 40.4076C139.249 40.6564 138.912 40.7974 138.56 40.8H135.92C135.743 40.804 135.567 40.7726 135.402 40.7075C135.237 40.6425 135.087 40.5451 134.961 40.4212C134.834 40.2973 134.733 40.1494 134.664 39.986C134.596 39.8227 134.56 39.6472 134.56 39.47V29.47H123.76V39.47C123.76 39.8228 123.62 40.161 123.371 40.4105C123.121 40.6599 122.783 40.8 122.43 40.8H119.77C119.419 40.7974 119.082 40.6564 118.833 40.4076C118.584 40.1587 118.443 39.8219 118.44 39.47V15.3C118.443 14.949 118.584 14.6133 118.833 14.366C119.083 14.1188 119.419 13.98 119.77 13.98H122.44C122.791 13.98 123.128 14.1188 123.377 14.366C123.627 14.6133 123.768 14.949 123.77 15.3V25.03H134.56V15.3Z" fill="white"/>
<path fill-rule="evenodd" clip-rule="evenodd" d="M167.41 15.3C168.06 14.57 168.16 13.97 167.27 13.98H163.33C162.846 13.9075 162.351 13.9615 161.894 14.1367C161.436 14.3119 161.032 14.6024 160.72 14.98L150.78 26.08V15.33C150.784 15.1568 150.754 14.9845 150.69 14.8233C150.626 14.6621 150.531 14.5152 150.41 14.3913C150.289 14.2674 150.144 14.169 149.985 14.1018C149.825 14.0346 149.654 14 149.48 14H146.78C146.605 13.9987 146.432 14.0322 146.27 14.0986C146.108 14.1649 145.961 14.2628 145.837 14.3866C145.713 14.5104 145.615 14.6575 145.549 14.8195C145.482 14.9814 145.449 15.155 145.45 15.33V39.49C145.45 39.841 145.589 40.1778 145.836 40.427C146.083 40.6761 146.419 40.8174 146.77 40.82H149.49C149.663 40.8187 149.833 40.7832 149.992 40.7154C150.15 40.6476 150.294 40.5489 150.414 40.4252C150.534 40.3014 150.628 40.155 150.691 39.9944C150.754 39.8339 150.784 39.6624 150.78 39.49V33.87L155.35 28.79L161.95 39.49C162.121 39.8443 162.376 40.1511 162.694 40.3831C163.011 40.6151 163.381 40.7652 163.77 40.82H167.56C168.29 40.82 168.56 40.22 168.07 39.49L158.91 24.78L167.41 15.3Z" fill="white"/>
<path fill-rule="evenodd" clip-rule="evenodd" d="M105.06 13.9798C105.462 13.9644 105.858 14.0868 106.182 14.3268C106.505 14.5668 106.737 14.91 106.84 15.2998L115.09 39.4698C115.161 39.6136 115.194 39.7738 115.185 39.9343C115.176 40.0948 115.125 40.2501 115.037 40.3846C114.949 40.5192 114.827 40.6283 114.683 40.7012C114.54 40.774 114.38 40.808 114.22 40.7998H111.56C111.164 40.7728 110.784 40.6332 110.466 40.3975C110.147 40.1619 109.902 39.84 109.76 39.4698L108 34.0298H98.9296L97.1796 39.4698C97.0369 39.8415 96.7904 40.1644 96.4696 40.4001C96.1488 40.6359 95.767 40.7746 95.3696 40.7998H92.7296C92.5692 40.8069 92.4097 40.7723 92.2666 40.6994C92.1236 40.6265 92.0018 40.5178 91.9132 40.3839C91.8246 40.25 91.7722 40.0954 91.761 39.9352C91.7499 39.775 91.7804 39.6147 91.8496 39.4698L100.11 15.2998C100.212 14.91 100.444 14.5668 100.767 14.3268C101.091 14.0868 101.487 13.9644 101.89 13.9798H105.06ZM99.9096 29.5098H105.97L102.97 20.1398L99.9096 29.5098Z" fill="white"/>
<path fill-rule="evenodd" clip-rule="evenodd" d="M8.36035 56.1499H9.66035L12.9004 60.1199L16.1404 56.1499H17.4504V65.7899H16.0504V58.2299L13.0104 62.0199H12.7904L9.75035 58.2599V65.7899H8.36035V56.1499Z" fill="#1D1D1B"/>
<path fill-rule="evenodd" clip-rule="evenodd" d="M19.6699 65.7899V56.1499H25.1599V57.3899H21.0599V60.3299H25.0099V61.5699H21.0599V64.5399H25.2999V65.7899H19.6699Z" fill="#1D1D1B"/>
<path fill-rule="evenodd" clip-rule="evenodd" d="M27.2305 65.7898V56.1398H29.6705C30.5155 56.0855 31.3503 56.3495 32.0105 56.8798C32.2876 57.1314 32.5058 57.4411 32.6493 57.7869C32.7928 58.1327 32.858 58.5059 32.8405 58.8798C32.8609 59.3914 32.7151 59.8959 32.4248 60.3177C32.1346 60.7395 31.7156 61.056 31.2305 61.2198C31.8724 61.705 32.407 62.3179 32.8005 63.0198C33.1305 63.5098 33.4905 64.0198 33.8605 64.5598C34.2305 65.0998 34.5205 65.4998 34.7105 65.7898H33.0605L31.8405 63.9298C31.4989 63.3891 31.1178 62.8744 30.7005 62.3898C30.525 62.1609 30.2995 61.9753 30.0413 61.847C29.783 61.7188 29.4988 61.6513 29.2105 61.6498H28.6305V65.8198L27.2305 65.7898ZM28.6305 60.3698H29.5605C30.7905 60.3698 31.4005 59.8698 31.4005 58.8798C31.4005 57.8898 30.8005 57.3898 29.5805 57.3898H28.6305V60.3698Z" fill="#1D1D1B"/>
<path fill-rule="evenodd" clip-rule="evenodd" d="M42.9402 56.8V58.32C41.9569 57.658 40.8052 57.2903 39.6202 57.26C39.1098 57.244 38.6012 57.3295 38.124 57.5114C37.6468 57.6934 37.2104 57.9682 36.8402 58.32C36.147 59.0299 35.7589 59.9828 35.7589 60.975C35.7589 61.9673 36.147 62.9202 36.8402 63.63C37.2168 63.9719 37.657 64.2361 38.1357 64.4077C38.6144 64.5793 39.1223 64.6548 39.6302 64.63C40.8607 64.6119 42.0607 64.2443 43.0902 63.57V65.07C42.029 65.5957 40.8643 65.8792 39.6802 65.9C38.9672 65.9367 38.2542 65.8269 37.5852 65.5775C36.9162 65.3282 36.3053 64.9444 35.7902 64.45C35.3272 64.0117 34.9595 63.4828 34.7101 62.8961C34.4606 62.3094 34.3347 61.6775 34.3402 61.04C34.3191 60.3588 34.4417 59.6808 34.7002 59.0502C34.9586 58.4195 35.3471 57.8505 35.8402 57.38C36.8538 56.453 38.1871 55.9548 39.5602 55.99C39.9733 55.9958 40.385 56.0393 40.7902 56.12C41.5252 56.2843 42.2445 56.5118 42.9402 56.8Z" fill="#1D1D1B"/>
<path fill-rule="evenodd" clip-rule="evenodd" d="M43.81 60.9301C43.7982 60.2763 43.9198 59.627 44.1674 59.0218C44.4149 58.4166 44.7833 57.8682 45.25 57.4101C45.7454 56.9222 46.3355 56.5409 46.9839 56.2898C47.6323 56.0387 48.3252 55.9231 49.02 55.9501C49.7039 55.9282 50.3855 56.0414 51.0256 56.2834C51.6656 56.5254 52.2516 56.8913 52.75 57.3601C53.2202 57.8251 53.5934 58.3788 53.8482 58.989C54.1029 59.5992 54.2341 60.2539 54.2341 60.9151C54.2341 61.5764 54.1029 62.2311 53.8482 62.8413C53.5934 63.4515 53.2202 64.0052 52.75 64.4701C52.2519 64.9543 51.6614 65.3331 51.0137 65.5839C50.3659 65.8348 49.6743 65.9525 48.98 65.9301C48.2957 65.9537 47.6137 65.8392 46.9746 65.5936C46.3354 65.3479 45.7523 64.976 45.26 64.5001C44.7823 64.0394 44.4065 63.4837 44.1568 62.8688C43.907 62.2539 43.7889 61.5935 43.81 60.9301ZM45.24 60.9301C45.2275 61.4225 45.317 61.912 45.5029 62.3681C45.6888 62.8241 45.967 63.2368 46.32 63.5801C47.0574 64.2547 48.0206 64.6289 49.02 64.6289C50.0194 64.6289 50.9826 64.2547 51.72 63.5801C52.4073 62.8712 52.7917 61.9226 52.7917 60.9351C52.7917 59.9477 52.4073 58.9991 51.72 58.2901C50.9821 57.6127 50.0168 57.2368 49.015 57.2368C48.0133 57.2368 47.048 57.6127 46.31 58.2901C45.9605 58.6335 45.6852 59.045 45.5011 59.4991C45.3171 59.9532 45.2282 60.4403 45.24 60.9301Z" fill="#1D1D1B"/>
<path fill-rule="evenodd" clip-rule="evenodd" d="M55.4001 63.2802C55.6676 63.7022 56.0345 64.0523 56.4685 64.2998C56.9026 64.5473 57.3906 64.6848 57.8901 64.7002C58.2874 64.7118 58.6774 64.5923 59.0001 64.3602C59.1399 64.2585 59.2529 64.1243 59.3295 63.9693C59.4062 63.8143 59.4441 63.6431 59.4401 63.4702C59.4459 63.1431 59.3361 62.8244 59.1301 62.5702C58.7135 62.1439 58.2347 61.7831 57.7101 61.5002C57.1032 61.128 56.5279 60.7066 55.9901 60.2402C55.7583 60.0343 55.5753 59.7794 55.4542 59.4941C55.3331 59.2087 55.2771 58.8999 55.2901 58.5902C55.2722 58.2314 55.3357 57.8731 55.476 57.5423C55.6163 57.2115 55.8296 56.9168 56.1001 56.6802C56.7056 56.1973 57.4665 55.9519 58.2401 55.9902C59.0107 55.9836 59.7635 56.2217 60.3901 56.6702V58.2102C60.0951 57.9344 59.7574 57.7081 59.3901 57.5402C58.9865 57.3391 58.541 57.2363 58.0901 57.2402C57.6887 57.2208 57.2929 57.3409 56.9701 57.5802C56.8395 57.6732 56.7331 57.7963 56.66 57.939C56.5869 58.0817 56.5492 58.2399 56.5501 58.4002C56.5499 58.5699 56.5854 58.7377 56.6544 58.8928C56.7233 59.0478 56.824 59.1866 56.9501 59.3002C57.368 59.6515 57.8203 59.9598 58.3001 60.2202C59.0191 60.618 59.665 61.1354 60.2101 61.7502C60.548 62.1984 60.721 62.7493 60.7001 63.3102C60.7121 63.6623 60.6507 64.013 60.5199 64.3401C60.389 64.6672 60.1916 64.9635 59.9401 65.2102C59.6841 65.4526 59.3826 65.642 59.0531 65.7672C58.7235 65.8925 58.3725 65.9513 58.0201 65.9402C57.0625 65.9651 56.1271 65.6497 55.3801 65.0502L55.4001 63.2802Z" fill="#1D1D1B"/>
<path fill-rule="evenodd" clip-rule="evenodd" d="M61.9404 56.1401H63.3404V61.9301C63.3002 62.3237 63.3525 62.7213 63.4932 63.0911C63.6338 63.4609 63.8589 63.7927 64.1504 64.0601C64.6795 64.4707 65.3307 64.6925 66.0004 64.6901H66.0604C66.7728 64.7105 67.4732 64.5039 68.0604 64.1001C68.3476 63.8556 68.5739 63.5476 68.7215 63.2005C68.869 62.8533 68.9337 62.4766 68.9104 62.1001V56.1401H70.3004V62.0001C70.3386 62.5424 70.2562 63.0864 70.0591 63.593C69.862 64.0996 69.5551 64.5563 69.1604 64.9301C68.2996 65.6311 67.2091 65.9875 66.1004 65.9301C65.0108 65.982 63.941 65.6254 63.1004 64.9301C62.7155 64.5706 62.4146 64.1305 62.2193 63.6414C62.024 63.1522 61.939 62.6259 61.9704 62.1001L61.9404 56.1401Z" fill="#1D1D1B"/>
<path fill-rule="evenodd" clip-rule="evenodd" d="M72.0303 56.1499H73.4203V64.5399H77.7503V65.7899H72.0303V56.1499Z" fill="#1D1D1B"/>
<path d="M4.94043 54.3698C19.7804 49.2498 51.3604 42.4898 82.3404 47.7298" stroke="#1D1D1B" stroke-width="0.63" stroke-miterlimit="3.86"/>
<path fill-rule="evenodd" clip-rule="evenodd" d="M36.3703 28.3899L34.1304 29.1499L33.3703 31.3999L32.6104 29.1499L30.3604 28.3899L32.6104 27.6299L33.3703 25.3799L34.1304 27.6299L36.3703 28.3899Z" fill="#1D1D1B"/>
<path fill-rule="evenodd" clip-rule="evenodd" d="M43.8498 21.1902L41.5998 21.9502L40.8398 24.2002L40.0898 21.9502L37.8398 21.1902L40.0898 20.4302L40.8398 18.1802L41.5998 20.4302L43.8498 21.1902Z" fill="#1D1D1B"/>
<path fill-rule="evenodd" clip-rule="evenodd" d="M52.8 25.8501L50.56 26.6101L49.8 28.8601L49.04 26.6101L46.79 25.8501L49.04 25.0901L49.8 22.8501L50.56 25.0901L52.8 25.8501Z" fill="#1D1D1B"/>
<path fill-rule="evenodd" clip-rule="evenodd" d="M46.9504 41.8699L44.7004 42.6299L43.9404 44.8699L43.1804 42.6299L40.9404 41.8699L43.1804 41.1099L43.9404 38.8599L44.7004 41.1099L46.9504 41.8699Z" fill="#1D1D1B"/>
<path fill-rule="evenodd" clip-rule="evenodd" d="M189.14 71.9998V60.5398H192.14C192.95 60.4995 193.749 60.7514 194.39 61.2498C194.684 61.5136 194.915 61.8403 195.065 62.2056C195.216 62.5708 195.282 62.9654 195.26 63.3598C195.321 63.9111 195.191 64.4665 194.893 64.934C194.594 65.4015 194.145 65.7529 193.62 65.9298C194.3 66.0547 194.907 66.435 195.316 66.9927C195.725 67.5505 195.905 68.2435 195.82 68.9298C195.853 69.3968 195.768 69.8646 195.574 70.2907C195.381 70.7169 195.083 71.0878 194.71 71.3698C193.955 71.847 193.072 72.0809 192.18 72.0398L189.14 71.9998ZM190.43 61.6198V65.4798H191.56C193.2 65.4798 194.02 64.8132 194.02 63.4798C194.02 62.2598 193.26 61.6598 191.75 61.6598L190.43 61.6198ZM190.43 66.5598V70.9298H191.92C193.67 70.9298 194.54 70.2198 194.54 68.7798C194.555 68.4718 194.499 68.1644 194.376 67.8816C194.253 67.5988 194.066 67.3484 193.83 67.1498C193.334 66.7553 192.713 66.5529 192.08 66.5798L190.43 66.5598Z" fill="#F2F2F2"/>
<path fill-rule="evenodd" clip-rule="evenodd" d="M197.97 71.9999V64.0899H199.1V65.6199C199.307 65.089 199.68 64.6385 200.162 64.3344C200.644 64.0303 201.211 63.8885 201.78 63.9299V65.1399C201.389 65.1227 201 65.2055 200.65 65.3805C200.3 65.5555 200.001 65.8168 199.78 66.1399C199.297 66.9178 199.066 67.8259 199.12 68.7399V72.0099L197.97 71.9999Z" fill="#F2F2F2"/>
<path fill-rule="evenodd" clip-rule="evenodd" d="M207.15 72.0001V70.9301C206.964 71.2367 206.706 71.494 206.4 71.6801C205.9 72.0032 205.315 72.1703 204.72 72.1601C204.435 72.1752 204.151 72.1315 203.884 72.0317C203.617 71.9319 203.374 71.7781 203.17 71.5801C202.961 71.3608 202.8 71.1014 202.695 70.8177C202.59 70.5341 202.544 70.2321 202.56 69.9301C202.569 69.5096 202.705 69.1019 202.95 68.7595C203.194 68.4172 203.535 68.1561 203.93 68.0101C204.676 67.644 205.498 67.459 206.33 67.4701C206.589 67.4904 206.85 67.4904 207.11 67.4701C207.123 66.9695 207.106 66.4686 207.06 65.9701C207.015 65.6324 206.838 65.3262 206.568 65.1182C206.299 64.9103 205.958 64.8175 205.62 64.8601C204.62 64.8601 204.12 65.28 204.01 66.13H202.76C202.754 65.8546 202.805 65.581 202.91 65.3264C203.015 65.0717 203.171 64.8414 203.37 64.6501C203.978 64.1337 204.764 63.8754 205.56 63.9301C207.32 63.9301 208.21 64.7801 208.21 66.4701V72.02L207.15 72.0001ZM207.15 68.4101H206.48C205.929 68.4021 205.382 68.5147 204.88 68.74C204.596 68.8341 204.348 69.0131 204.169 69.2527C203.99 69.4924 203.889 69.7812 203.88 70.0801C203.872 70.2385 203.897 70.3968 203.954 70.5449C204.011 70.6929 204.098 70.8275 204.21 70.9401C204.423 71.1333 204.702 71.2371 204.99 71.2301C205.368 71.2268 205.736 71.112 206.05 70.9001C206.395 70.6862 206.667 70.3723 206.83 70.0001C207.033 69.4953 207.132 68.9543 207.12 68.4101H207.15Z" fill="#F2F2F2"/>
<path fill-rule="evenodd" clip-rule="evenodd" d="M212.76 67.1302L213.43 67.5302C213.857 67.7652 214.264 68.0327 214.65 68.3302C214.855 68.5132 215.017 68.7386 215.126 68.9908C215.235 69.2429 215.287 69.5157 215.28 69.7902C215.28 71.3802 214.28 72.1802 212.34 72.1802C211.607 72.1822 210.879 72.0709 210.18 71.8502V70.8502C210.823 71.0855 211.497 71.2236 212.18 71.2602C213.46 71.2602 214.1 70.8302 214.1 69.9802C214.092 69.7956 214.04 69.6156 213.947 69.4554C213.855 69.2953 213.726 69.1597 213.57 69.0602C213.49 69.0002 213.19 68.8302 212.68 68.5602L211.96 68.1702C211.542 67.9685 211.147 67.7238 210.78 67.4402C210.583 67.2468 210.427 67.0146 210.324 66.7582C210.221 66.5018 210.172 66.2268 210.181 65.9505C210.189 65.6743 210.255 65.4028 210.373 65.1532C210.492 64.9035 210.661 64.6812 210.87 64.5002C211.455 64.095 212.159 63.8978 212.87 63.9402C213.494 63.9636 214.114 64.0507 214.72 64.2002V65.2502C214.135 65.0135 213.511 64.888 212.88 64.8802C212.478 64.8634 212.081 64.968 211.74 65.1802C211.602 65.2463 211.486 65.3499 211.405 65.4791C211.324 65.6082 211.281 65.7577 211.281 65.9102C211.281 66.0628 211.324 66.2122 211.405 66.3414C211.486 66.4705 211.602 66.5741 211.74 66.6402L212.76 67.1302Z" fill="#F2F2F2"/>
<path fill-rule="evenodd" clip-rule="evenodd" d="M217.14 72V64.09H218.26V72H217.14ZM216.95 62V60.54H218.45V62.03L216.95 62Z" fill="#F2F2F2"/>
<path d="M222.27 60.54H221.14V72H222.27V60.54Z" fill="#F2F2F2"/>
<path d="M229.63 67.2998H224.58V68.4398H229.63V67.2998Z" fill="#F2F2F2"/>
<path fill-rule="evenodd" clip-rule="evenodd" d="M230.63 72L234.28 60.54H235.86L239.56 72H238.27L237.12 68.46H233.04L231.92 72H230.63ZM235.06 61.71L233.38 67.38H236.77L235.1 61.71H235.06Z" fill="#F2F2F2"/>
<path d="M242.28 60.54H241.15V72H242.28V60.54Z" fill="#F2F2F2"/>
<path fill-rule="evenodd" clip-rule="evenodd" d="M250.19 71.01V71.93C249.598 72.093 248.985 72.1705 248.37 72.16C247.851 72.1922 247.331 72.1114 246.846 71.9233C246.361 71.7351 245.922 71.444 245.56 71.07C244.828 70.1367 244.471 68.9631 244.56 67.78C244.498 66.7836 244.761 65.7937 245.31 64.96C245.584 64.6175 245.935 64.3452 246.335 64.1661C246.735 63.9869 247.173 63.906 247.61 63.93C247.997 63.9065 248.384 63.9707 248.743 64.1179C249.101 64.2651 249.422 64.4915 249.68 64.78C250.16 65.3905 250.402 66.1546 250.36 66.93V67.31H245.81V67.78C245.797 68.5439 245.991 69.2971 246.37 69.96C246.585 70.3656 246.911 70.702 247.309 70.9303C247.707 71.1586 248.162 71.2695 248.62 71.25C249.151 71.2289 249.678 71.1484 250.19 71.01ZM245.89 66.35H249.07C249.083 65.988 248.966 65.6334 248.74 65.35C248.605 65.1677 248.426 65.0219 248.22 64.9259C248.014 64.8299 247.787 64.7866 247.56 64.8C247.348 64.7893 247.136 64.8212 246.937 64.8937C246.737 64.9663 246.554 65.0781 246.398 65.2226C246.243 65.3671 246.117 65.5413 246.03 65.7349C245.943 65.9286 245.895 66.1377 245.89 66.35Z" fill="#F2F2F2"/>
<path fill-rule="evenodd" clip-rule="evenodd" d="M252.41 72.0002V64.0902H253.56V65.9302C253.93 64.6002 254.67 63.9302 255.77 63.9302C256.025 63.8967 256.283 63.9189 256.528 63.9953C256.773 64.0718 256.998 64.2005 257.189 64.3727C257.379 64.5448 257.529 64.7563 257.63 64.9924C257.73 65.2286 257.778 65.4837 257.77 65.7402C257.909 65.3194 258.138 64.9339 258.44 64.6102C258.639 64.3925 258.882 64.2193 259.152 64.1021C259.423 63.9849 259.715 63.9263 260.01 63.9302C260.303 63.9182 260.594 63.9775 260.859 64.1029C261.124 64.2283 261.354 64.4161 261.53 64.6502C261.885 65.1517 262.064 65.7563 262.04 66.3702V72.0202H260.91V67.6102C260.935 67.0067 260.888 66.4025 260.77 65.8102C260.719 65.5846 260.592 65.3836 260.41 65.2414C260.227 65.0991 260.001 65.0245 259.77 65.0302C259.16 65.0302 258.67 65.4802 258.28 66.3602C257.956 67.1118 257.789 67.9217 257.79 68.7402V72.0002H256.66V67.6102C256.692 67.0061 256.642 66.4005 256.51 65.8102C256.459 65.5846 256.332 65.3836 256.15 65.2414C255.967 65.0991 255.741 65.0245 255.51 65.0302C254.91 65.0302 254.42 65.4802 254.03 66.3502C253.698 67.1031 253.528 67.9173 253.53 68.7402V72.0002H252.41Z" fill="#F2F2F2"/>
<path fill-rule="evenodd" clip-rule="evenodd" d="M268.68 71.9999V70.9299C268.494 71.2365 268.237 71.4938 267.93 71.6799C267.43 72.003 266.845 72.1701 266.25 72.1599C265.966 72.175 265.681 72.1313 265.415 72.0315C265.148 71.9317 264.905 71.778 264.7 71.5799C264.502 71.3597 264.349 71.1022 264.251 70.8223C264.153 70.5424 264.112 70.2458 264.13 69.9499C264.14 69.5294 264.276 69.1217 264.52 68.7794C264.764 68.437 265.106 68.1759 265.5 68.0299C266.247 67.6638 267.069 67.4788 267.9 67.4899C268.16 67.5102 268.421 67.5102 268.68 67.4899C268.71 66.9903 268.71 66.4894 268.68 65.9899C268.633 65.6533 268.456 65.3487 268.186 65.1413C267.917 64.9338 267.578 64.84 267.24 64.8799C266.24 64.8799 265.73 65.2999 265.62 66.1499H264.37C264.364 65.8745 264.416 65.6008 264.521 65.3462C264.626 65.0915 264.782 64.8613 264.98 64.6699C265.283 64.4059 265.635 64.2052 266.016 64.0798C266.397 63.9544 266.8 63.9068 267.2 63.9399C268.98 63.9399 269.86 64.7899 269.86 66.4799V72.0299L268.68 71.9999ZM268.68 68.4099H268.02C267.466 68.4011 266.916 68.5137 266.41 68.7399C266.125 68.8314 265.875 69.0097 265.696 69.2499C265.516 69.4901 265.417 69.7802 265.41 70.0799C265.402 70.2383 265.428 70.3966 265.484 70.5447C265.541 70.6928 265.628 70.8274 265.74 70.9399C265.953 71.1331 266.233 71.237 266.52 71.2299C266.888 71.2317 267.249 71.1275 267.56 70.9299C267.906 70.716 268.178 70.4021 268.34 70.0299C268.555 69.5173 268.66 68.9655 268.65 68.4099H268.68Z" fill="#F2F2F2"/>
<path fill-rule="evenodd" clip-rule="evenodd" d="M272.42 72V64.09H273.56V65.93C273.678 65.3628 273.988 64.8538 274.438 64.4893C274.888 64.1248 275.451 63.9272 276.03 63.93C276.323 63.9189 276.613 63.9786 276.878 64.1039C277.143 64.2293 277.373 64.4166 277.55 64.65C277.905 65.1516 278.084 65.7562 278.06 66.37V72.02H276.93V67.61C276.957 67.0061 276.907 66.4012 276.78 65.81C276.729 65.5844 276.602 65.3834 276.419 65.2412C276.237 65.099 276.011 65.0244 275.78 65.03C275.09 65.03 274.53 65.48 274.1 66.35C273.723 67.0901 273.527 67.9094 273.53 68.74V72H272.42Z" fill="#F2F2F2"/>
<path fill-rule="evenodd" clip-rule="evenodd" d="M280.72 72V60.54H281.85V65.93C281.967 65.3629 282.278 64.8538 282.728 64.4893C283.178 64.1248 283.74 63.9272 284.32 63.93C284.612 63.9181 284.904 63.9774 285.168 64.1028C285.433 64.2282 285.664 64.416 285.84 64.65C286.194 65.1516 286.374 65.7562 286.35 66.37V72.02H285.26V67.61C285.281 67.0062 285.231 66.4019 285.11 65.81C285.059 65.5845 284.932 65.3834 284.749 65.2412C284.567 65.099 284.341 65.0244 284.11 65.03C283.42 65.03 282.86 65.48 282.42 66.35C282.05 67.0925 281.859 67.9107 281.86 68.74V72H280.72Z" fill="#F2F2F2"/>
<path fill-rule="evenodd" clip-rule="evenodd" d="M292.97 71.9999V70.9299C292.788 71.2364 292.534 71.4938 292.23 71.6799C291.73 72.003 291.145 72.1701 290.55 72.1599C290.264 72.1752 289.978 72.1316 289.71 72.0318C289.442 71.9321 289.197 71.7782 288.99 71.5799C288.792 71.3597 288.639 71.1022 288.541 70.8223C288.443 70.5424 288.402 70.2458 288.42 69.9499C288.43 69.5294 288.566 69.1217 288.81 68.7794C289.054 68.437 289.396 68.1759 289.79 68.0299C290.537 67.6638 291.359 67.4788 292.19 67.4899C292.45 67.5102 292.711 67.5102 292.97 67.4899C292.989 66.9893 292.972 66.4881 292.92 65.9899C292.875 65.6522 292.699 65.346 292.429 65.1381C292.159 64.9301 291.818 64.8373 291.48 64.8799C290.48 64.8799 289.98 65.2999 289.87 66.1499H288.56C288.556 65.8737 288.609 65.5997 288.715 65.345C288.822 65.0902 288.98 64.8604 289.18 64.6699C289.483 64.4059 289.835 64.2052 290.216 64.0798C290.598 63.9544 291 63.9068 291.4 63.9399C293.17 63.9399 294.05 64.7899 294.05 66.4799V72.0299L292.97 71.9999ZM292.97 68.4099H292.31C291.756 68.4021 291.207 68.5147 290.7 68.7399C290.416 68.8339 290.168 69.0129 289.989 69.2525C289.811 69.4922 289.71 69.781 289.7 70.0799C289.689 70.2304 289.709 70.3816 289.761 70.5236C289.812 70.6656 289.892 70.7952 289.997 70.9038C290.102 71.0124 290.229 71.0976 290.369 71.1538C290.509 71.21 290.659 71.2359 290.81 71.2299C291.201 71.2165 291.58 71.0943 291.905 70.8769C292.23 70.6596 292.488 70.3559 292.65 69.9999C292.854 69.4951 292.953 68.9541 292.94 68.4099H292.97Z" fill="#F2F2F2"/>
<path fill-rule="evenodd" clip-rule="evenodd" d="M196.01 54.6399V55.9799C195.44 56.2199 195.09 56.3599 194.95 56.3999C194.3 56.5858 193.626 56.6734 192.95 56.6599C192.236 56.6956 191.528 56.5262 190.907 56.1718C190.287 55.8174 189.781 55.2927 189.45 54.6599C188.803 53.3893 188.494 51.9743 188.55 50.5499C188.471 49.155 188.793 47.7668 189.48 46.5499C189.836 45.9808 190.338 45.5181 190.935 45.2101C191.531 44.9022 192.2 44.7605 192.87 44.7999C193.353 44.7791 193.836 44.8571 194.288 45.029C194.74 45.201 195.152 45.4633 195.5 45.7999C195.805 46.1081 196.045 46.4756 196.203 46.8797C196.361 47.2839 196.435 47.7161 196.42 48.1499H194.96C194.99 47.5717 194.792 47.0047 194.41 46.5699C194.218 46.3536 193.98 46.183 193.713 46.0705C193.447 45.9581 193.159 45.9066 192.87 45.9199C190.93 45.9199 189.97 47.4899 189.97 50.6099C189.928 51.7103 190.129 52.8064 190.56 53.8199C190.774 54.3583 191.149 54.8174 191.634 55.1343C192.119 55.4511 192.691 55.6103 193.27 55.5899C194.265 55.5952 195.232 55.2599 196.01 54.6399Z" fill="#F2F2F2"/>
<path fill-rule="evenodd" clip-rule="evenodd" d="M198.56 47.2L200.01 44.98H201.25L202.71 47.2H201.69L200.65 45.82L199.57 47.2H198.56Z" fill="#F2F2F2"/>
<path fill-rule="evenodd" clip-rule="evenodd" d="M202.25 56.4802V55.4802C202.068 55.7923 201.81 56.0536 201.5 56.2402C200.999 56.5598 200.415 56.7234 199.82 56.7102C199.536 56.7253 199.252 56.6816 198.985 56.5818C198.718 56.482 198.475 56.3282 198.27 56.1302C198.072 55.91 197.919 55.6524 197.821 55.3726C197.723 55.0927 197.682 54.7961 197.7 54.5002C197.712 54.0801 197.848 53.6729 198.092 53.3309C198.336 52.9888 198.677 52.7274 199.07 52.5802C199.817 52.2141 200.639 52.0291 201.47 52.0402C201.73 52.0596 201.991 52.0596 202.25 52.0402C202.28 51.5373 202.28 51.033 202.25 50.5302C202.228 50.362 202.173 50.1999 202.088 50.053C202.003 49.9062 201.89 49.7775 201.756 49.6744C201.621 49.5713 201.467 49.4958 201.303 49.4522C201.139 49.4085 200.969 49.3977 200.8 49.4202C200.611 49.3922 200.417 49.4033 200.231 49.4528C200.046 49.5023 199.872 49.5891 199.722 49.7081C199.571 49.827 199.446 49.9754 199.355 50.1443C199.263 50.3132 199.207 50.4989 199.19 50.6902H197.86C197.855 50.4148 197.906 50.1411 198.011 49.8865C198.116 49.6318 198.272 49.4015 198.47 49.2102C199.089 48.684 199.89 48.4219 200.7 48.4802C202.46 48.4802 203.34 49.3302 203.34 51.0202V56.5702L202.25 56.4802ZM202.25 52.9002H201.56C201.009 52.8922 200.463 53.0048 199.96 53.2302C199.676 53.323 199.427 53.5016 199.248 53.7415C199.069 53.9814 198.968 54.2709 198.96 54.5702C198.954 54.7284 198.981 54.8862 199.037 55.034C199.094 55.1818 199.18 55.3166 199.29 55.4302C199.504 55.6234 199.783 55.7273 200.07 55.7202C200.449 55.7169 200.817 55.6021 201.13 55.3902C201.476 55.1763 201.748 54.8624 201.91 54.4902C202.117 53.9962 202.223 53.4657 202.22 52.9302L202.25 52.9002Z" fill="#F2F2F2"/>
<path fill-rule="evenodd" clip-rule="evenodd" d="M205.98 56.4799V48.5699H207.1V50.3999C207.48 49.0666 208.22 48.3999 209.32 48.3999C209.575 48.3647 209.834 48.3857 210.08 48.4614C210.326 48.5372 210.552 48.6658 210.743 48.8383C210.933 49.0109 211.084 49.2231 211.184 49.4601C211.284 49.697 211.33 49.953 211.32 50.2099C211.459 49.7919 211.688 49.4096 211.99 49.0899C212.185 48.8657 212.426 48.6874 212.698 48.5681C212.969 48.4488 213.264 48.3913 213.56 48.3999C213.854 48.3908 214.145 48.4524 214.41 48.5794C214.674 48.7065 214.904 48.8953 215.08 49.1299C215.437 49.6308 215.616 50.2359 215.59 50.8499V56.4899H214.45V52.0999C214.476 51.4936 214.432 50.8864 214.32 50.2899C214.268 50.0662 214.139 49.8675 213.957 49.7272C213.775 49.587 213.55 49.5138 213.32 49.5199C212.72 49.5199 212.22 49.9599 211.84 50.8399C211.512 51.5936 211.345 52.4078 211.35 53.2299V56.4799H210.22V52.0999C210.248 51.496 210.198 50.8909 210.07 50.2999C210.02 50.0743 209.892 49.8733 209.71 49.7311C209.528 49.5889 209.302 49.5143 209.07 49.5199C208.47 49.5199 207.97 49.9599 207.58 50.8399C207.252 51.5936 207.085 52.4078 207.09 53.2299V56.4799H205.98Z" fill="#F2F2F2"/>
<path fill-rule="evenodd" clip-rule="evenodd" d="M222.25 56.4798V55.4798C222.076 55.7951 221.82 56.0577 221.51 56.2398C221.009 56.5594 220.424 56.723 219.83 56.7098C219.544 56.724 219.259 56.6798 218.99 56.5801C218.722 56.4804 218.477 56.3272 218.27 56.1298C218.073 55.9089 217.922 55.6509 217.826 55.3711C217.73 55.0913 217.69 54.7951 217.71 54.4998C217.72 54.0794 217.856 53.6716 218.1 53.3293C218.344 52.987 218.686 52.7259 219.08 52.5798C219.826 52.2116 220.648 52.0264 221.48 52.0398C221.736 52.0596 221.994 52.0596 222.25 52.0398C222.277 51.5368 222.277 51.0328 222.25 50.5298C222.203 50.1913 222.024 49.8851 221.753 49.6774C221.481 49.4696 221.139 49.3771 220.8 49.4198C220.61 49.3903 220.416 49.4003 220.229 49.4492C220.043 49.4982 219.869 49.5849 219.718 49.7041C219.567 49.8233 219.442 49.9723 219.351 50.1419C219.26 50.3115 219.206 50.498 219.19 50.6898H217.93C217.925 50.4137 217.978 50.1396 218.085 49.8849C218.192 49.6302 218.35 49.4003 218.55 49.2098C219.165 48.6833 219.963 48.421 220.77 48.4798C222.54 48.4798 223.42 49.3298 223.42 51.0198V56.5698L222.25 56.4798ZM222.25 52.8998H221.56C221.006 52.892 220.456 53.0046 219.95 53.2298C219.665 53.3226 219.416 53.5012 219.237 53.7412C219.058 53.9811 218.958 54.2705 218.95 54.5698C218.946 54.7287 218.974 54.8867 219.032 55.0345C219.091 55.1823 219.178 55.3167 219.29 55.4298C219.5 55.6207 219.776 55.7243 220.06 55.7198C220.452 55.7083 220.834 55.5869 221.161 55.3695C221.488 55.1521 221.747 54.8473 221.91 54.4898C222.113 53.9951 222.215 53.4646 222.21 52.9298L222.25 52.8998Z" fill="#F2F2F2"/>
<path fill-rule="evenodd" clip-rule="evenodd" d="M225.99 56.4801V48.5701H227.11V50.1101C227.31 49.5778 227.675 49.1236 228.152 48.814C228.629 48.5045 229.193 48.3559 229.76 48.3901V49.6001C229.369 49.5829 228.981 49.6657 228.631 49.8407C228.281 50.0156 227.981 50.277 227.76 50.6001C227.272 51.376 227.038 52.2848 227.09 53.2001V56.4701L225.99 56.4801Z" fill="#F2F2F2"/>
<path fill-rule="evenodd" clip-rule="evenodd" d="M235.16 56.4801V55.4801C234.981 55.7918 234.726 56.0532 234.42 56.2401C233.919 56.5597 233.334 56.7233 232.74 56.7101C232.454 56.7254 232.168 56.6818 231.899 56.5821C231.631 56.4823 231.386 56.3285 231.18 56.1301C230.981 55.9099 230.828 55.6524 230.73 55.3725C230.633 55.0926 230.592 54.796 230.61 54.5001C230.621 54.08 230.757 53.6729 231.001 53.3308C231.245 52.9887 231.586 52.7273 231.98 52.5801C232.726 52.214 233.548 52.029 234.38 52.0401C234.639 52.0596 234.9 52.0596 235.16 52.0401C235.195 51.5374 235.195 51.0328 235.16 50.5301C235.115 50.1924 234.938 49.8862 234.668 49.6783C234.399 49.4703 234.058 49.3775 233.72 49.4201C233.529 49.3906 233.335 49.4006 233.149 49.4495C232.963 49.4984 232.789 49.5852 232.638 49.7044C232.487 49.8235 232.362 49.9726 232.271 50.1422C232.18 50.3118 232.125 50.4983 232.11 50.6901H230.85C230.845 50.414 230.898 50.1399 231.005 49.8852C231.111 49.6305 231.27 49.4006 231.47 49.2101C232.084 48.6826 232.882 48.4201 233.69 48.4801C235.45 48.4801 236.34 49.3301 236.34 51.0201V56.5701L235.16 56.4801ZM235.16 52.9001H234.5C233.945 52.8913 233.396 53.004 232.89 53.2301C232.605 53.3229 232.356 53.5015 232.177 53.7414C231.998 53.9814 231.898 54.2708 231.89 54.5701C231.884 54.7283 231.91 54.8861 231.966 55.0339C232.023 55.1818 232.109 55.3165 232.22 55.4301C232.433 55.6233 232.712 55.7272 233 55.7201C233.39 55.7067 233.77 55.5845 234.095 55.3672C234.42 55.1498 234.678 54.8461 234.84 54.4901C235.04 53.9947 235.138 53.4642 235.13 52.9301L235.16 52.9001Z" fill="#F2F2F2"/>
<path fill-rule="evenodd" clip-rule="evenodd" d="M247.41 56.4798V55.1298C247.3 55.5117 247.089 55.8571 246.8 56.1298C246.607 56.3134 246.379 56.4566 246.13 56.551C245.881 56.6455 245.616 56.6893 245.35 56.6798C243.55 56.6798 242.65 55.3298 242.65 52.6098C242.608 51.6073 242.817 50.6102 243.26 49.7098C243.446 49.3166 243.74 48.9851 244.109 48.7547C244.478 48.5242 244.905 48.4045 245.34 48.4098C245.803 48.3779 246.263 48.5081 246.641 48.7781C247.018 49.0482 247.29 49.4412 247.41 49.8898V45.0298H248.56V56.4798H247.41ZM243.91 52.8098C243.91 54.7498 244.46 55.7198 245.56 55.7198C245.874 55.7013 246.176 55.5896 246.428 55.3991C246.679 55.2086 246.867 54.9478 246.97 54.6498C247.277 53.9967 247.427 53.2812 247.41 52.5598C247.441 51.7772 247.283 50.9986 246.95 50.2898C246.849 50.0066 246.665 49.7602 246.423 49.582C246.18 49.4038 245.89 49.3021 245.59 49.2898C244.47 49.3165 243.91 50.4898 243.91 52.8098Z" fill="#F2F2F2"/>
<path fill-rule="evenodd" clip-rule="evenodd" d="M256.32 55.4998V56.4298C255.729 56.5984 255.115 56.676 254.5 56.6598C253.976 56.6952 253.45 56.614 252.961 56.4221C252.472 56.2302 252.031 55.9323 251.67 55.5498C250.936 54.6175 250.579 53.4431 250.67 52.2598C250.608 51.262 250.875 50.2714 251.43 49.4398C251.709 49.0971 252.066 48.8271 252.472 48.6529C252.878 48.4788 253.32 48.4056 253.76 48.4398C254.149 48.4175 254.538 48.4832 254.899 48.6321C255.259 48.781 255.581 49.0092 255.84 49.2998C256.317 49.9081 256.559 50.6679 256.52 51.4398V51.8198H251.97V52.2898C251.954 53.056 252.144 53.8124 252.52 54.4798C252.738 54.8854 253.065 55.2215 253.465 55.4497C253.865 55.6778 254.32 55.7888 254.78 55.7698C255.302 55.7331 255.818 55.6426 256.32 55.4998ZM252.03 50.8398H255.2C255.2 50.4968 255.087 50.1634 254.88 49.8898C254.742 49.7068 254.562 49.5602 254.355 49.4626C254.147 49.365 253.919 49.3195 253.69 49.3298C253.27 49.3108 252.86 49.459 252.548 49.742C252.237 50.025 252.051 50.4198 252.03 50.8398Z" fill="#F2F2F2"/>
<path fill-rule="evenodd" clip-rule="evenodd" d="M269.81 54.6401V55.9801C269.24 56.2201 268.88 56.3601 268.75 56.4001C268.1 56.586 267.426 56.6736 266.75 56.6601C266.036 56.6958 265.327 56.5264 264.707 56.172C264.087 55.8175 263.581 55.2929 263.25 54.6601C262.603 53.3895 262.293 51.9745 262.35 50.5501C262.27 49.1552 262.593 47.7669 263.28 46.5501C263.636 45.9817 264.139 45.5196 264.735 45.2117C265.332 44.9039 266 44.7618 266.67 44.8001C267.154 44.7803 267.638 44.8586 268.092 45.0305C268.545 45.2023 268.96 45.4641 269.31 45.8001C269.614 46.1087 269.852 46.4765 270.008 46.8807C270.165 47.2849 270.237 47.7169 270.22 48.1501H268.76C268.788 47.5738 268.595 47.0085 268.22 46.5701C268.024 46.3557 267.784 46.1866 267.516 46.0743C267.249 45.9621 266.96 45.9094 266.67 45.9201C264.74 45.9201 263.77 47.4901 263.77 50.6101C263.733 51.7101 263.934 52.805 264.36 53.8201C264.574 54.3585 264.949 54.8176 265.434 55.1344C265.919 55.4513 266.491 55.6104 267.07 55.5901C268.064 55.5937 269.031 55.2587 269.81 54.6401Z" fill="#F2F2F2"/>
<path fill-rule="evenodd" clip-rule="evenodd" d="M274.44 56.6602C273.955 56.6915 273.471 56.5975 273.033 56.3874C272.595 56.1772 272.219 55.8579 271.94 55.4602C271.404 54.5878 271.15 53.572 271.21 52.5502C271.152 51.5159 271.406 50.4882 271.94 49.6002C272.239 49.2233 272.619 48.9189 273.051 48.7096C273.484 48.5003 273.959 48.3916 274.44 48.3916C274.921 48.3916 275.395 48.5003 275.828 48.7096C276.261 48.9189 276.641 49.2233 276.94 49.6002C277.481 50.4851 277.74 51.5144 277.68 52.5502C277.742 53.5735 277.483 54.5907 276.94 55.4602C276.66 55.8572 276.284 56.176 275.846 56.386C275.409 56.5961 274.924 56.6905 274.44 56.6602ZM272.5 52.5302C272.5 54.6602 273.15 55.7202 274.44 55.7202C275.73 55.7202 276.39 54.6602 276.39 52.5302C276.39 50.4002 275.74 49.3302 274.44 49.3302C273.14 49.3302 272.5 50.4002 272.5 52.5302Z" fill="#F2F2F2"/>
<path fill-rule="evenodd" clip-rule="evenodd" d="M279.74 56.4799V48.5699H280.87V50.3999C281.25 49.0599 282 48.3999 283.09 48.3999C283.345 48.3647 283.604 48.3857 283.85 48.4614C284.096 48.5372 284.322 48.6658 284.512 48.8383C284.703 49.0109 284.854 49.2231 284.953 49.4601C285.053 49.697 285.1 49.953 285.09 50.2099C285.229 49.7919 285.457 49.4096 285.76 49.0899C285.957 48.8689 286.199 48.6928 286.47 48.5738C286.741 48.4547 287.034 48.3954 287.33 48.3999C287.624 48.3891 287.916 48.4499 288.18 48.5771C288.445 48.7043 288.675 48.894 288.85 49.1299C289.206 49.6308 289.386 50.2359 289.36 50.8499V56.4899H288.23V52.0999C288.254 51.4932 288.207 50.8857 288.09 50.2899C288.037 50.0662 287.909 49.8675 287.727 49.7272C287.545 49.587 287.32 49.5138 287.09 49.5199C286.48 49.5199 285.99 49.9599 285.6 50.8399C285.272 51.5936 285.105 52.4078 285.11 53.2299V56.4799H283.98V52.0999C284.008 51.496 283.958 50.8909 283.83 50.2999C283.779 50.0743 283.652 49.8733 283.47 49.7311C283.287 49.5889 283.061 49.5143 282.83 49.5199C282.23 49.5199 281.74 49.9599 281.35 50.8399C281.014 51.5913 280.843 52.4065 280.85 53.2299V56.4799H279.74Z" fill="#F2F2F2"/>
<path fill-rule="evenodd" clip-rule="evenodd" d="M297.2 55.5002V56.4302C296.612 56.5987 296.001 56.6763 295.39 56.6602C294.866 56.6942 294.34 56.6123 293.851 56.4205C293.362 56.2287 292.921 55.9315 292.56 55.5502C291.826 54.6178 291.469 53.4435 291.56 52.2602C291.502 51.2628 291.769 50.2736 292.32 49.4402C292.601 49.0974 292.96 48.8274 293.367 48.6533C293.775 48.4792 294.218 48.4061 294.66 48.4402C295.047 48.4194 295.434 48.4858 295.793 48.6347C296.151 48.7835 296.471 49.011 296.73 49.3002C297.211 49.9062 297.453 50.6677 297.41 51.4402V51.8202H292.86V52.2902C292.848 53.0558 293.038 53.811 293.41 54.4802C293.627 54.8858 293.955 55.2219 294.354 55.4501C294.754 55.6782 295.21 55.7892 295.67 55.7702C296.188 55.7328 296.7 55.6423 297.2 55.5002ZM292.91 50.8402H296.09C296.086 50.4962 295.97 50.1628 295.76 49.8902C295.623 49.7037 295.441 49.5547 295.231 49.4569C295.022 49.359 294.791 49.3155 294.56 49.3302C294.143 49.3191 293.738 49.4702 293.43 49.7519C293.122 50.0336 292.936 50.4238 292.91 50.8402ZM294.06 47.1902L294.76 44.9702H296.22L295.11 47.1902H294.06Z" fill="#F2F2F2"/>
<path fill-rule="evenodd" clip-rule="evenodd" d="M299.44 56.48V48.57H300.56V50.11C300.76 49.5794 301.123 49.1264 301.598 48.817C302.073 48.5076 302.635 48.358 303.2 48.39V49.6C302.81 49.5837 302.421 49.667 302.071 49.8419C301.722 50.0168 301.422 50.2776 301.2 50.6C300.721 51.3791 300.49 52.2863 300.54 53.2V56.47L299.44 56.48Z" fill="#F2F2F2"/>
<path fill-rule="evenodd" clip-rule="evenodd" d="M309.82 55.5499V56.4399C309.284 56.5959 308.728 56.6701 308.17 56.6599C307.622 56.6939 307.073 56.6146 306.557 56.4271C306.041 56.2396 305.569 55.9478 305.17 55.5699C304.785 55.13 304.491 54.6179 304.306 54.0633C304.12 53.5088 304.047 52.923 304.09 52.3399C304.09 49.7132 305.163 48.3965 307.31 48.3899C307.705 48.3591 308.102 48.4168 308.473 48.5586C308.843 48.7004 309.177 48.9229 309.45 49.2099C309.84 49.7151 310.039 50.3422 310.01 50.9799H308.67C308.67 49.8899 308.19 49.3299 307.25 49.3299C306.942 49.3282 306.64 49.4161 306.38 49.583C306.121 49.7499 305.916 49.9885 305.79 50.2699C305.502 50.8358 305.361 51.4651 305.38 52.0999C305.345 52.9301 305.55 53.7529 305.97 54.4699C306.247 54.8946 306.634 55.2355 307.091 55.4558C307.547 55.6761 308.055 55.7674 308.56 55.7199C308.986 55.7308 309.412 55.6734 309.82 55.5499Z" fill="#F2F2F2"/>
<path fill-rule="evenodd" clip-rule="evenodd" d="M311.84 56.4798V48.5698H312.97V56.4798H311.84ZM311.66 46.4798V45.0298H313.16V46.5098L311.66 46.4798Z" fill="#F2F2F2"/>
<path fill-rule="evenodd" clip-rule="evenodd" d="M318.41 56.6598C317.926 56.6913 317.443 56.5974 317.007 56.3872C316.571 56.1769 316.196 55.8575 315.92 55.4598C315.381 54.5886 315.122 53.5727 315.18 52.5498C315.125 51.5145 315.383 50.4867 315.92 49.5998C316.197 49.2025 316.571 48.8827 317.007 48.6709C317.443 48.4591 317.926 48.3623 318.41 48.3898C318.896 48.3636 319.381 48.4608 319.82 48.6723C320.259 48.8839 320.637 49.2029 320.92 49.5998C321.457 50.4867 321.714 51.5145 321.66 52.5498C321.717 53.5727 321.459 54.5886 320.92 55.4598C320.639 55.8577 320.26 56.1768 319.821 56.3869C319.382 56.597 318.896 56.6909 318.41 56.6598ZM316.48 52.5298C316.48 54.6598 317.12 55.7198 318.41 55.7198C319.7 55.7198 320.36 54.6598 320.36 52.5298C320.36 50.3998 319.71 49.3298 318.41 49.3298C317.11 49.3298 316.48 50.3998 316.48 52.5298Z" fill="#F2F2F2"/>
<path fill-rule="evenodd" clip-rule="evenodd" d="M333.16 55.4998V56.4298C332.571 56.5983 331.961 56.6759 331.35 56.6598C330.832 56.6879 330.314 56.6031 329.833 56.4115C329.351 56.2198 328.917 55.9258 328.56 55.5498C327.83 54.6152 327.473 53.4426 327.56 52.2598C327.5 51.2636 327.763 50.2747 328.31 49.4398C328.59 49.097 328.95 48.827 329.357 48.6529C329.764 48.4788 330.208 48.4057 330.65 48.4398C331.037 48.4168 331.425 48.4822 331.784 48.6312C332.142 48.7802 332.462 49.0089 332.72 49.2998C333.201 49.9059 333.443 50.6673 333.4 51.4398V51.8198H328.85V52.2898C328.836 53.0569 329.03 53.8134 329.41 54.4798C329.623 54.8614 329.935 55.1781 330.313 55.3964C330.692 55.6148 331.123 55.7265 331.56 55.7198C332.099 55.7036 332.636 55.6299 333.16 55.4998ZM328.88 50.8398H332.05C332.051 50.4949 331.934 50.1599 331.72 49.8898C331.586 49.7092 331.411 49.5638 331.209 49.4662C331.007 49.3686 330.784 49.3218 330.56 49.3298C330.35 49.3177 330.14 49.3472 329.942 49.4167C329.743 49.4862 329.561 49.5942 329.405 49.7346C329.249 49.875 329.122 50.045 329.032 50.2347C328.941 50.4244 328.89 50.63 328.88 50.8398Z" fill="#F2F2F2"/>
<path d="M341.17 45.0298H339.87V56.4798H341.17V45.0298Z" fill="#F2F2F2"/>
<path fill-rule="evenodd" clip-rule="evenodd" d="M344 56.4798V48.5698H345.12V50.3998C345.238 49.8326 345.548 49.3236 345.998 48.9591C346.448 48.5946 347.011 48.397 347.59 48.3998C347.883 48.3907 348.175 48.4523 348.439 48.5793C348.704 48.7064 348.934 48.8952 349.11 49.1298C349.466 49.6307 349.646 50.2358 349.62 50.8498V56.4898H348.56V52.0998C348.588 51.4958 348.538 50.8908 348.41 50.2998C348.359 50.0742 348.232 49.8732 348.049 49.731C347.867 49.5888 347.641 49.5142 347.41 49.5198C346.73 49.5198 346.16 49.9598 345.73 50.8398C345.351 51.5791 345.155 52.3989 345.16 53.2298V56.4798H344Z" fill="#F2F2F2"/>
<path fill-rule="evenodd" clip-rule="evenodd" d="M356.56 56.4798V55.1298C356.454 55.5136 356.243 55.86 355.95 56.1298C355.757 56.3134 355.53 56.4566 355.281 56.551C355.032 56.6455 354.766 56.6893 354.5 56.6798C352.7 56.6798 351.8 55.3298 351.8 52.6098C351.758 51.6073 351.968 50.6102 352.41 49.7098C352.596 49.3166 352.891 48.9851 353.26 48.7547C353.628 48.5242 354.055 48.4045 354.49 48.4098C354.953 48.3779 355.413 48.5081 355.791 48.7781C356.169 49.0482 356.441 49.4412 356.56 49.8898V45.0298H357.68V56.4798H356.56ZM353.05 52.8098C353.05 54.7498 353.61 55.7198 354.7 55.7198C355.016 55.7039 355.319 55.5933 355.57 55.4024C355.822 55.2115 356.01 54.9492 356.11 54.6498C356.42 53.9974 356.574 53.2819 356.56 52.5598C356.587 51.7775 356.429 51 356.1 50.2898C355.996 50.0066 355.81 49.7605 355.567 49.5826C355.323 49.4046 355.032 49.3028 354.73 49.2898C353.56 49.3298 353.01 50.4898 353.01 52.8098H353.05Z" fill="#F2F2F2"/>
<path fill-rule="evenodd" clip-rule="evenodd" d="M364.74 56.4802V54.6602C364.633 55.231 364.328 55.7455 363.877 56.1118C363.427 56.4781 362.861 56.6724 362.28 56.6602C361.986 56.6737 361.693 56.614 361.428 56.4866C361.163 56.3592 360.933 56.1681 360.76 55.9302C360.407 55.4322 360.231 54.8301 360.26 54.2202V48.5702H361.38V52.9302C361.353 53.5342 361.403 54.1391 361.53 54.7302C361.583 54.9539 361.711 55.1527 361.893 55.2929C362.075 55.4331 362.3 55.5064 362.53 55.5002C363.21 55.5002 363.77 55.0602 364.21 54.1902C364.577 53.4474 364.766 52.6289 364.76 51.8002V48.5702H365.88V56.4802H364.74ZM362.56 47.1902L363.26 44.9702H364.72L363.61 47.1902H362.56Z" fill="#F2F2F2"/>
<path fill-rule="evenodd" clip-rule="evenodd" d="M370.47 51.6099L371.13 52.0099C371.554 52.2487 371.962 52.516 372.35 52.8099C372.555 52.9948 372.717 53.222 372.826 53.4757C372.935 53.7295 372.987 54.0039 372.98 54.2799C372.98 55.8699 371.98 56.6599 370.03 56.6599C369.301 56.6658 368.576 56.5578 367.88 56.3399V55.3399C368.521 55.5813 369.196 55.7229 369.88 55.7599C371.16 55.7599 371.8 55.3299 371.8 54.4699C371.793 54.285 371.741 54.1047 371.649 53.9444C371.556 53.7841 371.426 53.6487 371.27 53.5499C371.19 53.4899 370.89 53.3299 370.38 53.0499L369.67 52.6699C369.276 52.4603 368.905 52.2125 368.56 51.9299C368.361 51.756 368.202 51.5405 368.095 51.2986C367.987 51.0568 367.935 50.7943 367.94 50.5299C367.926 50.2375 367.983 49.9462 368.105 49.6802C368.227 49.4141 368.41 49.1808 368.64 48.9999C369.222 48.5867 369.928 48.3855 370.64 48.4299C371.267 48.4537 371.89 48.5408 372.5 48.6899V49.7399C371.91 49.5077 371.284 49.3824 370.65 49.3699C370.244 49.3571 369.844 49.465 369.5 49.6799C369.371 49.7527 369.264 49.857 369.187 49.9829C369.11 50.1089 369.066 50.2524 369.06 50.3999C369.071 50.555 369.121 50.7048 369.207 50.8345C369.293 50.9641 369.411 51.0694 369.55 51.1399L370.47 51.6099Z" fill="#F2F2F2"/>
<path fill-rule="evenodd" clip-rule="evenodd" d="M378.48 55.56V56.56C378.15 56.613 377.815 56.6398 377.48 56.64C376.874 56.697 376.268 56.5258 375.78 56.16C375.598 55.9462 375.459 55.6981 375.373 55.4303C375.288 55.1624 375.256 54.8802 375.28 54.6V49.5H373.99V48.5H375.28V46.73L376.42 46.02V48.57H378.56V49.57H376.44V54.44C376.413 54.6175 376.426 54.799 376.481 54.9702C376.535 55.1414 376.629 55.2977 376.754 55.4266C376.879 55.5556 377.032 55.6537 377.202 55.7133C377.371 55.7729 377.552 55.7923 377.73 55.77C377.99 55.7432 378.244 55.6721 378.48 55.56Z" fill="#F2F2F2"/>
<path fill-rule="evenodd" clip-rule="evenodd" d="M380.27 56.4799V48.5699H381.4V50.1099C381.598 49.5784 381.961 49.1245 382.436 48.8149C382.911 48.5053 383.473 48.3563 384.04 48.3899V49.5999C383.649 49.5836 383.26 49.6669 382.91 49.8418C382.561 50.0167 382.261 50.2775 382.04 50.5999C381.56 51.3791 381.329 52.2862 381.38 53.1999V56.4699L380.27 56.4799Z" fill="#F2F2F2"/>
<path fill-rule="evenodd" clip-rule="evenodd" d="M385.56 56.4798V48.5698H386.69V56.4798H385.56ZM385.39 46.4798V45.0298H386.88V46.5098L385.39 46.4798Z" fill="#F2F2F2"/>
<path fill-rule="evenodd" clip-rule="evenodd" d="M393.45 56.4801V55.4801C393.276 55.7954 393.02 56.058 392.71 56.2401C392.209 56.5597 391.624 56.7233 391.03 56.7101C390.744 56.7266 390.457 56.6836 390.189 56.5838C389.92 56.4839 389.675 56.3295 389.47 56.1301C389.271 55.9099 389.118 55.6524 389.02 55.3725C388.923 55.0926 388.882 54.796 388.9 54.5001C388.911 54.08 389.047 53.6729 389.291 53.3308C389.535 52.9887 389.876 52.7273 390.27 52.5801C391.016 52.214 391.838 52.029 392.67 52.0401C392.929 52.0596 393.19 52.0596 393.45 52.0401C393.469 51.5362 393.452 51.0316 393.4 50.5301C393.355 50.1924 393.178 49.8862 392.908 49.6783C392.639 49.4703 392.298 49.3775 391.96 49.4201C390.96 49.4201 390.46 49.8501 390.35 50.6901H389.06C389.055 50.414 389.108 50.1399 389.215 49.8852C389.321 49.6305 389.48 49.4006 389.68 49.2101C390.294 48.6826 391.092 48.4201 391.9 48.4801C393.66 48.4801 394.55 49.3301 394.55 51.0201V56.5701L393.45 56.4801ZM393.45 52.9001H392.79C392.235 52.8923 391.686 53.0049 391.18 53.2301C390.895 53.3229 390.646 53.5015 390.467 53.7414C390.288 53.9814 390.188 54.2708 390.18 54.5701C390.174 54.7283 390.2 54.8861 390.256 55.0339C390.313 55.1818 390.399 55.3165 390.51 55.4301C390.723 55.6233 391.002 55.7272 391.29 55.7201C391.68 55.7067 392.06 55.5845 392.385 55.3672C392.71 55.1498 392.968 54.8461 393.13 54.4901C393.33 53.9947 393.428 53.4642 393.42 52.9301L393.45 52.9001Z" fill="#F2F2F2"/>
<path d="M190.85 29.5098H188.91V40.9698H190.85V29.5098Z" fill="#F2F2F2"/>
<path fill-rule="evenodd" clip-rule="evenodd" d="M199.56 40.9302V35.4802C199.56 34.1202 198.93 32.8702 197.42 32.8702C196.904 32.8665 196.4 33.026 195.98 33.3259C195.559 33.6258 195.245 34.0508 195.08 34.5402V33.0602H193.24V40.9302H195.08V37.5402C195.08 36.4802 195.61 34.6102 196.94 34.6102C197.128 34.5883 197.318 34.6383 197.47 34.7502C197.79 35.0502 197.75 36.0602 197.75 36.4502V40.9302H199.56Z" fill="#F2F2F2"/>
<path fill-rule="evenodd" clip-rule="evenodd" d="M207.86 40.9298V29.5098H206.01V33.9998C205.813 33.6454 205.522 33.3524 205.169 33.153C204.816 32.9536 204.415 32.8556 204.01 32.8698C201.82 32.8698 201.31 35.2698 201.31 37.0098C201.31 38.7498 201.7 41.1498 204.01 41.1498C204.426 41.1302 204.83 41.0016 205.181 40.777C205.532 40.5524 205.817 40.2395 206.01 39.8698V40.9298H207.86ZM206.01 36.9298C206.01 37.7998 205.8 39.6398 204.62 39.6398C203.44 39.6398 203.26 37.9298 203.26 37.0098C203.26 36.0898 203.26 34.2998 204.62 34.2998C205.98 34.2998 206.01 36.0998 206.01 37.0098V36.9298Z" fill="#F2F2F2"/>
<path fill-rule="evenodd" clip-rule="evenodd" d="M216.43 40.9298V33.0298H214.56V36.4498C214.56 37.5098 214.03 39.3898 212.7 39.3898C212.51 39.4088 212.321 39.3552 212.17 39.2398C211.86 38.9398 211.89 37.9298 211.89 37.5398V33.0598H210.06V38.5398C210.06 39.8998 210.7 41.1498 212.21 41.1498C212.725 41.1488 213.227 40.9889 213.647 40.6917C214.068 40.3946 214.387 39.9748 214.56 39.4898V40.9298H216.43Z" fill="#F2F2F2"/>
<path fill-rule="evenodd" clip-rule="evenodd" d="M223.26 38.7701C223.26 36.5101 219.79 35.9801 219.79 34.9401C219.79 34.4001 220.6 34.2101 221.02 34.2101C221.64 34.2414 222.243 34.4196 222.78 34.7301V33.1701C222.196 32.9911 221.591 32.8902 220.98 32.8701C219.51 32.8701 218.15 33.5601 218.15 35.2001C218.15 37.2901 221.55 38.0801 221.55 39.0001C221.55 39.6401 220.66 39.7201 220.19 39.7201C219.498 39.7004 218.817 39.537 218.19 39.2401V40.8301C218.869 41.0466 219.578 41.1546 220.29 41.1501C221.82 41.1501 223.26 40.5301 223.26 38.7701Z" fill="#F2F2F2"/>
<path fill-rule="evenodd" clip-rule="evenodd" d="M229.75 34.3401V33.0601H227.41V30.0601L225.56 31.1801V33.0601H224.02V34.3401H225.56V38.9301C225.56 40.5801 226.38 41.1101 227.99 41.1101C228.496 41.1081 229.001 41.0613 229.5 40.9701V39.7201C229.222 39.7934 228.937 39.8369 228.65 39.8501C227.51 39.8501 227.41 39.0001 227.41 38.0801V34.3401H229.75Z" fill="#F2F2F2"/>
<path fill-rule="evenodd" clip-rule="evenodd" d="M235.37 34.8002V32.8702C234.826 32.8418 234.286 32.9859 233.828 33.2822C233.37 33.5785 233.018 34.0118 232.82 34.5202V33.0602H230.98V40.9302H232.82V37.4902C232.78 35.6402 233.48 34.8002 235.37 34.8002Z" fill="#F2F2F2"/>
<path fill-rule="evenodd" clip-rule="evenodd" d="M238.74 31.3298V29.5098H236.89V31.3298H238.74ZM238.74 40.9598V33.0598H236.89V40.9298L238.74 40.9598Z" fill="#F2F2F2"/>
<path fill-rule="evenodd" clip-rule="evenodd" d="M247.02 36.5301V36.0801C247.02 34.1601 246.02 32.8701 244.02 32.8701C241.66 32.8701 240.63 34.3501 240.63 36.6001C240.63 39.2001 241.81 41.1501 244.63 41.1501C245.379 41.1589 246.124 41.0509 246.84 40.8301V39.5501C246.357 39.734 245.846 39.8355 245.33 39.8501C244.915 39.8296 244.508 39.7274 244.132 39.5494C243.756 39.3714 243.42 39.121 243.141 38.8126C242.862 38.5042 242.647 38.1438 242.508 37.7521C242.369 37.3605 242.308 36.9452 242.33 36.5301H247.02ZM245.27 35.4201H242.39C242.416 35.0453 242.585 34.6947 242.862 34.4414C243.14 34.1881 243.504 34.0515 243.88 34.0601C244.064 34.0421 244.25 34.0646 244.425 34.1262C244.6 34.1877 244.759 34.2867 244.892 34.4163C245.024 34.5459 245.127 34.7029 245.192 34.8763C245.257 35.0497 245.284 35.2353 245.27 35.4201Z" fill="#F2F2F2"/>
<path d="M254.59 35.79H248.41V37.58H254.59V35.79Z" fill="#F2F2F2"/>
<path fill-rule="evenodd" clip-rule="evenodd" d="M267.73 40.9298V33.0298H265.89V36.4498C265.89 37.5098 265.36 39.3898 264.03 39.3898C263.841 39.4088 263.651 39.3552 263.5 39.2398C263.18 38.9398 263.22 37.9298 263.22 37.5398V33.0598H261.37V38.5398C261.37 39.8998 262.01 41.1498 263.52 41.1498C264.033 41.1468 264.533 40.9858 264.952 40.6889C265.371 40.3919 265.688 39.9732 265.86 39.4898V40.9298H267.73Z" fill="#F2F2F2"/>
<path fill-rule="evenodd" clip-rule="evenodd" d="M276.36 40.9302V35.4802C276.36 34.1202 275.73 32.8702 274.22 32.8702C273.704 32.8665 273.2 33.026 272.78 33.3259C272.359 33.6258 272.045 34.0508 271.88 34.5402V33.0602H270.03V40.9302H271.88V37.5402C271.88 36.4802 272.41 34.6102 273.73 34.6102C273.922 34.5867 274.115 34.6367 274.27 34.7502C274.58 35.0502 274.55 36.0602 274.55 36.4502V40.9302H276.36Z" fill="#F2F2F2"/>
<path fill-rule="evenodd" clip-rule="evenodd" d="M284.69 40.9298V29.5098H282.85V33.9998C282.653 33.6454 282.362 33.3524 282.009 33.153C281.656 32.9536 281.255 32.8556 280.85 32.8698C278.66 32.8698 278.14 35.2698 278.14 37.0098C278.14 38.7498 278.54 41.1498 280.85 41.1498C281.266 41.1302 281.67 41.0016 282.021 40.777C282.372 40.5524 282.658 40.2395 282.85 39.8698V40.9298H284.69ZM282.85 36.9298C282.85 37.7998 282.64 39.6398 281.46 39.6398C280.28 39.6398 280.1 37.8498 280.1 36.9298C280.1 36.0098 280.1 34.2198 281.46 34.2198C282.82 34.2198 282.85 36.0998 282.85 37.0098V36.9298Z" fill="#F2F2F2"/>
<path fill-rule="evenodd" clip-rule="evenodd" d="M299.92 40.9698V29.5098H297.98V34.2598H293.86V29.5098H291.92V40.9698H293.86V35.7398H297.98V40.9698H299.92Z" fill="#F2F2F2"/>
<path fill-rule="evenodd" clip-rule="evenodd" d="M308.07 40.9301V35.3301C308.07 33.5101 306.87 32.8701 305.19 32.8701C303.51 32.8701 302.19 33.5801 302.19 35.3801H303.98C303.96 35.2166 303.978 35.0508 304.032 34.8952C304.086 34.7396 304.175 34.5983 304.291 34.4819C304.408 34.3654 304.549 34.2769 304.705 34.2229C304.86 34.1689 305.026 34.1509 305.19 34.1701C306.11 34.1701 306.31 34.8401 306.31 35.6201V36.4001C304.52 36.4501 301.89 36.7001 301.89 39.0701C301.95 39.5571 302.159 40.0135 302.489 40.3775C302.818 40.7415 303.251 40.9953 303.729 41.1045C304.208 41.2138 304.708 41.1731 305.163 40.988C305.617 40.803 306.004 40.4825 306.27 40.0701V40.9301H308.07ZM306.31 37.4501C306.31 38.4501 305.89 39.8201 304.66 39.8201C304.529 39.8425 304.394 39.8342 304.267 39.7959C304.139 39.7575 304.023 39.6901 303.926 39.599C303.829 39.5079 303.754 39.3956 303.708 39.2709C303.662 39.1461 303.645 39.0124 303.66 38.8801C303.69 37.7101 305.43 37.4801 306.31 37.4801V37.4501Z" fill="#F2F2F2"/>
<path fill-rule="evenodd" clip-rule="evenodd" d="M316.63 40.9302V35.4802C316.63 34.1202 316 32.8702 314.49 32.8702C313.973 32.865 313.468 33.0239 313.048 33.324C312.627 33.6241 312.313 34.05 312.15 34.5402V33.0602H310.31V40.9302H312.15V37.5402C312.15 36.4802 312.69 34.6102 314.02 34.6102C314.207 34.5894 314.396 34.6393 314.55 34.7502C314.86 35.0502 314.83 36.0602 314.83 36.4502V40.9302H316.63Z" fill="#F2F2F2"/>
<path fill-rule="evenodd" clip-rule="evenodd" d="M324.96 40.9298V29.5098H323.12V33.9998C322.923 33.6454 322.632 33.3524 322.279 33.153C321.926 32.9536 321.525 32.8556 321.12 32.8698C318.93 32.8698 318.41 35.2698 318.41 37.0098C318.41 38.7498 318.81 41.1498 321.12 41.1498C321.536 41.1282 321.939 40.9989 322.29 40.7744C322.64 40.55 322.926 40.2383 323.12 39.8698V40.9298H324.96ZM323.12 36.9298C323.12 37.7998 322.91 39.6398 321.73 39.6398C320.55 39.6398 320.36 37.9298 320.36 37.0098C320.36 36.0898 320.36 34.2998 321.73 34.2998C323.1 34.2998 323.12 36.0998 323.12 37.0098V36.9298Z" fill="#F2F2F2"/>
<path fill-rule="evenodd" clip-rule="evenodd" d="M333.1 36.5301V36.0801C333.1 34.1601 332.1 32.8701 330.1 32.8701C327.75 32.8701 326.72 34.3501 326.72 36.6001C326.72 39.2001 327.89 41.1501 330.72 41.1501C331.469 41.1595 332.214 41.0515 332.93 40.8301V39.5501C332.447 39.735 331.936 39.8364 331.42 39.8501C331.005 39.8296 330.598 39.7274 330.222 39.5494C329.846 39.3714 329.51 39.121 329.231 38.8126C328.952 38.5042 328.737 38.1438 328.598 37.7521C328.459 37.3605 328.398 36.9452 328.42 36.5301H333.1ZM331.36 35.4201H328.47C328.498 35.0461 328.668 34.697 328.945 34.4442C329.222 34.1914 329.585 34.054 329.96 34.0601C330.145 34.0423 330.331 34.0649 330.506 34.1264C330.682 34.1878 330.841 34.2867 330.974 34.4161C331.108 34.5455 331.211 34.7023 331.278 34.8757C331.344 35.0491 331.372 35.2348 331.36 35.4201Z" fill="#F2F2F2"/>
<path d="M336.81 29.5098H334.96V40.9698H336.81V29.5098Z" fill="#F2F2F2"/>
<path fill-rule="evenodd" clip-rule="evenodd" d="M343.74 38.7701C343.74 36.5101 340.27 35.9801 340.27 34.9401C340.27 34.4001 341.08 34.2101 341.49 34.2101C342.11 34.2387 342.714 34.4171 343.25 34.7301V33.1701C342.67 32.9903 342.068 32.8894 341.46 32.8701C339.98 32.8701 338.62 33.5601 338.62 35.2001C338.62 37.2901 342.02 38.0801 342.02 39.0001C342.02 39.6401 341.13 39.7201 340.67 39.7201C339.977 39.7004 339.296 39.537 338.67 39.2401V40.8301C339.345 41.0466 340.051 41.1546 340.76 41.1501C342.3 41.1501 343.74 40.5301 343.74 38.7701Z" fill="#F2F2F2"/>
<path fill-rule="evenodd" clip-rule="evenodd" d="M352.16 40.9698L348.97 36.4898L351.89 33.0598H349.68L347.12 36.0898V29.5098H345.28V40.9698H347.12V36.9798H347.16L349.95 40.9698H352.16Z" fill="#F2F2F2"/>
<path fill-rule="evenodd" clip-rule="evenodd" d="M359.07 40.9301V35.3301C359.07 33.5101 357.87 32.8701 356.2 32.8701C354.53 32.8701 353.2 33.5801 353.2 35.3801H355C354.981 35.2166 354.999 35.0508 355.053 34.8952C355.107 34.7396 355.195 34.5983 355.312 34.4819C355.428 34.3654 355.57 34.2769 355.725 34.2229C355.881 34.1689 356.047 34.1509 356.21 34.1701C357.12 34.1701 357.32 34.8401 357.32 35.6201V36.4001C355.53 36.4501 352.91 36.7001 352.91 39.0701C352.971 39.5571 353.18 40.0135 353.509 40.3775C353.838 40.7415 354.271 40.9953 354.75 41.1045C355.228 41.2138 355.729 41.1731 356.183 40.988C356.638 40.803 357.024 40.4825 357.29 40.0701V40.9301H359.07ZM357.31 37.4501C357.31 38.4501 356.9 39.8201 355.67 39.8201C355.539 39.8405 355.406 39.8307 355.279 39.7916C355.153 39.7525 355.037 39.685 354.941 39.5944C354.844 39.5037 354.77 39.3923 354.723 39.2685C354.676 39.1447 354.658 39.0119 354.67 38.8801C354.68 37.7101 356.43 37.4801 357.31 37.4801V37.4501Z" fill="#F2F2F2"/>
<path fill-rule="evenodd" clip-rule="evenodd" d="M371.62 40.9299V35.4799C371.62 34.1199 370.99 32.8699 369.48 32.8699C368.993 32.8819 368.521 33.0386 368.124 33.32C367.727 33.6014 367.423 33.9948 367.25 34.4499C367.17 33.9865 366.921 33.569 366.552 33.2775C366.183 32.9859 365.72 32.8408 365.25 32.8699C364.802 32.8636 364.363 32.9944 363.991 33.2446C363.619 33.4947 363.333 33.8525 363.17 34.2699V33.0599H361.33V40.9299H363.17V37.5399C363.17 36.6299 363.57 34.6099 364.76 34.6099C364.951 34.5884 365.143 34.6382 365.3 34.7499C365.61 35.0499 365.58 36.0599 365.58 36.4499V40.9299H367.42V37.5399C367.42 36.6299 367.82 34.6099 369.01 34.6099C369.198 34.587 369.388 34.6371 369.54 34.7499C369.86 35.0499 369.83 36.0599 369.83 36.4499V40.9299H371.62Z" fill="#F2F2F2"/>
<path fill-rule="evenodd" clip-rule="evenodd" d="M384.22 40.9299V35.4799C384.22 34.1199 383.59 32.8699 382.08 32.8699C381.593 32.8806 381.12 33.0368 380.723 33.3184C380.326 33.5999 380.021 33.994 379.85 34.4499C379.77 33.9865 379.521 33.569 379.152 33.2775C378.783 32.9859 378.319 32.8408 377.85 32.8699C377.401 32.8608 376.961 32.9904 376.589 33.2409C376.216 33.4915 375.93 33.8508 375.77 34.2699V33.0599H373.92V40.9299H375.77V37.5399C375.77 36.6299 376.17 34.6099 377.36 34.6099C377.548 34.587 377.738 34.6371 377.89 34.7499C378.21 35.0499 378.18 36.0599 378.18 36.4499V40.9299H380.02V37.5399C380.02 36.6299 380.42 34.6099 381.61 34.6099C381.798 34.587 381.988 34.6371 382.14 34.7499C382.46 35.0499 382.43 36.0599 382.43 36.4499V40.9299H384.22Z" fill="#F2F2F2"/>
<path fill-rule="evenodd" clip-rule="evenodd" d="M392.38 36.5301V36.0801C392.38 34.1601 391.38 32.8701 389.38 32.8701C387.02 32.8701 385.99 34.3501 385.99 36.6001C385.99 39.2001 387.17 41.1501 389.99 41.1501C390.736 41.1588 391.478 41.0508 392.19 40.8301V39.5501C391.708 39.735 391.197 39.8364 390.68 39.8501C390.265 39.8296 389.858 39.7274 389.482 39.5494C389.107 39.3714 388.77 39.121 388.491 38.8126C388.213 38.5042 387.998 38.1438 387.858 37.7521C387.719 37.3605 387.659 36.9452 387.68 36.5301H392.38ZM390.64 35.4201H387.75C387.778 35.0461 387.948 34.697 388.225 34.4442C388.502 34.1914 388.865 34.054 389.24 34.0601C389.425 34.0423 389.612 34.0649 389.787 34.1264C389.962 34.1878 390.122 34.2867 390.255 34.4161C390.388 34.5455 390.492 34.7023 390.558 34.8757C390.625 35.0491 390.653 35.2348 390.64 35.4201Z" fill="#F2F2F2"/>
<path fill-rule="evenodd" clip-rule="evenodd" d="M398.56 34.8V32.87C398.014 32.8425 397.474 32.9869 397.015 33.2829C396.555 33.5789 396.2 34.0116 396 34.52V33.06H394.16V40.93H396V37.49C395.97 35.64 396.67 34.8 398.56 34.8Z" fill="#F2F2F2"/>
<path fill-rule="evenodd" clip-rule="evenodd" d="M196.84 19.6902C196.84 15.9502 195.84 13.9902 191.84 13.9902H189V25.4702H191.84C192.59 25.4966 193.339 25.4055 194.06 25.2002C196.42 24.4302 196.84 21.9302 196.84 19.6902ZM194.7 19.6902C194.7 20.9402 194.7 22.9902 193.44 23.6902C192.936 23.9449 192.374 24.0654 191.81 24.0402H190.91V15.3702H191.81C194.56 15.3702 194.7 17.5002 194.7 19.6902Z" fill="#F2F2F2"/>
<path fill-rule="evenodd" clip-rule="evenodd" d="M204.62 21.0199V20.5699C204.62 18.6399 203.62 17.3599 201.62 17.3599C199.26 17.3599 198.23 18.8399 198.23 21.0799C198.23 23.6899 199.41 25.6299 202.23 25.6299C202.979 25.6414 203.724 25.5368 204.44 25.3199V24.0399C203.952 24.2159 203.439 24.3138 202.92 24.3299C202.506 24.3107 202.099 24.2097 201.723 24.0327C201.348 23.8557 201.011 23.6062 200.732 23.2986C200.453 22.991 200.238 22.6314 200.099 22.2403C199.96 21.8492 199.899 21.4345 199.92 21.0199H204.62ZM202.88 19.9299H199.99C200.021 19.5568 200.191 19.209 200.468 18.9567C200.744 18.7043 201.106 18.5661 201.48 18.5699C201.665 18.5538 201.851 18.5776 202.025 18.6397C202.2 18.7017 202.359 18.8007 202.492 18.9297C202.624 19.0587 202.728 19.2148 202.795 19.3874C202.862 19.56 202.891 19.745 202.88 19.9299Z" fill="#F2F2F2"/>
<path fill-rule="evenodd" clip-rule="evenodd" d="M212.74 25.4498V17.5498H210.9V20.9298C210.9 21.9998 210.37 23.8798 209.04 23.8798C208.945 23.8894 208.85 23.8802 208.759 23.8528C208.668 23.8253 208.583 23.7801 208.51 23.7198C208.19 23.4298 208.23 22.4098 208.23 22.0298V17.5498H206.38V23.0198C206.38 24.3898 207.01 25.6298 208.52 25.6298C209.04 25.6274 209.546 25.4622 209.968 25.1573C210.389 24.8524 210.705 24.4231 210.87 23.9298V25.4098L212.74 25.4498Z" fill="#F2F2F2"/>
<path fill-rule="evenodd" clip-rule="evenodd" d="M219.93 18.8198V17.5498H217.56V14.5498L215.71 15.6598V17.5398H214.17V18.8098H215.71V23.4498C215.71 25.0898 216.53 25.6198 218.14 25.6198C218.646 25.6163 219.151 25.5728 219.65 25.4898V24.1898C219.373 24.2672 219.087 24.3109 218.8 24.3198C217.66 24.3198 217.56 23.4798 217.56 22.5498V18.8198H219.93Z" fill="#F2F2F2"/>
<path fill-rule="evenodd" clip-rule="evenodd" d="M225.72 23.2599C225.72 20.9999 222.25 20.4599 222.25 19.4199C222.25 18.8899 223.06 18.6899 223.47 18.6899C224.093 18.726 224.699 18.9075 225.24 19.2199V17.6599C224.657 17.476 224.051 17.375 223.44 17.3599C221.97 17.3599 220.6 18.0399 220.6 19.6899C220.6 21.7799 224.01 22.5599 224.01 23.4899C224.01 24.1199 223.11 24.1999 222.65 24.1999C221.957 24.1802 221.276 24.0167 220.65 23.7199V25.3199C221.327 25.5283 222.031 25.6329 222.74 25.6299C224.27 25.6299 225.72 25.0199 225.72 23.2599Z" fill="#F2F2F2"/>
<path fill-rule="evenodd" clip-rule="evenodd" d="M233.4 20.2499C233.4 18.3099 232.32 17.3599 230.4 17.3599C228.03 17.3599 226.79 18.8599 226.79 21.1499C226.79 23.9099 228.19 25.6299 231.02 25.6299C231.804 25.6251 232.582 25.5038 233.33 25.2699V24.1399C232.899 24.2728 232.451 24.3369 232 24.3299C231.546 24.3423 231.095 24.2576 230.676 24.0815C230.257 23.9054 229.881 23.6419 229.572 23.3086C229.264 22.9754 229.03 22.5801 228.886 22.1492C228.743 21.7182 228.693 21.2616 228.74 20.8099C228.74 19.8699 229.09 18.6599 230.25 18.6599C231.25 18.6599 231.45 19.4399 231.45 20.2499H233.4Z" fill="#F2F2F2"/>
<path fill-rule="evenodd" clip-rule="evenodd" d="M241.02 25.45V19.93C241.02 18.57 240.38 17.32 238.88 17.32C238.364 17.3241 237.862 17.4905 237.446 17.7956C237.029 18.1007 236.72 18.5291 236.56 19.02V14.02H234.66V25.45H236.5V22.03C236.5 20.96 237.03 19.09 238.36 19.09C238.549 19.071 238.739 19.1246 238.89 19.24C239.21 19.54 239.17 20.55 239.17 20.93V25.45H241.02Z" fill="#F2F2F2"/>
<path d="M249.07 20.27H242.89V22.07H249.07V20.27Z" fill="#F2F2F2"/>
<path fill-rule="evenodd" clip-rule="evenodd" d="M258.35 22.28C258.381 21.9244 258.342 21.5661 258.234 21.2258C258.126 20.8855 257.952 20.57 257.721 20.2975C257.491 20.025 257.208 19.801 256.89 19.6384C256.573 19.4757 256.226 19.3777 255.87 19.35C256.445 19.2003 256.951 18.8549 257.299 18.3731C257.648 17.8914 257.818 17.3034 257.78 16.71C257.78 14.71 256.29 14.02 254.53 14.02H251.01V25.45H254.56C256.72 25.45 258.35 24.77 258.35 22.28ZM255.8 17.01C255.8 18.44 254.97 18.69 253.73 18.69H252.95V15.37H253.73C254.96 15.37 255.8 15.59 255.8 17.01ZM256.37 22.11C256.37 23.75 255.11 24.11 253.73 24.11H252.95V20.11H253.73C255.14 20.07 256.37 20.46 256.37 22.11Z" fill="#F2F2F2"/>
<path fill-rule="evenodd" clip-rule="evenodd" d="M264.56 19.29V17.36C264.016 17.3317 263.476 17.4746 263.017 17.7687C262.558 18.0629 262.202 18.4934 262 19V17.55H260.15V25.45H262V21.98C262 20.12 262.69 19.29 264.56 19.29Z" fill="#F2F2F2"/>
<path fill-rule="evenodd" clip-rule="evenodd" d="M271.8 25.4499V19.8199C271.8 17.9899 270.61 17.3599 268.93 17.3599C267.25 17.3599 265.93 18.0599 265.93 19.8699H267.73C267.709 19.7059 267.725 19.5393 267.779 19.3828C267.832 19.2263 267.92 19.0841 268.037 18.9672C268.154 18.8503 268.296 18.7618 268.453 18.7085C268.609 18.6552 268.776 18.6386 268.94 18.6599C269.85 18.6599 270.05 19.3199 270.05 20.0999V20.9299C268.26 20.9799 265.63 21.2299 265.63 23.6099C265.693 24.0963 265.905 24.5515 266.235 24.9142C266.565 25.277 266.998 25.5299 267.477 25.6388C267.955 25.7478 268.455 25.7076 268.91 25.5236C269.364 25.3396 269.752 25.0207 270.02 24.6099V25.5299L271.8 25.4499ZM270.04 21.9299C270.04 22.9299 269.63 24.2999 268.4 24.2999C268.269 24.3202 268.135 24.3104 268.009 24.2713C267.883 24.2322 267.767 24.1648 267.67 24.0741C267.574 23.9835 267.499 23.872 267.453 23.7482C267.406 23.6245 267.388 23.4916 267.4 23.3599C267.42 22.1899 269.16 21.9299 270.04 21.9299Z" fill="#F2F2F2"/>
<path fill-rule="evenodd" clip-rule="evenodd" d="M278.56 23.2599C278.56 20.9999 275.09 20.4599 275.09 19.4199C275.09 18.8899 275.91 18.6899 276.32 18.6899C276.941 18.723 277.544 18.9048 278.08 19.2199V17.6599C277.501 17.476 276.898 17.375 276.29 17.3599C274.81 17.3599 273.45 18.0399 273.45 19.6899C273.45 21.7799 276.85 22.5599 276.85 23.4899C276.85 24.1199 275.96 24.1999 275.49 24.1999C274.797 24.1802 274.116 24.0167 273.49 23.7199V25.3199C274.171 25.5283 274.879 25.6328 275.59 25.6299C277.13 25.6299 278.56 25.0199 278.56 23.2599Z" fill="#F2F2F2"/>
<path fill-rule="evenodd" clip-rule="evenodd" d="M282.07 15.8202V13.9902H280.23V15.8202H282.07ZM282.07 25.4502V17.5502H280.23V25.4502H282.07Z" fill="#F2F2F2"/>
<path d="M286.37 14H284.53V25.46H286.37V14Z" fill="#F2F2F2"/>
<path fill-rule="evenodd" clip-rule="evenodd" d="M290.66 15.8202V13.9902H288.82V15.8202H290.66ZM290.66 25.4502V17.5502H288.82V25.4502H290.66Z" fill="#F2F2F2"/>
<path fill-rule="evenodd" clip-rule="evenodd" d="M298.81 25.4499V19.8199C298.81 17.9899 297.61 17.3599 295.94 17.3599C294.27 17.3599 292.94 18.0599 292.94 19.8699H294.74C294.718 19.7059 294.735 19.5393 294.788 19.3828C294.842 19.2263 294.93 19.0841 295.047 18.9672C295.164 18.8503 295.306 18.7618 295.463 18.7085C295.619 18.6552 295.786 18.6386 295.95 18.6599C296.86 18.6599 297.06 19.3199 297.06 20.0999V20.9299C295.27 20.9799 292.64 21.2299 292.64 23.6099C292.703 24.0963 292.914 24.5515 293.245 24.9142C293.575 25.277 294.008 25.5299 294.486 25.6388C294.965 25.7478 295.465 25.7076 295.92 25.5236C296.374 25.3396 296.762 25.0207 297.03 24.6099V25.5299L298.81 25.4499ZM297.05 21.9299C297.05 22.9299 296.63 24.2999 295.41 24.2999C295.279 24.3223 295.144 24.314 295.017 24.2756C294.889 24.2373 294.773 24.1699 294.676 24.0788C294.579 23.9877 294.504 23.8753 294.458 23.7506C294.412 23.6259 294.395 23.4921 294.41 23.3599C294.43 22.1899 296.17 21.9299 297.05 21.9299Z" fill="#F2F2F2"/>
<path fill-rule="evenodd" clip-rule="evenodd" d="M307.38 25.4499V19.9299C307.38 18.5699 306.74 17.3199 305.23 17.3199C304.715 17.3155 304.212 17.4736 303.792 17.7716C303.372 18.0696 303.056 18.4924 302.89 18.9799V17.5499H301.04V25.4499H302.89V22.0299C302.89 20.9599 303.42 19.0899 304.75 19.0899C304.939 19.0709 305.129 19.1245 305.28 19.2399C305.59 19.5399 305.56 20.5499 305.56 20.9299V25.4499H307.38Z" fill="#F2F2F2"/>
<path fill-rule="evenodd" clip-rule="evenodd" d="M311.56 15.8202V13.9902H309.72V15.8202H311.56ZM311.56 25.4502V17.5502H309.72V25.4502H311.56Z" fill="#F2F2F2"/>
<path fill-rule="evenodd" clip-rule="evenodd" d="M318.49 23.2599C318.49 20.9999 315.02 20.4599 315.02 19.4199C315.02 18.8899 315.83 18.6899 316.25 18.6899C316.871 18.7245 317.474 18.9062 318.01 19.2199V17.6599C317.43 17.4769 316.828 17.3759 316.22 17.3599C314.74 17.3599 313.37 18.0399 313.37 19.6899C313.37 21.7799 316.78 22.5599 316.78 23.4899C316.78 24.1199 315.88 24.1999 315.42 24.1999C314.727 24.1802 314.046 24.0167 313.42 23.7199V25.3199C314.097 25.5276 314.802 25.6321 315.51 25.6299C317.04 25.6299 318.49 25.0199 318.49 23.2599Z" fill="#F2F2F2"/>
<path fill-rule="evenodd" clip-rule="evenodd" d="M326.17 20.2499C326.17 18.3099 325.1 17.3599 323.17 17.3599C320.79 17.3599 319.55 18.8599 319.55 21.1499C319.55 23.9099 320.96 25.6299 323.78 25.6299C324.563 25.6251 325.342 25.5038 326.09 25.2699V24.1399C325.659 24.2728 325.21 24.3369 324.76 24.3299C322.67 24.3299 321.51 22.8099 321.51 20.8099C321.51 19.8699 321.85 18.6599 323.02 18.6599C324.02 18.6599 324.21 19.4399 324.21 20.2499H326.17Z" fill="#F2F2F2"/>
<path fill-rule="evenodd" clip-rule="evenodd" d="M333.79 25.45V19.93C333.79 18.57 333.16 17.32 331.65 17.32C331.134 17.3141 330.63 17.4715 330.21 17.7697C329.79 18.0679 329.474 18.4916 329.31 18.98V13.98H327.47V25.45H329.31V22.03C329.31 20.96 329.84 19.09 331.17 19.09C331.359 19.0709 331.548 19.1246 331.7 19.24C332.02 19.54 331.98 20.55 331.98 20.93V25.45H333.79Z" fill="#F2F2F2"/>
<path fill-rule="evenodd" clip-rule="evenodd" d="M341.95 21.0199V20.5699C341.95 18.6399 340.95 17.3599 338.95 17.3599C336.59 17.3599 335.56 18.8399 335.56 21.0799C335.56 23.6899 336.74 25.6299 339.56 25.6299C340.308 25.6414 341.053 25.5368 341.77 25.3199V24.0399C341.281 24.2159 340.768 24.3138 340.25 24.3299C339.835 24.3107 339.428 24.2097 339.053 24.0327C338.677 23.8557 338.34 23.6062 338.061 23.2986C337.783 22.991 337.567 22.6314 337.428 22.2403C337.289 21.8492 337.228 21.4345 337.25 21.0199H341.95ZM340.21 19.9299H337.32C337.352 19.5559 337.525 19.2081 337.803 18.9559C338.081 18.7038 338.444 18.5659 338.82 18.5699C339.004 18.5536 339.189 18.5773 339.363 18.6395C339.537 18.7017 339.696 18.8007 339.828 18.93C339.96 19.0592 340.062 19.2155 340.128 19.3881C340.194 19.5607 340.222 19.7455 340.21 19.9299Z" fill="#F2F2F2"/>
</g>
<defs>
<clipPath id="clip0_2056_2">
<rect width="398.06" height="80.64" fill="white" transform="translate(0.5 0.5)"/>
</clipPath>
</defs>
</svg>
