<svg width="431" height="81" viewBox="0 0 431 81" fill="none" xmlns="http://www.w3.org/2000/svg">
<g clip-path="url(#clip0_2056_113)">
<path d="M195.906 20.675V22.394C194.86 22.881 193.721 23.139 192.567 23.15C191.208 23.22 189.891 22.671 188.985 21.656C187.881 20.15 187.354 18.298 187.5 16.436C187.418 14.88 187.77 13.331 188.517 11.963C189.329 10.664 190.789 9.91702 192.317 10.019C193.419 9.95702 194.501 10.328 195.332 11.054C196.057 11.742 196.448 12.711 196.402 13.709H194.27C194.27 12.233 193.601 11.495 192.262 11.494C190.439 11.494 189.528 13.042 189.527 16.139C189.527 19.829 190.664 21.674 192.938 21.675C194 21.62 195.027 21.274 195.906 20.675Z" fill="#F2F2F2"/>
<path d="M202.143 22.9431V21.8541H202.1C201.943 22.1891 201.697 22.4751 201.39 22.6821C200.937 22.9991 200.394 23.1631 199.841 23.1501C199.154 23.1911 198.48 22.9471 197.979 22.4751C197.546 22.0211 197.318 21.4091 197.349 20.7831C197.349 18.8691 198.949 17.9121 202.149 17.9121V16.3881C202.093 15.7121 201.499 15.2091 200.823 15.2651C200.815 15.2661 200.807 15.2661 200.799 15.2671C199.866 15.2671 199.399 15.7111 199.399 16.5981H197.654C197.654 14.8461 198.746 13.9701 200.929 13.9701C202.849 13.9701 203.809 14.9511 203.809 16.9131V22.9431H202.143ZM202.143 19.0191H201.81C201.182 18.9991 200.56 19.1481 200.01 19.4511C199.516 19.6861 199.198 20.1821 199.191 20.7291C199.179 21.0251 199.28 21.3151 199.474 21.5391C199.64 21.7381 199.886 21.8531 200.145 21.8541C200.72 21.8401 201.253 21.5481 201.575 21.0721C201.937 20.6331 202.137 20.0831 202.143 19.5141V19.0191ZM200.055 12.6371L200.9 9.56006H203.132L201.584 12.6371H200.055Z" fill="#F2F2F2"/>
<path d="M206.472 22.9428V14.1688H208.127V15.9228H208.163C208.432 14.7858 209.443 13.9798 210.612 13.9698C211.716 13.8458 212.712 14.6398 212.837 15.7438C212.84 15.7708 212.842 15.7968 212.844 15.8238H212.88C213.201 14.7168 214.22 13.9588 215.373 13.9698C216.957 13.9698 217.749 14.9328 217.749 16.8588V22.9428H216.093V18.1548C216.127 17.5238 216.075 16.8918 215.94 16.2748C215.776 15.8358 215.333 15.5678 214.868 15.6258C214.371 15.6258 213.921 15.9618 213.518 16.6338C213.132 17.2688 212.93 17.9978 212.933 18.7408V22.9408H211.279V18.1548C211.311 17.5278 211.262 16.8988 211.134 16.2838C210.994 15.8508 210.568 15.5758 210.116 15.6258C209.559 15.6258 209.082 16.0068 208.686 16.7698C208.304 17.5278 208.112 18.3678 208.127 19.2168V22.9428H206.472Z" fill="#F2F2F2"/>
<path d="M224.661 22.9432V21.8542H224.616C224.458 22.1892 224.213 22.4752 223.906 22.6822C223.453 22.9982 222.911 23.1622 222.358 23.1502C221.67 23.1912 220.996 22.9472 220.494 22.4752C220.061 22.0212 219.833 21.4102 219.864 20.7832C219.864 18.8692 221.464 17.9122 224.664 17.9122V16.3882C224.607 15.7112 224.013 15.2082 223.336 15.2652C223.328 15.2662 223.321 15.2662 223.313 15.2672C222.379 15.2672 221.913 15.7112 221.913 16.5982H220.168C220.168 14.8462 221.26 13.9702 223.444 13.9702C225.365 13.9702 226.325 14.9512 226.324 16.9132V22.9432H224.661ZM224.661 19.0192H224.328C223.7 18.9992 223.078 19.1482 222.528 19.4512C222.034 19.6862 221.716 20.1822 221.709 20.7292C221.697 21.0252 221.798 21.3152 221.992 21.5392C222.158 21.7382 222.403 21.8532 222.662 21.8542C223.237 21.8402 223.77 21.5492 224.093 21.0722C224.454 20.6322 224.654 20.0832 224.661 19.5142V19.0192Z" fill="#F2F2F2"/>
<path d="M228.972 22.9428V14.1688H230.628V15.9408H230.664C230.982 14.7218 232.116 13.8968 233.373 13.9698V15.7698C231.543 15.7698 230.628 16.9188 230.628 19.2168V22.9428H228.972Z" fill="#F2F2F2"/>
<path d="M239.331 22.9432V21.8542H239.287C239.128 22.1892 238.882 22.4752 238.575 22.6822C238.122 22.9992 237.58 23.1632 237.027 23.1502C236.34 23.1912 235.666 22.9472 235.164 22.4752C234.731 22.0212 234.504 21.4092 234.535 20.7832C234.535 18.8692 236.135 17.9122 239.335 17.9122V16.3882C239.278 15.7112 238.684 15.2082 238.007 15.2652C238 15.2662 237.993 15.2662 237.985 15.2672C237.052 15.2672 236.585 15.7112 236.585 16.5982H234.83C234.83 14.8462 235.922 13.9702 238.106 13.9702C240.027 13.9702 240.987 14.9512 240.987 16.9132V22.9432H239.331ZM239.331 19.0192H239C238.372 18.9992 237.75 19.1482 237.2 19.4512C236.706 19.6862 236.388 20.1822 236.38 20.7292C236.368 21.0252 236.469 21.3152 236.663 21.5392C236.829 21.7382 237.075 21.8542 237.334 21.8542C237.909 21.8392 238.442 21.5482 238.766 21.0722C239.126 20.6322 239.326 20.0832 239.332 19.5142L239.331 19.0192Z" fill="#F2F2F2"/>
<path d="M253.938 22.9431V21.5941H253.9C253.753 21.9721 253.507 22.3051 253.188 22.5561C252.706 22.9561 252.094 23.1671 251.468 23.1501C250.52 23.1881 249.632 22.6911 249.168 21.8631C248.653 20.8931 248.411 19.8011 248.468 18.7041C248.404 17.4941 248.686 16.2901 249.281 15.2341C249.761 14.4271 250.642 13.9431 251.581 13.9701C252.173 13.9511 252.754 14.1311 253.231 14.4821C253.545 14.7111 253.79 15.0231 253.938 15.3821V10.2261H255.594V22.9431H253.938ZM250.31 18.5651C250.31 20.7591 250.886 21.8551 252.038 21.8541C252.707 21.8231 253.288 21.3831 253.5 20.7481C253.807 20.0561 253.958 19.3051 253.942 18.5481C253.969 17.7901 253.83 17.0351 253.536 16.3361C253.31 15.6961 252.705 15.2681 252.026 15.2681C250.883 15.2671 250.311 16.3661 250.31 18.5651Z" fill="#F2F2F2"/>
<path d="M264.226 21.5391V22.8531C263.506 23.0351 262.768 23.1361 262.026 23.1531C260.843 23.2261 259.686 22.7831 258.856 21.9371C257.998 20.8621 257.578 19.5031 257.679 18.1311C257.548 16.8151 258.056 15.5161 259.046 14.6391C259.685 14.1791 260.459 13.9451 261.246 13.9731C262.15 13.9161 263.031 14.2791 263.632 14.9571C264.192 15.6821 264.473 16.5851 264.423 17.5001V17.9231H259.338C259.317 18.8341 259.567 19.7311 260.057 20.5001C260.586 21.3741 261.548 21.8931 262.569 21.8551C263.135 21.8391 263.694 21.7321 264.226 21.5391ZM259.338 16.8151H262.766C262.787 15.9791 262.126 15.2841 261.289 15.2631C261.236 15.2621 261.183 15.2631 261.131 15.2671C260.586 15.2391 260.06 15.4731 259.715 15.8961C259.485 16.1481 259.351 16.4741 259.338 16.8151Z" fill="#F2F2F2"/>
<path d="M279.832 20.6749V22.3939C278.785 22.8809 277.646 23.1389 276.492 23.1499C275.134 23.2189 273.817 22.6699 272.91 21.6559C271.806 20.1499 271.28 18.2979 271.426 16.4359C271.344 14.8799 271.696 13.3309 272.442 11.9629C273.254 10.6649 274.714 9.91785 276.242 10.0189C277.344 9.95585 278.427 10.3279 279.259 11.0539C279.985 11.7409 280.376 12.7099 280.33 13.7089H278.197C278.197 12.2329 277.528 11.4949 276.19 11.4939C274.364 11.4939 273.452 13.0419 273.454 16.1389C273.454 19.8289 274.591 21.6739 276.865 21.6749C277.927 21.6199 278.953 21.2739 279.832 20.6749Z" fill="#F2F2F2"/>
<path d="M285.105 23.15C283.98 23.223 282.887 22.755 282.163 21.89C281.478 20.92 281.145 19.745 281.218 18.56C281.142 17.369 281.475 16.187 282.163 15.212C283.733 13.592 286.318 13.551 287.938 15.121C287.969 15.151 287.999 15.181 288.029 15.212C288.718 16.187 289.052 17.369 288.976 18.56C289.049 19.745 288.715 20.92 288.029 21.89C287.312 22.754 286.225 23.222 285.105 23.15ZM283.063 18.565C283.063 20.759 283.744 21.855 285.105 21.854C286.456 21.854 287.131 20.758 287.131 18.565C287.131 16.372 286.456 15.272 285.105 15.265C283.744 15.266 283.064 16.366 283.063 18.565Z" fill="#F2F2F2"/>
<path d="M291.082 22.943V14.169H292.738V15.923H292.773C293.042 14.786 294.052 13.98 295.22 13.97C296.324 13.845 297.32 14.637 297.445 15.741C297.448 15.769 297.451 15.796 297.453 15.824H297.49C297.811 14.717 298.83 13.96 299.982 13.97C301.567 13.97 302.359 14.933 302.359 16.859V22.943H300.7V18.155C300.734 17.524 300.683 16.892 300.548 16.275C300.384 15.837 299.941 15.569 299.477 15.626C298.979 15.626 298.529 15.962 298.127 16.634C297.74 17.268 297.537 17.998 297.541 18.741V22.941H295.884V18.155C295.916 17.528 295.868 16.899 295.743 16.284C295.602 15.852 295.177 15.577 294.725 15.626C294.167 15.626 293.69 16.007 293.293 16.77C292.912 17.529 292.721 18.368 292.736 19.217V22.943H291.082Z" fill="#F2F2F2"/>
<path d="M310.962 21.5391V22.8531C310.242 23.0351 309.504 23.1361 308.762 23.1531C307.58 23.2261 306.424 22.7831 305.595 21.9371C304.736 20.8621 304.316 19.5031 304.417 18.1311C304.286 16.8151 304.794 15.5161 305.784 14.6391C306.423 14.1791 307.197 13.9451 307.984 13.9731C308.889 13.9161 309.769 14.2791 310.371 14.9571C310.93 15.6831 311.21 16.5851 311.16 17.5001V17.9231H306.075C306.055 18.8351 306.308 19.7321 306.8 20.5001C307.328 21.3751 308.289 21.8941 309.31 21.8551C309.874 21.8391 310.432 21.7321 310.962 21.5391ZM306.075 16.8151H309.5C309.52 15.9771 308.857 15.2821 308.019 15.2631C307.967 15.2621 307.915 15.2631 307.864 15.2671C307.319 15.2391 306.793 15.4731 306.449 15.8961C306.22 16.1491 306.087 16.4741 306.075 16.8151Z" fill="#F2F2F2"/>
<path d="M313.231 22.9432V14.1692H314.885V15.9412H314.921C315.24 14.7232 316.373 13.8982 317.63 13.9702V15.7702C315.8 15.7702 314.885 16.9192 314.885 19.2172V22.9432H313.231Z" fill="#F2F2F2"/>
<path d="M325.444 21.675V22.817C324.655 23.051 323.836 23.163 323.013 23.15C321.671 23.238 320.38 22.617 319.613 21.512C318.988 20.54 318.677 19.4 318.722 18.246C318.66 17.154 318.974 16.073 319.613 15.185C320.317 14.349 321.376 13.898 322.466 13.97C323.409 13.889 324.336 14.257 324.966 14.963C325.414 15.559 325.64 16.294 325.604 17.039H323.704C323.704 15.857 323.254 15.266 322.354 15.267C321.822 15.26 321.327 15.537 321.054 15.993C320.704 16.578 320.535 17.254 320.569 17.935C320.531 18.855 320.775 19.765 321.269 20.542C321.903 21.435 322.957 21.932 324.049 21.854C324.52 21.863 324.99 21.802 325.444 21.675Z" fill="#F2F2F2"/>
<path d="M327.236 12.1081V10.2261H329.223V12.1081H327.236ZM327.397 22.9431V14.1691H329.051V22.9431H327.397Z" fill="#F2F2F2"/>
<path d="M335.245 23.1499C334.119 23.2219 333.026 22.7539 332.301 21.8899C331.617 20.9189 331.285 19.7449 331.358 18.5599C331.281 17.3689 331.614 16.1879 332.301 15.2119C333.872 13.5919 336.458 13.5509 338.079 15.1219C338.11 15.1519 338.14 15.1819 338.169 15.2119C338.856 16.1879 339.189 17.3689 339.114 18.5599C339.186 19.7449 338.853 20.9199 338.169 21.8899C337.452 22.7529 336.365 23.2219 335.245 23.1499ZM333.2 18.5649C333.2 20.7589 333.881 21.8549 335.244 21.8539C336.593 21.8539 337.268 20.7579 337.268 18.5649C337.268 16.3719 336.593 15.2719 335.244 15.2649C333.881 15.2659 333.2 16.3659 333.2 18.5649Z" fill="#F2F2F2"/>
<path d="M352.569 21.5389V22.8529C351.849 23.0349 351.111 23.1359 350.369 23.1529C349.187 23.2259 348.031 22.7819 347.201 21.9369C346.343 20.8619 345.922 19.5029 346.023 18.1309C345.892 16.8149 346.401 15.5159 347.391 14.6389C348.03 14.1789 348.804 13.9449 349.591 13.9729C350.495 13.9169 351.375 14.2799 351.976 14.9569C352.536 15.6819 352.817 16.5849 352.768 17.4999V17.9229H347.682C347.661 18.8339 347.911 19.7309 348.4 20.4999C348.929 21.3739 349.891 21.8929 350.912 21.8549C351.478 21.8389 352.037 21.7329 352.569 21.5389ZM347.682 16.8149H351.112C351.13 15.9759 350.464 15.2809 349.625 15.2629C349.575 15.2619 349.525 15.2629 349.475 15.2669C348.93 15.2389 348.404 15.4729 348.059 15.8959C347.829 16.1489 347.696 16.4739 347.682 16.8149Z" fill="#F2F2F2"/>
<path d="M360.4 22.9431V10.2261H362.246V22.9431H360.4Z" fill="#F2F2F2"/>
<path d="M365.062 22.9429V14.1689H366.717V16.0499H366.753C367.111 14.8119 368.246 13.9629 369.534 13.9699C370.328 13.9119 371.084 14.3149 371.479 15.0059C371.775 15.5769 371.917 16.2159 371.892 16.8589V22.9429H370.237V18.1549C370.27 17.5269 370.218 16.8979 370.083 16.2839C369.935 15.8449 369.499 15.5699 369.039 15.6259C368.313 15.6709 367.671 16.1109 367.365 16.7699C366.926 17.5099 366.701 18.3569 366.717 19.2169V22.9429H365.062Z" fill="#F2F2F2"/>
<path d="M379.471 22.9431V21.5941H379.434C379.287 21.9721 379.042 22.3041 378.724 22.5561C378.241 22.9561 377.63 23.1671 377.004 23.1501C376.056 23.1881 375.167 22.6911 374.704 21.8631C374.188 20.8931 373.946 19.8011 374.004 18.7041C373.94 17.4931 374.223 16.2891 374.819 15.2341C375.3 14.4271 376.18 13.9431 377.119 13.9701C377.71 13.9511 378.291 14.1321 378.768 14.4821C379.081 14.7121 379.326 15.0231 379.476 15.3821V10.2261H381.132V22.9431H379.471ZM375.842 18.5651C375.842 20.7591 376.418 21.8551 377.571 21.8541C378.238 21.8201 378.817 21.3811 379.029 20.7481C379.336 20.0561 379.487 19.3051 379.471 18.5481C379.498 17.7901 379.359 17.0351 379.065 16.3361C378.839 15.6951 378.233 15.2671 377.553 15.2681C376.413 15.2671 375.843 16.3661 375.842 18.5651Z" fill="#F2F2F2"/>
<path d="M388.918 22.943V21.062C388.577 22.32 387.421 23.182 386.118 23.15C385.322 23.206 384.565 22.8 384.172 22.106C383.869 21.537 383.722 20.897 383.748 20.252V14.169H385.4V18.969C385.369 19.598 385.417 20.228 385.544 20.845C385.702 21.279 386.138 21.547 386.597 21.492C387.323 21.448 387.966 21.008 388.271 20.348C388.71 19.607 388.933 18.759 388.917 17.898V14.168H390.574V22.942L388.918 22.943Z" fill="#F2F2F2"/>
<path d="M395.652 17.4901L396.352 17.8951C396.845 18.1551 397.305 18.4751 397.72 18.8471C398.157 19.2851 398.398 19.8811 398.387 20.5001C398.387 22.2691 397.287 23.1541 395.087 23.1541C394.288 23.1471 393.494 23.0291 392.728 22.8041V21.3411C393.424 21.6651 394.18 21.8401 394.948 21.8541C396.138 21.8541 396.733 21.4791 396.733 20.7291C396.71 20.3971 396.533 20.0941 396.255 19.9101C395.961 19.6941 395.655 19.4961 395.337 19.3171L394.479 18.7941C394.052 18.5511 393.658 18.2551 393.306 17.9121C392.469 16.9721 392.553 15.5321 393.492 14.6961C393.529 14.6631 393.567 14.6321 393.606 14.6011C394.263 14.1511 395.05 13.9291 395.845 13.9701C396.239 13.9731 396.631 14.0151 397.016 14.0961C397.287 14.1571 397.559 14.2161 397.835 14.2761V15.7701C397.209 15.4651 396.525 15.2941 395.829 15.2701C395.481 15.2611 395.137 15.3511 394.838 15.5291C394.577 15.6541 394.404 15.9111 394.386 16.2001C394.403 16.5001 394.56 16.7751 394.809 16.9431C395.078 17.1431 395.359 17.3261 395.652 17.4901Z" fill="#F2F2F2"/>
<path d="M404.9 21.7278V23.0148C404.468 23.1088 404.026 23.1538 403.584 23.1498C401.828 23.1498 400.95 22.4358 400.949 21.0078V15.4638H399.381V14.1688H400.949V12.1078L402.612 11.0718V14.1718H405.041V15.4718H402.612V20.1518C402.612 21.2918 403.077 21.8618 404.007 21.8618C404.31 21.8608 404.61 21.8158 404.9 21.7278Z" fill="#F2F2F2"/>
<path d="M406.723 22.9431V14.1691H408.378V15.9411H408.414C408.733 14.7231 409.865 13.8991 411.122 13.9701V15.7701C409.292 15.7701 408.377 16.9191 408.378 19.2171V22.9431H406.723Z" fill="#F2F2F2"/>
<path d="M412.88 12.1081V10.2261H414.867V12.1081H412.88ZM413.041 22.9431V14.1691H414.7V22.9431H413.041Z" fill="#F2F2F2"/>
<path d="M421.851 22.9432V21.8542H421.805C421.648 22.1902 421.402 22.4762 421.094 22.6822C420.641 22.9982 420.099 23.1622 419.547 23.1502C418.859 23.1912 418.185 22.9472 417.683 22.4752C417.251 22.0212 417.024 21.4092 417.055 20.7832C417.055 18.8692 418.655 17.9122 421.855 17.9122V16.3882C421.799 15.7112 421.204 15.2082 420.527 15.2642C420.518 15.2652 420.509 15.2662 420.5 15.2672C419.562 15.2672 419.1 15.7112 419.1 16.5982H417.355C417.355 14.8462 418.446 13.9702 420.628 13.9702C422.55 13.9702 423.511 14.9512 423.511 16.9132V22.9432H421.851ZM421.851 19.0192H421.517C420.889 18.9992 420.267 19.1482 419.717 19.4512C419.223 19.6872 418.906 20.1822 418.898 20.7292C418.887 21.0252 418.988 21.3152 419.182 21.5392C419.348 21.7382 419.593 21.8542 419.852 21.8542C420.428 21.8402 420.961 21.5492 421.284 21.0722C421.645 20.6322 421.845 20.0832 421.851 19.5142V19.0192Z" fill="#F2F2F2"/>
<path d="M196.608 27.272V36.227C196.683 37.365 196.228 38.475 195.376 39.233C194.492 39.915 193.391 40.257 192.276 40.196C191.167 40.257 190.074 39.915 189.198 39.233C188.351 38.472 187.9 37.364 187.974 36.227V27.272H189.819V35.877C189.785 36.483 189.89 37.089 190.125 37.649C190.557 38.401 191.396 38.822 192.257 38.72C193.134 38.828 193.992 38.408 194.444 37.649C194.687 37.091 194.795 36.484 194.76 35.877V27.272H196.608Z" fill="#F2F2F2"/>
<path d="M199.281 39.9891V31.2141H200.937V32.9861H200.972C201.291 31.7681 202.424 30.9441 203.681 31.0161V32.8161C201.852 32.8161 200.937 33.9651 200.937 36.2631V39.9891H199.281Z" fill="#F2F2F2"/>
<path d="M210.5 39.9889V38.1079C210.157 39.3649 209.002 40.2259 207.7 40.1959C206.904 40.2519 206.147 39.8459 205.754 39.1519C205.45 38.5829 205.303 37.9429 205.328 37.2979V31.2139H206.985V36.0139C206.953 36.6419 207.001 37.2719 207.129 37.8879C207.286 38.3229 207.722 38.5929 208.182 38.5379C208.908 38.4929 209.551 38.0529 209.856 37.3929C210.293 36.6519 210.516 35.8049 210.5 34.9449V31.2139H212.156V39.9889H210.5Z" fill="#F2F2F2"/>
<path d="M221.484 31.214V40.34C221.484 42.734 220.134 43.931 217.433 43.93C216.527 43.932 215.624 43.826 214.743 43.615V41.934C215.523 42.352 216.387 42.591 217.271 42.634C218.15 42.746 219.017 42.353 219.513 41.619C219.757 41.066 219.865 40.462 219.828 39.859V38.495H219.791C219.652 38.865 219.409 39.188 219.091 39.423C218.604 39.804 217.999 40.005 217.38 39.989C216.394 40.035 215.469 39.51 215.004 38.639C214.529 37.701 214.306 36.656 214.356 35.606C214.301 34.482 214.555 33.365 215.09 32.375C215.577 31.504 216.511 30.979 217.508 31.016C218.093 31.004 218.665 31.191 219.13 31.547C219.436 31.775 219.677 32.079 219.83 32.429V31.214H221.484ZM216.2 35.561C216.2 37.649 216.764 38.693 217.892 38.693C218.577 38.667 219.174 38.221 219.392 37.571C219.695 36.888 219.843 36.146 219.825 35.399C219.846 34.697 219.704 34 219.41 33.362C219.175 32.736 218.579 32.318 217.91 32.312C216.77 32.312 216.2 33.395 216.2 35.561Z" fill="#F2F2F2"/>
<path d="M229.279 39.9889V38.1079C228.935 39.3659 227.778 40.2279 226.474 40.1959C225.678 40.2519 224.921 39.8459 224.528 39.1519C224.224 38.5829 224.076 37.9439 224.1 37.2999V31.2139H225.757V36.0139C225.726 36.6419 225.774 37.2719 225.9 37.8879C226.059 38.3219 226.494 38.5909 226.953 38.5379C227.678 38.4949 228.322 38.0579 228.63 37.3999C229.07 36.6589 229.295 35.8099 229.279 34.9489V31.2139H230.934V39.9889H229.279Z" fill="#F2F2F2"/>
<path d="M237.99 39.9891V38.9001H237.945C237.787 39.2351 237.541 39.5211 237.233 39.7281C236.78 40.0441 236.239 40.2081 235.687 40.1961C234.999 40.2381 234.324 39.9941 233.822 39.5211C233.389 39.0671 233.162 38.4561 233.193 37.8301C233.193 35.9151 234.793 34.9571 237.993 34.9581V33.4331C237.936 32.7561 237.341 32.2531 236.664 32.3101C236.657 32.3111 236.65 32.3111 236.644 32.3121C235.706 32.3121 235.237 32.7561 235.238 33.6441H233.49C233.49 31.8921 234.582 31.0161 236.765 31.0161C238.685 31.0161 239.646 31.9971 239.647 33.9591V39.9891H237.99ZM237.99 36.0661H237.656C237.028 36.0461 236.407 36.1951 235.856 36.4971C235.362 36.7331 235.045 37.2281 235.037 37.7751C235.025 38.0711 235.127 38.3611 235.321 38.5851C235.486 38.7841 235.732 38.9001 235.991 38.9001C236.567 38.8851 237.1 38.5931 237.423 38.1171C237.784 37.6781 237.984 37.1281 237.99 36.5601V36.0661Z" fill="#F2F2F2"/>
<path d="M243.093 43.7689L244.325 40.0439L240.987 31.2139H242.831L245.137 37.5589H245.172L247.232 31.2139H249.078L244.713 43.7689H243.093Z" fill="#F2F2F2"/>
<path d="M253.741 40.1999C252.615 40.2719 251.521 39.8039 250.796 38.9399C250.112 37.9689 249.779 36.7949 249.851 35.6099C249.775 34.4189 250.109 33.2379 250.796 32.2629C252.365 30.6429 254.95 30.6009 256.571 32.1699C256.603 32.2009 256.634 32.2319 256.664 32.2629C257.352 33.2379 257.685 34.4189 257.609 35.6099C257.682 36.7949 257.348 37.9699 256.664 38.9399C255.947 39.8029 254.861 40.2719 253.741 40.1999ZM251.7 35.6109C251.7 37.8039 252.381 38.9009 253.744 38.8999C255.093 38.8999 255.767 37.8039 255.768 35.6109C255.769 33.4179 255.094 32.3179 253.744 32.3109C252.381 32.3119 251.7 33.4119 251.7 35.6109Z" fill="#F2F2F2"/>
<path d="M259.175 36.2269V34.2559H266.033V36.2269H259.175Z" fill="#F2F2F2"/>
<path d="M267.024 39.989L271.362 27.272H273.629L277.977 39.989H276.025L274.774 36.362H270.219L268.987 39.989H267.024ZM272.487 28.964L270.644 34.886H274.269L272.523 28.964H272.487Z" fill="#F2F2F2"/>
<path d="M279.669 39.989V27.272H281.324V39.989H279.669Z" fill="#F2F2F2"/>
<path d="M290.172 38.585V39.9C289.452 40.082 288.714 40.183 287.972 40.2C286.79 40.274 285.634 39.83 284.804 38.985C283.946 37.91 283.525 36.55 283.626 35.178C283.494 33.862 284.003 32.563 284.994 31.686C285.633 31.226 286.407 30.992 287.194 31.02C288.098 30.963 288.977 31.326 289.578 32.003C290.136 32.73 290.414 33.633 290.362 34.548V34.972H285.277C285.256 35.883 285.507 36.78 285.997 37.548C286.526 38.423 287.487 38.942 288.509 38.904C289.077 38.888 289.639 38.78 290.172 38.585ZM285.285 33.86H288.714C288.733 33.022 288.069 32.327 287.231 32.308C287.18 32.307 287.129 32.308 287.078 32.312C286.533 32.285 286.006 32.518 285.661 32.941C285.432 33.194 285.299 33.519 285.285 33.86Z" fill="#F2F2F2"/>
<path d="M292.458 39.9892V31.2142H294.115V32.9692H294.15C294.419 31.8322 295.43 31.0262 296.598 31.0162C297.702 30.8922 298.698 31.6862 298.823 32.7902C298.826 32.8172 298.828 32.8442 298.83 32.8712H298.866C299.188 31.7642 300.206 31.0062 301.359 31.0162C302.943 31.0162 303.735 31.9792 303.736 33.9052V39.9892H302.079V35.2002C302.112 34.5692 302.061 33.9362 301.926 33.3182C301.762 32.8802 301.319 32.6132 300.855 32.6722C300.355 32.6722 299.908 33.0072 299.505 33.6792C299.119 34.3132 298.917 35.0422 298.92 35.7852V39.9852H297.264V35.2002C297.296 34.5722 297.248 33.9432 297.12 33.3282C296.98 32.8962 296.555 32.6222 296.104 32.6722C295.545 32.6722 295.068 33.0532 294.672 33.8142C294.291 34.5732 294.1 35.4132 294.115 36.2622V39.9882L292.458 39.9892Z" fill="#F2F2F2"/>
<path d="M310.648 39.9891V38.9001H310.6C310.443 39.2351 310.198 39.5211 309.891 39.7281C309.438 40.0441 308.896 40.2081 308.344 40.1961C307.656 40.2371 306.981 39.9931 306.478 39.5211C306.047 39.0671 305.82 38.4561 305.851 37.8301C305.851 35.9151 307.451 34.9571 310.651 34.9581V33.4331C310.594 32.7561 309.998 32.2531 309.321 32.3101C309.314 32.3111 309.308 32.3111 309.301 32.3121C308.364 32.3121 307.895 32.7561 307.896 33.6441H306.151C306.151 31.8921 307.243 31.0161 309.427 31.0161C311.347 31.0161 312.307 31.9971 312.307 33.9591V39.9891H310.648ZM310.648 36.0661H310.315C309.687 36.0461 309.065 36.1941 308.515 36.4971C308.021 36.7321 307.703 37.2281 307.695 37.7751C307.682 38.0711 307.784 38.3621 307.979 38.5851C308.144 38.7851 308.389 38.9011 308.648 38.9001C309.223 38.8851 309.756 38.5941 310.078 38.1171C310.44 37.6781 310.641 37.1291 310.647 36.5601L310.648 36.0661Z" fill="#F2F2F2"/>
<path d="M314.958 39.9891V31.2141H316.613V33.1001H316.65C317.007 31.8621 318.143 31.0131 319.431 31.0211C320.224 30.9631 320.98 31.3661 321.375 32.0561C321.672 32.6271 321.815 33.2661 321.79 33.9101V39.9941H320.134V35.2001C320.167 34.5721 320.115 33.9421 319.981 33.3281C319.831 32.8901 319.396 32.6171 318.937 32.6721C318.211 32.7161 317.568 33.1551 317.262 33.8141C316.823 34.5541 316.598 35.4021 316.613 36.2621V39.9881L314.958 39.9891Z" fill="#F2F2F2"/>
<path d="M328.747 39.9891V38.9001H328.7C328.542 39.2351 328.297 39.5211 327.989 39.7281C327.536 40.0441 326.994 40.2081 326.442 40.1961C325.754 40.2381 325.08 39.9931 324.578 39.5211C324.145 39.0681 323.917 38.4561 323.948 37.8301C323.948 35.9151 325.548 34.9571 328.748 34.9581V33.4331C328.691 32.7561 328.095 32.2531 327.418 32.3101C327.411 32.3111 327.405 32.3111 327.398 32.3121C326.46 32.3121 325.993 32.7561 325.998 33.6441H324.253C324.253 31.8921 325.345 31.0161 327.528 31.0161C329.447 31.0161 330.407 31.9971 330.409 33.9591V39.9891H328.747ZM328.747 36.0661H328.414C327.786 36.0461 327.165 36.1951 326.614 36.4971C326.12 36.7321 325.802 37.2281 325.795 37.7751C325.783 38.0711 325.885 38.3611 326.079 38.5851C326.244 38.7851 326.49 38.9001 326.749 38.9001C327.324 38.8851 327.857 38.5931 328.18 38.1171C328.541 37.6781 328.742 37.1291 328.748 36.5601L328.747 36.0661Z" fill="#F2F2F2"/>
<path d="M188.22 57.035V44.318H191.079C192.609 44.182 194.11 44.796 195.106 45.966C195.993 47.354 196.407 48.993 196.284 50.636C196.284 53.204 195.715 54.977 194.576 55.956C193.421 56.768 192.018 57.15 190.611 57.035H188.22ZM189.651 45.514V55.838H190.623C191.7 55.942 192.774 55.608 193.602 54.911C194.345 54.138 194.716 52.719 194.717 50.654C194.717 48.547 194.317 47.116 193.517 46.361C192.637 45.71 191.547 45.408 190.457 45.514H189.651Z" fill="#F2F2F2"/>
<path d="M204.309 55.9372V56.9792C203.655 57.1682 202.977 57.2572 202.297 57.2422C201.117 57.3182 199.965 56.8662 199.151 56.0092C198.335 54.9732 197.934 53.6702 198.027 52.3552C197.958 51.2482 198.252 50.1482 198.864 49.2232C199.483 48.4342 200.451 47.9992 201.452 48.0622C202.323 48.0102 203.17 48.3582 203.752 49.0072C204.283 49.6842 204.552 50.5312 204.507 51.3912V51.8142H199.459V52.3352C199.442 53.1812 199.653 54.0162 200.071 54.7522C200.561 55.6682 201.533 56.2232 202.571 56.1802C203.158 56.1632 203.74 56.0812 204.309 55.9372ZM199.459 50.7712H203.068C203.069 50.3882 202.939 50.0172 202.698 49.7192C202.376 49.3072 201.873 49.0782 201.351 49.1062C200.37 49.0482 199.526 49.7912 199.459 50.7712Z" fill="#F2F2F2"/>
<path d="M211.652 57.0348V55.0098C211.403 56.3238 210.243 57.2678 208.905 57.2418C208.239 57.2718 207.601 56.9688 207.205 56.4318C206.812 55.8758 206.614 55.2048 206.642 54.5238V48.2588H207.893V53.1288C207.863 53.7998 207.917 54.4718 208.054 55.1288C208.167 55.6528 208.645 56.0158 209.18 55.9838C209.936 55.9838 210.557 55.4978 211.042 54.5258C211.45 53.7038 211.659 52.7978 211.655 51.8808V48.2608H212.9V57.0368L211.652 57.0348Z" fill="#F2F2F2"/>
<path d="M219.982 56.0168V57.1428C219.617 57.2048 219.247 57.2388 218.876 57.2428C218.204 57.3058 217.534 57.1118 217 56.6998C216.583 56.2258 216.38 55.6018 216.437 54.9728V49.3208H215.007V48.2588H216.437V46.2168L217.697 45.4248V48.2588H220.054V49.3208H217.7V54.7078C217.59 55.4078 218.068 56.0648 218.768 56.1748C218.888 56.1938 219.01 56.1958 219.131 56.1798C219.421 56.1688 219.708 56.1138 219.982 56.0168Z" fill="#F2F2F2"/>
<path d="M223.959 51.6349L224.698 52.0749C225.17 52.3419 225.624 52.6399 226.057 52.9669C226.513 53.3799 226.766 53.9719 226.749 54.5869C226.749 56.3569 225.66 57.2419 223.483 57.2419C222.671 57.2439 221.863 57.1189 221.089 56.8729V55.7309C221.818 55.9949 222.583 56.1459 223.357 56.1799C224.778 56.1799 225.488 55.7079 225.488 54.7639C225.47 54.3469 225.249 53.9649 224.896 53.7409C224.805 53.6739 224.475 53.4879 223.906 53.1829L223.114 52.7609C222.651 52.5339 222.214 52.2589 221.808 51.9409C221.362 51.5479 221.112 50.9789 221.124 50.3849C221.096 49.7269 221.386 49.0949 221.902 48.6849C222.553 48.2319 223.338 48.0129 224.13 48.0639C224.825 48.0879 225.516 48.1849 226.191 48.3529V49.5099C225.54 49.2549 224.848 49.1189 224.148 49.1099C223.699 49.0899 223.254 49.2059 222.871 49.4429C222.573 49.6059 222.383 49.9139 222.371 50.2529C222.396 50.5989 222.6 50.9069 222.91 51.0639L223.959 51.6349Z" fill="#F2F2F2"/>
<path d="M234.317 55.9922V57.0002C233.724 57.1722 233.108 57.2542 232.491 57.2452C231.268 57.3192 230.069 56.8792 229.185 56.0302C228.325 55.0432 227.891 53.7542 227.98 52.4482C227.98 49.5272 229.173 48.0662 231.558 48.0652C233.008 47.8692 234.342 48.8862 234.538 50.3362C234.565 50.5352 234.569 50.7362 234.55 50.9362H233.057C233.057 49.7182 232.535 49.1092 231.491 49.1092C230.79 49.0972 230.149 49.5042 229.861 50.1432C229.545 50.7692 229.39 51.4652 229.412 52.1662C229.372 53.0872 229.596 54.0012 230.059 54.7992C230.683 55.7412 231.768 56.2712 232.894 56.1832C233.376 56.1982 233.856 56.1332 234.317 55.9922Z" fill="#F2F2F2"/>
<path d="M236.366 57.0349V44.3179H237.617V50.2849H237.653C237.922 48.9839 239.071 48.0539 240.399 48.0619C241.057 48.0349 241.686 48.3349 242.081 48.8619C242.477 49.4169 242.677 50.0889 242.649 50.7699V57.0339H241.4V52.1659C241.43 51.4979 241.376 50.8299 241.238 50.1759C241.128 49.6499 240.65 49.2829 240.113 49.3129C239.35 49.3129 238.728 49.7989 238.24 50.7709C237.827 51.5949 237.615 52.5049 237.62 53.4269V57.0349H236.366Z" fill="#F2F2F2"/>
<path d="M244.967 53.075V51.814H250.574V53.075H244.967Z" fill="#F2F2F2"/>
<path d="M260.894 44.3179V52.9409C260.952 53.9029 260.741 54.8629 260.285 55.7119C259.65 56.7319 258.478 57.2419 256.769 57.2419C254.179 57.2419 252.885 55.8089 252.886 52.9419V44.3179H254.317V52.6759C254.274 53.4339 254.39 54.1919 254.659 54.9019C255.079 55.6889 255.935 56.1409 256.821 56.0449C257.751 56.1649 258.663 55.7129 259.13 54.8999C259.398 54.1899 259.512 53.4309 259.464 52.6739V44.3179H260.894Z" fill="#F2F2F2"/>
<path d="M263.737 57.0352V48.2592H264.989V49.9592H265.025C265.484 48.7532 266.672 47.9842 267.96 48.0592V49.4002C267.073 49.3592 266.228 49.7822 265.728 50.5162C265.191 51.3802 264.933 52.3892 264.989 53.4052V57.0322L263.737 57.0352Z" fill="#F2F2F2"/>
<path d="M274.391 57.0348V55.0098C274.143 56.3248 272.982 57.2688 271.644 57.2418C270.978 57.2708 270.341 56.9668 269.944 56.4318C269.552 55.8748 269.354 55.2048 269.382 54.5238V48.2588H270.633V53.1288C270.604 53.7998 270.658 54.4718 270.795 55.1288C270.907 55.6518 271.385 56.0158 271.919 55.9838C272.676 55.9838 273.298 55.4978 273.783 54.5258C274.19 53.7038 274.4 52.7978 274.395 51.8808V48.2608H275.646V57.0368L274.391 57.0348Z" fill="#F2F2F2"/>
<path d="M284.5 48.2588V57.0528C284.5 59.5968 283.262 60.8688 280.785 60.8698C279.983 60.8378 279.184 60.7378 278.399 60.5698V59.2998C279.092 59.6098 279.84 59.7798 280.599 59.7998C281.423 59.8898 282.239 59.5668 282.778 58.9368C283.139 58.3188 283.305 57.6068 283.253 56.8928V55.3518H283.218C283.09 55.7558 282.861 56.1198 282.553 56.4098C282.106 56.8298 281.51 57.0548 280.897 57.0348C279.917 57.0818 279 56.5548 278.547 55.6848C278.092 54.7598 277.878 53.7348 277.926 52.7058C277.881 51.5968 278.117 50.4938 278.611 49.4998C279.036 48.6068 279.943 48.0448 280.932 48.0608C281.54 48.0408 282.13 48.2608 282.578 48.6718C282.886 48.9458 283.108 49.3018 283.218 49.6988V48.2588H284.5ZM279.353 52.7188C279.353 54.8888 279.946 55.9738 281.131 55.9728C281.86 55.9398 282.495 55.4638 282.731 54.7728C283.066 54.0528 283.231 53.2658 283.213 52.4728C283.227 51.7158 283.069 50.9658 282.75 50.2798C282.513 49.5998 281.885 49.1328 281.166 49.1018C280.509 49.1288 279.944 49.5748 279.766 50.2078C279.464 51.0088 279.325 51.8628 279.357 52.7188H279.353Z" fill="#F2F2F2"/>
<path d="M292.289 57.0348V55.0098C292.04 56.3238 290.879 57.2668 289.541 57.2418C288.875 57.2718 288.237 56.9688 287.841 56.4318C287.448 55.8758 287.25 55.2048 287.278 54.5238V48.2588H288.529V53.1288C288.5 53.7998 288.554 54.4718 288.691 55.1288C288.803 55.6528 289.281 56.0158 289.816 55.9838C290.572 55.9838 291.193 55.4978 291.68 54.5258C292.086 53.7038 292.296 52.7978 292.292 51.8808V48.2608H293.542V57.0368L292.289 57.0348Z" fill="#F2F2F2"/>
<path d="M300.854 57.0351V55.8731H300.818C300.619 56.2191 300.333 56.5081 299.989 56.7111C299.435 57.0711 298.786 57.2561 298.126 57.2421C297.486 57.2751 296.862 57.0401 296.403 56.5931C295.958 56.0981 295.73 55.4451 295.77 54.7811C295.794 53.8231 296.4 52.9761 297.3 52.6451C298.136 52.2401 299.054 52.0341 299.983 52.0451C300.274 52.0511 300.566 52.0331 300.854 51.9921C300.87 51.4351 300.852 50.8771 300.799 50.3221C300.682 49.5431 299.963 49.0001 299.181 49.1021C298.101 49.1021 297.498 49.5691 297.372 50.5021H295.972C295.959 49.8841 296.207 49.2901 296.656 48.8651C297.337 48.2781 298.224 47.9861 299.121 48.0541C301.082 48.0541 302.063 48.9931 302.064 50.8711V57.0271L300.854 57.0351ZM300.818 53.0571H300.076C299.462 53.0491 298.853 53.1751 298.292 53.4261C297.652 53.6401 297.216 54.2321 297.2 54.9061C297.184 55.2611 297.319 55.6061 297.57 55.8571C297.806 56.0731 298.116 56.1891 298.436 56.1801C298.857 56.1751 299.268 56.0481 299.618 55.8131C300.005 55.5791 300.307 55.2291 300.483 54.8131C300.715 54.2571 300.829 53.6591 300.818 53.0571Z" fill="#F2F2F2"/>
<path d="M305.666 60.5888L306.9 57.0348L303.543 48.2588H304.893L307.448 55.1588H307.494L309.851 48.2588H311.192L306.954 60.5888H305.666Z" fill="#F2F2F2"/>
<path d="M312.576 45.9739V44.3179H314.234V45.9739H312.576ZM312.776 57.0349V48.2589H314.025V57.0349H312.776Z" fill="#F2F2F2"/>
<path d="M319.1 51.6352L319.837 52.0752C320.309 52.3412 320.763 52.6392 321.195 52.9672C321.652 53.3802 321.905 53.9722 321.888 54.5872C321.888 56.3572 320.799 57.2422 318.622 57.2422C317.81 57.2442 317.002 57.1192 316.228 56.8732V55.7312C316.958 55.9952 317.724 56.1462 318.5 56.1802C319.922 56.1802 320.633 55.7082 320.632 54.7642C320.614 54.3462 320.393 53.9642 320.039 53.7412C319.95 53.6752 319.619 53.4892 319.049 53.1832L318.257 52.7612C317.795 52.5342 317.357 52.2592 316.952 51.9412C316.506 51.5492 316.256 50.9792 316.269 50.3852C316.241 49.7272 316.529 49.0942 317.046 48.6852C317.697 48.2312 318.483 48.0122 319.275 48.0642C319.97 48.0892 320.66 48.1852 321.335 48.3532V49.5102C320.683 49.2552 319.991 49.1192 319.291 49.1102C318.842 49.0902 318.397 49.2062 318.015 49.4432C317.717 49.6062 317.527 49.9142 317.515 50.2532C317.54 50.6002 317.746 50.9072 318.056 51.0642L319.1 51.6352Z" fill="#F2F2F2"/>
<path d="M329.457 55.9922V57.0002C328.864 57.1722 328.249 57.2542 327.632 57.2452C326.408 57.3192 325.209 56.8782 324.324 56.0302C323.466 55.0422 323.034 53.7542 323.124 52.4482C323.124 49.5272 324.316 48.0662 326.701 48.0652C328.151 47.8692 329.486 48.8862 329.682 50.3372C329.709 50.5362 329.713 50.7372 329.694 50.9362H328.2C328.2 49.7182 327.678 49.1092 326.634 49.1092C325.933 49.0972 325.292 49.5032 325.004 50.1432C324.687 50.7692 324.533 51.4652 324.555 52.1662C324.513 53.0882 324.737 54.0022 325.2 54.8002C325.824 55.7422 326.909 56.2712 328.035 56.1842C328.516 56.1982 328.997 56.1342 329.457 55.9922Z" fill="#F2F2F2"/>
<path d="M331.507 57.0349V44.3179H332.757V50.2849H332.793C333.062 48.9849 334.21 48.0549 335.537 48.0619C336.196 48.0349 336.826 48.3339 337.221 48.8619C337.616 49.4169 337.816 50.0889 337.787 50.7699V57.0339H336.537V52.1659C336.566 51.4989 336.512 50.8299 336.375 50.1759C336.265 49.6499 335.787 49.2829 335.251 49.3129C334.488 49.3129 333.864 49.7989 333.378 50.7709C332.965 51.5949 332.752 52.5049 332.757 53.4269V57.0349H331.507Z" fill="#F2F2F2"/>
<path d="M346.317 55.937V56.979C345.663 57.168 344.984 57.257 344.304 57.242C343.125 57.317 341.973 56.866 341.159 56.009C340.344 54.973 339.944 53.67 340.037 52.355C339.968 51.248 340.261 50.149 340.871 49.223C341.491 48.434 342.459 48 343.461 48.062C344.332 48.009 345.179 48.357 345.761 49.007C346.292 49.685 346.56 50.531 346.516 51.391V51.814H341.467V52.335C341.451 53.181 341.663 54.016 342.081 54.752C342.57 55.67 343.542 56.225 344.581 56.18C345.167 56.163 345.749 56.081 346.317 55.937ZM341.466 50.771H345.076C345.076 50.389 344.946 50.018 344.707 49.719C344.385 49.307 343.882 49.078 343.359 49.106C342.378 49.048 341.533 49.791 341.466 50.771Z" fill="#F2F2F2"/>
<path d="M188.309 74.0808V61.3638H189.741V74.0808H188.309Z" fill="#F2F2F2"/>
<path d="M192.807 74.0811V65.3061H194.059V67.3321H194.095C194.364 66.0321 195.512 65.1011 196.84 65.1081C197.499 65.0811 198.128 65.3801 198.523 65.9081C198.918 66.4641 199.117 67.1351 199.089 67.8161V74.0801H197.838V69.2121C197.869 68.5451 197.814 67.8771 197.676 67.2241C197.567 66.6971 197.089 66.3291 196.552 66.3591C195.789 66.3591 195.164 66.8451 194.679 67.8171C194.266 68.6411 194.054 69.5511 194.059 70.4721V74.0811H192.807Z" fill="#F2F2F2"/>
<path d="M206.6 74.0808V72.5868H206.563C206.439 73.0028 206.203 73.3758 205.88 73.6658C205.45 74.0758 204.875 74.2998 204.28 74.2878C202.28 74.2878 201.28 72.7818 201.28 69.7688C201.236 68.6558 201.471 67.5488 201.963 66.5488C202.38 65.6578 203.28 65.0938 204.263 65.1078C205.32 65.0418 206.28 65.7248 206.563 66.7458H206.6V61.3638H207.851V74.0808H206.6ZM202.715 69.9998C202.715 72.1518 203.324 73.2278 204.542 73.2278C205.258 73.1898 205.878 72.7188 206.107 72.0398C206.45 71.3188 206.621 70.5288 206.607 69.7308C206.641 68.8628 206.464 67.9988 206.093 67.2138C205.845 66.5908 205.252 66.1738 204.582 66.1528C203.337 66.1518 202.714 67.4348 202.715 69.9998Z" fill="#F2F2F2"/>
<path d="M215.645 74.0812V72.0552C215.397 73.3702 214.236 74.3142 212.898 74.2882C212.232 74.3172 211.595 74.0141 211.198 73.4791C210.805 72.9221 210.607 72.2512 210.635 71.5702V65.3062H211.887V70.1742C211.857 70.8452 211.912 71.5172 212.049 72.1742C212.162 72.6972 212.64 73.0602 213.174 73.0292C213.93 73.0292 214.551 72.5432 215.036 71.5712C215.443 70.7482 215.652 69.8432 215.648 68.9252V65.3062H216.9V74.0812H215.645Z" fill="#F2F2F2"/>
<path d="M221.906 68.6808L222.645 69.1218C223.118 69.3878 223.572 69.6848 224.004 70.0128C224.461 70.4258 224.715 71.0178 224.698 71.6338C224.698 73.4018 223.608 74.2868 221.429 74.2878C220.617 74.2898 219.81 74.1648 219.036 73.9188V72.7758C219.765 73.0408 220.529 73.1928 221.304 73.2268C222.727 73.2268 223.438 72.7538 223.437 71.8088C223.418 71.3908 223.196 71.0088 222.842 70.7858C222.753 70.7208 222.423 70.5338 221.853 70.2288L221.061 69.8058C220.599 69.5788 220.162 69.3048 219.756 68.9878C219.31 68.5948 219.06 68.0248 219.072 67.4298C219.045 66.7718 219.334 66.1398 219.85 65.7298C220.501 65.2768 221.286 65.0578 222.078 65.1088C222.773 65.1328 223.463 65.2288 224.138 65.3968V66.5578C223.488 66.3008 222.796 66.1638 222.097 66.1528C221.647 66.1328 221.202 66.2488 220.819 66.4858C220.521 66.6488 220.331 66.9568 220.319 67.2958C220.344 67.6428 220.549 67.9508 220.86 68.1068C221.211 68.2998 221.56 68.4888 221.906 68.6808Z" fill="#F2F2F2"/>
<path d="M230.707 73.0652V74.1902C230.341 74.2522 229.97 74.2852 229.599 74.2902C228.928 74.3542 228.258 74.1622 227.723 73.7512C227.307 73.2772 227.104 72.6522 227.16 72.0242V66.3672H225.731V65.3062H227.16V63.2632L228.422 62.4712V65.3062H230.78V66.3672H228.422V71.7542C228.312 72.4552 228.791 73.1122 229.491 73.2222C229.61 73.2412 229.731 73.2432 229.851 73.2272C230.143 73.2162 230.431 73.1622 230.707 73.0652Z" fill="#F2F2F2"/>
<path d="M232.6 74.0812V65.3062H233.851V67.0062H233.888C234.345 65.8002 235.533 65.0302 236.821 65.1062V66.4472C235.934 66.4072 235.09 66.8302 234.589 67.5632C234.053 68.4282 233.795 69.4362 233.851 70.4522V74.0792L232.6 74.0812Z" fill="#F2F2F2"/>
<path d="M238.227 63.0198V61.3638H239.883V63.0198H238.227ZM238.427 74.0808V65.3058H239.677V74.0808H238.427Z" fill="#F2F2F2"/>
<path d="M248.359 72.9841V74.0251C247.705 74.2131 247.026 74.3021 246.346 74.2881C245.167 74.3641 244.015 73.9131 243.201 73.0561C242.386 72.0191 241.986 70.7161 242.079 69.4011C242.009 68.2941 242.302 67.1951 242.913 66.2691C243.532 65.4801 244.499 65.0451 245.5 65.1081C246.371 65.0571 247.217 65.4041 247.8 66.0531C248.331 66.7311 248.599 67.5781 248.555 68.4381V68.8611H243.506V69.3821C243.489 70.2281 243.7 71.0631 244.117 71.7991C244.608 72.7151 245.579 73.2691 246.617 73.2271C247.205 73.2091 247.789 73.1281 248.359 72.9841ZM243.508 67.8171H247.117C247.117 67.4341 246.987 67.0621 246.748 66.7631C246.425 66.3511 245.922 66.1231 245.399 66.1521C244.418 66.0941 243.574 66.8371 243.508 67.8171Z" fill="#F2F2F2"/>
<path d="M250.238 70.1208V68.8608H255.844V70.1208H250.238Z" fill="#F2F2F2"/>
<path d="M267.793 74.0812V72.0552C267.544 73.3702 266.383 74.3132 265.045 74.2882C264.379 74.3172 263.742 74.0141 263.345 73.4791C262.953 72.9221 262.755 72.2512 262.784 71.5702V65.3062H264.033V70.1742C264.004 70.8452 264.058 71.5172 264.196 72.1742C264.309 72.6972 264.787 73.0602 265.321 73.0292C266.077 73.0292 266.698 72.5432 267.184 71.5712C267.591 70.7492 267.801 69.8432 267.797 68.9252V65.3062H269.048V74.0812H267.793Z" fill="#F2F2F2"/>
<path d="M271.975 74.0811V65.3061H273.225V67.3321H273.263C273.531 66.0311 274.68 65.1011 276.008 65.1081C276.667 65.0811 277.296 65.3801 277.691 65.9081C278.087 66.4631 278.286 67.1351 278.258 67.8161V74.0801H277.007V69.2121C277.036 68.5451 276.982 67.8771 276.845 67.2241C276.736 66.6971 276.258 66.3291 275.72 66.3591C274.958 66.3591 274.333 66.8451 273.846 67.8171C273.434 68.6411 273.221 69.5511 273.225 70.4721V74.0811H271.975Z" fill="#F2F2F2"/>
<path d="M285.769 74.0808V72.5868H285.733C285.609 73.0028 285.373 73.3758 285.05 73.6658C284.62 74.0768 284.045 74.2998 283.45 74.2878C281.45 74.2878 280.45 72.7818 280.45 69.7688C280.405 68.6558 280.639 67.5488 281.132 66.5488C281.549 65.6578 282.449 65.0938 283.432 65.1078C284.489 65.0418 285.449 65.7248 285.732 66.7458H285.768V61.3638H287.019V74.0808H285.769ZM281.883 69.9998C281.883 72.1518 282.491 73.2278 283.708 73.2278C284.424 73.1898 285.045 72.7188 285.276 72.0398C285.615 71.3178 285.784 70.5278 285.769 69.7308C285.803 68.8628 285.627 67.9998 285.256 67.2138C285.008 66.5908 284.414 66.1748 283.744 66.1528C282.503 66.1518 281.882 67.4348 281.883 69.9998Z" fill="#F2F2F2"/>
<path d="M294.64 74.0808V61.3638H296.072V66.8708H301.327V61.3638H302.757V74.0808H301.327V68.0688H296.072V74.0808H294.64Z" fill="#F2F2F2"/>
<path d="M310.1 74.0811V72.9191H310.065C309.866 73.2651 309.581 73.5541 309.238 73.7571C308.684 74.1161 308.035 74.3011 307.375 74.2881C306.735 74.3211 306.11 74.0851 305.651 73.6381C305.205 73.1441 304.976 72.4911 305.017 71.8271C305.041 70.8681 305.648 70.0201 306.549 69.6891C307.385 69.2861 308.304 69.0831 309.232 69.0951C309.522 69.1011 309.813 69.0831 310.1 69.0411C310.115 68.4841 310.097 67.9271 310.047 67.3721C309.929 66.5921 309.209 66.0501 308.427 66.1521C307.349 66.1521 306.746 66.6191 306.618 67.5521H305.224C305.213 66.9351 305.46 66.3411 305.906 65.9151C306.589 65.3301 307.475 65.0381 308.372 65.1051C310.336 65.1051 311.318 66.0441 311.317 67.9221V74.0781L310.1 74.0811ZM310.065 70.1031H309.325C308.71 70.0951 308.101 70.2201 307.539 70.4701C306.898 70.6841 306.461 71.2771 306.446 71.9521C306.43 72.3071 306.566 72.6531 306.819 72.9031C307.054 73.1201 307.364 73.2361 307.683 73.2271C308.569 73.1961 309.362 72.6671 309.731 71.8611C309.963 71.3031 310.076 70.7041 310.063 70.1001L310.065 70.1031Z" fill="#F2F2F2"/>
<path d="M314.156 74.081V65.306H315.407V67.332H315.444C315.712 66.031 316.861 65.101 318.189 65.108C318.847 65.082 319.475 65.381 319.87 65.908C320.266 66.463 320.466 67.135 320.438 67.816V74.08H319.186V69.212C319.217 68.545 319.163 67.877 319.024 67.224C318.916 66.697 318.437 66.329 317.9 66.359C317.137 66.359 316.513 66.845 316.028 67.817C315.615 68.641 315.402 69.55 315.407 70.472V74.081H314.156Z" fill="#F2F2F2"/>
<path d="M327.951 74.0808V72.5868H327.913C327.79 73.0028 327.554 73.3758 327.232 73.6658C326.801 74.0758 326.226 74.2998 325.632 74.2878C323.632 74.2878 322.632 72.7818 322.632 69.7688C322.587 68.6558 322.821 67.5488 323.312 66.5488C323.729 65.6578 324.629 65.0938 325.612 65.1078C326.67 65.0398 327.63 65.7238 327.912 66.7458H327.95V61.3638H329.2V74.0808H327.951ZM324.064 69.9998C324.064 72.1518 324.672 73.2278 325.889 73.2278C326.605 73.1908 327.227 72.7198 327.455 72.0398C327.798 71.3188 327.969 70.5288 327.955 69.7308C327.988 68.8628 327.813 67.9998 327.443 67.2138C327.194 66.5908 326.6 66.1748 325.93 66.1528C324.685 66.1518 324.063 67.4348 324.064 69.9998Z" fill="#F2F2F2"/>
<path d="M337.739 72.9841V74.0251C337.086 74.2131 336.408 74.3021 335.728 74.2881C334.548 74.3631 333.396 73.9121 332.581 73.0561C331.766 72.0191 331.366 70.7161 331.459 69.4011C331.39 68.2941 331.683 67.1951 332.294 66.2691C332.914 65.4791 333.882 65.0451 334.884 65.1081C335.755 65.0561 336.601 65.4041 337.184 66.0531C337.716 66.7311 337.985 67.5781 337.94 68.4381V68.8611H332.89V69.3821C332.873 70.2281 333.084 71.0631 333.5 71.8001C333.99 72.7161 334.962 73.2711 336 73.2281C336.587 73.2101 337.17 73.1281 337.739 72.9841ZM332.89 67.8171H336.5C336.5 67.4341 336.37 67.0621 336.131 66.7631C335.807 66.3521 335.304 66.1241 334.782 66.1521C333.801 66.0931 332.956 66.8361 332.89 67.8171Z" fill="#F2F2F2"/>
<path d="M340.25 74.0808V61.3638H341.5V74.0808H340.25Z" fill="#F2F2F2"/>
<path d="M346.574 68.6808L347.313 69.1218C347.785 69.3878 348.239 69.6858 348.672 70.0128C349.129 70.4258 349.382 71.0178 349.365 71.6338C349.365 73.4018 348.276 74.2868 346.099 74.2878C345.285 74.2898 344.475 74.1658 343.699 73.9188V72.7758C344.428 73.0398 345.193 73.1918 345.968 73.2268C347.39 73.2268 348.101 72.7538 348.101 71.8088C348.081 71.3898 347.857 71.0078 347.501 70.7858C347.412 70.7208 347.082 70.5338 346.511 70.2288L345.72 69.8058C345.259 69.5788 344.824 69.3048 344.42 68.9878C343.973 68.5948 343.722 68.0248 343.735 67.4298C343.707 66.7708 343.997 66.1388 344.514 65.7298C345.165 65.2768 345.95 65.0578 346.741 65.1088C347.436 65.1328 348.127 65.2298 348.802 65.3968V66.5578C348.151 66.3008 347.459 66.1638 346.76 66.1528C346.31 66.1328 345.864 66.2488 345.481 66.4858C345.185 66.6498 344.998 66.9578 344.987 67.2958C345.011 67.6428 345.216 67.9508 345.526 68.1068C345.878 68.2998 346.228 68.4888 346.574 68.6808Z" fill="#F2F2F2"/>
<path d="M351.226 74.0808V61.3638H352.477V69.0138H352.513L355.555 65.3058H357.084L353.934 69.1938L357.472 74.0808H355.925L352.513 69.4008H352.477V74.0808H351.226Z" fill="#F2F2F2"/>
<path d="M363.363 74.081V72.919H363.328C363.129 73.265 362.844 73.553 362.501 73.757C361.947 74.116 361.298 74.301 360.638 74.288C359.998 74.321 359.373 74.085 358.914 73.638C358.468 73.144 358.24 72.491 358.28 71.827C358.304 70.868 358.911 70.021 359.811 69.689C360.65 69.287 361.57 69.086 362.5 69.1C362.79 69.106 363.081 69.088 363.368 69.046C363.385 68.489 363.367 67.932 363.315 67.377C363.197 66.597 362.478 66.055 361.696 66.157C360.617 66.157 360.014 66.624 359.886 67.557H358.493C358.481 66.94 358.729 66.346 359.176 65.92C359.857 65.334 360.744 65.043 361.64 65.11C363.604 65.11 364.586 66.049 364.585 67.927V74.083L363.363 74.081ZM363.328 70.103H362.589C361.974 70.095 361.364 70.22 360.802 70.47C360.162 70.684 359.725 71.277 359.71 71.952C359.695 72.307 359.83 72.652 360.082 72.903C360.316 73.12 360.626 73.236 360.945 73.227C361.832 73.196 362.625 72.667 362.995 71.861C363.227 71.303 363.34 70.704 363.328 70.1V70.103Z" fill="#F2F2F2"/>
<path d="M367.4 74.0808V65.3058H368.652V67.3318H368.689C369.108 65.8498 369.927 65.1088 371.146 65.1078C372.216 64.9708 373.194 65.7268 373.331 66.7968C373.345 66.9018 373.349 67.0088 373.346 67.1148H373.382C373.538 66.6488 373.793 66.2218 374.13 65.8638C374.575 65.3718 375.212 65.0958 375.875 65.1078C376.534 65.0808 377.164 65.3798 377.56 65.9078C377.955 66.4638 378.154 67.1348 378.125 67.8158V74.0798H376.875V69.2118C376.903 68.5418 376.852 67.8698 376.723 67.2118C376.603 66.6868 376.121 66.3258 375.584 66.3558C374.911 66.3558 374.36 66.8448 373.932 67.8238C373.564 68.6568 373.377 69.5578 373.382 70.4688V74.0778H372.13V69.2118C372.161 68.5448 372.107 67.8768 371.969 67.2238C371.86 66.6968 371.381 66.3288 370.844 66.3588C370.177 66.3588 369.628 66.8448 369.197 67.8168C368.831 68.6538 368.644 69.5578 368.648 70.4718V74.0808H367.4Z" fill="#F2F2F2"/>
<path d="M380.974 74.0808V65.3058H382.225V67.3318H382.26C382.679 65.8498 383.498 65.1088 384.717 65.1078C385.788 64.9688 386.769 65.7248 386.908 66.7968C386.922 66.9028 386.927 67.0088 386.923 67.1148H386.957C387.112 66.6488 387.367 66.2218 387.704 65.8638C388.15 65.3718 388.786 65.0958 389.45 65.1078C390.109 65.0798 390.74 65.3798 391.135 65.9078C391.529 66.4638 391.728 67.1348 391.7 67.8158V74.0798H390.45V69.2118C390.478 68.5418 390.427 67.8698 390.297 67.2118C390.178 66.6868 389.697 66.3238 389.159 66.3558C388.486 66.3558 387.936 66.8448 387.51 67.8238C387.141 68.6568 386.952 69.5578 386.957 70.4688V74.0778H385.707V69.2118C385.736 68.5448 385.682 67.8768 385.545 67.2238C385.435 66.6968 384.957 66.3288 384.419 66.3588C383.752 66.3588 383.204 66.8448 382.773 67.8168C382.407 68.6538 382.22 69.5578 382.225 70.4718V74.0808H380.974Z" fill="#F2F2F2"/>
<path d="M400.247 72.9839V74.0249C399.594 74.2129 398.916 74.3019 398.236 74.2879C397.057 74.3639 395.904 73.9119 395.09 73.0559C394.274 72.0199 393.874 70.7169 393.967 69.4009C393.898 68.2939 394.191 67.1949 394.802 66.2689C395.422 65.4799 396.39 65.0459 397.392 65.1079C398.263 65.0559 399.11 65.4039 399.692 66.0529C400.224 66.7309 400.493 67.5779 400.448 68.4379V68.8609H395.4V69.3819C395.384 70.2279 395.596 71.0629 396.013 71.7989C396.503 72.7149 397.475 73.2699 398.513 73.2269C399.098 73.2089 399.68 73.1279 400.247 72.9839ZM395.397 67.8169H399.007C399.006 67.4339 398.877 67.0629 398.639 66.7629C398.316 66.3529 397.814 66.1249 397.292 66.1519C396.311 66.0939 395.467 66.8369 395.4 67.8169H395.397Z" fill="#F2F2F2"/>
<path d="M402.649 74.0811V65.3061H403.9V67.0061H403.937C404.395 65.8001 405.582 65.0311 406.87 65.1061V66.4471C405.983 66.4071 405.14 66.8291 404.64 67.5631C404.102 68.4271 403.844 69.4361 403.9 70.4521V74.0791L402.649 74.0811Z" fill="#F2F2F2"/>
<path d="M81.8327 0.5H0.885742V80.5H81.8327C86.6327 67.714 89.0537 54.157 88.9767 40.5C89.0257 26.081 86.6717 12.256 81.8327 0.5Z" fill="#CCD5EA"/>
<path d="M16.2072 55.6128H17.4882V65.2198H16.1042V57.7438L13.1452 61.4568H12.8902L9.90623 57.7438V65.2198H8.53223V55.6128H9.82323L13.0222 59.5598L16.2072 55.6128Z" fill="#312782"/>
<path d="M19.4121 55.6128H24.8641V56.8378H20.7891V59.7668H24.7221V61.0008H20.7891V63.9838H24.9921V65.2068H19.4121V55.6128Z" fill="#312782"/>
<path d="M26.3564 65.2199V55.6129H28.7644C29.5964 55.5659 30.4174 55.8219 31.0754 56.3339C31.6494 56.8169 31.9664 57.5389 31.9364 58.2879C31.9774 59.3489 31.3164 60.3109 30.3114 60.6529C30.6504 60.8819 30.9534 61.1599 31.2114 61.4769C31.6644 62.0569 32.0794 62.6659 32.4514 63.2999C32.7844 63.8419 33.0514 64.2529 33.2514 64.5279L33.7594 65.2179H32.1284L31.7074 64.5849C31.6944 64.5649 31.6664 64.5219 31.6244 64.4689L31.3564 64.0899L30.9324 63.3899L30.4694 62.6419C30.2364 62.3049 29.9744 61.9889 29.6854 61.6979C29.4974 61.5029 29.2834 61.3349 29.0494 61.1979C28.7454 61.0749 28.4184 61.0219 28.0914 61.0429H27.7324V65.2229L26.3564 65.2199ZM28.1474 56.7819H27.7324V59.8159H28.2564C28.7394 59.8469 29.2244 59.7849 29.6854 59.6349C29.9384 59.5239 30.1504 59.3369 30.2924 59.0999C30.4394 58.8499 30.5154 58.5649 30.5114 58.2749C30.5154 57.9849 30.4314 57.6999 30.2714 57.4579C30.1124 57.2089 29.8704 57.0229 29.5884 56.9349C29.1184 56.8109 28.6324 56.7589 28.1474 56.7819Z" fill="#312782"/>
<path d="M42.9635 62.991V64.506C41.8865 65.071 40.6845 65.354 39.4695 65.329C38.5195 65.359 37.5775 65.136 36.7415 64.683C35.9985 64.261 35.3845 63.645 34.9655 62.9C34.5305 62.156 34.3035 61.309 34.3075 60.447C34.2825 59.112 34.8275 57.829 35.8075 56.921C36.7975 55.969 38.1275 55.453 39.5005 55.488C40.6625 55.522 41.8045 55.791 42.8595 56.278V57.759C41.8665 57.152 40.7305 56.819 39.5675 56.794C38.5505 56.763 37.5625 57.14 36.8245 57.841C35.3835 59.273 35.3755 61.602 36.8075 63.044L36.8105 63.047C37.5535 63.736 38.5405 64.102 39.5535 64.064C40.7705 64.047 41.9565 63.674 42.9635 62.991Z" fill="#312782"/>
<path d="M49.2298 55.476C50.6028 55.434 51.9368 55.94 52.9378 56.881C53.9138 57.794 54.4538 59.081 54.4218 60.417C54.4578 61.754 53.9098 63.04 52.9218 63.941C51.8958 64.879 50.5428 65.378 49.1538 65.329C47.8098 65.369 46.5058 64.869 45.5328 63.941C44.5778 63.032 44.0528 61.76 44.0888 60.441C44.0508 59.1 44.5798 57.806 45.5458 56.876C46.5368 55.935 47.8638 55.43 49.2298 55.476ZM49.2828 56.782C48.2768 56.747 47.2998 57.118 46.5708 57.812C45.8618 58.501 45.4758 59.458 45.5088 60.446C45.4838 61.42 45.8708 62.36 46.5748 63.033C48.0938 64.414 50.4168 64.407 51.9268 63.015C52.6378 62.33 53.0268 61.377 52.9998 60.39C53.0228 59.422 52.6308 58.49 51.9238 57.828C51.2208 57.136 50.2688 56.759 49.2828 56.782Z" fill="#312782"/>
<path d="M58.3437 61.19L57.2997 60.555C56.7607 60.259 56.2847 59.86 55.8997 59.381C55.6207 58.99 55.4747 58.521 55.4827 58.041C55.4597 57.34 55.7477 56.665 56.2687 56.197C56.8367 55.71 57.5687 55.456 58.3167 55.488C59.1037 55.483 59.8737 55.719 60.5227 56.165V57.72C59.9397 57.106 59.1377 56.75 58.2917 56.728C57.8977 56.712 57.5077 56.822 57.1807 57.043C56.9107 57.219 56.7477 57.52 56.7497 57.843C56.7547 58.142 56.8667 58.428 57.0657 58.651C57.3587 58.973 57.7057 59.242 58.0907 59.445L59.1427 60.064C60.1817 60.553 60.8597 61.582 60.8997 62.729C60.9257 63.438 60.6427 64.124 60.1237 64.609C59.5757 65.103 58.8547 65.3621 58.1177 65.3291C57.1807 65.3341 56.2687 65.026 55.5257 64.454V62.708C56.1087 63.565 57.0677 64.089 58.1037 64.118C58.4927 64.133 58.8737 64.006 59.1767 63.762C59.4547 63.542 59.6147 63.206 59.6107 62.852C59.6117 62.268 59.1907 61.713 58.3437 61.19Z" fill="#312782"/>
<path d="M68.9611 55.6128H70.3441V61.0658C70.3621 61.6278 70.3071 62.1898 70.1791 62.7378C70.0901 63.0688 69.9551 63.3868 69.7791 63.6808C69.6211 63.9308 69.4261 64.1558 69.2021 64.3488C67.4171 65.6538 64.9941 65.6558 63.2071 64.3538C62.9831 64.1568 62.7861 63.9308 62.6231 63.6808C62.4501 63.3918 62.3181 63.0798 62.2291 62.7548C62.1091 62.1968 62.0591 61.6258 62.0781 61.0548V55.6128H63.4591V61.0658C63.4111 61.7098 63.5181 62.3568 63.7721 62.9508C63.9961 63.3198 64.3221 63.6158 64.7111 63.8038C65.1781 64.0228 65.6891 64.1308 66.2051 64.1178C66.9251 64.1508 67.6331 63.9238 68.2001 63.4798C68.4621 63.2628 68.6641 62.9828 68.7851 62.6648C68.9311 62.1448 68.9921 61.6048 68.9641 61.0648L68.9611 55.6128Z" fill="#312782"/>
<path d="M72.1465 65.2201V55.6131H74.5545C75.3875 55.5651 76.2095 55.8211 76.8675 56.3341C77.4405 56.8171 77.7565 57.5391 77.7245 58.2881C77.7695 59.3491 77.1095 60.3121 76.1045 60.6531C76.4425 60.8831 76.7465 61.1601 77.0045 61.4771C77.4565 62.0561 77.8695 62.6651 78.2405 63.3001C78.5785 63.8421 78.8455 64.2531 79.0455 64.5281L79.5545 65.2181H77.9215L77.5005 64.5871C77.4885 64.5671 77.4575 64.5241 77.4205 64.4711L77.1495 64.0921L76.7265 63.3921L76.2615 62.6441C76.0285 62.3071 75.7665 61.9921 75.4785 61.7001C75.2905 61.5051 75.0755 61.3361 74.8405 61.2001C74.5375 61.0771 74.2105 61.0241 73.8835 61.0451H73.5245V65.2251L72.1465 65.2201ZM73.9365 56.7821H73.5225V59.8161H74.0465C74.5305 59.8471 75.0155 59.7851 75.4765 59.6351C75.7295 59.5251 75.9415 59.3381 76.0815 59.1001C76.2315 58.8511 76.3085 58.5651 76.3045 58.2751C76.3075 57.9841 76.2225 57.6991 76.0595 57.4581C75.9035 57.2081 75.6625 57.0231 75.3815 56.9351C74.9105 56.8111 74.4235 56.7601 73.9365 56.7821Z" fill="#312782"/>
<path d="M4.91309 52.7671C15.9551 48.9581 36.1861 44.2621 58.5721 44.2591C66.4511 44.2331 74.3181 44.8651 82.0911 46.1501L81.8461 47.6001C74.1541 46.3291 66.3691 45.7031 58.5721 45.7291C36.3921 45.7291 16.2721 50.3981 5.39209 54.1561L4.91309 52.7701V52.7671Z" fill="#65B22E"/>
<path d="M35.4035 27.1578L33.1755 27.9118L32.4225 30.1418L31.6695 27.9118L29.4385 27.1578L31.6695 26.4058L32.4225 24.1758L33.1755 26.4058L35.4035 27.1578Z" fill="#312782"/>
<path d="M43.1867 19.9561L40.9587 20.7101L40.2017 22.9411L39.4497 20.7101L37.2207 19.9561L39.4497 19.2031L40.2017 16.9741L40.9587 19.2031L43.1867 19.9561Z" fill="#312782"/>
<path d="M52.128 24.7281L49.901 25.4811L49.148 27.7111L48.395 25.4811L46.168 24.7281L48.395 23.9731L49.148 21.7441L49.901 23.9731L52.128 24.7281Z" fill="#312782"/>
<path d="M46.2472 40.6519L44.0172 41.4059L43.2662 43.6389L42.5112 41.4059L40.2822 40.6519L42.5112 39.9019L43.2662 37.6699L44.0172 39.9019L46.2472 40.6519Z" fill="#312782"/>
<path d="M173.886 80.5H80.5293C85.3283 67.713 87.7503 54.157 87.6763 40.5C87.7423 26.411 85.4043 12.246 80.5293 0.5H173.886V80.5Z" fill="#005596"/>
<path d="M133.94 15.1451C133.942 14.4181 134.533 13.8291 135.26 13.8311H137.9C138.626 13.8301 139.216 14.4191 139.217 15.1451L139.212 39.1121C139.21 39.8371 138.621 40.4241 137.896 40.4241H135.275C134.546 40.4271 133.952 39.8411 133.945 39.1131V29.2381H123.239V39.1121C123.236 39.8391 122.644 40.4271 121.917 40.4241H119.281C118.554 40.4261 117.963 39.8391 117.961 39.1121V15.1451C117.963 14.4181 118.553 13.8301 119.28 13.8311H121.923C122.65 13.8291 123.241 14.4181 123.243 15.1451V24.7881H133.938L133.94 15.1451Z" fill="white"/>
<path d="M166.522 15.1452C167.171 14.4202 167.272 13.8242 166.383 13.8312L162.483 13.8552C161.5 13.7122 160.513 14.0952 159.883 14.8632L150.031 25.8682V15.1682C150.045 14.4562 149.479 13.8682 148.767 13.8542C148.76 13.8542 148.752 13.8542 148.745 13.8542H146.062C145.335 13.8532 144.746 14.4412 144.744 15.1682V39.1342C144.745 39.8592 145.334 40.4472 146.059 40.4462H148.759C149.464 40.4452 150.035 39.8732 150.034 39.1672C150.034 39.1562 150.034 39.1452 150.034 39.1342V33.5532L154.563 28.5162L161.116 39.1342C161.455 39.8482 162.132 40.3422 162.916 40.4462H166.7C167.43 40.4462 167.657 39.8592 167.213 39.1342L158.123 24.5412L166.522 15.1452Z" fill="white"/>
<path d="M104.69 13.8309C105.515 13.7989 106.25 14.3459 106.458 15.1449L114.644 39.1119C114.868 39.5609 114.686 40.1059 114.238 40.3299C114.093 40.4019 113.932 40.4349 113.771 40.4239H111.151C110.349 40.3739 109.649 39.8619 109.359 39.1119L107.616 33.7119H98.6157L96.8767 39.1119C96.5877 39.8629 95.8877 40.3759 95.0847 40.4239H92.4667C91.9667 40.4559 91.5357 40.0759 91.5037 39.5759C91.4937 39.4159 91.5257 39.2549 91.5987 39.1119L99.7787 15.1449C99.9887 14.3479 100.723 13.8019 101.547 13.8309H104.69ZM99.5827 29.2309H105.6L102.611 19.9399L99.5827 29.2309Z" fill="white"/>
</g>
<defs>
<clipPath id="clip0_2056_113">
<rect width="430" height="80" fill="white" transform="translate(0.5 0.5)"/>
</clipPath>
</defs>
</svg>
