<svg width="48" height="48" viewBox="0 0 48 48" fill="none" xmlns="http://www.w3.org/2000/svg">
<path d="M16.92 16.58C16.5434 16.1928 16.0284 15.971 15.4883 15.9635C14.9482 15.956 14.4273 16.1634 14.04 16.54C13.6528 16.9166 13.4311 17.4316 13.4236 17.9717C13.4161 18.5118 13.6234 19.0328 14 19.42L18.68 24L14 28.58C13.8126 28.7659 13.6638 28.9871 13.5623 29.2309C13.4607 29.4746 13.4084 29.736 13.4084 30C13.4084 30.264 13.4607 30.5254 13.5623 30.7692C13.6638 31.0129 13.8126 31.2341 14 31.42C14.186 31.6075 14.4072 31.7563 14.6509 31.8578C14.8946 31.9593 15.156 32.0116 15.42 32.0116C15.6841 32.0116 15.9455 31.9593 16.1892 31.8578C16.4329 31.7563 16.6541 31.6075 16.84 31.42L22.84 25.42C23.0275 25.2341 23.1763 25.0129 23.2778 24.7692C23.3794 24.5254 23.4316 24.264 23.4316 24C23.4316 23.736 23.3794 23.4746 23.2778 23.2309C23.1763 22.9871 23.0275 22.7659 22.84 22.58L16.92 16.58ZM33.92 22.58L27.92 16.58C27.5434 16.2034 27.0326 15.9918 26.5 15.9918C25.9674 15.9918 25.4567 16.2034 25.08 16.58C24.7034 16.9566 24.4919 17.4674 24.4919 18C24.4919 18.5326 24.7034 19.0434 25.08 19.42L29.68 24L25.08 28.58C24.8926 28.7659 24.7438 28.9871 24.6423 29.2309C24.5407 29.4746 24.4884 29.736 24.4884 30C24.4884 30.264 24.5407 30.5254 24.6423 30.7692C24.7438 31.0129 24.8926 31.2341 25.08 31.42C25.266 31.6075 25.4872 31.7563 25.7309 31.8578C25.9746 31.9593 26.236 32.0116 26.5 32.0116C26.7641 32.0116 27.0255 31.9593 27.2692 31.8578C27.5129 31.7563 27.7341 31.6075 27.92 31.42L33.92 25.42C34.1128 25.2394 34.2679 25.0224 34.3764 24.7816C34.4849 24.5407 34.5445 24.2807 34.552 24.0167C34.5594 23.7526 34.5145 23.4897 34.4197 23.2431C34.325 22.9965 34.1824 22.7712 34 22.58H33.92Z" fill="#57B6B2"/>
</svg>
