<svg width="412" height="80" viewBox="0 0 412 80" fill="none" xmlns="http://www.w3.org/2000/svg">
<path d="M80.946 0H0V80H80.946C85.746 67.214 88.167 53.657 88.088 40C88.142 25.58 85.787 11.752 80.946 0Z" fill="#BECAE2"/>
<path d="M15.358 55.2441H16.645V64.8681H15.259V57.3841L12.29 61.1061H12.037L9.04099 57.3841V64.8681H7.66699V55.2441H8.96199L12.169 59.2031L15.358 55.2441Z" fill="#2E3191"/>
<path d="M18.571 55.2441H24.035V56.4781H19.951V59.4131H23.892V60.6411H19.951V63.6381H24.167V64.8621H18.571V55.2441Z" fill="#2E3191"/>
<path d="M25.532 64.8677V55.2438H27.945C28.78 55.1968 29.603 55.4538 30.262 55.9688C30.836 56.4548 31.154 57.1768 31.124 57.9278C31.135 58.4448 30.987 58.9538 30.7 59.3838C30.407 59.8068 29.987 60.1258 29.5 60.2928C29.837 60.5298 30.143 60.8088 30.409 61.1228C30.859 61.7048 31.272 62.3148 31.647 62.9478C31.981 63.4998 32.247 63.9117 32.447 64.1867L32.958 64.8677H31.32L30.896 64.2508C30.875 64.2048 30.849 64.1618 30.817 64.1228L30.549 63.7488L30.119 63.0378L29.66 62.2928C29.424 61.9568 29.16 61.6408 28.87 61.3488C28.683 61.1468 28.468 60.9748 28.23 60.8368C27.925 60.7218 27.599 60.6718 27.274 60.6908H26.913V64.8677H25.532ZM27.321 56.4138H26.913V59.4568H27.438C27.923 59.4888 28.409 59.4278 28.87 59.2758C29.123 59.1688 29.334 58.9818 29.47 58.7438C29.618 58.4938 29.695 58.2088 29.692 57.9188C29.696 57.6268 29.611 57.3398 29.448 57.0978C29.289 56.8458 29.046 56.6578 28.761 56.5688C28.292 56.4428 27.806 56.3908 27.321 56.4138Z" fill="#2E3191"/>
<path d="M42.1821 62.6407V64.1607C41.1001 64.7257 39.8941 65.0087 38.6741 64.9847C37.7201 65.0157 36.7761 64.7907 35.9391 64.3327C35.1931 63.9147 34.5781 63.2967 34.1621 62.5497C33.7271 61.8037 33.5001 60.9547 33.5061 60.0907C33.4731 58.7527 34.0171 57.4647 35.0001 56.5567C35.9931 55.6057 37.3251 55.0897 38.7001 55.1247C39.8631 55.1587 41.0071 55.4267 42.0651 55.9107V57.3997C41.0701 56.7897 39.9321 56.4547 38.7651 56.4287C37.7451 56.3977 36.7541 56.7757 36.0141 57.4787C34.5701 58.9107 34.5591 61.2427 35.9921 62.6867C35.9941 62.6887 35.9961 62.6907 35.9981 62.6937C36.7431 63.3867 37.7331 63.7547 38.7491 63.7167C39.9741 63.7017 41.1681 63.3277 42.1821 62.6407Z" fill="#2E3191"/>
<path d="M48.462 55.1002C49.841 55.0602 51.179 55.5692 52.182 56.5152C53.157 57.4282 53.697 58.7132 53.667 60.0492C53.706 61.3922 53.156 62.6852 52.16 63.5872C51.134 64.5312 49.777 65.0322 48.383 64.9812C47.035 65.0222 45.727 64.5202 44.753 63.5872C43.798 62.6772 43.274 61.4052 43.309 60.0872C43.268 58.7432 43.798 57.4452 44.768 56.5152C45.76 55.5672 47.091 55.0572 48.462 55.1002ZM48.516 56.4102C47.507 56.3762 46.527 56.7502 45.796 57.4472C45.086 58.1382 44.701 59.0972 44.733 60.0872C44.704 61.0632 45.092 62.0062 45.8 62.6792C47.321 64.0662 49.65 64.0612 51.165 62.6672C51.879 61.9822 52.269 61.0282 52.24 60.0392C52.266 59.0672 51.875 58.1312 51.165 57.4662C50.461 56.7712 49.505 56.3912 48.516 56.4142V56.4102Z" fill="#2E3191"/>
<path d="M57.6 60.8341L56.552 60.1911C56.009 59.9001 55.531 59.5031 55.144 59.0241C54.867 58.6291 54.723 58.1561 54.732 57.6741C54.707 56.9731 54.997 56.2971 55.522 55.8321C56.087 55.3441 56.817 55.0911 57.562 55.1251C58.353 55.1181 59.127 55.3541 59.78 55.8001V57.3551C59.193 56.7471 58.392 56.3921 57.547 56.3671C57.152 56.3481 56.761 56.4561 56.431 56.6741C56.165 56.8541 56.005 57.1531 56.002 57.4741C56.008 57.7741 56.119 58.0621 56.314 58.2891C56.614 58.6071 56.962 58.8741 57.346 59.0821L58.404 59.7011C59.446 60.1911 60.125 61.2231 60.161 62.3741C60.189 63.0861 59.907 63.7741 59.388 64.2621C58.833 64.7511 58.111 65.0081 57.372 64.9811C56.432 64.9841 55.518 64.6761 54.772 64.1041V62.3601C55.361 63.2151 56.321 63.7381 57.359 63.7691C57.75 63.7861 58.133 63.6601 58.438 63.4151C58.713 63.1931 58.873 62.8571 58.871 62.5031C58.868 61.9161 58.445 61.3571 57.6 60.8341Z" fill="#2E3191"/>
<path d="M68.2381 55.2441H69.6251V60.7171C69.6441 61.2791 69.5881 61.8411 69.4601 62.3891C69.3671 62.7191 69.2331 63.0371 69.0601 63.3331C68.8971 63.5821 68.7011 63.8081 68.4791 64.0061C66.6861 65.3111 64.2571 65.3111 62.4641 64.0061C62.2391 63.8111 62.0441 63.5851 61.8861 63.3331C61.7061 63.0461 61.5711 62.7321 61.4861 62.4041C61.3671 61.8441 61.3181 61.2721 61.3401 60.7001V55.2441H62.7251V60.7171C62.6811 61.3621 62.7861 62.0081 63.0321 62.6061C63.2661 62.9691 63.5911 63.2641 63.9751 63.4621C64.4451 63.6761 64.9581 63.7811 65.4751 63.7691C66.1991 63.8021 66.9111 63.5731 67.4801 63.1231C67.7451 62.9121 67.9461 62.6311 68.0621 62.3131C68.2091 61.7931 68.2691 61.2531 68.2411 60.7131L68.2381 55.2441Z" fill="#2E3191"/>
<path d="M71.428 64.8675V55.2435H73.851C74.684 55.1975 75.505 55.4555 76.163 55.9685C76.737 56.4535 77.054 57.1765 77.021 57.9275C77.033 58.4445 76.887 58.9525 76.603 59.3835C76.308 59.8075 75.886 60.1255 75.397 60.2925C75.736 60.5265 76.042 60.8055 76.306 61.1225C76.758 61.7025 77.17 62.3125 77.54 62.9475C77.878 63.4995 78.148 63.9125 78.35 64.1865L78.861 64.8675H77.221L76.793 64.2505C76.773 64.2035 76.747 64.1605 76.714 64.1225L76.444 63.7485L76.026 63.0375L75.555 62.2925C75.319 61.9575 75.057 61.6415 74.771 61.3485C74.584 61.1455 74.367 60.9725 74.127 60.8365C73.822 60.7195 73.495 60.6705 73.169 60.6905H72.816V64.8675H71.428ZM73.228 56.4135H72.816V59.4565H73.339C73.824 59.4895 74.31 59.4275 74.771 59.2755C75.024 59.1685 75.235 58.9815 75.371 58.7435C75.521 58.4945 75.599 58.2095 75.599 57.9185C75.602 57.6255 75.514 57.3395 75.349 57.0975C75.192 56.8485 74.954 56.6615 74.674 56.5685C74.203 56.4445 73.715 56.3925 73.228 56.4135Z" fill="#2E3191"/>
<path d="M4.28003 53.0935C19.042 47.9935 50.457 41.2735 81.28 46.4935" stroke="#62BA46" stroke-width="0.982"/>
<path d="M34.5999 26.7233L32.3679 27.4783L31.6109 29.7203L30.8599 27.4783L28.6219 26.7233L30.8599 25.9663L31.6109 23.7363L32.3679 25.9663L34.5999 26.7233Z" fill="#2E3191"/>
<path d="M42.399 19.5077L40.173 20.2537L39.409 22.4957L38.658 20.2537L36.426 19.5077L38.658 18.7447L39.409 16.5117L40.173 18.7447L42.399 19.5077Z" fill="#2E3191"/>
<path d="M51.3659 24.2878L49.1329 25.0478L48.3829 27.2788L47.6259 25.0478L45.3879 24.2878L47.6259 23.5338L48.3829 21.2998L49.1329 23.5338L51.3659 24.2878Z" fill="#2E3191"/>
<path d="M45.467 40.2559L43.235 41.0039L42.483 43.2439L41.722 41.0039L39.494 40.2559L41.722 39.4989L42.483 37.2559L43.235 39.4989L45.467 40.2559Z" fill="#2E3191"/>
<path d="M173 80H80.0569C84.8549 67.213 87.2799 53.658 87.2109 40C87.2749 25.912 84.9359 11.745 80.0569 0H173V80Z" fill="#005A9B"/>
<path d="M133.376 14.6824C133.375 13.9524 133.966 13.3614 134.696 13.3604H134.7H137.35C138.078 13.3644 138.666 13.9544 138.667 14.6824V38.7014C138.663 39.4294 138.072 40.0174 137.344 40.0194H134.719C133.987 40.0274 133.388 39.4404 133.38 38.7084C133.38 38.7054 133.38 38.7034 133.38 38.7004V28.8084H122.652V38.7004C122.649 39.4314 122.055 40.0214 121.324 40.0184H118.69C117.959 40.0214 117.365 39.4314 117.362 38.7004V14.6824C117.364 13.9504 117.958 13.3584 118.69 13.3604H121.334C122.064 13.3624 122.655 13.9524 122.657 14.6824V24.3444H133.38L133.376 14.6824Z" fill="white"/>
<path d="M166.035 14.6824C166.681 13.9564 166.787 13.3574 165.898 13.3604L161.983 13.3924C161 13.2514 160.014 13.6344 159.383 14.4014L149.51 25.4284V14.7004C149.518 13.9864 148.947 13.4014 148.233 13.3934C148.227 13.3934 148.221 13.3934 148.215 13.3934H145.533C144.809 13.3934 144.219 13.9764 144.21 14.7004V38.7244C144.21 39.4524 144.799 40.0434 145.527 40.0454H148.227C148.939 40.0424 149.515 39.4634 149.512 38.7504C149.512 38.7414 149.512 38.7324 149.512 38.7244V33.1374L154.052 28.0894L160.624 38.7244C160.959 39.4424 161.638 39.9404 162.424 40.0454H166.224C166.954 40.0454 167.182 39.4454 166.737 38.7244L157.613 24.1004L166.035 14.6824Z" fill="white"/>
<path d="M104.055 13.3603C104.882 13.3343 105.617 13.8823 105.827 14.6823L114.033 38.7003C114.258 39.1513 114.074 39.6993 113.623 39.9243C113.478 39.9963 113.317 40.0283 113.156 40.0183H110.525C109.723 39.9663 109.025 39.4513 108.739 38.7003L106.992 33.3003H97.966L96.227 38.7003C95.936 39.4533 95.233 39.9683 94.427 40.0183H91.8C91.296 40.0473 90.863 39.6623 90.833 39.1583C90.824 39.0003 90.856 38.8423 90.926 38.7003L99.126 14.6813C99.337 13.8813 100.073 13.3333 100.9 13.3603H104.055ZM98.934 28.8053H104.965L101.965 19.4883L98.934 28.8053Z" fill="white"/>
<path d="M195.636 22.3443V24.0443C194.658 24.4713 193.603 24.6963 192.536 24.7053C191.126 24.7973 189.763 24.1803 188.902 23.0593C188.062 21.7923 187.656 20.2863 187.748 18.7683C187.661 17.3093 188.017 15.8593 188.771 14.6073C189.558 13.4883 190.87 12.8583 192.235 12.9443C193.301 12.8823 194.348 13.2373 195.156 13.9353C195.769 14.5463 196.101 15.3853 196.071 16.2513H193.92C193.92 14.9583 193.356 14.3183 192.233 14.3183C190.663 14.3183 189.879 15.7033 189.88 18.4723C189.88 21.6093 190.906 23.1723 192.98 23.1723C193.922 23.1323 194.838 22.8473 195.636 22.3443Z" fill="#F2F2F2"/>
<path d="M201.322 24.5161V23.6071H201.29C200.906 24.3611 200.096 24.7981 199.255 24.7071C198.647 24.7301 198.053 24.5271 197.586 24.1371C197.15 23.7641 196.91 23.2101 196.937 22.6371C196.915 21.5451 197.662 20.5871 198.726 20.3421C199.571 20.1001 200.447 19.9791 201.326 19.9831V19.2101C201.326 18.2481 200.966 17.7661 200.226 17.7661C199.641 17.6841 199.1 18.0921 199.018 18.6781C199.004 18.7761 199.004 18.8751 199.018 18.9731H197.235C197.196 18.2871 197.469 17.6201 197.978 17.1581C198.62 16.6671 199.419 16.4271 200.226 16.4821C202.126 16.4821 203.082 17.2891 203.082 18.9211V24.5161H201.322ZM198.714 22.4701C198.714 23.1041 199.036 23.4081 199.694 23.4081C200.23 23.4131 200.722 23.1091 200.957 22.6271C201.215 22.1431 201.341 21.6001 201.322 21.0521C200.725 21.0331 200.13 21.1401 199.577 21.3651C199.084 21.5121 198.738 21.9561 198.714 22.4701ZM199.471 15.2901L200.229 12.5361H202.211L200.84 15.2901H199.471Z" fill="#F2F2F2"/>
<path d="M205.263 24.5157V16.6607H207.09V17.8677H207.122C207.431 17.0007 208.27 16.4387 209.189 16.4817C210.16 16.3797 211.035 17.0697 211.162 18.0377H211.206C211.358 17.6497 211.603 17.3037 211.919 17.0317C212.336 16.6727 212.869 16.4767 213.419 16.4817C213.984 16.4617 214.531 16.6867 214.919 17.0987C215.372 17.6497 215.598 18.3527 215.55 19.0637V24.5157H213.717V20.0257C213.726 19.6327 213.714 19.2387 213.682 18.8467C213.637 18.4627 213.3 18.1797 212.914 18.2007C212.434 18.2007 212.025 18.5317 211.724 19.1837C211.455 19.7897 211.321 20.4467 211.329 21.1097V24.5157H209.49V20.0257C209.508 19.6317 209.492 19.2377 209.443 18.8467C209.401 18.4627 209.066 18.1797 208.68 18.2007C208.18 18.2007 207.789 18.5317 207.485 19.1837C207.214 19.7897 207.078 20.4467 207.085 21.1097V24.5157H205.263Z" fill="#F2F2F2"/>
<path d="M221.792 24.5156V23.6066H221.76C221.369 24.3596 220.557 24.7956 219.713 24.7066C219.107 24.7296 218.514 24.5266 218.05 24.1366C217.612 23.7646 217.371 23.2106 217.395 22.6366C217.376 21.5436 218.125 20.5866 219.19 20.3416C220.036 20.1006 220.911 19.9796 221.79 19.9826V19.2096C221.79 18.2476 221.419 17.7656 220.69 17.7656C220.103 17.6836 219.56 18.0936 219.478 18.6806C219.464 18.7776 219.464 18.8756 219.477 18.9726H217.7C217.662 18.2876 217.932 17.6216 218.437 17.1576C219.083 16.6686 219.883 16.4296 220.691 16.4816C222.585 16.4816 223.541 17.2886 223.541 18.9206V24.5156H221.792ZM219.178 22.4696C219.178 23.1036 219.5 23.4076 220.158 23.4076C220.695 23.4136 221.186 23.1096 221.421 22.6266C221.678 22.1426 221.806 21.5996 221.792 21.0516C221.193 21.0336 220.597 21.1396 220.041 21.3646C219.548 21.5116 219.202 21.9556 219.178 22.4696Z" fill="#F2F2F2"/>
<path d="M225.692 24.5159V16.6609H227.528V18.1049H227.554C227.767 17.6919 228.051 17.3189 228.393 17.0049C228.883 16.6399 229.483 16.4549 230.093 16.4809V18.3809C229.374 18.3099 228.658 18.5369 228.111 19.0089C227.662 19.5949 227.452 20.3289 227.524 21.0639V24.5109L225.692 24.5159Z" fill="#F2F2F2"/>
<path d="M235.547 24.5158V23.6068H235.512C235.121 24.3618 234.307 24.7988 233.462 24.7068C232.855 24.7278 232.262 24.5248 231.796 24.1368C231.36 23.7638 231.12 23.2098 231.147 22.6368C231.129 21.5448 231.876 20.5888 232.939 20.3418C233.787 20.0998 234.665 19.9788 235.547 19.9828V19.2098C235.547 18.2478 235.172 17.7658 234.436 17.7658C233.849 17.6838 233.307 18.0938 233.225 18.6808C233.212 18.7778 233.211 18.8758 233.225 18.9728H231.442C231.406 18.2868 231.68 17.6198 232.188 17.1578C232.831 16.6688 233.63 16.4288 234.436 16.4818C236.336 16.4818 237.289 17.2888 237.289 18.9208V24.5158H235.547ZM232.924 22.4698C232.924 23.1038 233.252 23.4078 233.907 23.4078C234.444 23.4138 234.936 23.1098 235.172 22.6268C235.428 22.1418 235.557 21.5998 235.547 21.0518C234.945 21.0318 234.345 21.1388 233.787 21.3648C233.294 21.5128 232.949 21.9558 232.924 22.4698Z" fill="#F2F2F2"/>
<path d="M248.582 24.5161V23.4291H248.536C248.401 23.7581 248.168 24.0371 247.869 24.2291C247.506 24.5281 247.053 24.6951 246.583 24.7051C244.791 24.7051 243.893 23.3351 243.89 20.5951C243.843 19.5851 244.062 18.5811 244.525 17.6831C244.929 16.9261 245.725 16.4621 246.583 16.4831C247.397 16.4471 248.159 16.8861 248.536 17.6091H248.582V13.1211H250.409V24.5161H248.582ZM245.837 20.5931C245.837 22.3851 246.287 23.2711 247.191 23.2711C247.661 23.2711 248.018 22.9841 248.267 22.4021C248.49 21.8261 248.598 21.2111 248.582 20.5931C248.582 18.7981 248.118 17.9011 247.191 17.9031C246.287 17.9011 245.836 18.7981 245.837 20.5931Z" fill="#F2F2F2"/>
<path d="M258.3 23.1157V24.3837C257.588 24.6027 256.845 24.7107 256.1 24.7027C254.995 24.7697 253.918 24.3387 253.165 23.5277C252.428 22.5717 252.064 21.3797 252.142 20.1747C252.142 17.7067 253.265 16.4817 255.504 16.4817C256.344 16.4267 257.166 16.7437 257.752 17.3477C258.276 18.0027 258.54 18.8287 258.492 19.6657V20.1097H253.841C253.843 20.8447 254.066 21.5617 254.481 22.1687C254.977 22.9627 255.857 23.4337 256.793 23.4077C257.308 23.3927 257.817 23.2937 258.3 23.1157ZM253.888 19.0047H256.756C256.765 18.6977 256.671 18.3967 256.49 18.1487C256.225 17.8007 255.801 17.6127 255.365 17.6487C254.934 17.6267 254.519 17.8127 254.248 18.1487C254.039 18.3877 253.912 18.6877 253.885 19.0047H253.888Z" fill="#F2F2F2"/>
<path d="M265.17 24.5161V13.1211H267.1V24.5161H265.17Z" fill="#F2F2F2"/>
<path d="M269.406 24.5161V16.6611H271.233V18.1311H271.268C271.59 17.1261 272.537 16.4541 273.592 16.4821C274.158 16.4591 274.706 16.6851 275.092 17.0991C275.546 17.6491 275.773 18.3521 275.727 19.0641V24.5161H273.897V20.0261C273.91 19.6331 273.897 19.2391 273.856 18.8471C273.814 18.4601 273.475 18.1751 273.087 18.2011C272.474 18.2321 271.933 18.6151 271.701 19.1841C271.386 19.7771 271.226 20.4391 271.236 21.1101V24.5161H269.406Z" fill="#F2F2F2"/>
<path d="M282.193 24.5161V23.4291H282.158C282.021 23.7581 281.786 24.0371 281.486 24.2291C281.119 24.5301 280.661 24.6981 280.186 24.7051C278.402 24.7051 277.502 23.3341 277.502 20.5951C277.453 19.5851 277.672 18.5811 278.136 17.6831C278.537 16.9271 279.33 16.4621 280.186 16.4831C281.004 16.4471 281.77 16.8851 282.153 17.6091H282.188V13.1211H284.015V24.5161H282.193ZM279.46 20.5931C279.46 22.3851 279.91 23.2711 280.807 23.2711C281.315 23.2451 281.747 22.8941 281.877 22.4021C282.104 21.8271 282.212 21.2111 282.193 20.5931C282.193 18.7931 281.734 17.9031 280.807 17.9031C279.91 17.9011 279.461 18.7981 279.46 20.5931Z" fill="#F2F2F2"/>
<path d="M290.7 24.5162V23.0462H290.671C290.342 24.0502 289.397 24.7222 288.341 24.7032C287.773 24.7262 287.223 24.4962 286.841 24.0752C286.385 23.5222 286.158 22.8162 286.207 22.1012V16.6612H288.037V21.1512C288.023 21.5472 288.037 21.9442 288.081 22.3382C288.12 22.7222 288.456 23.0072 288.841 22.9842C289.457 22.9582 290.001 22.5732 290.23 22.0002C290.543 21.4012 290.704 20.7352 290.7 20.0592V16.6592H292.527V24.5142L290.7 24.5162Z" fill="#F2F2F2"/>
<path d="M298.854 16.769V18.327C298.32 18.02 297.723 17.837 297.108 17.792C296.822 17.787 296.538 17.853 296.284 17.985C296.056 18.074 295.9 18.287 295.884 18.532C295.884 18.792 296.184 19.111 296.778 19.482C297.358 19.813 297.916 20.181 298.45 20.582C298.996 21.006 299.323 21.654 299.339 22.345C299.382 23.041 299.067 23.711 298.503 24.122C297.875 24.543 297.127 24.747 296.372 24.704C295.666 24.706 294.963 24.599 294.29 24.385V22.8C294.917 23.095 295.598 23.256 296.29 23.274C297.19 23.274 297.65 23.04 297.65 22.569C297.65 22.341 297.35 22.028 296.767 21.642C296.2 21.29 295.655 20.904 295.135 20.485C294.608 20.077 294.287 19.458 294.258 18.792C294.228 18.137 294.51 17.507 295.018 17.092C295.615 16.661 296.341 16.448 297.076 16.487C297.678 16.511 298.274 16.606 298.854 16.769Z" fill="#F2F2F2"/>
<path d="M305.543 23.2714V24.5664C305.048 24.6534 304.546 24.6994 304.043 24.7034C303.318 24.7844 302.594 24.5464 302.058 24.0514C301.738 23.6134 301.586 23.0754 301.631 22.5344V17.9294H300.1V16.6614H301.629V14.7934L303.459 13.6934V16.6614H305.8V17.9294H303.461V21.6454C303.433 22.0594 303.498 22.4754 303.651 22.8614C303.853 23.2434 304.269 23.4604 304.698 23.4084C304.985 23.4004 305.269 23.3544 305.543 23.2714Z" fill="#F2F2F2"/>
<path d="M306.975 24.5161V16.6611H308.805V18.1051H308.837C309.055 17.6931 309.342 17.3211 309.685 17.0051C310.174 16.6391 310.775 16.4541 311.385 16.4811V18.3811C310.666 18.3111 309.95 18.5381 309.403 19.0091C308.943 19.5901 308.728 20.3271 308.803 21.0641V24.5111L306.975 24.5161Z" fill="#F2F2F2"/>
<path d="M312.913 14.9481V13.1211H314.743V14.9481H312.913ZM312.913 24.5161V16.6611H314.743V24.5161H312.913Z" fill="#F2F2F2"/>
<path d="M321.089 24.5163V23.6073H321.063C320.674 24.3623 319.861 24.7993 319.017 24.7073C318.414 24.7283 317.824 24.5253 317.362 24.1373C316.92 23.7673 316.677 23.2123 316.704 22.6373C316.686 21.5433 317.437 20.5853 318.504 20.3423C319.346 20.1013 320.218 19.9803 321.094 19.9833V19.2103C321.094 18.2483 320.735 17.7663 320.001 17.7663C319.418 17.6833 318.877 18.0883 318.794 18.6723C318.78 18.7723 318.78 18.8733 318.794 18.9733H317.01C316.974 18.2873 317.247 17.6223 317.753 17.1583C318.395 16.6673 319.194 16.4273 320 16.4823C321.9 16.4823 322.845 17.2893 322.845 18.9213V24.5163H321.089ZM318.489 22.4703C318.489 23.1043 318.813 23.4083 319.462 23.4083C320.001 23.4163 320.495 23.1113 320.731 22.6273C320.984 22.1423 321.108 21.5993 321.09 21.0523C320.495 21.0343 319.903 21.1413 319.351 21.3653C318.857 21.5123 318.511 21.9563 318.489 22.4703Z" fill="#F2F2F2"/>
<path d="M330.544 28.0481L331.661 24.6181L328.761 16.6611H330.681L332.497 21.9611H332.523L334.223 16.6611H336.123L332.217 28.0481H330.544Z" fill="#F2F2F2"/>
<path d="M349.616 22.3435V24.0435C348.638 24.4705 347.583 24.6955 346.516 24.7045C345.107 24.7935 343.747 24.1765 342.885 23.0585C342.044 21.7915 341.639 20.2855 341.733 18.7675C341.645 17.3085 342.003 15.8575 342.759 14.6065C343.545 13.4865 344.857 12.8565 346.223 12.9435C347.285 12.8765 348.33 13.2325 349.129 13.9345C349.75 14.5415 350.085 15.3825 350.053 16.2505H347.9C347.9 14.9575 347.339 14.3175 346.216 14.3175C344.647 14.3175 343.857 15.7005 343.857 18.4715C343.857 21.6085 344.883 23.1715 346.957 23.1715C347.901 23.1335 348.818 22.8475 349.616 22.3435Z" fill="#F2F2F2"/>
<path d="M354.294 24.7002C353.31 24.7582 352.355 24.3502 351.716 23.6002C351.07 22.7332 350.754 21.6652 350.824 20.5862C350.758 19.5012 351.076 18.4272 351.724 17.5542C353.117 16.1352 355.396 16.1152 356.815 17.5082C356.83 17.5232 356.846 17.5392 356.861 17.5542C357.506 18.4282 357.82 19.5022 357.749 20.5862C357.822 21.6632 357.511 22.7312 356.872 23.6002C356.232 24.3502 355.278 24.7572 354.294 24.7002ZM352.78 20.5902C352.748 21.2522 352.834 21.9142 353.034 22.5462C353.308 23.2422 354.094 23.5842 354.79 23.3102C355.14 23.1722 355.417 22.8962 355.554 22.5462C355.754 21.9142 355.841 21.2522 355.811 20.5902C355.84 19.9252 355.753 19.2602 355.554 18.6252C355.283 17.9292 354.5 17.5842 353.804 17.8552C353.451 17.9922 353.172 18.2722 353.034 18.6252C352.834 19.2612 352.749 19.9272 352.78 20.5932V20.5902Z" fill="#F2F2F2"/>
<path d="M359.556 24.5163V16.6613H361.389V17.8683H361.421C361.728 17.0033 362.565 16.4403 363.482 16.4823C364.453 16.3823 365.329 17.0713 365.462 18.0383H365.505C365.654 17.6483 365.9 17.3023 366.219 17.0323C366.635 16.6723 367.169 16.4773 367.719 16.4823C368.285 16.4613 368.832 16.6863 369.219 17.0993C369.668 17.6523 369.892 18.3533 369.845 19.0643V24.5163H368.018V20.0263C368.03 19.6333 368.016 19.2393 367.977 18.8473C367.936 18.4633 367.6 18.1793 367.214 18.2013C366.723 18.2013 366.325 18.5323 366.014 19.1843C365.746 19.7913 365.61 20.4473 365.614 21.1103V24.5163H363.787V20.0263C363.802 19.6323 363.786 19.2383 363.74 18.8473C363.696 18.4613 363.357 18.1773 362.969 18.2013C362.48 18.2013 362.089 18.5323 361.782 19.1843C361.513 19.7903 361.379 20.4473 361.387 21.1103V24.5163H359.556Z" fill="#F2F2F2"/>
<path d="M377.769 23.1155V24.3835C377.054 24.6045 376.31 24.7125 375.562 24.7025C374.461 24.7705 373.388 24.3385 372.641 23.5275C371.895 22.5755 371.528 21.3815 371.61 20.1745C371.61 17.7065 372.738 16.4815 374.974 16.4815C375.813 16.4275 376.633 16.7435 377.217 17.3475C377.741 18.0025 378.005 18.8275 377.959 19.6655V20.1095H373.314C373.315 20.8435 373.536 21.5605 373.948 22.1685C374.443 22.9615 375.321 23.4325 376.255 23.4075C376.772 23.3925 377.284 23.2945 377.769 23.1155ZM373.349 19.0045H376.223C376.231 18.6985 376.138 18.3975 375.96 18.1485C375.696 17.8005 375.272 17.6115 374.837 17.6485C374.406 17.6255 373.99 17.8115 373.72 18.1485C373.512 18.3895 373.383 18.6885 373.349 19.0045Z" fill="#F2F2F2"/>
<path d="M379.687 24.5163V16.6613H381.52V18.1053H381.555C381.768 17.6933 382.051 17.3203 382.391 17.0053C382.883 16.6383 383.488 16.4533 384.101 16.4813V18.3813C383.381 18.3083 382.663 18.5353 382.116 19.0093C381.662 19.5933 381.447 20.3283 381.516 21.0643V24.5113L379.687 24.5163Z" fill="#F2F2F2"/>
<path d="M391.533 23.2061V24.3321C390.788 24.5741 390.01 24.6991 389.226 24.7031C388.132 24.7601 387.059 24.3851 386.238 23.6591C385.369 22.7401 384.927 21.4971 385.022 20.2361C384.974 19.2821 385.274 18.3421 385.867 17.5931C386.566 16.8221 387.58 16.4131 388.618 16.4821C390.618 16.4821 391.618 17.4321 391.618 19.3501H389.665C389.665 18.2951 389.265 17.7661 388.478 17.7661C388.015 17.7511 387.581 17.9941 387.352 18.3971C387.078 18.8561 386.946 19.3861 386.972 19.9201C386.944 20.7591 387.201 21.5821 387.7 22.2561C388.292 23.0331 389.232 23.4651 390.208 23.4081C390.658 23.4171 391.106 23.3491 391.533 23.2061Z" fill="#F2F2F2"/>
<path d="M392.948 14.9481V13.1211H394.778V14.9481H392.948ZM392.948 24.5161V16.6611H394.778V24.5161H392.948Z" fill="#F2F2F2"/>
<path d="M400.116 24.7002C399.133 24.7562 398.181 24.3492 397.543 23.6002C396.899 22.7322 396.584 21.6642 396.655 20.5862C396.587 19.5022 396.903 18.4282 397.549 17.5542C398.942 16.1352 401.221 16.1152 402.64 17.5082C402.655 17.5232 402.671 17.5392 402.686 17.5542C403.335 18.4272 403.654 19.5012 403.586 20.5862C403.653 21.6642 403.338 22.7312 402.697 23.6002C402.057 24.3522 401.101 24.7592 400.116 24.7002ZM398.602 20.5902C398.572 21.2522 398.66 21.9152 398.862 22.5462C399.133 23.2412 399.917 23.5852 400.612 23.3132C400.964 23.1762 401.242 22.8982 401.379 22.5462C401.578 21.9142 401.664 21.2522 401.633 20.5902C401.664 19.9252 401.578 19.2602 401.379 18.6252C401.109 17.9302 400.327 17.5852 399.632 17.8552C399.279 17.9922 398.999 18.2722 398.862 18.6252C398.659 19.2602 398.571 19.9272 398.6 20.5932L398.602 20.5902Z" fill="#F2F2F2"/>
<path d="M187 40.0569L190.894 28.6699H193.227L197.106 40.0569H195.1L194.115 36.9759H190.015L189.027 40.0569H187ZM192.043 30.4999L190.47 35.5109H193.636L192.069 30.4999H192.043Z" fill="#F2F2F2"/>
<path d="M198.191 40.0567V32.1997H200.021V33.6497H200.047C200.264 33.2387 200.551 32.8687 200.895 32.5557C201.383 32.1797 201.988 31.9907 202.603 32.0207V33.9357C201.884 33.8677 201.167 34.0917 200.614 34.5557C200.166 35.1437 199.955 35.8777 200.021 36.6137V40.0577L198.191 40.0567Z" fill="#F2F2F2"/>
<path d="M210.078 32.2003V40.6083C210.078 42.7183 208.821 43.7773 206.321 43.7773C205.494 43.7693 204.67 43.6623 203.868 43.4583V41.6583C204.602 42.0933 205.436 42.3313 206.289 42.3513C207.645 42.3513 208.318 41.5853 208.318 40.0563V38.8353H208.291C207.898 39.5923 207.113 40.0643 206.26 40.0573C204.46 40.0573 203.56 38.6983 203.56 35.9503C203.52 34.9923 203.746 34.0423 204.212 33.2043C204.616 32.4563 205.406 31.9983 206.256 32.0203C207.083 32.0093 207.855 32.4353 208.287 33.1403H208.314V32.2003H210.078ZM205.523 35.9513C205.523 37.7463 205.973 38.6403 206.876 38.6403C207.353 38.6403 207.73 38.3333 207.987 37.7133C208.218 37.1553 208.331 36.5553 208.318 35.9513C208.337 35.3883 208.235 34.8283 208.018 34.3083C207.862 33.8043 207.402 33.4543 206.874 33.4393C205.973 33.4383 205.522 34.2753 205.523 35.9513Z" fill="#F2F2F2"/>
<path d="M217.971 38.654V39.923C217.26 40.148 216.517 40.256 215.771 40.241C214.665 40.308 213.587 39.874 212.836 39.06C212.098 38.109 211.733 36.921 211.809 35.719C211.809 33.257 212.935 32.019 215.18 32.019C216.02 31.968 216.839 32.287 217.422 32.894C217.947 33.546 218.21 34.37 218.162 35.206V35.653H213.514C213.52 36.388 213.746 37.105 214.163 37.711C214.653 38.505 215.53 38.976 216.463 38.948C216.978 38.932 217.488 38.833 217.971 38.654ZM213.56 34.549H216.433C216.441 34.24 216.347 33.938 216.167 33.687C215.899 33.344 215.477 33.156 215.042 33.187C214.611 33.172 214.196 33.356 213.919 33.687C213.717 33.932 213.592 34.232 213.56 34.549Z" fill="#F2F2F2"/>
<path d="M219.918 40.0567V32.1997H221.76V33.6667H221.792C222.118 32.6637 223.065 31.9947 224.119 32.0207C224.684 32.0007 225.23 32.2287 225.613 32.6437C226.067 33.1947 226.294 33.8987 226.247 34.6117V40.0577H224.417V35.5697C224.429 35.1747 224.416 34.7787 224.379 34.3857C224.333 34.0027 223.995 33.7217 223.61 33.7477C222.994 33.7737 222.449 34.1567 222.216 34.7277C221.906 35.3237 221.749 35.9877 221.76 36.6597V40.0597L219.918 40.0567Z" fill="#F2F2F2"/>
<path d="M233.141 38.8124V40.1124C232.64 40.1924 232.133 40.2354 231.626 40.2404C230.905 40.3214 230.184 40.0884 229.647 39.6004C229.329 39.1604 229.178 38.6214 229.22 38.0804V33.4734H227.686V32.2004H229.22V30.3404L231.05 29.2314V32.2004H233.389V33.4744H231.05V37.1904C231.024 37.6064 231.087 38.0224 231.235 38.4124C231.444 38.7884 231.86 39.0014 232.287 38.9504C232.577 38.9424 232.864 38.8954 233.141 38.8124Z" fill="#F2F2F2"/>
<path d="M234.684 30.4859V28.6699H236.526V30.4859H234.684ZM234.684 40.0569V32.1999H236.526V40.0579L234.684 40.0569Z" fill="#F2F2F2"/>
<path d="M238.876 40.0567V32.1998H240.707V33.6667H240.739C241.065 32.6607 242.015 31.9897 243.072 32.0207C243.636 32.0007 244.181 32.2278 244.563 32.6438C245.014 33.1968 245.238 33.8997 245.191 34.6117V40.0577H243.367V35.5697C243.377 35.1747 243.364 34.7798 243.329 34.3858C243.281 34.0028 242.943 33.7228 242.557 33.7478C241.942 33.7738 241.4 34.1568 241.171 34.7278C240.856 35.3228 240.697 35.9867 240.707 36.6597V40.0598L238.876 40.0567Z" fill="#F2F2F2"/>
<path d="M250.43 40.2412C249.448 40.3012 248.495 39.8972 247.854 39.1512C247.21 38.2812 246.896 37.2112 246.966 36.1312C246.902 35.0492 247.217 33.9792 247.857 33.1052C249.247 31.6832 251.526 31.6572 252.948 33.0472C252.968 33.0662 252.987 33.0862 253.006 33.1052C253.649 33.9782 253.965 35.0492 253.9 36.1312C253.97 37.2112 253.655 38.2812 253.011 39.1512C252.37 39.9002 251.414 40.3042 250.43 40.2412ZM248.921 36.1412C248.889 36.8062 248.975 37.4712 249.176 38.1052C249.458 38.7992 250.25 39.1332 250.944 38.8512C251.283 38.7132 251.552 38.4442 251.69 38.1052C251.888 37.4702 251.975 36.8062 251.947 36.1412C251.978 35.4762 251.891 34.8112 251.69 34.1762C251.42 33.4822 250.638 33.1382 249.943 33.4092C249.591 33.5462 249.313 33.8242 249.176 34.1762C248.973 34.8102 248.887 35.4762 248.921 36.1412Z" fill="#F2F2F2"/>
<path d="M255.312 36.7V34.915H261.454V36.7H255.312Z" fill="#F2F2F2"/>
<path d="M262.2 40.0569L266.088 28.6699H268.421L272.3 40.0569H270.292L269.301 36.9759H265.201L264.207 40.0569H262.2ZM267.234 30.4999L265.658 35.5109H268.833L267.269 30.4999H267.234Z" fill="#F2F2F2"/>
<path d="M273.508 40.0569V28.6699H275.338V40.0569H273.508Z" fill="#F2F2F2"/>
<path d="M283.374 38.654V39.923C282.661 40.148 281.915 40.256 281.167 40.241C280.064 40.308 278.991 39.874 278.244 39.06C277.504 38.11 277.139 36.921 277.22 35.719C277.22 33.257 278.331 32.019 280.585 32.019C281.425 31.968 282.246 32.288 282.83 32.894C283.353 33.547 283.614 34.371 283.564 35.206V35.653H278.919C278.922 36.388 279.145 37.105 279.559 37.711C280.052 38.502 280.927 38.973 281.859 38.948C282.377 38.934 282.889 38.835 283.374 38.654ZM278.969 34.549H281.834C281.84 34.24 281.746 33.937 281.565 33.687C281.3 33.344 280.881 33.156 280.448 33.187C280.017 33.167 279.601 33.353 279.328 33.687C279.119 33.928 278.993 34.231 278.969 34.549Z" fill="#F2F2F2"/>
<path d="M285.333 40.0568V32.1998H287.163V33.4098H287.195C287.501 32.5438 288.338 31.9798 289.256 32.0208C290.229 31.9238 291.104 32.6158 291.235 33.5848H291.273C291.426 33.1948 291.673 32.8478 291.993 32.5768C292.406 32.2178 292.934 32.0208 293.481 32.0208C294.047 32.0028 294.594 32.2298 294.981 32.6438C295.433 33.1968 295.658 33.8998 295.612 34.6118V40.0578H293.783V35.5698C293.797 35.1748 293.78 34.7788 293.733 34.3858C293.696 34.0028 293.36 33.7198 292.976 33.7478C292.484 33.7478 292.087 34.0728 291.776 34.7278C291.508 35.3368 291.371 35.9948 291.376 36.6598V40.0598H289.546V35.5698C289.558 35.1748 289.543 34.7788 289.502 34.3858C289.459 33.9998 289.117 33.7168 288.73 33.7478C288.242 33.7478 287.851 34.0728 287.541 34.7278C287.271 35.3358 287.137 35.9948 287.149 36.6598V40.0598L285.333 40.0568Z" fill="#F2F2F2"/>
<path d="M301.865 40.0574V39.1514H301.833C301.44 39.9014 300.628 40.3334 299.786 40.2414C299.179 40.2684 298.584 40.0644 298.12 39.6714C297.683 39.3014 297.442 38.7494 297.468 38.1774C297.447 37.0844 298.193 36.1264 299.257 35.8774C300.104 35.6294 300.983 35.5104 301.865 35.5244V34.7404C301.865 33.7874 301.494 33.3114 300.76 33.3114C300.178 33.2244 299.635 33.6264 299.549 34.2084C299.534 34.3084 299.534 34.4104 299.547 34.5114H297.763C297.729 33.8254 298.004 33.1614 298.512 32.6994C299.153 32.2044 299.952 31.9624 300.76 32.0174C302.66 32.0174 303.61 32.8304 303.61 34.4614V40.0544L301.865 40.0574ZM299.257 38.0144C299.257 38.6394 299.579 38.9494 300.225 38.9494C300.762 38.9554 301.255 38.6524 301.494 38.1714C301.754 37.6854 301.882 37.1404 301.865 36.5904C301.266 36.5754 300.67 36.6824 300.114 36.9064C299.622 37.0564 299.278 37.5004 299.257 38.0144Z" fill="#F2F2F2"/>
<path d="M305.8 40.0569V32.1999H307.63V33.6669H307.656C307.982 32.6609 308.932 31.9909 309.989 32.0209C310.551 31.9999 311.095 32.2279 311.474 32.6439C311.931 33.1939 312.158 33.8989 312.106 34.6119V40.0579H310.285V35.5699C310.296 35.1749 310.285 34.7799 310.252 34.3859C310.205 34.0019 309.867 33.7219 309.481 33.7479C308.863 33.7739 308.317 34.1559 308.081 34.7279C307.775 35.3249 307.619 35.9889 307.628 36.6599V40.0599L305.8 40.0569Z" fill="#F2F2F2"/>
<path d="M318.365 40.0569V39.1509H318.336C317.943 39.8999 317.133 40.3319 316.292 40.2409C315.685 40.2679 315.09 40.0639 314.626 39.6709C314.19 39.2999 313.95 38.7489 313.974 38.1769C313.953 37.0859 314.695 36.1289 315.757 35.8769C316.604 35.6299 317.483 35.5109 318.365 35.5239V34.7399C318.365 33.7869 317.997 33.3109 317.26 33.3109C316.681 33.2269 316.144 33.6279 316.06 34.2069C316.045 34.3079 316.045 34.4099 316.06 34.5109H314.274C314.242 33.8279 314.513 33.1649 315.014 32.6989C315.656 32.2069 316.455 31.9639 317.262 32.0169C319.168 32.0169 320.115 32.8299 320.115 34.4609V40.0539L318.365 40.0569ZM315.757 38.0139C315.757 38.6389 316.082 38.9489 316.731 38.9489C317.27 38.9599 317.766 38.6559 318 38.1709C318.261 37.6859 318.388 37.1399 318.369 36.5899C317.772 36.5739 317.178 36.6819 316.624 36.9059C316.128 37.0519 315.779 37.4969 315.757 38.0139Z" fill="#F2F2F2"/>
<path d="M188.4 55.1714V43.8224H190.95C192.317 43.7044 193.656 44.2554 194.543 45.3024C195.337 46.5374 195.707 47.9984 195.595 49.4624C195.595 51.7484 195.08 53.3294 194.072 54.2044C193.041 54.9304 191.789 55.2724 190.532 55.1714H188.4ZM189.681 44.8924V54.1074H190.543C191.503 54.2004 192.46 53.8994 193.192 53.2714C193.858 52.5904 194.192 51.3154 194.192 49.4824C194.192 47.5994 193.841 46.3254 193.133 45.6504C192.346 45.0694 191.371 44.7994 190.397 44.8924H189.681Z" fill="#F2F2F2"/>
<path d="M202.836 54.1922V55.1252C202.25 55.2892 201.644 55.3672 201.036 55.3552C199.986 55.4212 198.96 55.0182 198.236 54.2552C197.508 53.3332 197.15 52.1722 197.232 51.0002C197.167 50.0132 197.429 49.0322 197.978 48.2092C198.531 47.5042 199.395 47.1162 200.29 47.1712C201.065 47.1242 201.819 47.4312 202.339 48.0072C202.809 48.6152 203.047 49.3702 203.009 50.1382V50.5152H198.509V50.9802C198.494 51.7352 198.684 52.4802 199.059 53.1352C199.491 53.9542 200.356 54.4512 201.281 54.4122C201.806 54.3972 202.327 54.3232 202.836 54.1922ZM198.512 49.5792H201.725C201.725 49.2382 201.611 48.9062 201.401 48.6372C201.111 48.2752 200.664 48.0752 200.2 48.1002C199.326 48.0452 198.572 48.7062 198.512 49.5792Z" fill="#F2F2F2"/>
<path d="M209.47 55.1708V53.3708C209.245 54.5408 208.211 55.3798 207.02 55.3588C206.423 55.3868 205.852 55.1148 205.497 54.6338C205.145 54.1388 204.969 53.5408 204.997 52.9338V47.3418H206.119V51.6808C206.095 52.2798 206.141 52.8788 206.257 53.4668C206.358 53.9348 206.784 54.2608 207.263 54.2358C207.938 54.2358 208.487 53.7908 208.923 52.9288C209.289 52.1968 209.477 51.3888 209.473 50.5698V47.3418H210.589V55.1708H209.47Z" fill="#F2F2F2"/>
<path d="M216.983 54.2654V55.2654C216.654 55.3174 216.322 55.3464 215.989 55.3524C215.392 55.4104 214.795 55.2374 214.322 54.8674C213.949 54.4454 213.768 53.8874 213.822 53.3264V48.2874H212.547V47.3424H213.822V45.5154L214.941 44.8154V47.3444H217.052V48.2894H214.941V53.1004C214.842 53.7224 215.265 54.3064 215.887 54.4064C215.996 54.4234 216.107 54.4254 216.216 54.4104C216.477 54.3994 216.736 54.3504 216.983 54.2654Z" fill="#F2F2F2"/>
<path d="M220.611 50.3503L221.275 50.7503C221.694 50.9883 222.098 51.2513 222.485 51.5393C222.891 51.9103 223.116 52.4393 223.104 52.9893C223.104 54.5653 222.125 55.3573 220.19 55.3573C219.463 55.3593 218.741 55.2463 218.05 55.0213V54.0003C218.702 54.2383 219.386 54.3753 220.079 54.4063C221.342 54.4063 221.979 53.9793 221.979 53.1433C221.965 52.7683 221.764 52.4243 221.444 52.2283C221.161 52.0473 220.869 51.8833 220.567 51.7373L219.86 51.3543C219.448 51.1533 219.059 50.9093 218.699 50.6263C217.919 49.8883 217.885 48.6583 218.623 47.8783C218.674 47.8243 218.727 47.7743 218.784 47.7263C219.359 47.3123 220.062 47.1133 220.769 47.1653C221.391 47.1903 222.009 47.2763 222.614 47.4223V48.4573C222.031 48.2273 221.41 48.1053 220.783 48.0973C220.382 48.0793 219.984 48.1803 219.64 48.3873C219.245 48.5853 219.086 49.0663 219.285 49.4613C219.37 49.6293 219.511 49.7633 219.684 49.8373C219.988 50.0083 220.3 50.1813 220.611 50.3503Z" fill="#F2F2F2"/>
<path d="M229.934 54.2421V55.1421C229.404 55.2921 228.856 55.3641 228.305 55.3581C227.215 55.4241 226.146 55.0311 225.359 54.2741C224.59 53.3931 224.203 52.2411 224.283 51.0741C224.283 48.4741 225.335 47.1681 227.475 47.1681C228.774 47.0011 229.963 47.9181 230.131 49.2171C230.153 49.3871 230.156 49.5581 230.141 49.7291H228.811C228.811 48.6381 228.34 48.1001 227.411 48.1001C226.786 48.0881 226.214 48.4491 225.955 49.0181C225.676 49.5761 225.539 50.1941 225.555 50.8181C225.516 51.6411 225.717 52.4581 226.134 53.1691C226.688 54.0121 227.657 54.4861 228.663 54.4051C229.093 54.4181 229.522 54.3631 229.934 54.2421Z" fill="#F2F2F2"/>
<path d="M231.843 55.1713V43.8223H232.954V49.1523H233C233.231 47.9903 234.255 47.1573 235.439 47.1673C236.024 47.1463 236.583 47.4103 236.939 47.8743C237.293 48.3683 237.472 48.9673 237.448 49.5743V55.1663H236.33V50.8163C236.356 50.2203 236.308 49.6233 236.187 49.0393C236.084 48.5723 235.659 48.2483 235.181 48.2733C234.506 48.2733 233.95 48.7053 233.509 49.5733C233.143 50.3073 232.953 51.1173 232.954 51.9383V55.1653L231.843 55.1713Z" fill="#F2F2F2"/>
<path d="M239.6 51.6367V50.5107H244.6V51.6367H239.6Z" fill="#F2F2F2"/>
<path d="M245.6 55.1713L249.213 43.8223H250.78L254.446 55.1713H253.16L252.017 51.6633H247.968L246.868 55.1713H245.6ZM249.985 44.9893L248.319 50.6003H251.672L250.012 44.9933L249.985 44.9893Z" fill="#F2F2F2"/>
<path d="M255.9 55.1711V47.3421H257.016V48.8591H257.057C257.463 47.7821 258.523 47.0961 259.671 47.1671V48.3571C258.88 48.3241 258.127 48.6991 257.677 49.3511C257.198 50.1251 256.967 51.0261 257.016 51.9351V55.1711H255.9Z" fill="#F2F2F2"/>
<path d="M266.371 47.3424V55.1894C266.371 57.4574 265.263 58.5954 263.059 58.5954C262.341 58.5674 261.627 58.4754 260.925 58.3204V57.1884C261.543 57.4684 262.211 57.6234 262.89 57.6424C263.627 57.7244 264.356 57.4354 264.837 56.8704C265.156 56.3184 265.302 55.6844 265.255 55.0484V53.6634H265.228C265.112 54.0254 264.905 54.3504 264.628 54.6104C264.23 54.9854 263.699 55.1874 263.152 55.1714C262.277 55.2104 261.458 54.7404 261.052 53.9644C260.649 53.1394 260.459 52.2264 260.502 51.3094C260.462 50.3184 260.673 49.3344 261.116 48.4474C261.496 47.6534 262.303 47.1534 263.183 47.1674C263.726 47.1474 264.255 47.3444 264.653 47.7144C264.933 47.9544 265.133 48.2754 265.226 48.6324V47.3424H266.371ZM261.785 51.3154C261.785 53.2564 262.308 54.2304 263.366 54.2304C264.016 54.1964 264.58 53.7714 264.793 53.1574C265.096 52.5174 265.245 51.8164 265.228 51.1084C265.242 50.4314 265.099 49.7594 264.81 49.1464C264.6 48.5414 264.04 48.1264 263.4 48.1004C262.815 48.1244 262.311 48.5204 262.149 49.0834C261.881 49.7964 261.757 50.5544 261.785 51.3154Z" fill="#F2F2F2"/>
<path d="M274.069 54.1917V55.1247C273.483 55.2877 272.877 55.3657 272.269 55.3547C271.216 55.4207 270.188 55.0177 269.46 54.2547C268.734 53.3297 268.378 52.1677 268.46 50.9947C268.397 50.0067 268.661 49.0257 269.211 48.2037C269.761 47.4977 270.625 47.1087 271.518 47.1657C272.293 47.1177 273.047 47.4257 273.567 48.0017C274.036 48.6097 274.275 49.3647 274.239 50.1327V50.5097H269.739V50.9747C269.723 51.7297 269.914 52.4757 270.292 53.1297C270.724 53.9487 271.589 54.4457 272.514 54.4067C273.039 54.3927 273.56 54.3197 274.069 54.1917ZM269.739 49.5787H272.958C272.957 49.2367 272.841 48.9047 272.628 48.6367C272.339 48.2737 271.892 48.0727 271.428 48.0987C270.554 48.0447 269.8 48.7057 269.739 49.5787Z" fill="#F2F2F2"/>
<path d="M276.285 55.1712V47.3422H277.407V49.1522H277.434C277.674 47.9902 278.701 47.1592 279.887 47.1672C280.472 47.1462 281.031 47.4102 281.387 47.8742C281.734 48.3712 281.91 48.9682 281.887 49.5742V55.1662H280.767V50.8162C280.798 50.2202 280.75 49.6222 280.624 49.0392C280.524 48.5732 280.1 48.2482 279.624 48.2732C278.94 48.2732 278.391 48.7052 277.952 49.5732C277.586 50.3072 277.397 51.1172 277.402 51.9382V55.1652L276.285 55.1712Z" fill="#F2F2F2"/>
<path d="M288.21 54.2654V55.2654C287.884 55.3164 287.554 55.3454 287.224 55.3524C286.626 55.4134 286.027 55.2394 285.555 54.8674C285.182 54.4454 285.001 53.8874 285.055 53.3264V48.2874H283.775V47.3424H285.055V45.5154L286.172 44.8154V47.3444H288.277V48.2894H286.172V53.1004C286.074 53.7244 286.501 54.3084 287.124 54.4064C287.233 54.4234 287.343 54.4244 287.452 54.4104C287.71 54.3974 287.965 54.3484 288.21 54.2654Z" fill="#F2F2F2"/>
<path d="M289.908 45.3053V43.8223H291.384V45.3053H289.908ZM290.078 55.1713V47.3423H291.194V55.1713H290.078Z" fill="#F2F2F2"/>
<path d="M293.954 55.171V47.342H295.065V49.152H295.094C295.334 47.988 296.364 47.156 297.553 47.167C298.138 47.148 298.696 47.411 299.053 47.874C299.404 48.369 299.58 48.968 299.553 49.574V55.166H298.443V50.816C298.468 50.22 298.418 49.623 298.294 49.039C298.192 48.574 297.769 48.251 297.294 48.273C296.616 48.273 296.06 48.705 295.627 49.573C295.261 50.308 295.07 51.117 295.069 51.938V55.165L293.954 55.171Z" fill="#F2F2F2"/>
<path d="M302.1 45.3053V43.8223H303.57V45.3053H302.1ZM302.269 55.1713V47.3423H303.383V55.1713H302.269Z" fill="#F2F2F2"/>
<path d="M307.992 50.3498L308.653 50.7498C309.072 50.9888 309.476 51.2518 309.863 51.5388C310.269 51.9098 310.493 52.4388 310.477 52.9888C310.477 54.5648 309.508 55.3538 307.569 55.3568C306.841 55.3578 306.118 55.2448 305.426 55.0208V53.9998C306.078 54.2378 306.763 54.3748 307.457 54.4058C308.72 54.4058 309.357 53.9788 309.357 53.1428C309.341 52.7708 309.145 52.4288 308.831 52.2278C308.746 52.1638 308.451 52.0058 307.948 51.7368L307.234 51.3538C306.825 51.1478 306.435 50.9038 306.071 50.6258C305.291 49.8878 305.257 48.6578 305.995 47.8778C306.046 47.8238 306.099 47.7738 306.156 47.7258C306.733 47.3138 307.436 47.1148 308.144 47.1648C308.765 47.1888 309.381 47.2748 309.985 47.4218V48.4568C309.404 48.2268 308.786 48.1048 308.161 48.0968C307.761 48.0778 307.364 48.1788 307.021 48.3868C306.753 48.5338 306.584 48.8118 306.577 49.1178C306.603 49.4228 306.782 49.6938 307.053 49.8368C307.367 50.0078 307.68 50.1808 307.992 50.3498Z" fill="#F2F2F2"/>
<path d="M317.312 54.2425V55.1425C316.782 55.2915 316.234 55.3645 315.684 55.3585C314.593 55.4265 313.524 55.0325 312.737 54.2745C311.967 53.3935 311.579 52.2425 311.658 51.0745C311.658 48.4695 312.725 47.1675 314.858 47.1685C315.648 47.1055 316.424 47.4035 316.968 47.9785C317.354 48.4775 317.55 49.0985 317.518 49.7295H316.191C316.191 48.6385 315.72 48.1005 314.791 48.1005C314.169 48.0885 313.6 48.4505 313.347 49.0185C313.065 49.5755 312.928 50.1945 312.947 50.8185C312.907 51.6415 313.107 52.4585 313.523 53.1695C314.075 54.0145 315.045 54.4885 316.051 54.4055C316.477 54.4185 316.903 54.3635 317.312 54.2425Z" fill="#F2F2F2"/>
<path d="M319.224 55.1713V43.8223H320.344V49.1523H320.37C320.607 47.9903 321.634 47.1583 322.82 47.1673C323.405 47.1473 323.963 47.4103 324.32 47.8743C324.673 48.3693 324.852 48.9673 324.828 49.5743V55.1663H323.712V50.8163C323.739 50.2193 323.687 49.6223 323.557 49.0393C323.46 48.5733 323.038 48.2483 322.563 48.2733C321.876 48.2733 321.323 48.7053 320.885 49.5733C320.523 50.3093 320.337 51.1183 320.341 51.9383V55.1653L319.224 55.1713Z" fill="#F2F2F2"/>
<path d="M332.511 54.1917V55.1247C331.93 55.2887 331.328 55.3657 330.725 55.3547C329.673 55.4237 328.644 55.0207 327.919 54.2547C327.193 53.3297 326.837 52.1677 326.919 50.9947C326.857 50.0077 327.119 49.0277 327.664 48.2037C328.214 47.4977 329.078 47.1087 329.971 47.1657C330.745 47.1187 331.499 47.4257 332.02 47.9997C332.49 48.6077 332.729 49.3627 332.693 50.1307V50.5077H328.185V50.9727C328.168 51.7277 328.358 52.4727 328.734 53.1277C329.175 53.9447 330.041 54.4397 330.968 54.4047C331.489 54.3917 332.006 54.3197 332.511 54.1917ZM328.185 49.5787H331.406C331.404 49.2377 331.292 48.9077 331.085 48.6367C330.791 48.2747 330.342 48.0747 329.877 48.0987C329.003 48.0457 328.249 48.7057 328.185 49.5787Z" fill="#F2F2F2"/>
<path d="M188.482 71.0277V59.6787H189.757V71.0277H188.482Z" fill="#F2F2F2"/>
<path d="M192.578 71.0277V63.1997H193.7V65.0067H193.735C193.97 63.8457 194.994 63.0127 196.179 63.0187C196.765 62.9977 197.325 63.2637 197.679 63.7317C198.03 64.2307 198.206 64.8317 198.179 65.4417V71.0287H197.063V66.6787C197.09 66.0847 197.042 65.4887 196.919 64.9067C196.818 64.4397 196.396 64.1147 195.919 64.1357C195.246 64.1357 194.685 64.5677 194.246 65.4417C193.877 66.1747 193.689 66.9857 193.697 67.8067V71.0287L192.578 71.0277Z" fill="#F2F2F2"/>
<path d="M204.962 71.0278V69.6948H204.927C204.651 70.5868 203.829 71.1988 202.895 71.2058C201.112 71.2058 200.221 69.8618 200.223 67.1748C200.182 66.1798 200.391 65.1908 200.831 64.2978C201.206 63.5068 202.008 63.0068 202.883 63.0178C203.823 62.9598 204.676 63.5688 204.927 64.4768H204.962V59.6768H206.078V71.0278H204.962ZM201.492 67.3798C201.492 69.3088 202.035 70.2558 203.12 70.2558C203.761 70.2288 204.319 69.8078 204.52 69.1978C204.83 68.5578 204.982 67.8538 204.965 67.1428C204.998 66.3678 204.838 65.5978 204.5 64.8998C204.283 64.3418 203.753 63.9688 203.155 63.9518C202.053 63.9498 201.492 65.0908 201.492 67.3798Z" fill="#F2F2F2"/>
<path d="M213.115 71.0282V69.2282C212.889 70.3992 211.851 71.2362 210.659 71.2102C210.065 71.2372 209.497 70.9672 209.142 70.4912C208.791 69.9962 208.615 69.3982 208.642 68.7912V63.2002H209.753V67.5402C209.73 68.1372 209.778 68.7352 209.896 69.3212C209.995 69.7912 210.423 70.1182 210.902 70.0902C211.577 70.0902 212.127 69.6452 212.557 68.7832C212.927 68.0512 213.117 67.2412 213.112 66.4212V63.2002H214.223V71.0292L213.115 71.0282Z" fill="#F2F2F2"/>
<path d="M218.781 66.2072L219.439 66.5992C219.862 66.8372 220.269 67.1052 220.655 67.3992C221.062 67.7672 221.288 68.2942 221.275 68.8432C221.275 70.4162 220.301 71.2082 218.357 71.2082C217.63 71.2112 216.908 71.1032 216.214 70.8872V69.8592C216.866 70.0952 217.55 70.2302 218.243 70.2592C219.512 70.2592 220.143 69.8412 220.143 68.9992C220.127 68.6272 219.929 68.2872 219.614 68.0902C219.529 68.0342 219.235 67.8672 218.731 67.5902L218.021 67.2102C217.607 67.0092 217.216 66.7632 216.857 66.4762C216.455 66.1322 216.231 65.6232 216.249 65.0942C216.225 64.5082 216.482 63.9462 216.942 63.5822C217.52 63.1732 218.221 62.9752 218.927 63.0212C219.549 63.0422 220.166 63.1292 220.769 63.2812V64.3162C220.189 64.0852 219.571 63.9622 218.947 63.9532C218.546 63.9342 218.149 64.0392 217.81 64.2532C217.416 64.4532 217.259 64.9342 217.458 65.3282C217.541 65.4922 217.679 65.6232 217.848 65.6982C218.161 65.8682 218.468 66.0382 218.781 66.2072Z" fill="#F2F2F2"/>
<path d="M226.718 70.122V71.122C226.39 71.178 226.057 71.207 225.724 71.209C225.126 71.266 224.529 71.095 224.052 70.73C223.684 70.306 223.503 69.751 223.552 69.192V64.143H222.274V63.2H223.552V61.378L224.666 60.667V63.2H226.773V64.144H224.666V68.944C224.57 69.57 224.999 70.156 225.625 70.252C225.731 70.268 225.839 70.27 225.946 70.256C226.208 70.248 226.468 70.203 226.718 70.122Z" fill="#F2F2F2"/>
<path d="M228.49 71.0278V63.1998H229.606V64.7098H229.638C230.049 63.6378 231.106 62.9538 232.252 63.0178V64.2128C231.461 64.1818 230.709 64.5598 230.261 65.2128C229.786 65.9848 229.557 66.8838 229.606 67.7888V71.0278H228.49Z" fill="#F2F2F2"/>
<path d="M233.585 61.1607V59.6787H235.061V61.1607H233.585ZM233.763 71.0277V63.1997H234.88V71.0287L233.763 71.0277Z" fill="#F2F2F2"/>
<path d="M242.712 70.043V70.975C242.128 71.137 241.523 71.215 240.917 71.206C239.864 71.274 238.835 70.871 238.108 70.106C237.379 69.181 237.02 68.018 237.102 66.843C237.041 65.854 237.302 64.871 237.847 64.043C238.401 63.342 239.262 62.956 240.154 63.011C240.933 62.965 241.69 63.276 242.212 63.856C242.681 64.462 242.917 65.216 242.879 65.981V66.358H238.379V66.826C238.368 67.581 238.557 68.325 238.928 68.983C239.368 69.8 240.238 70.292 241.165 70.249C241.687 70.235 242.205 70.166 242.712 70.043ZM238.374 65.443H241.6C241.604 65.101 241.488 64.768 241.273 64.502C240.988 64.133 240.539 63.927 240.073 63.952C239.195 63.9 238.438 64.564 238.374 65.441V65.443Z" fill="#F2F2F2"/>
<path d="M244.466 67.4932V66.3652H249.466V67.4932H244.466Z" fill="#F2F2F2"/>
<path d="M260.285 71.0282V69.2282C260.06 70.3962 259.027 71.2332 257.838 71.2102C257.242 71.2382 256.67 70.9692 256.312 70.4912C255.966 69.9932 255.79 69.3972 255.812 68.7912V63.2002H256.929V67.5402C256.905 68.1372 256.953 68.7352 257.072 69.3212C257.172 69.7932 257.602 70.1202 258.083 70.0902C258.75 70.0902 259.305 69.6452 259.732 68.7832C260.099 68.0502 260.287 67.2412 260.282 66.4212V63.2002H261.4V71.0292L260.285 71.0282Z" fill="#F2F2F2"/>
<path d="M264.1 71.028V63.2H265.217V65.007H265.249C265.492 63.845 266.518 63.015 267.705 63.019C268.292 62.996 268.852 63.262 269.205 63.732C269.562 64.229 269.741 64.831 269.714 65.442V71.029H268.597V66.679C268.627 66.084 268.575 65.488 268.442 64.907C268.35 64.438 267.926 64.108 267.448 64.136C266.767 64.136 266.209 64.568 265.776 65.442C265.408 66.176 265.218 66.986 265.221 67.807V71.029L264.1 71.028Z" fill="#F2F2F2"/>
<path d="M276.487 71.0278V69.6948H276.46C276.348 70.0628 276.135 70.3928 275.846 70.6478C275.467 71.0188 274.953 71.2198 274.423 71.2058C272.634 71.2058 271.742 69.8618 271.745 67.1748C271.707 66.1798 271.915 65.1918 272.353 64.2978C272.727 63.5068 273.528 63.0068 274.402 63.0178C275.346 62.9598 276.203 63.5668 276.46 64.4768H276.487V59.6768H277.6V71.0278H276.487ZM273.016 67.3798C273.016 69.3088 273.566 70.2558 274.651 70.2558C275.29 70.2238 275.845 69.8038 276.051 69.1978C276.353 68.5558 276.503 67.8518 276.487 67.1428C276.516 66.3688 276.36 65.5988 276.031 64.8978C275.811 64.3408 275.281 63.9688 274.683 63.9498C273.572 63.9498 273.017 65.0928 273.016 67.3798Z" fill="#F2F2F2"/>
<path d="M284.564 71.0277V59.6787H285.839V64.5927H290.528V59.6787H291.808V71.0277H290.528V65.6657H285.839V71.0277H284.564Z" fill="#F2F2F2"/>
<path d="M298.442 71.0284V69.9844H298.4C298.227 70.2954 297.974 70.5524 297.666 70.7304C297.173 71.0524 296.594 71.2184 296.005 71.2064C295.434 71.2344 294.877 71.0264 294.465 70.6304C294.066 70.1894 293.861 69.6054 293.898 69.0114C293.924 68.1614 294.461 67.4114 295.257 67.1114C296.006 66.7534 296.827 66.5714 297.657 66.5814C297.919 66.5854 298.181 66.5704 298.441 66.5354C298.458 66.0384 298.441 65.5414 298.388 65.0474C298.282 64.3524 297.642 63.8674 296.944 63.9534C295.985 63.9534 295.444 64.3684 295.33 65.2104H294.088C294.078 64.6594 294.301 64.1304 294.702 63.7524C295.302 63.2204 296.092 62.9564 296.891 63.0214C298.651 63.0214 299.525 63.8634 299.525 65.5324V71.0324L298.442 71.0284ZM298.404 67.4764H297.749C297.198 67.4694 296.652 67.5824 296.149 67.8064C295.576 67.9924 295.186 68.5234 295.181 69.1254C295.166 69.4424 295.286 69.7514 295.511 69.9754C295.722 70.1664 295.999 70.2674 296.283 70.2564C296.658 70.2534 297.024 70.1414 297.336 69.9324C297.683 69.7274 297.952 69.4124 298.101 69.0374C298.311 68.5444 298.413 68.0124 298.4 67.4764H298.404Z" fill="#F2F2F2"/>
<path d="M302.14 71.0283V63.2003H303.262V65.0073H303.289C303.529 63.8463 304.553 63.0143 305.739 63.0193C306.326 62.9933 306.888 63.2603 307.239 63.7323C307.597 64.2283 307.776 64.8313 307.748 65.4423V71.0293H306.637V66.6793C306.662 66.0843 306.612 65.4893 306.488 64.9073C306.387 64.4383 305.961 64.1113 305.482 64.1363C304.804 64.1363 304.249 64.5683 303.81 65.4423C303.443 66.1763 303.257 66.9873 303.266 67.8073V71.0293L302.14 71.0283Z" fill="#F2F2F2"/>
<path d="M314.535 71.0278V69.6948H314.5C314.388 70.0628 314.175 70.3928 313.886 70.6478C313.505 71.0168 312.992 71.2178 312.462 71.2058C310.662 71.2058 309.779 69.8638 309.779 67.1748C309.743 66.1808 309.952 65.1928 310.387 64.2978C310.765 63.5068 311.568 63.0078 312.445 63.0178C313.388 62.9608 314.243 63.5678 314.5 64.4768H314.535V59.6768H315.646V71.0278H314.535ZM311.059 67.3798C311.059 69.3088 311.606 70.2558 312.685 70.2558C313.325 70.2248 313.881 69.8048 314.085 69.1978C314.392 68.5568 314.546 67.8538 314.535 67.1428C314.564 66.3678 314.405 65.5978 314.07 64.8978C313.847 64.3438 313.32 63.9718 312.723 63.9498C311.615 63.9498 311.06 65.0928 311.059 67.3798Z" fill="#F2F2F2"/>
<path d="M323.338 70.0427V70.9747C322.756 71.1377 322.153 71.2157 321.549 71.2057C320.497 71.2727 319.469 70.8697 318.742 70.1057C318.011 69.1817 317.652 68.0177 317.736 66.8427C317.679 65.8547 317.938 64.8737 318.476 64.0427C319.035 63.3427 319.9 62.9577 320.794 63.0107C321.569 62.9687 322.321 63.2797 322.841 63.8557C323.318 64.4577 323.559 65.2137 323.519 65.9807V66.3577H319.011V66.8257C318.996 67.5807 319.185 68.3257 319.558 68.9827C320 69.7977 320.868 70.2887 321.794 70.2487C322.315 70.2357 322.832 70.1667 323.338 70.0427ZM319.011 65.4427H322.227C322.233 65.1007 322.119 64.7677 321.905 64.5017C321.619 64.1337 321.171 63.9287 320.705 63.9517C319.828 63.9017 319.073 64.5647 319.011 65.4407V65.4427Z" fill="#F2F2F2"/>
<path d="M325.665 71.0277V59.6787H326.773V71.0277H325.665Z" fill="#F2F2F2"/>
<path d="M331.386 66.2074L332.041 66.5994C332.466 66.8354 332.872 67.1024 333.257 67.3994C333.661 67.7694 333.885 68.2954 333.871 68.8434C333.871 70.4164 332.897 71.2084 330.962 71.2084C330.237 71.2124 329.516 71.1044 328.825 70.8874V69.8594C329.474 70.0954 330.155 70.2304 330.845 70.2594C332.114 70.2594 332.745 69.8414 332.745 68.9994C332.729 68.6294 332.534 68.2904 332.222 68.0904C332.137 68.0344 331.851 67.8684 331.336 67.5904L330.629 67.2104C330.215 67.0124 329.827 66.7664 329.471 66.4764C329.066 66.1334 328.84 65.6244 328.857 65.0944C328.829 64.5064 329.09 63.9414 329.557 63.5824C330.133 63.1724 330.833 62.9744 331.539 63.0214C332.161 63.0424 332.778 63.1294 333.381 63.2814V64.3164C332.799 64.0874 332.181 63.9644 331.556 63.9534C331.153 63.9344 330.755 64.0394 330.413 64.2534C330.152 64.4004 329.986 64.6734 329.975 64.9734C330 65.2814 330.181 65.5554 330.454 65.6984C330.766 65.8684 331.073 66.0384 331.386 66.2074Z" fill="#F2F2F2"/>
<path d="M335.619 71.0277V59.6787H336.733V66.4997H336.759L339.481 63.1997H340.846L338.037 66.6637L341.188 71.0287H339.814L336.759 66.8477H336.733V71.0287L335.619 71.0277Z" fill="#F2F2F2"/>
<path d="M346.526 71.0281V69.9841H346.494C346.317 70.2931 346.062 70.5501 345.755 70.7301C345.262 71.0531 344.683 71.2191 344.094 71.2061C343.524 71.2371 342.968 71.0281 342.559 70.6301C342.16 70.1891 341.955 69.6051 341.992 69.0111C342.017 68.1571 342.56 67.4041 343.363 67.1111C344.107 66.7521 344.923 66.5711 345.749 66.5811C346.009 66.5861 346.269 66.5701 346.526 66.5351C346.54 66.0391 346.525 65.5421 346.48 65.0471C346.374 64.3511 345.733 63.8661 345.035 63.9531C344.071 63.9531 343.535 64.3681 343.422 65.2101H342.173C342.164 64.6591 342.387 64.1301 342.787 63.7521C343.391 63.2211 344.185 62.9571 344.987 63.0211C346.744 63.0211 347.615 63.8631 347.615 65.5321V71.0321L346.526 71.0281ZM346.494 67.4761H345.828C345.281 67.4701 344.739 67.5821 344.24 67.8061C343.668 67.9941 343.277 68.5231 343.264 69.1251C343.25 69.4431 343.372 69.7521 343.6 69.9751C343.809 70.1661 344.086 70.2671 344.369 70.2561C344.747 70.2521 345.117 70.1401 345.433 69.9321C345.775 69.7201 346.042 69.4071 346.199 69.0371C346.404 68.5431 346.505 68.0111 346.494 67.4761Z" fill="#F2F2F2"/>
<path d="M350.216 71.0283V63.2003H351.329V65.0074H351.356C351.733 63.6854 352.467 63.0193 353.551 63.0193C354.506 62.8963 355.38 63.5713 355.503 64.5263C355.515 64.6233 355.52 64.7213 355.516 64.8193H355.554C355.687 64.4003 355.915 64.0163 356.22 63.6993C356.617 63.2583 357.186 63.0103 357.779 63.0213C358.366 62.9973 358.927 63.2643 359.279 63.7343C359.632 64.2323 359.808 64.8343 359.779 65.4443V71.0313H358.665V66.6813C358.69 66.0843 358.644 65.4873 358.528 64.9013C358.42 64.4343 357.993 64.1123 357.514 64.1383C356.914 64.1383 356.414 64.5703 356.037 65.4503C355.711 66.1933 355.546 66.9973 355.552 67.8093V71.0313H354.435V66.6813C354.459 66.0873 354.411 65.4923 354.292 64.9093C354.19 64.4383 353.761 64.1123 353.28 64.1383C352.687 64.1383 352.202 64.5703 351.816 65.4443C351.489 66.1893 351.322 66.9953 351.327 67.8093V71.0313L350.216 71.0283Z" fill="#F2F2F2"/>
<path d="M362.4 71.2064V63.3774H363.517V65.1874H363.543C363.929 63.8604 364.648 63.1934 365.738 63.1934C366.701 63.0734 367.579 63.7564 367.699 64.7194C367.71 64.8104 367.715 64.9024 367.712 64.9934H367.744C367.883 64.5774 368.107 64.1944 368.401 63.8684C368.802 63.4294 369.372 63.1834 369.966 63.1924C370.553 63.1744 371.112 63.4424 371.466 63.9114C371.814 64.4084 371.989 65.0054 371.966 65.6114V71.2034H370.843V66.8594C370.872 66.2624 370.826 65.6644 370.706 65.0794C370.605 64.6094 370.176 64.2844 369.697 64.3134C369.097 64.3134 368.597 64.7484 368.227 65.6204C367.899 66.3634 367.733 67.1674 367.739 67.9794V71.2064H366.622V66.8594C366.65 66.2644 366.601 65.6684 366.476 65.0854C366.373 64.6174 365.948 64.2924 365.47 64.3134C364.877 64.3134 364.386 64.7484 364.003 65.6134C363.676 66.3584 363.508 67.1644 363.512 67.9784V71.2054L362.4 71.2064Z" fill="#F2F2F2"/>
<path d="M379.678 70.0432V70.9752C379.092 71.1382 378.486 71.2162 377.878 71.2062C376.826 71.2732 375.798 70.8702 375.072 70.1062C374.344 69.1812 373.987 68.0172 374.072 66.8432C374.01 65.8532 374.273 64.8692 374.823 64.0432C375.376 63.3412 376.238 62.9552 377.13 63.0112C377.907 62.9682 378.661 63.2782 379.182 63.8562C379.655 64.4602 379.894 65.2152 379.855 65.9812V66.3582H375.355V66.8262C375.339 67.5812 375.526 68.3262 375.898 68.9832C376.336 69.7972 377.202 70.2892 378.126 70.2492C378.649 70.2362 379.17 70.1672 379.678 70.0432ZM375.352 65.4432H378.567C378.571 65.1012 378.455 64.7682 378.24 64.5022C377.952 64.1312 377.501 63.9262 377.032 63.9522C376.159 63.9062 375.411 64.5692 375.352 65.4412V65.4432Z" fill="#F2F2F2"/>
<path d="M381.9 71.2057V63.3767H383.017V64.8917H383.052C383.457 63.8157 384.514 63.1267 385.662 63.1917V64.3917C384.872 64.3577 384.12 64.7367 383.677 65.3917C383.198 66.1627 382.967 67.0627 383.017 67.9697V71.2087L381.9 71.2057Z" fill="#F2F2F2"/>
</svg>
