<svg width="49" height="48" viewBox="0 0 49 48" fill="none" xmlns="http://www.w3.org/2000/svg">
<path d="M34.6667 31.9999H19.4867L36.0867 15.4199C36.4634 15.0433 36.6749 14.5325 36.6749 13.9999C36.6749 13.4673 36.4634 12.9565 36.0867 12.5799C35.7101 12.2033 35.1994 11.9917 34.6667 11.9917C34.1341 11.9917 33.6234 12.2033 33.2467 12.5799L16.6667 29.1799V13.9999C16.6667 13.4694 16.456 12.9607 16.081 12.5857C15.7059 12.2106 15.1972 11.9999 14.6667 11.9999C14.1363 11.9999 13.6276 12.2106 13.2525 12.5857C12.8775 12.9607 12.6667 13.4694 12.6667 13.9999V33.9999C12.6699 34.2612 12.7243 34.5194 12.8267 34.7599C13.0297 35.2486 13.418 35.6369 13.9067 35.8399C14.1472 35.9424 14.4054 35.9967 14.6667 35.9999H34.6667C35.1972 35.9999 35.7059 35.7892 36.081 35.4141C36.456 35.039 36.6667 34.5303 36.6667 33.9999C36.6667 33.4694 36.456 32.9607 36.081 32.5857C35.7059 32.2106 35.1972 31.9999 34.6667 31.9999Z" fill="#D9D8D6"/>
</svg>
