<svg width="48" height="48" viewBox="0 0 48 48" fill="none" xmlns="http://www.w3.org/2000/svg">
<path d="M34 32H18.82L35.42 15.42C35.7966 15.0434 36.0082 14.5326 36.0082 14C36.0082 13.4674 35.7966 12.9566 35.42 12.58C35.0434 12.2034 34.5326 11.9918 34 11.9918C33.4674 11.9918 32.9566 12.2034 32.58 12.58L16 29.18V14C16 13.4696 15.7893 12.9609 15.4142 12.5858C15.0391 12.2107 14.5304 12 14 12C13.4696 12 12.9609 12.2107 12.5858 12.5858C12.2107 12.9609 12 13.4696 12 14V34C12.0032 34.2614 12.0575 34.5196 12.16 34.76C12.3629 35.2487 12.7513 35.6371 13.24 35.84C13.4804 35.9425 13.7386 35.9968 14 36H34C34.5304 36 35.0391 35.7893 35.4142 35.4142C35.7893 35.0391 36 34.5304 36 34C36 33.4696 35.7893 32.9609 35.4142 32.5858C35.0391 32.2107 34.5304 32 34 32Z" fill="#76777A"/>
</svg>
