<svg width="24" height="25" viewBox="0 0 24 25" fill="none" xmlns="http://www.w3.org/2000/svg">
<g clip-path="url(#clip0_536_2244)">
<path d="M12 0.656982C5.37264 0.656982 0 6.02962 0 12.657C0 18.2845 3.87456 23.0067 9.10128 24.3037V16.3242H6.62688V12.657H9.10128V11.0768C9.10128 6.9925 10.9498 5.09938 14.9597 5.09938C15.72 5.09938 17.0318 5.24866 17.5685 5.39746V8.72146C17.2853 8.6917 16.7933 8.67682 16.1822 8.67682C14.2147 8.67682 13.4544 9.42226 13.4544 11.36V12.657H17.3741L16.7006 16.3242H13.4544V24.5691C19.3963 23.8515 24.0005 18.7923 24.0005 12.657C24 6.02962 18.6274 0.656982 12 0.656982Z" fill="#DEDEDE"/>
</g>
<defs>
<clipPath id="clip0_536_2244">
<rect width="24" height="24" fill="white" transform="translate(0 0.656982)"/>
</clipPath>
</defs>
</svg>
