<svg width="717" height="825" viewBox="0 0 717 825" fill="none" xmlns="http://www.w3.org/2000/svg">
<g filter="url(#filter0_dddd_536_1854)">
<path d="M640.099 373.822H635.582L633.498 370.17L635.582 366.518H640.099L642.357 370.17L640.099 373.822Z" fill="#2E3741"/>
<path d="M598.582 380.13H586.422L580.342 370.17L586.422 360.209H598.582L604.662 370.17L598.582 380.13Z" fill="#2E3741"/>
<path d="M621.164 392.747H609.178L603.098 382.621L609.178 372.66H621.164L627.244 382.621L621.164 392.747Z" fill="#2E3741"/>
<path d="M643.92 405.198H631.76L625.854 395.237L631.76 385.111H643.92L650 395.237L643.92 405.198Z" fill="#2E3741"/>
<path d="M575.826 392.747H563.84L557.76 382.621L563.84 372.66H575.826L581.906 382.621L575.826 392.747Z" fill="#2E3741"/>
<path d="M598.582 405.198H586.422L580.342 395.237L586.422 385.111H598.582L604.662 395.237L598.582 405.198Z" fill="#2E3741"/>
<path d="M621.164 417.648H609.178L603.098 407.688L609.178 397.728H621.164L627.244 407.688L621.164 417.648Z" fill="#2E3741"/>
<path d="M643.399 429.601H632.282L626.549 420.138L632.282 410.842H643.399L649.131 420.138L643.399 429.601Z" fill="#2E3741"/>
<path d="M574.783 365.854H564.882L560.018 357.719L564.882 349.585H574.783L579.647 357.719L574.783 365.854Z" fill="#2E3741"/>
<path d="M553.243 405.198H541.084L535.004 395.237L541.084 385.111H553.243L559.323 395.237L553.243 405.198Z" fill="#2E3741"/>
<path d="M575.826 417.648H563.84L557.76 407.688L563.84 397.728H575.826L581.906 407.688L575.826 417.648Z" fill="#2E3741"/>
<path d="M598.582 430.265H586.422L580.342 420.138L586.422 410.178H598.582L604.662 420.138L598.582 430.265Z" fill="#2E3741"/>
<path d="M621.164 442.715H609.178L603.098 432.755L609.178 422.794H621.164L627.244 432.755L621.164 442.715Z" fill="#2E3741"/>
<path d="M550.811 351.245H543.516L539.868 345.103L543.516 339.126H550.811L554.459 345.103L550.811 351.245Z" fill="#2E3741"/>
<path d="M553.243 380.13H541.084L535.004 370.17L541.084 360.209H553.243L559.323 370.17L553.243 380.13Z" fill="#2E3741"/>
<path d="M530.487 417.648H518.501L512.421 407.688L518.501 397.728H530.487L536.567 407.688L530.487 417.648Z" fill="#2E3741"/>
<path d="M553.243 430.265H541.084L535.004 420.138L541.084 410.178H553.243L559.323 420.138L553.243 430.265Z" fill="#2E3741"/>
<path d="M575.826 442.715H563.84L557.76 432.755L563.84 422.794H575.826L581.906 432.755L575.826 442.715Z" fill="#2E3741"/>
<path d="M598.582 455.166H586.422L580.342 445.206L586.422 435.245H598.582L604.662 445.206L598.582 455.166Z" fill="#2E3741"/>
<path d="M620.122 465.956H610.22L605.183 457.822L610.22 449.521H620.122L625.159 457.822L620.122 465.956Z" fill="#2E3741"/>
<path d="M528.403 314.059H520.586L516.591 307.585L520.586 301.111H528.403L532.398 307.585L528.403 314.059Z" fill="#2E3741"/>
<path d="M530.314 342.281H518.675L512.769 332.652L518.675 323.024H530.314L536.22 332.652L530.314 342.281Z" fill="#2E3741"/>
<path d="M530.487 367.68H518.501L512.421 357.719L518.501 347.593H530.487L536.567 357.719L530.487 367.68Z" fill="#2E3741"/>
<path d="M530.487 392.747H518.501L512.421 382.621L518.501 372.66H530.487L536.567 382.621L530.487 392.747Z" fill="#566779"/>
<path d="M507.905 430.265H495.745L489.666 420.138L495.745 410.178H507.905L513.985 420.138L507.905 430.265Z" fill="#2E3741"/>
<path d="M530.487 442.715H518.501L512.421 432.755L518.501 422.794H530.487L536.567 432.755L530.487 442.715Z" fill="#2E3741"/>
<path d="M553.243 455.166H541.084L535.004 445.206L541.084 435.245H553.243L559.323 445.206L553.243 455.166Z" fill="#2E3741"/>
<path d="M575.826 467.783H563.84L557.76 457.822L563.84 447.696H575.826L581.906 457.822L575.826 467.783Z" fill="#2E3741"/>
<path d="M598.582 480.233H586.422L580.342 470.273L586.422 460.312H598.582L604.662 470.273L598.582 480.233Z" fill="#2E3741"/>
<path d="M616.648 485.048H613.868L612.479 482.724L613.868 480.565H616.648L617.864 482.724L616.648 485.048Z" fill="#2E3741"/>
<path d="M505.126 300.447H498.525L495.398 295.135L498.525 289.822H505.126L508.252 295.135L505.126 300.447Z" fill="#2E3741"/>
<path d="M507.905 330.162H495.745L489.666 320.202L495.745 310.075H507.905L513.985 320.202L507.905 330.162Z" fill="#2E3741"/>
<path d="M507.905 355.229H495.745L489.666 345.103L495.745 335.142H507.905L513.985 345.103L507.905 355.229Z" fill="#2E3741"/>
<path d="M507.905 380.13H495.745L489.666 370.17L495.745 360.209H507.905L513.985 370.17L507.905 380.13Z" fill="#2E3741"/>
<path d="M507.905 405.198H495.745L489.666 395.237L495.745 385.111H507.905L513.985 395.237L507.905 405.198Z" fill="#2E3741"/>
<path d="M485.149 442.715H473.163L467.083 432.755L473.163 422.794H485.149L491.229 432.755L485.149 442.715Z" fill="#2E3741"/>
<path d="M507.905 455.166H495.745L489.666 445.206L495.745 435.245H507.905L513.985 445.206L507.905 455.166Z" fill="#2E3741"/>
<path d="M530.487 467.783H518.501L512.421 457.822L518.501 447.696H530.487L536.567 457.822L530.487 467.783Z" fill="#2E3741"/>
<path d="M553.243 480.233H541.084L535.004 470.273L541.084 460.312H553.243L559.323 470.273L553.243 480.233Z" fill="#2E3741"/>
<path d="M575.826 492.85H563.84L557.76 482.723L563.84 472.763H575.826L581.906 482.723L575.826 492.85Z" fill="#2E3741"/>
<path d="M598.582 505.3H586.422L580.342 495.34L586.422 485.213H598.582L604.662 495.34L598.582 505.3Z" fill="#2E3741"/>
<path d="M481.327 286.17H476.985L474.9 282.684L476.985 279.032H481.327L483.412 282.684L481.327 286.17Z" fill="#2E3741"/>
<path d="M485.149 317.711H473.163L467.083 307.585L473.163 297.625H485.149L491.229 307.585L485.149 317.711Z" fill="#2E3741"/>
<path d="M485.149 342.612H473.163L467.083 332.652L473.163 322.691H485.149L491.229 332.652L485.149 342.612Z" fill="#2E3741"/>
<path d="M485.149 367.68H473.163L467.083 357.719L473.163 347.593H485.149L491.229 357.719L485.149 367.68Z" fill="#2E3741"/>
<path d="M485.149 392.747H473.163L467.083 382.621L473.163 372.66H485.149L491.229 382.621L485.149 392.747Z" fill="#2E3741"/>
<path d="M485.149 417.648H473.163L467.083 407.688L473.163 397.728H485.149L491.229 407.688L485.149 417.648Z" fill="#2E3741"/>
<path d="M462.567 455.166H450.407L444.327 445.206L450.407 435.245H462.567L468.647 445.206L462.567 455.166Z" fill="#2E3741"/>
<path d="M485.149 467.783H473.163L467.083 457.822L473.163 447.696H485.149L491.229 457.822L485.149 467.783Z" fill="#566779"/>
<path d="M507.905 480.233H495.745L489.666 470.273L495.745 460.312H507.905L513.985 470.273L507.905 480.233Z" fill="#2E3741"/>
<path d="M530.487 492.85H518.501L512.421 482.723L518.501 472.763H530.487L536.567 482.723L530.487 492.85Z" fill="#2E3741"/>
<path d="M553.243 505.3H541.084L535.004 495.34L541.084 485.213H553.243L559.323 495.34L553.243 505.3Z" fill="#2E3741"/>
<path d="M575.826 517.751H563.84L557.76 507.791L563.84 497.83H575.826L581.906 507.791L575.826 517.751Z" fill="#566779"/>
<path d="M598.582 530.368H586.422L580.342 520.241L586.422 510.281H598.582L604.662 520.241L598.582 530.368Z" fill="#2E3741"/>
<path d="M462.219 279.53H450.754L445.022 270.067L450.754 260.605H462.219L467.952 270.067L462.219 279.53Z" fill="#2E3741"/>
<path d="M462.567 305.095H450.407L444.327 295.134L450.407 285.174H462.567L468.647 295.134L462.567 305.095Z" fill="#2E3741"/>
<path d="M462.567 330.162H450.407L444.327 320.202L450.407 310.075H462.567L468.647 320.202L462.567 330.162Z" fill="#2E3741"/>
<path d="M462.567 355.229H450.407L444.327 345.103L450.407 335.142H462.567L468.647 345.103L462.567 355.229Z" fill="#2E3741"/>
<path d="M462.567 380.13H450.407L444.327 370.17L450.407 360.209H462.567L468.647 370.17L462.567 380.13Z" fill="#2E3741"/>
<path d="M462.567 405.198H450.407L444.327 395.237L450.407 385.111H462.567L468.647 395.237L462.567 405.198Z" fill="#2E3741"/>
<path d="M462.567 430.265H450.407L444.327 420.138L450.407 410.178H462.567L468.647 420.138L462.567 430.265Z" fill="#2E3741"/>
<path d="M439.811 467.783H427.825L421.745 457.822L427.825 447.696H439.811L445.891 457.822L439.811 467.783Z" fill="#2E3741"/>
<path d="M462.567 480.233H450.407L444.327 470.273L450.407 460.312H462.567L468.647 470.273L462.567 480.233Z" fill="#2E3741"/>
<path d="M485.149 492.85H473.163L467.083 482.723L473.163 472.763H485.149L491.229 482.723L485.149 492.85Z" fill="#2E3741"/>
<path d="M507.905 505.3H495.745L489.666 495.34L495.745 485.213H507.905L513.985 495.34L507.905 505.3Z" fill="#2E3741"/>
<path d="M530.487 517.751H518.501L512.421 507.791L518.501 497.83H530.487L536.567 507.791L530.487 517.751Z" fill="#2E3741"/>
<path d="M553.243 530.368H541.084L535.004 520.241L541.084 510.281H553.243L559.323 520.241L553.243 530.368Z" fill="#2E3741"/>
<path d="M575.826 542.818H563.84L557.76 532.858L563.84 522.897H575.826L581.906 532.858L575.826 542.818Z" fill="#2E3741"/>
<path d="M438.768 265.917H428.867L423.829 257.617L428.867 249.316H438.768L443.806 257.617L438.768 265.917Z" fill="#2E3741"/>
<path d="M439.811 292.645H427.825L421.745 282.684L427.825 272.558H439.811L445.891 282.684L439.811 292.645Z" fill="#2E3741"/>
<path d="M439.811 317.711H427.825L421.745 307.585L427.825 297.625H439.811L445.891 307.585L439.811 317.711Z" fill="#2E3741"/>
<path d="M439.811 342.612H427.825L421.745 332.652L427.825 322.691H439.811L445.891 332.652L439.811 342.612Z" fill="#2E3741"/>
<path d="M439.811 367.68H427.825L421.745 357.719L427.825 347.593H439.811L445.891 357.719L439.811 367.68Z" fill="#2E3741"/>
<path d="M439.811 392.747H427.825L421.745 382.621L427.825 372.66H439.811L445.891 382.621L439.811 392.747Z" fill="#2E3741"/>
<path d="M439.811 417.648H427.825L421.745 407.688L427.825 397.728H439.811L445.891 407.688L439.811 417.648Z" fill="#2E3741"/>
<path d="M439.811 442.715H427.825L421.745 432.755L427.825 422.794H439.811L445.891 432.755L439.811 442.715Z" fill="#2E3741"/>
<path d="M417.228 480.233H405.069L398.989 470.273L405.069 460.312H417.228L423.308 470.273L417.228 480.233Z" fill="#2E3741"/>
<path d="M439.811 492.85H427.825L421.745 482.723L427.825 472.763H439.811L445.891 482.723L439.811 492.85Z" fill="#2E3741"/>
<path d="M462.567 505.3H450.407L444.327 495.34L450.407 485.213H462.567L468.647 495.34L462.567 505.3Z" fill="#2E3741"/>
<path d="M485.149 517.751H473.163L467.083 507.791L473.163 497.83H485.149L491.229 507.791L485.149 517.751Z" fill="#2E3741"/>
<path d="M507.905 530.368H495.745L489.666 520.241L495.745 510.281H507.905L513.985 520.241L507.905 530.368Z" fill="#2E3741"/>
<path d="M530.487 542.818H518.501L512.421 532.858L518.501 522.731H530.487L536.567 532.858L530.487 542.818Z" fill="#2E3741"/>
<path d="M553.243 555.269H541.084L535.004 545.309L541.084 535.348H553.243L559.323 545.309L553.243 555.269Z" fill="#2E3741"/>
<path d="M414.623 200.842H407.674L404.2 195.032L407.674 189.222H414.623L418.097 195.032L414.623 200.842Z" fill="#2E3741"/>
<path d="M412.885 247.823H409.411L407.848 245.166L409.411 242.344H412.885L414.449 245.166L412.885 247.823Z" fill="#2E3741"/>
<path d="M417.228 280.193H405.069L398.989 270.067L405.069 260.106H417.228L423.308 270.067L417.228 280.193Z" fill="#2E3741"/>
<path d="M417.228 305.095H405.069L398.989 295.134L405.069 285.174H417.228L423.308 295.134L417.228 305.095Z" fill="#2E3741"/>
<path d="M417.228 330.162H405.069L398.989 320.202L405.069 310.075H417.228L423.308 320.202L417.228 330.162Z" fill="#2E3741"/>
<path d="M417.228 355.229H405.069L398.989 345.103L405.069 335.142H417.228L423.308 345.103L417.228 355.229Z" fill="#2E3741"/>
<path d="M417.228 380.13H405.069L398.989 370.17L405.069 360.209H417.228L423.308 370.17L417.228 380.13Z" fill="#2E3741"/>
<path d="M417.228 405.198H405.069L398.989 395.237L405.069 385.111H417.228L423.308 395.237L417.228 405.198Z" fill="#2E3741"/>
<path d="M417.228 430.265H405.069L398.989 420.138L405.069 410.178H417.228L423.308 420.138L417.228 430.265Z" fill="#2E3741"/>
<path d="M417.228 455.166H405.069L398.989 445.206L405.069 435.245H417.228L423.308 445.206L417.228 455.166Z" fill="#2E3741"/>
<path d="M394.472 492.85H382.486L376.406 482.723L382.486 472.763H394.472L400.552 482.723L394.472 492.85Z" fill="#2E3741"/>
<path d="M417.228 505.3H405.069L398.989 495.34L405.069 485.213H417.228L423.308 495.34L417.228 505.3Z" fill="#2E3741"/>
<path d="M439.811 517.751H427.825L421.745 507.791L427.825 497.83H439.811L445.891 507.791L439.811 517.751Z" fill="#2E3741"/>
<path d="M462.567 530.368H450.407L444.327 520.241L450.407 510.281H462.567L468.647 520.241L462.567 530.368Z" fill="#2E3741"/>
<path d="M485.149 542.818H473.163L467.083 532.858L473.163 522.731H485.149L491.229 532.858L485.149 542.818Z" fill="#2E3741"/>
<path d="M507.905 555.269H495.745L489.666 545.309L495.745 535.348H507.905L513.985 545.309L507.905 555.269Z" fill="#2E3741"/>
<path d="M530.487 567.885H518.501L512.421 557.759L518.501 547.798H530.487L536.567 557.759L530.487 567.885Z" fill="#2E3741"/>
<path d="M553.243 580.336H541.084L535.004 570.376L541.084 560.249H553.243L559.323 570.376L553.243 580.336Z" fill="#2E3741"/>
<path d="M390.303 160.502H386.655L384.918 157.514L386.655 154.526H390.303L392.04 157.514L390.303 160.502Z" fill="#2E3741"/>
<path d="M393.777 191.38H383.181L377.796 182.581L383.181 173.617H393.777L399.162 182.581L393.777 191.38Z" fill="#2E3741"/>
<path d="M394.472 267.577H382.486L376.406 257.617L382.486 247.656H394.472L400.552 257.617L394.472 267.577Z" fill="#2E3741"/>
<path d="M394.472 292.645H382.486L376.406 282.684L382.486 272.558H394.472L400.552 282.684L394.472 292.645Z" fill="#566779"/>
<path d="M394.472 317.711H382.486L376.406 307.585L382.486 297.625H394.472L400.552 307.585L394.472 317.711Z" fill="#2E3741"/>
<path d="M394.472 342.612H382.486L376.406 332.652L382.486 322.691H394.472L400.552 332.652L394.472 342.612Z" fill="#2E3741"/>
<path d="M394.472 367.68H382.486L376.406 357.719L382.486 347.593H394.472L400.552 357.719L394.472 367.68Z" fill="#2E3741"/>
<path d="M394.472 392.747H382.486L376.406 382.621L382.486 372.66H394.472L400.552 382.621L394.472 392.747Z" fill="#2E3741"/>
<path d="M394.472 417.648H382.486L376.406 407.688L382.486 397.728H394.472L400.552 407.688L394.472 417.648Z" fill="#2E3741"/>
<path d="M394.472 442.715H382.486L376.406 432.755L382.486 422.794H394.472L400.552 432.755L394.472 442.715Z" fill="#2E3741"/>
<path d="M394.472 467.783H382.486L376.406 457.822L382.486 447.696H394.472L400.552 457.822L394.472 467.783Z" fill="#2E3741"/>
<path d="M393.778 516.423H383.181L377.97 507.791L383.181 499.158H393.778L398.989 507.791L393.778 516.423Z" fill="#2E3741"/>
<path d="M417.228 530.368H405.069L398.989 520.241L405.069 510.281H417.228L423.308 520.241L417.228 530.368Z" fill="#2E3741"/>
<path d="M439.811 542.818H427.825L421.745 532.858L427.825 522.731H439.811L445.891 532.858L439.811 542.818Z" fill="#2E3741"/>
<path d="M462.567 555.269H450.407L444.327 545.309L450.407 535.348H462.567L468.647 545.309L462.567 555.269Z" fill="#2E3741"/>
<path d="M485.149 567.885H473.163L467.083 557.759L473.163 547.798H485.149L491.229 557.759L485.149 567.885Z" fill="#2E3741"/>
<path d="M507.905 580.336H495.745L489.666 570.376L495.745 560.249H507.905L513.985 570.376L507.905 580.336Z" fill="#2E3741"/>
<path d="M530.487 592.787H518.501L512.421 582.826L518.501 572.866H530.487L536.567 582.826L530.487 592.787Z" fill="#2E3741"/>
<path d="M549.769 599.593H544.558L541.952 595.277L544.558 590.96H549.769L552.375 595.277L549.769 599.593Z" fill="#2E3741"/>
<path d="M371.716 29.6876H359.904L353.998 19.8931L359.904 10.2646H371.716L377.449 19.8931L371.716 29.6876Z" fill="#2E3741"/>
<path d="M366.852 46.6205H364.768L363.726 44.9604L364.768 43.3003H366.852L367.895 44.9604L366.852 46.6205Z" fill="#2E3741"/>
<path d="M368.068 148.715H363.552L361.293 145.063L363.552 141.245H368.068L370.326 145.063L368.068 148.715Z" fill="#2E3741"/>
<path d="M367.374 172.787H364.073L362.51 169.965L364.073 167.309H367.374L369.111 169.965L367.374 172.787Z" fill="#2E3741"/>
<path d="M369.111 200.676H362.51L359.035 195.031L362.51 189.553H369.111L372.585 195.031L369.111 200.676Z" fill="#2E3741"/>
<path d="M371.543 254.629H360.078L354.345 245.166L360.078 235.538H371.543L377.275 245.166L371.543 254.629Z" fill="#2E3741"/>
<path d="M371.89 280.193H359.73L353.65 270.067L359.73 260.106H371.89L377.97 270.067L371.89 280.193Z" fill="#2E3741"/>
<path d="M371.89 305.095H359.73L353.65 295.134L359.73 285.174H371.89L377.97 295.134L371.89 305.095Z" fill="#2E3741"/>
<path d="M371.89 330.162H359.73L353.65 320.202L359.73 310.075H371.89L377.97 320.202L371.89 330.162Z" fill="#2E3741"/>
<path d="M371.89 355.229H359.73L353.65 345.103L359.73 335.142H371.89L377.97 345.103L371.89 355.229Z" fill="#2E3741"/>
<path d="M371.89 380.13H359.73L353.65 370.17L359.73 360.209H371.89L377.97 370.17L371.89 380.13Z" fill="#2E3741"/>
<path d="M371.89 405.198H359.73L353.65 395.237L359.73 385.111H371.89L377.97 395.237L371.89 405.198Z" fill="#2E3741"/>
<path d="M371.89 430.265H359.73L353.65 420.138L359.73 410.178H371.89L377.97 420.138L371.89 430.265Z" fill="#2E3741"/>
<path d="M371.89 455.166H359.73L353.65 445.206L359.73 435.245H371.89L377.97 445.206L371.89 455.166Z" fill="#566779"/>
<path d="M371.89 480.233H359.73L353.65 470.273L359.73 460.312H371.89L377.97 470.273L371.89 480.233Z" fill="#2E3741"/>
<path d="M393.43 540.992H383.528L378.665 532.857L383.528 524.723H393.43L398.294 532.857L393.43 540.992Z" fill="#2E3741"/>
<path d="M417.228 555.269H405.069L398.989 545.309L405.069 535.348H417.228L423.308 545.309L417.228 555.269Z" fill="#2E3741"/>
<path d="M439.811 567.885H427.825L421.745 557.759L427.825 547.798H439.811L445.891 557.759L439.811 567.885Z" fill="#2E3741"/>
<path d="M462.567 580.336H450.407L444.327 570.376L450.407 560.249H462.567L468.647 570.376L462.567 580.336Z" fill="#2E3741"/>
<path d="M485.149 592.787H473.163L467.083 582.826L473.163 572.866H485.149L491.229 582.826L485.149 592.787Z" fill="#2E3741"/>
<path d="M507.905 605.403H495.745L489.666 595.277L495.745 585.316H507.905L513.985 595.277L507.905 605.403Z" fill="#566779"/>
<path d="M530.487 617.688H518.501L512.595 607.893L518.501 597.933H530.487L536.394 607.893L530.487 617.688Z" fill="#2E3741"/>
<path d="M349.134 17.4034H337.148L331.068 7.4429L337.148 -2.51758H349.134L355.214 7.4429L349.134 17.4034Z" fill="#2E3741"/>
<path d="M349.134 42.4703H337.148L331.068 32.5098L337.148 22.3833H349.134L355.214 32.5098L349.134 42.4703Z" fill="#2E3741"/>
<path d="M348.092 65.5451H338.19L333.326 57.4107L338.19 49.2764H348.092L352.955 57.4107L348.092 65.5451Z" fill="#2E3741"/>
<path d="M345.66 161.664H340.622L338.19 157.513L340.622 153.363H345.66L348.092 157.513L345.66 161.664Z" fill="#2E3741"/>
<path d="M345.312 186.067H340.97L338.885 182.581L340.97 178.929H345.312L347.397 182.581L345.312 186.067Z" fill="#2E3741"/>
<path d="M347.918 265.585H338.364L333.5 257.617L338.364 249.648H347.918L352.782 257.617L347.918 265.585Z" fill="#2E3741"/>
<path d="M349.134 292.645H337.148L331.068 282.684L337.148 272.558H349.134L355.214 282.684L349.134 292.645Z" fill="#2E3741"/>
<path d="M349.134 317.711H337.148L331.068 307.585L337.148 297.625H349.134L355.214 307.585L349.134 317.711Z" fill="#2E3741"/>
<path d="M349.134 342.612H337.148L331.068 332.652L337.148 322.691H349.134L355.214 332.652L349.134 342.612Z" fill="#2E3741"/>
<path d="M349.134 367.68H337.148L331.068 357.719L337.148 347.593H349.134L355.214 357.719L349.134 367.68Z" fill="#2E3741"/>
<path d="M349.134 392.747H337.148L331.068 382.621L337.148 372.66H349.134L355.214 382.621L349.134 392.747Z" fill="#2E3741"/>
<path d="M349.134 417.648H337.148L331.068 407.688L337.148 397.728H349.134L355.214 407.688L349.134 417.648Z" fill="#2E3741"/>
<path d="M349.134 442.549H337.148L331.242 432.755L337.148 422.794H349.134L355.04 432.755L349.134 442.549Z" fill="#2E3741"/>
<path d="M346.702 463.632H339.58L335.932 457.822L339.58 451.846H346.702L350.176 457.822L346.702 463.632Z" fill="#2E3741"/>
<path d="M392.909 565.23H383.876L379.533 557.759L383.876 550.289H392.909L397.425 557.759L392.909 565.23Z" fill="#2E3741"/>
<path d="M417.228 580.336H405.069L398.989 570.376L405.069 560.249H417.228L423.308 570.376L417.228 580.336Z" fill="#2E3741"/>
<path d="M439.811 592.787H427.825L421.745 582.826L427.825 572.866H439.811L445.891 582.826L439.811 592.787Z" fill="#2E3741"/>
<path d="M462.567 605.403H450.407L444.327 595.277L450.407 585.316H462.567L468.647 595.277L462.567 605.403Z" fill="#2E3741"/>
<path d="M485.149 617.854H473.163L467.083 607.893L473.163 597.933H485.149L491.229 607.893L485.149 617.854Z" fill="#2E3741"/>
<path d="M507.905 630.305H495.745L489.839 620.344L495.745 610.384H507.905L513.811 620.344L507.905 630.305Z" fill="#2E3741"/>
<path d="M326.552 29.8536H314.392L308.312 19.8931L314.392 9.93262H326.552L332.458 19.8931L326.552 29.8536Z" fill="#2E3741"/>
<path d="M326.552 54.9209H314.392L308.312 44.9605L314.392 35H326.552L332.458 44.9605L326.552 54.9209Z" fill="#2E3741"/>
<path d="M326.378 79.6563H314.566L308.659 70.0279L314.566 60.2334H326.378L332.284 70.0279L326.378 79.6563Z" fill="#2E3741"/>
<path d="M322.383 98.2487H318.561L316.477 94.9286L318.561 91.7744H322.383L324.294 94.9286L322.383 98.2487Z" fill="#2E3741"/>
<path d="M325.509 128.463H315.434L310.223 119.996L315.434 111.53H325.509L330.547 119.996L325.509 128.463Z" fill="#2E3741"/>
<path d="M322.035 172.621H318.908L317.171 169.965L318.908 167.309H322.035L323.599 169.965L322.035 172.621Z" fill="#2E3741"/>
<path d="M326.204 279.696H314.739L309.007 270.067L314.739 260.605H326.204L331.937 270.067L326.204 279.696Z" fill="#2E3741"/>
<path d="M322.209 297.957H318.735L316.998 295.135L318.735 292.312H322.209L323.946 295.135L322.209 297.957Z" fill="#2E3741"/>
<path d="M324.12 326.178H316.824L313.176 320.202L316.824 314.06H324.12L327.767 320.202L324.12 326.178Z" fill="#2E3741"/>
<path d="M326.552 355.229H314.392L308.312 345.103L314.392 335.142H326.552L332.458 345.103L326.552 355.229Z" fill="#2E3741"/>
<path d="M326.378 380.13H314.392L308.486 370.17L314.392 360.209H326.378L332.458 370.17L326.378 380.13Z" fill="#2E3741"/>
<path d="M322.904 399.055H318.04L315.781 395.237L318.04 391.253H322.904L325.162 395.237L322.904 399.055Z" fill="#2E3741"/>
<path d="M325.683 428.937H315.087L309.875 420.138L315.087 411.506H325.683L331.068 420.138L325.683 428.937Z" fill="#2E3741"/>
<path d="M391.867 588.47H385.092L381.618 582.826L385.092 577.182H391.867L395.341 582.826L391.867 588.47Z" fill="#2E3741"/>
<path d="M417.228 605.403H405.069L398.989 595.277L405.069 585.316H417.228L423.308 595.277L417.228 605.403Z" fill="#566779"/>
<path d="M439.811 617.854H427.825L421.745 607.893L427.825 597.933H439.811L445.891 607.893L439.811 617.854Z" fill="#2E3741"/>
<path d="M462.567 630.305H450.407L444.327 620.344L450.407 610.384H462.567L468.647 620.344L462.567 630.305Z" fill="#2E3741"/>
<path d="M485.149 642.921H473.163L467.083 632.794L473.163 622.834H485.149L491.229 632.794L485.149 642.921Z" fill="#2E3741"/>
<path d="M504.952 650.557H498.699L495.572 645.411L498.699 640.265H504.952L508.079 645.411L504.952 650.557Z" fill="#2E3741"/>
<path d="M303.795 17.4034H291.809L285.729 7.4429L291.809 -2.51758H303.795L309.875 7.4429L303.795 17.4034Z" fill="#2E3741"/>
<path d="M303.795 42.4703H291.809L285.729 32.5098L291.809 22.3833H303.795L309.875 32.5098L303.795 42.4703Z" fill="#2E3741"/>
<path d="M303.795 67.3716H291.809L285.729 57.4112L291.809 47.4507H303.795L309.875 57.4112L303.795 67.3716Z" fill="#2E3741"/>
<path d="M303.795 92.4385H291.809L285.729 82.4781L291.809 72.5176H303.795L309.875 82.4781L303.795 92.4385Z" fill="#2E3741"/>
<path d="M299.974 111.198H295.457L293.199 107.546L295.457 103.728H299.974L302.406 107.546L299.974 111.198Z" fill="#2E3741"/>
<path d="M303.101 166.313H292.504L287.293 157.514L292.504 148.882H303.101L308.312 157.514L303.101 166.313Z" fill="#2E3741"/>
<path d="M299.105 234.873H296.326L294.936 232.549L296.326 230.225H299.105L300.495 232.549L299.105 234.873Z" fill="#2E3741"/>
<path d="M299.627 260.605H295.979L294.068 257.617L295.979 254.462H299.627L301.537 257.617L299.627 260.605Z" fill="#2E3741"/>
<path d="M300.322 286.668H295.284L292.852 282.684L295.284 278.534H300.322L302.754 282.684L300.322 286.668Z" fill="#2E3741"/>
<path d="M393.777 616.692H383.007L377.622 607.893L383.007 598.929H393.777L399.162 607.893L393.777 616.692Z" fill="#2E3741"/>
<path d="M417.228 630.305H405.069L398.989 620.344L405.069 610.384H417.228L423.308 620.344L417.228 630.305Z" fill="#2E3741"/>
<path d="M439.811 642.921H427.825L421.745 632.794L427.825 622.834H439.811L445.891 632.794L439.811 642.921Z" fill="#2E3741"/>
<path d="M462.567 655.371H450.407L444.327 645.411L450.407 635.45H462.567L468.647 645.411L462.567 655.371Z" fill="#2E3741"/>
<path d="M485.149 667.822H473.163L467.083 657.862L473.163 647.901H485.149L491.229 657.862L485.149 667.822Z" fill="#2E3741"/>
<path d="M281.213 29.8536H269.053L262.974 19.8931L269.053 9.93262H281.213L287.119 19.8931L281.213 29.8536Z" fill="#2E3741"/>
<path d="M281.213 54.9209H269.053L262.974 44.9605L269.053 35H281.213L287.119 44.9605L281.213 54.9209Z" fill="#2E3741"/>
<path d="M281.213 79.9883H269.053L262.974 70.0279L269.053 59.9014H281.213L287.119 70.0279L281.213 79.9883Z" fill="#2E3741"/>
<path d="M280.866 104.557H269.227L263.495 94.9287L269.227 85.3003H280.866L286.772 94.9287L280.866 104.557Z" fill="#2E3741"/>
<path d="M281.213 230.06H269.053L262.974 220.099L269.053 210.139H281.213L287.119 220.099L281.213 230.06Z" fill="#2E3741"/>
<path d="M281.213 255.127H269.053L262.974 245.166L269.053 235.04H281.213L287.119 245.166L281.213 255.127Z" fill="#2E3741"/>
<path d="M276.002 271.727H274.091L273.223 270.067L274.091 268.573H276.002L277.044 270.067L276.002 271.727Z" fill="#2E3741"/>
<path d="M394.472 642.921H382.486L376.406 632.794L382.486 622.834H394.472L400.552 632.794L394.472 642.921Z" fill="#2E3741"/>
<path d="M417.228 655.371H405.069L398.989 645.411L405.069 635.45H417.228L423.308 645.411L417.228 655.371Z" fill="#2E3741"/>
<path d="M439.811 667.822H427.825L421.745 657.862L427.825 647.901H439.811L445.891 657.862L439.811 667.822Z" fill="#2E3741"/>
<path d="M462.567 680.272H450.407L444.501 670.478L450.407 660.518H462.567L468.473 670.478L462.567 680.272Z" fill="#2E3741"/>
<path d="M258.457 17.4034H246.471L240.391 7.4429L246.471 -2.51758H258.457L264.537 7.4429L258.457 17.4034Z" fill="#2E3741"/>
<path d="M258.457 42.4703H246.471L240.391 32.5098L246.471 22.3833H258.457L264.537 32.5098L258.457 42.4703Z" fill="#2E3741"/>
<path d="M258.457 67.3716H246.471L240.391 57.4112L246.471 47.4507H258.457L264.537 57.4112L258.457 67.3716Z" fill="#2E3741"/>
<path d="M258.457 92.4385H246.471L240.391 82.4781L246.471 72.5176H258.457L264.537 82.4781L258.457 92.4385Z" fill="#2E3741"/>
<path d="M256.547 114.186H248.382L244.213 107.546L248.382 100.739H256.547L260.542 107.546L256.547 114.186Z" fill="#2E3741"/>
<path d="M258.457 192.542H246.471L240.391 182.581L246.471 172.455H258.457L264.537 182.581L258.457 192.542Z" fill="#2E3741"/>
<path d="M257.936 216.612H246.992L241.434 207.482L246.992 198.518H257.936L263.321 207.482L257.936 216.612Z" fill="#2E3741"/>
<path d="M258.457 242.51H246.471L240.391 232.549L246.471 222.589H258.457L264.537 232.549L258.457 242.51Z" fill="#2E3741"/>
<path d="M394.299 667.49H382.66L376.927 657.862L382.66 648.233H394.299L400.031 657.862L394.299 667.49Z" fill="#2E3741"/>
<path d="M417.228 680.439H405.069L398.989 670.478L405.069 660.352H417.228L423.308 670.478L417.228 680.439Z" fill="#2E3741"/>
<path d="M439.811 692.889H427.825L421.745 682.929L427.825 672.968H439.811L445.891 682.929L439.811 692.889Z" fill="#2E3741"/>
<path d="M458.224 698.202H454.75L453.013 695.38L454.75 692.558H458.224L459.961 695.38L458.224 698.202Z" fill="#2E3741"/>
<path d="M235.875 29.8536H223.715L217.635 19.8931L223.715 9.93262H235.875L241.781 19.8931L235.875 29.8536Z" fill="#2E3741"/>
<path d="M235.875 54.9209H223.715L217.635 44.9605L223.715 35H235.875L241.781 44.9605L235.875 54.9209Z" fill="#2E3741"/>
<path d="M235.875 79.9883H223.715L217.635 70.0279L223.715 59.9014H235.875L241.781 70.0279L235.875 79.9883Z" fill="#566779"/>
<path d="M235.527 104.557H223.889L218.156 94.9287L223.889 85.3003H235.527L241.434 94.9287L235.527 104.557Z" fill="#2E3741"/>
<path d="M231.358 172.62H228.232L226.668 169.964L228.232 167.474H231.358L232.922 169.964L231.358 172.62Z" fill="#2E3741"/>
<path d="M235.701 204.992H223.715L217.809 195.032L223.715 185.071H235.701L241.781 195.032L235.701 204.992Z" fill="#2E3741"/>
<path d="M235.701 230.06H223.715L217.635 220.099L223.715 210.139H235.701L241.781 220.099L235.701 230.06Z" fill="#566779"/>
<path d="M393.951 692.059H383.007L377.449 682.929L383.007 673.798H393.951L399.336 682.929L393.951 692.059Z" fill="#2E3741"/>
<path d="M417.228 705.506H405.069L398.989 695.379L405.069 685.419H417.228L423.308 695.379L417.228 705.506Z" fill="#566779"/>
<path d="M439.811 717.957H427.825L421.745 707.996L427.825 697.87H439.811L445.891 707.996L439.811 717.957Z" fill="#2E3741"/>
<path d="M213.119 17.4034H200.959L195.053 7.4429L200.959 -2.51758H213.119L219.199 7.4429L213.119 17.4034Z" fill="#2E3741"/>
<path d="M213.119 42.4703H200.959L195.053 32.5098L200.959 22.3833H213.119L219.199 32.5098L213.119 42.4703Z" fill="#2E3741"/>
<path d="M213.119 67.3716H200.959L195.053 57.4112L200.959 47.4507H213.119L219.199 57.4112L213.119 67.3716Z" fill="#2E3741"/>
<path d="M213.119 92.4385H200.959L195.053 82.4781L200.959 72.5176H213.119L219.199 82.4781L213.119 92.4385Z" fill="#2E3741"/>
<path d="M211.555 115.016H202.522L198.006 107.546L202.522 99.9092H211.555L216.072 107.546L211.555 115.016Z" fill="#2E3741"/>
<path d="M208.602 185.071H205.649L204.086 182.581L205.649 180.091H208.602L209.992 182.581L208.602 185.071Z" fill="#2E3741"/>
<path d="M213.119 217.442H201.133L195.053 207.482L201.133 197.688H213.119L219.025 207.482L213.119 217.442Z" fill="#2E3741"/>
<path d="M394.472 717.957H382.486L376.406 707.996L382.486 697.87H394.472L400.552 707.996L394.472 717.957Z" fill="#2E3741"/>
<path d="M417.228 730.407H405.069L398.989 720.447L405.069 710.486H417.228L423.308 720.447L417.228 730.407Z" fill="#2E3741"/>
<path d="M439.811 742.857H427.825L421.745 732.897L427.825 722.937H439.811L445.891 732.897L439.811 742.857Z" fill="#2E3741"/>
<path d="M190.536 29.8536H178.377L172.297 19.8931L178.377 9.93262H190.536L196.443 19.8931L190.536 29.8536Z" fill="#2E3741"/>
<path d="M190.536 54.9209H178.377L172.297 44.9605L178.377 35H190.536L196.443 44.9605L190.536 54.9209Z" fill="#2E3741"/>
<path d="M190.536 79.9883H178.377L172.297 70.0279L178.377 59.9014H190.536L196.443 70.0279L190.536 79.9883Z" fill="#2E3741"/>
<path d="M190.536 105.055H178.377L172.297 94.9287L178.377 84.9683H190.536L196.443 94.9287L190.536 105.055Z" fill="#2E3741"/>
<path d="M190.536 129.957H178.377L172.297 119.996L178.377 110.036H190.536L196.443 119.996L190.536 129.957Z" fill="#2E3741"/>
<path d="M190.536 155.024H178.377L172.297 145.064L178.377 134.937H190.536L196.443 145.064L190.536 155.024Z" fill="#2E3741"/>
<path d="M190.536 180.091H178.377L172.297 169.964L178.377 160.004H190.536L196.443 169.964L190.536 180.091Z" fill="#2E3741"/>
<path d="M190.536 204.992H178.377L172.297 195.032L178.377 185.071H190.536L196.443 195.032L190.536 204.992Z" fill="#2E3741"/>
<path d="M185.673 222.257H183.067L181.851 220.099L183.067 217.94H185.673L187.062 220.099L185.673 222.257Z" fill="#2E3741"/>
<path d="M394.472 742.857H382.486L376.406 732.897L382.486 722.937H394.472L400.552 732.897L394.472 742.857Z" fill="#2E3741"/>
<path d="M417.228 755.475H405.069L398.989 745.514L405.069 735.388H417.228L423.308 745.514L417.228 755.475Z" fill="#2E3741"/>
<path d="M439.811 767.759H427.825L421.918 757.964L427.825 748.17H439.811L445.717 757.964L439.811 767.759Z" fill="#2E3741"/>
<path d="M167.78 17.4034H155.621L149.715 7.4429L155.621 -2.51758H167.78L173.86 7.4429L167.78 17.4034Z" fill="#2E3741"/>
<path d="M167.78 42.4703H155.621L149.715 32.5098L155.621 22.3833H167.78L173.86 32.5098L167.78 42.4703Z" fill="#2E3741"/>
<path d="M167.78 67.3716H155.621L149.715 57.4112L155.621 47.4507H167.78L173.86 57.4112L167.78 67.3716Z" fill="#2E3741"/>
<path d="M167.78 92.4385H155.621L149.715 82.4781L155.621 72.5176H167.78L173.86 82.4781L167.78 92.4385Z" fill="#2E3741"/>
<path d="M167.78 117.506H155.621L149.715 107.545L155.621 97.4189H167.78L173.86 107.545L167.78 117.506Z" fill="#2E3741"/>
<path d="M167.78 142.573H155.621L149.715 132.446L155.621 122.486H167.78L173.86 132.446L167.78 142.573Z" fill="#2E3741"/>
<path d="M167.78 167.474H155.621L149.715 157.514L155.621 147.553H167.78L173.86 157.514L167.78 167.474Z" fill="#2E3741"/>
<path d="M167.78 192.542H155.621L149.715 182.581L155.621 172.455H167.78L173.86 182.581L167.78 192.542Z" fill="#2E3741"/>
<path d="M164.654 212.296H158.921L155.968 207.482L158.921 202.834H164.654L167.433 207.482L164.654 212.296Z" fill="#2E3741"/>
<path d="M393.778 766.597H383.181L377.97 757.964L383.181 749.332H393.778L398.989 757.964L393.778 766.597Z" fill="#2E3741"/>
<path d="M417.228 780.542H405.069L398.989 770.415L405.069 760.455H417.228L423.308 770.415L417.228 780.542Z" fill="#2E3741"/>
<path d="M435.642 785.854H431.994L430.257 783.032L431.994 780.043H435.642L437.379 783.032L435.642 785.854Z" fill="#2E3741"/>
<path d="M145.198 29.8536H133.038L126.958 19.8931L133.038 9.93262H145.198L151.104 19.8931L145.198 29.8536Z" fill="#2E3741"/>
<path d="M145.198 54.9209H133.038L126.958 44.9605L133.038 35H145.198L151.104 44.9605L145.198 54.9209Z" fill="#2E3741"/>
<path d="M145.198 79.9883H133.038L126.958 70.0279L133.038 59.9014H145.198L151.104 70.0279L145.198 79.9883Z" fill="#2E3741"/>
<path d="M145.198 105.055H133.038L126.958 94.9287L133.038 84.9683H145.198L151.104 94.9287L145.198 105.055Z" fill="#2E3741"/>
<path d="M145.198 129.957H133.038L126.958 119.996L133.038 110.036H145.198L151.104 119.996L145.198 129.957Z" fill="#2E3741"/>
<path d="M145.198 155.024H133.038L126.958 145.064L133.038 134.937H145.198L151.104 145.064L145.198 155.024Z" fill="#2E3741"/>
<path d="M145.024 179.925H133.038L127.132 169.964L133.038 160.17H145.024L150.931 169.964L145.024 179.925Z" fill="#2E3741"/>
<path d="M141.55 199.182H136.686L134.081 195.032L136.686 191.047H141.55L143.982 195.032L141.55 199.182Z" fill="#2E3741"/>
<path d="M391.693 788.51H385.092L381.792 783.031L385.092 777.553H391.693L394.993 783.031L391.693 788.51Z" fill="#2E3741"/>
<path d="M417.228 805.442H405.069L398.989 795.482L405.069 785.521H417.228L423.308 795.482L417.228 805.442Z" fill="#2E3741"/>
<path d="M439.463 817.23H428.172L422.613 807.933L428.172 798.637H439.463L445.022 807.933L439.463 817.23Z" fill="#2E3741"/>
<path d="M459.092 824.866H453.881L451.102 820.55L453.881 816.067H459.092L461.872 820.55L459.092 824.866Z" fill="#2E3741"/>
<path d="M122.442 17.4034H110.282L104.376 7.4429L110.282 -2.51758H122.442L128.522 7.4429L122.442 17.4034Z" fill="#2E3741"/>
<path d="M122.442 42.4703H110.282L104.376 32.5098L110.282 22.3833H122.442L128.522 32.5098L122.442 42.4703Z" fill="#2E3741"/>
<path d="M122.442 67.3716H110.282L104.376 57.4112L110.282 47.4507H122.442L128.522 57.4112L122.442 67.3716Z" fill="#2E3741"/>
<path d="M122.442 92.4385H110.282L104.376 82.4781L110.282 72.5176H122.442L128.522 82.4781L122.442 92.4385Z" fill="#2E3741"/>
<path d="M122.442 117.506H110.282L104.376 107.545L110.282 97.4189H122.442L128.522 107.545L122.442 117.506Z" fill="#2E3741"/>
<path d="M122.095 141.909H110.803L105.071 132.446L110.803 123.15H122.095L127.653 132.446L122.095 141.909Z" fill="#2E3741"/>
<path d="M99.8597 29.8536H87.7L81.6201 19.8931L87.7 9.93262H99.8597L105.766 19.8931L99.8597 29.8536Z" fill="#2E3741"/>
<path d="M99.8597 54.9209H87.7L81.6201 44.9605L87.7 35H99.8597L105.766 44.9605L99.8597 54.9209Z" fill="#2E3741"/>
<path d="M99.8597 79.9883H87.7L81.6201 70.0279L87.7 59.9014H99.8597L105.766 70.0279L99.8597 79.9883Z" fill="#2E3741"/>
<path d="M99.6862 104.723H87.8739L81.9678 94.9287L87.8739 85.1343H99.6862L105.592 94.9287L99.6862 104.723Z" fill="#2E3741"/>
<path d="M98.9913 128.629H88.5687L83.3574 119.996L88.5687 111.364H98.9913L104.029 119.996L98.9913 128.629Z" fill="#2E3741"/>
<path d="M98.1228 152.367H89.2635L84.7471 145.063L89.2635 137.593H98.1228L102.639 145.063L98.1228 152.367Z" fill="#2E3741"/>
<path d="M77.1037 17.4034H64.944L59.0378 7.4429L64.944 -2.51758H77.1037L83.1836 7.4429L77.1037 17.4034Z" fill="#2E3741"/>
<path d="M77.1037 42.4703H64.944L59.0378 32.5098L64.944 22.3833H77.1037L83.1836 32.5098L77.1037 42.4703Z" fill="#2E3741"/>
<path d="M77.1037 67.3716H64.944L59.0378 57.4112L64.944 47.4507H77.1037L83.1836 57.4112L77.1037 67.3716Z" fill="#2E3741"/>
<path d="M77.1037 92.4385H64.944L59.0378 82.4781L64.944 72.5176H77.1037L83.1836 82.4781L77.1037 92.4385Z" fill="#2E3741"/>
<path d="M76.7562 116.842H65.4651L59.7327 107.545L65.4651 98.083H76.7562L82.315 107.545L76.7562 116.842Z" fill="#2E3741"/>
<path d="M54.3476 29.8536H42.3616L36.2817 19.8931L42.3616 9.93262H54.3476L60.4274 19.8931L54.3476 29.8536Z" fill="#2E3741"/>
<path d="M54.3476 54.9209H42.3616L36.2817 44.9605L42.3616 35H54.3476L60.4274 44.9605L54.3476 54.9209Z" fill="#2E3741"/>
<path d="M50.1786 73.0158H46.5307L44.6199 70.0277L46.5307 66.8735H50.1786L52.0894 70.0277L50.1786 73.0158Z" fill="#2E3741"/>
<path d="M30.0283 14.7469H21.3428L17 7.44252L21.3428 0.138184H30.0283L34.5447 7.44252L30.0283 14.7469Z" fill="#2E3741"/>
<path d="M27.9438 35.9957H23.601L21.3428 32.5096L23.601 28.8574H27.9438L30.0283 32.5096L27.9438 35.9957Z" fill="#2E3741"/>
</g>
<defs>
<filter id="filter0_dddd_536_1854" x="-115.806" y="-27.2644" width="898.613" height="1182.49" filterUnits="userSpaceOnUse" color-interpolation-filters="sRGB">
<feFlood flood-opacity="0" result="BackgroundImageFix"/>
<feColorMatrix in="SourceAlpha" type="matrix" values="0 0 0 0 0 0 0 0 0 0 0 0 0 0 0 0 0 0 127 0" result="hardAlpha"/>
<feOffset dy="8.94662"/>
<feGaussianBlur stdDeviation="0.846674"/>
<feColorMatrix type="matrix" values="0 0 0 0 0.270588 0 0 0 0 0.392157 0 0 0 0 0.388235 0 0 0 0.0414311 0"/>
<feBlend mode="normal" in2="BackgroundImageFix" result="effect1_dropShadow_536_1854"/>
<feColorMatrix in="SourceAlpha" type="matrix" values="0 0 0 0 0 0 0 0 0 0 0 0 0 0 0 0 0 0 127 0" result="hardAlpha"/>
<feOffset dy="24.7363"/>
<feGaussianBlur stdDeviation="9.32983"/>
<feColorMatrix type="matrix" values="0 0 0 0 0.270588 0 0 0 0 0.392157 0 0 0 0 0.388235 0 0 0 0.0458509 0"/>
<feBlend mode="normal" in2="effect1_dropShadow_536_1854" result="effect2_dropShadow_536_1854"/>
<feColorMatrix in="SourceAlpha" type="matrix" values="0 0 0 0 0 0 0 0 0 0 0 0 0 0 0 0 0 0 127 0" result="hardAlpha"/>
<feOffset dy="59.5554"/>
<feGaussianBlur stdDeviation="39.9099"/>
<feColorMatrix type="matrix" values="0 0 0 0 0.270588 0 0 0 0 0.392157 0 0 0 0 0.388235 0 0 0 0.0469633 0"/>
<feBlend mode="normal" in2="effect2_dropShadow_536_1854" result="effect3_dropShadow_536_1854"/>
<feColorMatrix in="SourceAlpha" type="matrix" values="0 0 0 0 0 0 0 0 0 0 0 0 0 0 0 0 0 0 127 0" result="hardAlpha"/>
<feOffset dy="197.549"/>
<feGaussianBlur stdDeviation="66.4032"/>
<feColorMatrix type="matrix" values="0 0 0 0 0.272535 0 0 0 0 0.391667 0 0 0 0 0.386651 0 0 0 0.07 0"/>
<feBlend mode="normal" in2="effect3_dropShadow_536_1854" result="effect4_dropShadow_536_1854"/>
<feBlend mode="normal" in="SourceGraphic" in2="effect4_dropShadow_536_1854" result="shape"/>
</filter>
</defs>
</svg>
