<svg width="661" height="826" viewBox="0 0 661 826" fill="none" xmlns="http://www.w3.org/2000/svg">
<g filter="url(#filter0_dddd_536_1854)">
<path d="M630.099 356.822H625.582L623.498 353.17L625.582 349.518H630.099L632.357 353.17L630.099 356.822Z" fill="#2E3741"/>
<path d="M588.582 363.13H576.422L570.342 353.17L576.422 343.209H588.582L594.662 353.17L588.582 363.13Z" fill="#2E3741"/>
<path d="M611.164 375.747H599.178L593.098 365.621L599.178 355.66H611.164L617.244 365.621L611.164 375.747Z" fill="#2E3741"/>
<path d="M633.92 388.198H621.76L615.854 378.237L621.76 368.111H633.92L640 378.237L633.92 388.198Z" fill="#2E3741"/>
<path d="M565.826 375.747H553.84L547.76 365.621L553.84 355.66H565.826L571.906 365.621L565.826 375.747Z" fill="#2E3741"/>
<path d="M588.582 388.198H576.422L570.342 378.237L576.422 368.111H588.582L594.662 378.237L588.582 388.198Z" fill="#2E3741"/>
<path d="M611.164 400.648H599.178L593.098 390.688L599.178 380.728H611.164L617.244 390.688L611.164 400.648Z" fill="#2E3741"/>
<path d="M633.399 412.601H622.282L616.549 403.138L622.282 393.842H633.399L639.131 403.138L633.399 412.601Z" fill="#2E3741"/>
<path d="M564.783 348.854H554.882L550.018 340.719L554.882 332.585H564.783L569.647 340.719L564.783 348.854Z" fill="#2E3741"/>
<path d="M543.243 388.198H531.084L525.004 378.237L531.084 368.111H543.243L549.323 378.237L543.243 388.198Z" fill="#2E3741"/>
<path d="M565.826 400.648H553.84L547.76 390.688L553.84 380.728H565.826L571.906 390.688L565.826 400.648Z" fill="#2E3741"/>
<path d="M588.582 413.265H576.422L570.342 403.138L576.422 393.178H588.582L594.662 403.138L588.582 413.265Z" fill="#2E3741"/>
<path d="M611.164 425.715H599.178L593.098 415.755L599.178 405.794H611.164L617.244 415.755L611.164 425.715Z" fill="#2E3741"/>
<path d="M540.811 334.245H533.516L529.868 328.103L533.516 322.126H540.811L544.459 328.103L540.811 334.245Z" fill="#2E3741"/>
<path d="M543.243 363.13H531.084L525.004 353.17L531.084 343.209H543.243L549.323 353.17L543.243 363.13Z" fill="#2E3741"/>
<path d="M520.487 400.648H508.501L502.422 390.688L508.501 380.728H520.487L526.567 390.688L520.487 400.648Z" fill="#2E3741"/>
<path d="M543.243 413.265H531.084L525.004 403.138L531.084 393.178H543.243L549.323 403.138L543.243 413.265Z" fill="#2E3741"/>
<path d="M565.826 425.715H553.84L547.76 415.755L553.84 405.794H565.826L571.906 415.755L565.826 425.715Z" fill="#2E3741"/>
<path d="M588.582 438.166H576.422L570.342 428.206L576.422 418.245H588.582L594.662 428.206L588.582 438.166Z" fill="#2E3741"/>
<path d="M610.122 448.956H600.22L595.183 440.822L600.22 432.521H610.122L615.159 440.822L610.122 448.956Z" fill="#2E3741"/>
<path d="M518.403 297.059H510.586L506.591 290.585L510.586 284.111H518.403L522.398 290.585L518.403 297.059Z" fill="#2E3741"/>
<path d="M520.314 325.281H508.675L502.769 315.652L508.675 306.024H520.314L526.22 315.652L520.314 325.281Z" fill="#2E3741"/>
<path d="M520.487 350.68H508.501L502.422 340.719L508.501 330.593H520.487L526.567 340.719L520.487 350.68Z" fill="#2E3741"/>
<path d="M520.487 375.747H508.501L502.422 365.621L508.501 355.66H520.487L526.567 365.621L520.487 375.747Z" fill="#2E3741"/>
<path d="M497.905 413.265H485.745L479.666 403.138L485.745 393.178H497.905L503.985 403.138L497.905 413.265Z" fill="#2E3741"/>
<path d="M520.487 425.715H508.501L502.422 415.755L508.501 405.794H520.487L526.567 415.755L520.487 425.715Z" fill="#2E3741"/>
<path d="M543.243 438.166H531.084L525.004 428.206L531.084 418.245H543.243L549.323 428.206L543.243 438.166Z" fill="#2E3741"/>
<path d="M565.826 450.783H553.84L547.76 440.822L553.84 430.696H565.826L571.906 440.822L565.826 450.783Z" fill="#2E3741"/>
<path d="M588.582 463.233H576.422L570.342 453.273L576.422 443.312H588.582L594.662 453.273L588.582 463.233Z" fill="#2E3741"/>
<path d="M606.648 468.048H603.868L602.479 465.724L603.868 463.565H606.648L607.864 465.724L606.648 468.048Z" fill="#2E3741"/>
<path d="M495.126 283.447H488.525L485.398 278.135L488.525 272.822H495.126L498.252 278.135L495.126 283.447Z" fill="#2E3741"/>
<path d="M497.905 313.162H485.745L479.666 303.202L485.745 293.075H497.905L503.985 303.202L497.905 313.162Z" fill="#2E3741"/>
<path d="M497.905 338.229H485.745L479.666 328.103L485.745 318.142H497.905L503.985 328.103L497.905 338.229Z" fill="#2E3741"/>
<path d="M497.905 363.13H485.745L479.666 353.17L485.745 343.209H497.905L503.985 353.17L497.905 363.13Z" fill="#2E3741"/>
<path d="M497.905 388.198H485.745L479.666 378.237L485.745 368.111H497.905L503.985 378.237L497.905 388.198Z" fill="#2E3741"/>
<path d="M475.149 425.715H463.163L457.083 415.755L463.163 405.794H475.149L481.229 415.755L475.149 425.715Z" fill="#2E3741"/>
<path d="M497.905 438.166H485.745L479.666 428.206L485.745 418.245H497.905L503.985 428.206L497.905 438.166Z" fill="#2E3741"/>
<path d="M520.487 450.783H508.501L502.422 440.822L508.501 430.696H520.487L526.567 440.822L520.487 450.783Z" fill="#2E3741"/>
<path d="M543.243 463.233H531.084L525.004 453.273L531.084 443.312H543.243L549.323 453.273L543.243 463.233Z" fill="#2E3741"/>
<path d="M565.826 475.85H553.84L547.76 465.723L553.84 455.763H565.826L571.906 465.723L565.826 475.85Z" fill="#2E3741"/>
<path d="M588.582 488.3H576.422L570.342 478.34L576.422 468.213H588.582L594.662 478.34L588.582 488.3Z" fill="#2E3741"/>
<path d="M471.327 269.17H466.985L464.9 265.684L466.985 262.032H471.327L473.412 265.684L471.327 269.17Z" fill="#2E3741"/>
<path d="M475.149 300.711H463.163L457.083 290.585L463.163 280.625H475.149L481.229 290.585L475.149 300.711Z" fill="#2E3741"/>
<path d="M475.149 325.612H463.163L457.083 315.652L463.163 305.691H475.149L481.229 315.652L475.149 325.612Z" fill="#2E3741"/>
<path d="M475.149 350.68H463.163L457.083 340.719L463.163 330.593H475.149L481.229 340.719L475.149 350.68Z" fill="#2E3741"/>
<path d="M475.149 375.747H463.163L457.083 365.621L463.163 355.66H475.149L481.229 365.621L475.149 375.747Z" fill="#2E3741"/>
<path d="M475.149 400.648H463.163L457.083 390.688L463.163 380.728H475.149L481.229 390.688L475.149 400.648Z" fill="#2E3741"/>
<path d="M452.567 438.166H440.407L434.327 428.206L440.407 418.245H452.567L458.647 428.206L452.567 438.166Z" fill="#2E3741"/>
<path d="M475.149 450.783H463.163L457.083 440.822L463.163 430.696H475.149L481.229 440.822L475.149 450.783Z" fill="#2E3741"/>
<path d="M497.905 463.233H485.745L479.666 453.273L485.745 443.312H497.905L503.985 453.273L497.905 463.233Z" fill="#2E3741"/>
<path d="M520.487 475.85H508.501L502.422 465.723L508.501 455.763H520.487L526.567 465.723L520.487 475.85Z" fill="#2E3741"/>
<path d="M543.243 488.3H531.084L525.004 478.34L531.084 468.213H543.243L549.323 478.34L543.243 488.3Z" fill="#2E3741"/>
<path d="M565.826 500.751H553.84L547.76 490.791L553.84 480.83H565.826L571.906 490.791L565.826 500.751Z" fill="#2E3741"/>
<path d="M588.582 513.368H576.422L570.342 503.241L576.422 493.281H588.582L594.662 503.241L588.582 513.368Z" fill="#2E3741"/>
<path d="M452.219 262.53H440.755L435.022 253.067L440.755 243.605H452.219L457.952 253.067L452.219 262.53Z" fill="#2E3741"/>
<path d="M452.567 288.095H440.407L434.327 278.134L440.407 268.174H452.567L458.647 278.134L452.567 288.095Z" fill="#2E3741"/>
<path d="M452.567 313.162H440.407L434.327 303.202L440.407 293.075H452.567L458.647 303.202L452.567 313.162Z" fill="#2E3741"/>
<path d="M452.567 338.229H440.407L434.327 328.103L440.407 318.142H452.567L458.647 328.103L452.567 338.229Z" fill="#2E3741"/>
<path d="M452.567 363.13H440.407L434.327 353.17L440.407 343.209H452.567L458.647 353.17L452.567 363.13Z" fill="#2E3741"/>
<path d="M452.567 388.198H440.407L434.327 378.237L440.407 368.111H452.567L458.647 378.237L452.567 388.198Z" fill="#2E3741"/>
<path d="M452.567 413.265H440.407L434.327 403.138L440.407 393.178H452.567L458.647 403.138L452.567 413.265Z" fill="#2E3741"/>
<path d="M429.811 450.783H417.825L411.745 440.822L417.825 430.696H429.811L435.891 440.822L429.811 450.783Z" fill="#2E3741"/>
<path d="M452.567 463.233H440.407L434.327 453.273L440.407 443.312H452.567L458.647 453.273L452.567 463.233Z" fill="#2E3741"/>
<path d="M475.149 475.85H463.163L457.083 465.723L463.163 455.763H475.149L481.229 465.723L475.149 475.85Z" fill="#2E3741"/>
<path d="M497.905 488.3H485.745L479.666 478.34L485.745 468.213H497.905L503.985 478.34L497.905 488.3Z" fill="#2E3741"/>
<path d="M520.487 500.751H508.501L502.422 490.791L508.501 480.83H520.487L526.567 490.791L520.487 500.751Z" fill="#2E3741"/>
<path d="M543.243 513.368H531.084L525.004 503.241L531.084 493.281H543.243L549.323 503.241L543.243 513.368Z" fill="#2E3741"/>
<path d="M565.826 525.818H553.84L547.76 515.858L553.84 505.897H565.826L571.906 515.858L565.826 525.818Z" fill="#2E3741"/>
<path d="M428.768 248.917H418.867L413.829 240.617L418.867 232.316H428.768L433.806 240.617L428.768 248.917Z" fill="#2E3741"/>
<path d="M429.811 275.645H417.825L411.745 265.684L417.825 255.558H429.811L435.891 265.684L429.811 275.645Z" fill="#2E3741"/>
<path d="M429.811 300.711H417.825L411.745 290.585L417.825 280.625H429.811L435.891 290.585L429.811 300.711Z" fill="#2E3741"/>
<path d="M429.811 325.612H417.825L411.745 315.652L417.825 305.691H429.811L435.891 315.652L429.811 325.612Z" fill="#2E3741"/>
<path d="M429.811 350.68H417.825L411.745 340.719L417.825 330.593H429.811L435.891 340.719L429.811 350.68Z" fill="#2E3741"/>
<path d="M429.811 375.747H417.825L411.745 365.621L417.825 355.66H429.811L435.891 365.621L429.811 375.747Z" fill="#2E3741"/>
<path d="M429.811 400.648H417.825L411.745 390.688L417.825 380.728H429.811L435.891 390.688L429.811 400.648Z" fill="#2E3741"/>
<path d="M429.811 425.715H417.825L411.745 415.755L417.825 405.794H429.811L435.891 415.755L429.811 425.715Z" fill="#2E3741"/>
<path d="M407.228 463.233H395.069L388.989 453.273L395.069 443.312H407.228L413.308 453.273L407.228 463.233Z" fill="#2E3741"/>
<path d="M429.811 475.85H417.825L411.745 465.723L417.825 455.763H429.811L435.891 465.723L429.811 475.85Z" fill="#2E3741"/>
<path d="M452.567 488.3H440.407L434.327 478.34L440.407 468.213H452.567L458.647 478.34L452.567 488.3Z" fill="#2E3741"/>
<path d="M475.149 500.751H463.163L457.083 490.791L463.163 480.83H475.149L481.229 490.791L475.149 500.751Z" fill="#2E3741"/>
<path d="M497.905 513.368H485.745L479.666 503.241L485.745 493.281H497.905L503.985 503.241L497.905 513.368Z" fill="#2E3741"/>
<path d="M520.487 525.818H508.501L502.422 515.858L508.501 505.731H520.487L526.567 515.858L520.487 525.818Z" fill="#2E3741"/>
<path d="M543.243 538.269H531.084L525.004 528.309L531.084 518.348H543.243L549.323 528.309L543.243 538.269Z" fill="#2E3741"/>
<path d="M404.623 183.842H397.674L394.2 178.032L397.674 172.222H404.623L408.097 178.032L404.623 183.842Z" fill="#2E3741"/>
<path d="M402.885 230.823H399.411L397.848 228.166L399.411 225.344H402.885L404.449 228.166L402.885 230.823Z" fill="#2E3741"/>
<path d="M407.228 263.193H395.069L388.989 253.067L395.069 243.106H407.228L413.308 253.067L407.228 263.193Z" fill="#2E3741"/>
<path d="M407.228 288.095H395.069L388.989 278.134L395.069 268.174H407.228L413.308 278.134L407.228 288.095Z" fill="#2E3741"/>
<path d="M407.228 313.162H395.069L388.989 303.202L395.069 293.075H407.228L413.308 303.202L407.228 313.162Z" fill="#2E3741"/>
<path d="M407.228 338.229H395.069L388.989 328.103L395.069 318.142H407.228L413.308 328.103L407.228 338.229Z" fill="#2E3741"/>
<path d="M407.228 363.13H395.069L388.989 353.17L395.069 343.209H407.228L413.308 353.17L407.228 363.13Z" fill="#2E3741"/>
<path d="M407.228 388.198H395.069L388.989 378.237L395.069 368.111H407.228L413.308 378.237L407.228 388.198Z" fill="#2E3741"/>
<path d="M407.228 413.265H395.069L388.989 403.138L395.069 393.178H407.228L413.308 403.138L407.228 413.265Z" fill="#2E3741"/>
<path d="M407.228 438.166H395.069L388.989 428.206L395.069 418.245H407.228L413.308 428.206L407.228 438.166Z" fill="#2E3741"/>
<path d="M384.472 475.85H372.486L366.406 465.723L372.486 455.763H384.472L390.552 465.723L384.472 475.85Z" fill="#2E3741"/>
<path d="M407.228 488.3H395.069L388.989 478.34L395.069 468.213H407.228L413.308 478.34L407.228 488.3Z" fill="#2E3741"/>
<path d="M429.811 500.751H417.825L411.745 490.791L417.825 480.83H429.811L435.891 490.791L429.811 500.751Z" fill="#2E3741"/>
<path d="M452.567 513.368H440.407L434.327 503.241L440.407 493.281H452.567L458.647 503.241L452.567 513.368Z" fill="#2E3741"/>
<path d="M475.149 525.818H463.163L457.083 515.858L463.163 505.731H475.149L481.229 515.858L475.149 525.818Z" fill="#2E3741"/>
<path d="M497.905 538.269H485.745L479.666 528.309L485.745 518.348H497.905L503.985 528.309L497.905 538.269Z" fill="#2E3741"/>
<path d="M520.487 550.885H508.501L502.422 540.759L508.501 530.798H520.487L526.567 540.759L520.487 550.885Z" fill="#2E3741"/>
<path d="M543.243 563.336H531.084L525.004 553.376L531.084 543.249H543.243L549.323 553.376L543.243 563.336Z" fill="#2E3741"/>
<path d="M380.303 143.502H376.655L374.918 140.514L376.655 137.526H380.303L382.04 140.514L380.303 143.502Z" fill="#2E3741"/>
<path d="M383.777 174.38H373.181L367.796 165.581L373.181 156.617H383.777L389.162 165.581L383.777 174.38Z" fill="#2E3741"/>
<path d="M384.472 250.577H372.486L366.406 240.617L372.486 230.656H384.472L390.552 240.617L384.472 250.577Z" fill="#2E3741"/>
<path d="M384.472 275.645H372.486L366.406 265.684L372.486 255.558H384.472L390.552 265.684L384.472 275.645Z" fill="#2E3741"/>
<path d="M384.472 300.711H372.486L366.406 290.585L372.486 280.625H384.472L390.552 290.585L384.472 300.711Z" fill="#2E3741"/>
<path d="M384.472 325.612H372.486L366.406 315.652L372.486 305.691H384.472L390.552 315.652L384.472 325.612Z" fill="#2E3741"/>
<path d="M384.472 350.68H372.486L366.406 340.719L372.486 330.593H384.472L390.552 340.719L384.472 350.68Z" fill="#2E3741"/>
<path d="M384.472 375.747H372.486L366.406 365.621L372.486 355.66H384.472L390.552 365.621L384.472 375.747Z" fill="#2E3741"/>
<path d="M384.472 400.648H372.486L366.406 390.688L372.486 380.728H384.472L390.552 390.688L384.472 400.648Z" fill="#2E3741"/>
<path d="M384.472 425.715H372.486L366.406 415.755L372.486 405.794H384.472L390.552 415.755L384.472 425.715Z" fill="#2E3741"/>
<path d="M384.472 450.783H372.486L366.406 440.822L372.486 430.696H384.472L390.552 440.822L384.472 450.783Z" fill="#2E3741"/>
<path d="M383.778 499.423H373.181L367.97 490.791L373.181 482.158H383.778L388.989 490.791L383.778 499.423Z" fill="#2E3741"/>
<path d="M407.228 513.368H395.069L388.989 503.241L395.069 493.281H407.228L413.308 503.241L407.228 513.368Z" fill="#2E3741"/>
<path d="M429.811 525.818H417.825L411.745 515.858L417.825 505.731H429.811L435.891 515.858L429.811 525.818Z" fill="#2E3741"/>
<path d="M452.567 538.269H440.407L434.327 528.309L440.407 518.348H452.567L458.647 528.309L452.567 538.269Z" fill="#2E3741"/>
<path d="M475.149 550.885H463.163L457.083 540.759L463.163 530.798H475.149L481.229 540.759L475.149 550.885Z" fill="#2E3741"/>
<path d="M497.905 563.336H485.745L479.666 553.376L485.745 543.249H497.905L503.985 553.376L497.905 563.336Z" fill="#2E3741"/>
<path d="M520.487 575.787H508.501L502.422 565.826L508.501 555.866H520.487L526.567 565.826L520.487 575.787Z" fill="#2E3741"/>
<path d="M539.769 582.593H534.558L531.952 578.277L534.558 573.96H539.769L542.375 578.277L539.769 582.593Z" fill="#2E3741"/>
<path d="M361.716 12.6876H349.904L343.998 2.89309L349.904 -6.73535H361.716L367.449 2.89309L361.716 12.6876Z" fill="#2E3741"/>
<path d="M356.852 29.6205H354.768L353.726 27.9604L354.768 26.3003H356.852L357.895 27.9604L356.852 29.6205Z" fill="#2E3741"/>
<path d="M358.068 131.715H353.552L351.294 128.063L353.552 124.245H358.068L360.326 128.063L358.068 131.715Z" fill="#2E3741"/>
<path d="M357.374 155.787H354.073L352.51 152.965L354.073 150.309H357.374L359.111 152.965L357.374 155.787Z" fill="#2E3741"/>
<path d="M359.111 183.676H352.51L349.035 178.031L352.51 172.553H359.111L362.585 178.031L359.111 183.676Z" fill="#2E3741"/>
<path d="M361.543 237.629H350.078L344.345 228.166L350.078 218.538H361.543L367.275 228.166L361.543 237.629Z" fill="#2E3741"/>
<path d="M361.89 263.193H349.73L343.65 253.067L349.73 243.106H361.89L367.97 253.067L361.89 263.193Z" fill="#2E3741"/>
<path d="M361.89 288.095H349.73L343.65 278.134L349.73 268.174H361.89L367.97 278.134L361.89 288.095Z" fill="#2E3741"/>
<path d="M361.89 313.162H349.73L343.65 303.202L349.73 293.075H361.89L367.97 303.202L361.89 313.162Z" fill="#2E3741"/>
<path d="M361.89 338.229H349.73L343.65 328.103L349.73 318.142H361.89L367.97 328.103L361.89 338.229Z" fill="#2E3741"/>
<path d="M361.89 363.13H349.73L343.65 353.17L349.73 343.209H361.89L367.97 353.17L361.89 363.13Z" fill="#2E3741"/>
<path d="M361.89 388.198H349.73L343.65 378.237L349.73 368.111H361.89L367.97 378.237L361.89 388.198Z" fill="#2E3741"/>
<path d="M361.89 413.265H349.73L343.65 403.138L349.73 393.178H361.89L367.97 403.138L361.89 413.265Z" fill="#2E3741"/>
<path d="M361.89 438.166H349.73L343.65 428.206L349.73 418.245H361.89L367.97 428.206L361.89 438.166Z" fill="#2E3741"/>
<path d="M361.89 463.233H349.73L343.65 453.273L349.73 443.312H361.89L367.97 453.273L361.89 463.233Z" fill="#2E3741"/>
<path d="M383.43 523.992H373.528L368.665 515.857L373.528 507.723H383.43L388.294 515.857L383.43 523.992Z" fill="#2E3741"/>
<path d="M407.228 538.269H395.069L388.989 528.309L395.069 518.348H407.228L413.308 528.309L407.228 538.269Z" fill="#2E3741"/>
<path d="M429.811 550.885H417.825L411.745 540.759L417.825 530.798H429.811L435.891 540.759L429.811 550.885Z" fill="#2E3741"/>
<path d="M452.567 563.336H440.407L434.327 553.376L440.407 543.249H452.567L458.647 553.376L452.567 563.336Z" fill="#2E3741"/>
<path d="M475.149 575.787H463.163L457.083 565.826L463.163 555.866H475.149L481.229 565.826L475.149 575.787Z" fill="#2E3741"/>
<path d="M497.905 588.403H485.745L479.666 578.277L485.745 568.316H497.905L503.985 578.277L497.905 588.403Z" fill="#2E3741"/>
<path d="M520.488 600.688H508.502L502.595 590.893L508.502 580.933H520.488L526.394 590.893L520.488 600.688Z" fill="#2E3741"/>
<path d="M339.134 0.403372H327.148L321.068 -9.5571L327.148 -19.5176H339.134L345.214 -9.5571L339.134 0.403372Z" fill="#2E3741"/>
<path d="M339.134 25.4703H327.148L321.068 15.5098L327.148 5.3833H339.134L345.214 15.5098L339.134 25.4703Z" fill="#2E3741"/>
<path d="M338.092 48.5451H328.19L323.326 40.4107L328.19 32.2764H338.092L342.955 40.4107L338.092 48.5451Z" fill="#2E3741"/>
<path d="M335.66 144.664H330.622L328.19 140.513L330.622 136.363H335.66L338.092 140.513L335.66 144.664Z" fill="#2E3741"/>
<path d="M335.312 169.067H330.97L328.885 165.581L330.97 161.929H335.312L337.397 165.581L335.312 169.067Z" fill="#2E3741"/>
<path d="M337.918 248.585H328.364L323.5 240.617L328.364 232.648H337.918L342.782 240.617L337.918 248.585Z" fill="#2E3741"/>
<path d="M339.134 275.645H327.148L321.068 265.684L327.148 255.558H339.134L345.214 265.684L339.134 275.645Z" fill="#2E3741"/>
<path d="M339.134 300.711H327.148L321.068 290.585L327.148 280.625H339.134L345.214 290.585L339.134 300.711Z" fill="#2E3741"/>
<path d="M339.134 325.612H327.148L321.068 315.652L327.148 305.691H339.134L345.214 315.652L339.134 325.612Z" fill="#2E3741"/>
<path d="M339.134 350.68H327.148L321.068 340.719L327.148 330.593H339.134L345.214 340.719L339.134 350.68Z" fill="#2E3741"/>
<path d="M339.134 375.747H327.148L321.068 365.621L327.148 355.66H339.134L345.214 365.621L339.134 375.747Z" fill="#2E3741"/>
<path d="M339.134 400.648H327.148L321.068 390.688L327.148 380.728H339.134L345.214 390.688L339.134 400.648Z" fill="#2E3741"/>
<path d="M339.134 425.549H327.148L321.242 415.755L327.148 405.794H339.134L345.04 415.755L339.134 425.549Z" fill="#2E3741"/>
<path d="M336.702 446.632H329.58L325.932 440.822L329.58 434.846H336.702L340.176 440.822L336.702 446.632Z" fill="#2E3741"/>
<path d="M382.909 548.23H373.876L369.533 540.759L373.876 533.289H382.909L387.425 540.759L382.909 548.23Z" fill="#2E3741"/>
<path d="M407.228 563.336H395.069L388.989 553.376L395.069 543.249H407.228L413.308 553.376L407.228 563.336Z" fill="#2E3741"/>
<path d="M429.811 575.787H417.825L411.745 565.826L417.825 555.866H429.811L435.891 565.826L429.811 575.787Z" fill="#2E3741"/>
<path d="M452.567 588.403H440.407L434.327 578.277L440.407 568.316H452.567L458.647 578.277L452.567 588.403Z" fill="#2E3741"/>
<path d="M475.149 600.854H463.163L457.083 590.893L463.163 580.933H475.149L481.229 590.893L475.149 600.854Z" fill="#2E3741"/>
<path d="M497.905 613.305H485.745L479.839 603.344L485.745 593.384H497.905L503.811 603.344L497.905 613.305Z" fill="#2E3741"/>
<path d="M316.552 12.8536H304.392L298.312 2.89309L304.392 -7.06738H316.552L322.458 2.89309L316.552 12.8536Z" fill="#2E3741"/>
<path d="M316.552 37.9209H304.392L298.312 27.9605L304.392 18H316.552L322.458 27.9605L316.552 37.9209Z" fill="#2E3741"/>
<path d="M316.378 62.6563H304.566L298.659 53.0279L304.566 43.2334H316.378L322.284 53.0279L316.378 62.6563Z" fill="#2E3741"/>
<path d="M312.383 81.2487H308.561L306.477 77.9286L308.561 74.7744H312.383L314.294 77.9286L312.383 81.2487Z" fill="#2E3741"/>
<path d="M315.509 111.463H305.434L300.223 102.996L305.434 94.5298H315.509L320.547 102.996L315.509 111.463Z" fill="#2E3741"/>
<path d="M312.035 155.621H308.908L307.171 152.965L308.908 150.309H312.035L313.599 152.965L312.035 155.621Z" fill="#2E3741"/>
<path d="M316.204 262.696H304.739L299.007 253.067L304.739 243.605H316.204L321.937 253.067L316.204 262.696Z" fill="#2E3741"/>
<path d="M312.209 280.957H308.735L306.998 278.135L308.735 275.312H312.209L313.946 278.135L312.209 280.957Z" fill="#2E3741"/>
<path d="M314.12 309.178H306.824L303.176 303.202L306.824 297.06H314.12L317.767 303.202L314.12 309.178Z" fill="#2E3741"/>
<path d="M316.552 338.229H304.392L298.312 328.103L304.392 318.142H316.552L322.458 328.103L316.552 338.229Z" fill="#2E3741"/>
<path d="M316.378 363.13H304.392L298.486 353.17L304.392 343.209H316.378L322.458 353.17L316.378 363.13Z" fill="#2E3741"/>
<path d="M312.904 382.055H308.04L305.781 378.237L308.04 374.253H312.904L315.162 378.237L312.904 382.055Z" fill="#2E3741"/>
<path d="M315.683 411.937H305.087L299.875 403.138L305.087 394.506H315.683L321.068 403.138L315.683 411.937Z" fill="#2E3741"/>
<path d="M381.867 571.47H375.092L371.618 565.826L375.092 560.182H381.867L385.341 565.826L381.867 571.47Z" fill="#2E3741"/>
<path d="M407.228 588.403H395.069L388.989 578.277L395.069 568.316H407.228L413.308 578.277L407.228 588.403Z" fill="#2E3741"/>
<path d="M429.811 600.854H417.825L411.745 590.893L417.825 580.933H429.811L435.891 590.893L429.811 600.854Z" fill="#2E3741"/>
<path d="M452.567 613.305H440.407L434.327 603.344L440.407 593.384H452.567L458.647 603.344L452.567 613.305Z" fill="#2E3741"/>
<path d="M475.149 625.921H463.163L457.083 615.794L463.163 605.834H475.149L481.229 615.794L475.149 625.921Z" fill="#2E3741"/>
<path d="M494.952 633.557H488.698L485.572 628.411L488.698 623.265H494.952L498.079 628.411L494.952 633.557Z" fill="#2E3741"/>
<path d="M293.795 0.403372H281.809L275.729 -9.5571L281.809 -19.5176H293.795L299.875 -9.5571L293.795 0.403372Z" fill="#2E3741"/>
<path d="M293.795 25.4703H281.809L275.729 15.5098L281.809 5.3833H293.795L299.875 15.5098L293.795 25.4703Z" fill="#2E3741"/>
<path d="M293.795 50.3716H281.809L275.729 40.4112L281.809 30.4507H293.795L299.875 40.4112L293.795 50.3716Z" fill="#2E3741"/>
<path d="M293.795 75.4385H281.809L275.729 65.4781L281.809 55.5176H293.795L299.875 65.4781L293.795 75.4385Z" fill="#2E3741"/>
<path d="M289.974 94.1979H285.457L283.199 90.5458L285.457 86.7275H289.974L292.406 90.5458L289.974 94.1979Z" fill="#2E3741"/>
<path d="M293.101 149.313H282.504L277.293 140.514L282.504 131.882H293.101L298.312 140.514L293.101 149.313Z" fill="#2E3741"/>
<path d="M289.105 217.873H286.326L284.936 215.549L286.326 213.225H289.105L290.495 215.549L289.105 217.873Z" fill="#2E3741"/>
<path d="M289.627 243.605H285.979L284.068 240.617L285.979 237.462H289.627L291.537 240.617L289.627 243.605Z" fill="#2E3741"/>
<path d="M290.322 269.668H285.284L282.852 265.684L285.284 261.534H290.322L292.754 265.684L290.322 269.668Z" fill="#2E3741"/>
<path d="M383.777 599.692H373.007L367.622 590.893L373.007 581.929H383.777L389.162 590.893L383.777 599.692Z" fill="#2E3741"/>
<path d="M407.228 613.305H395.069L388.989 603.344L395.069 593.384H407.228L413.308 603.344L407.228 613.305Z" fill="#2E3741"/>
<path d="M429.811 625.921H417.825L411.745 615.794L417.825 605.834H429.811L435.891 615.794L429.811 625.921Z" fill="#2E3741"/>
<path d="M452.567 638.371H440.407L434.327 628.411L440.407 618.45H452.567L458.647 628.411L452.567 638.371Z" fill="#2E3741"/>
<path d="M475.149 650.822H463.163L457.083 640.862L463.163 630.901H475.149L481.229 640.862L475.149 650.822Z" fill="#2E3741"/>
<path d="M271.213 12.8536H259.053L252.974 2.89309L259.053 -7.06738H271.213L277.119 2.89309L271.213 12.8536Z" fill="#2E3741"/>
<path d="M271.213 37.9209H259.053L252.974 27.9605L259.053 18H271.213L277.119 27.9605L271.213 37.9209Z" fill="#2E3741"/>
<path d="M271.213 62.9883H259.053L252.974 53.0279L259.053 42.9014H271.213L277.119 53.0279L271.213 62.9883Z" fill="#2E3741"/>
<path d="M270.866 87.5572H259.227L253.495 77.9287L259.227 68.3003H270.866L276.772 77.9287L270.866 87.5572Z" fill="#2E3741"/>
<path d="M271.213 213.06H259.053L252.974 203.099L259.053 193.139H271.213L277.119 203.099L271.213 213.06Z" fill="#2E3741"/>
<path d="M271.213 238.127H259.053L252.974 228.166L259.053 218.04H271.213L277.119 228.166L271.213 238.127Z" fill="#2E3741"/>
<path d="M266.002 254.727H264.091L263.223 253.067L264.091 251.573H266.002L267.044 253.067L266.002 254.727Z" fill="#2E3741"/>
<path d="M384.472 625.921H372.486L366.406 615.794L372.486 605.834H384.472L390.552 615.794L384.472 625.921Z" fill="#2E3741"/>
<path d="M407.228 638.371H395.069L388.989 628.411L395.069 618.45H407.228L413.308 628.411L407.228 638.371Z" fill="#2E3741"/>
<path d="M429.811 650.822H417.825L411.745 640.862L417.825 630.901H429.811L435.891 640.862L429.811 650.822Z" fill="#2E3741"/>
<path d="M452.567 663.272H440.407L434.501 653.478L440.407 643.518H452.567L458.473 653.478L452.567 663.272Z" fill="#2E3741"/>
<path d="M248.457 0.403372H236.471L230.391 -9.5571L236.471 -19.5176H248.457L254.537 -9.5571L248.457 0.403372Z" fill="#2E3741"/>
<path d="M248.457 25.4703H236.471L230.391 15.5098L236.471 5.3833H248.457L254.537 15.5098L248.457 25.4703Z" fill="#2E3741"/>
<path d="M248.457 50.3716H236.471L230.391 40.4112L236.471 30.4507H248.457L254.537 40.4112L248.457 50.3716Z" fill="#2E3741"/>
<path d="M248.457 75.4385H236.471L230.391 65.4781L236.471 55.5176H248.457L254.537 65.4781L248.457 75.4385Z" fill="#2E3741"/>
<path d="M246.547 97.1859H238.382L234.213 90.5456L238.382 83.7393H246.547L250.542 90.5456L246.547 97.1859Z" fill="#2E3741"/>
<path d="M248.457 175.542H236.471L230.391 165.581L236.471 155.455H248.457L254.537 165.581L248.457 175.542Z" fill="#2E3741"/>
<path d="M247.936 199.612H236.992L231.434 190.482L236.992 181.518H247.936L253.321 190.482L247.936 199.612Z" fill="#2E3741"/>
<path d="M248.457 225.51H236.471L230.391 215.549L236.471 205.589H248.457L254.537 215.549L248.457 225.51Z" fill="#2E3741"/>
<path d="M384.299 650.49H372.66L366.927 640.862L372.66 631.233H384.299L390.031 640.862L384.299 650.49Z" fill="#2E3741"/>
<path d="M407.228 663.439H395.069L388.989 653.478L395.069 643.352H407.228L413.308 653.478L407.228 663.439Z" fill="#2E3741"/>
<path d="M429.811 675.889H417.825L411.745 665.929L417.825 655.968H429.811L435.891 665.929L429.811 675.889Z" fill="#2E3741"/>
<path d="M448.224 681.202H444.75L443.013 678.38L444.75 675.558H448.224L449.961 678.38L448.224 681.202Z" fill="#2E3741"/>
<path d="M225.875 12.8536H213.715L207.635 2.89309L213.715 -7.06738H225.875L231.781 2.89309L225.875 12.8536Z" fill="#2E3741"/>
<path d="M225.875 37.9209H213.715L207.635 27.9605L213.715 18H225.875L231.781 27.9605L225.875 37.9209Z" fill="#2E3741"/>
<path d="M225.875 62.9883H213.715L207.635 53.0279L213.715 42.9014H225.875L231.781 53.0279L225.875 62.9883Z" fill="#2E3741"/>
<path d="M225.527 87.5572H213.889L208.156 77.9287L213.889 68.3003H225.527L231.434 77.9287L225.527 87.5572Z" fill="#2E3741"/>
<path d="M221.358 155.62H218.232L216.668 152.964L218.232 150.474H221.358L222.922 152.964L221.358 155.62Z" fill="#2E3741"/>
<path d="M225.701 187.992H213.715L207.809 178.032L213.715 168.071H225.701L231.781 178.032L225.701 187.992Z" fill="#2E3741"/>
<path d="M225.701 213.06H213.715L207.635 203.099L213.715 193.139H225.701L231.781 203.099L225.701 213.06Z" fill="#2E3741"/>
<path d="M383.951 675.059H373.007L367.449 665.929L373.007 656.798H383.951L389.336 665.929L383.951 675.059Z" fill="#2E3741"/>
<path d="M407.228 688.506H395.069L388.989 678.379L395.069 668.419H407.228L413.308 678.379L407.228 688.506Z" fill="#2E3741"/>
<path d="M429.811 700.957H417.825L411.745 690.996L417.825 680.87H429.811L435.891 690.996L429.811 700.957Z" fill="#2E3741"/>
<path d="M203.119 0.403372H190.959L185.053 -9.5571L190.959 -19.5176H203.119L209.199 -9.5571L203.119 0.403372Z" fill="#2E3741"/>
<path d="M203.119 25.4703H190.959L185.053 15.5098L190.959 5.3833H203.119L209.199 15.5098L203.119 25.4703Z" fill="#2E3741"/>
<path d="M203.119 50.3716H190.959L185.053 40.4112L190.959 30.4507H203.119L209.199 40.4112L203.119 50.3716Z" fill="#2E3741"/>
<path d="M203.119 75.4385H190.959L185.053 65.4781L190.959 55.5176H203.119L209.199 65.4781L203.119 75.4385Z" fill="#2E3741"/>
<path d="M201.555 98.0159H192.522L188.006 90.5456L192.522 82.9092H201.555L206.072 90.5456L201.555 98.0159Z" fill="#2E3741"/>
<path d="M198.602 168.071H195.649L194.086 165.581L195.649 163.091H198.602L199.992 165.581L198.602 168.071Z" fill="#2E3741"/>
<path d="M203.119 200.442H191.133L185.053 190.482L191.133 180.688H203.119L209.025 190.482L203.119 200.442Z" fill="#2E3741"/>
<path d="M384.472 700.957H372.486L366.406 690.996L372.486 680.87H384.472L390.552 690.996L384.472 700.957Z" fill="#2E3741"/>
<path d="M407.228 713.407H395.069L388.989 703.447L395.069 693.486H407.228L413.308 703.447L407.228 713.407Z" fill="#2E3741"/>
<path d="M429.811 725.857H417.825L411.745 715.897L417.825 705.937H429.811L435.891 715.897L429.811 725.857Z" fill="#2E3741"/>
<path d="M180.536 12.8536H168.377L162.297 2.89309L168.377 -7.06738H180.536L186.443 2.89309L180.536 12.8536Z" fill="#2E3741"/>
<path d="M180.536 37.9209H168.377L162.297 27.9605L168.377 18H180.536L186.443 27.9605L180.536 37.9209Z" fill="#2E3741"/>
<path d="M180.536 62.9883H168.377L162.297 53.0279L168.377 42.9014H180.536L186.443 53.0279L180.536 62.9883Z" fill="#2E3741"/>
<path d="M180.536 88.0552H168.377L162.297 77.9287L168.377 67.9683H180.536L186.443 77.9287L180.536 88.0552Z" fill="#2E3741"/>
<path d="M180.536 112.957H168.377L162.297 102.996L168.377 93.0356H180.536L186.443 102.996L180.536 112.957Z" fill="#2E3741"/>
<path d="M180.536 138.024H168.377L162.297 128.064L168.377 117.937H180.536L186.443 128.064L180.536 138.024Z" fill="#2E3741"/>
<path d="M180.536 163.091H168.377L162.297 152.964L168.377 143.004H180.536L186.443 152.964L180.536 163.091Z" fill="#2E3741"/>
<path d="M180.536 187.992H168.377L162.297 178.032L168.377 168.071H180.536L186.443 178.032L180.536 187.992Z" fill="#2E3741"/>
<path d="M175.673 205.257H173.067L171.851 203.099L173.067 200.94H175.673L177.062 203.099L175.673 205.257Z" fill="#2E3741"/>
<path d="M384.472 725.857H372.486L366.406 715.897L372.486 705.937H384.472L390.552 715.897L384.472 725.857Z" fill="#2E3741"/>
<path d="M407.228 738.475H395.069L388.989 728.514L395.069 718.388H407.228L413.308 728.514L407.228 738.475Z" fill="#2E3741"/>
<path d="M429.811 750.759H417.825L411.918 740.964L417.825 731.17H429.811L435.717 740.964L429.811 750.759Z" fill="#2E3741"/>
<path d="M157.78 0.403372H145.621L139.715 -9.5571L145.621 -19.5176H157.78L163.86 -9.5571L157.78 0.403372Z" fill="#2E3741"/>
<path d="M157.78 25.4703H145.621L139.715 15.5098L145.621 5.3833H157.78L163.86 15.5098L157.78 25.4703Z" fill="#2E3741"/>
<path d="M157.78 50.3716H145.621L139.715 40.4112L145.621 30.4507H157.78L163.86 40.4112L157.78 50.3716Z" fill="#2E3741"/>
<path d="M157.78 75.4385H145.621L139.715 65.4781L145.621 55.5176H157.78L163.86 65.4781L157.78 75.4385Z" fill="#2E3741"/>
<path d="M157.78 100.506H145.621L139.715 90.5454L145.621 80.4189H157.78L163.86 90.5454L157.78 100.506Z" fill="#2E3741"/>
<path d="M157.78 125.573H145.621L139.715 115.446L145.621 105.486H157.78L163.86 115.446L157.78 125.573Z" fill="#2E3741"/>
<path d="M157.78 150.474H145.621L139.715 140.514L145.621 130.553H157.78L163.86 140.514L157.78 150.474Z" fill="#2E3741"/>
<path d="M157.78 175.542H145.621L139.715 165.581L145.621 155.455H157.78L163.86 165.581L157.78 175.542Z" fill="#2E3741"/>
<path d="M154.654 195.296H148.921L145.968 190.482L148.921 185.834H154.654L157.433 190.482L154.654 195.296Z" fill="#2E3741"/>
<path d="M383.778 749.597H373.181L367.97 740.964L373.181 732.332H383.778L388.989 740.964L383.778 749.597Z" fill="#2E3741"/>
<path d="M407.228 763.542H395.069L388.989 753.415L395.069 743.455H407.228L413.308 753.415L407.228 763.542Z" fill="#2E3741"/>
<path d="M425.642 768.854H421.994L420.257 766.032L421.994 763.043H425.642L427.379 766.032L425.642 768.854Z" fill="#2E3741"/>
<path d="M135.198 12.8536H123.038L116.958 2.89309L123.038 -7.06738H135.198L141.104 2.89309L135.198 12.8536Z" fill="#2E3741"/>
<path d="M135.198 37.9209H123.038L116.958 27.9605L123.038 18H135.198L141.104 27.9605L135.198 37.9209Z" fill="#2E3741"/>
<path d="M135.198 62.9883H123.038L116.958 53.0279L123.038 42.9014H135.198L141.104 53.0279L135.198 62.9883Z" fill="#2E3741"/>
<path d="M135.198 88.0552H123.038L116.958 77.9287L123.038 67.9683H135.198L141.104 77.9287L135.198 88.0552Z" fill="#2E3741"/>
<path d="M135.198 112.957H123.038L116.958 102.996L123.038 93.0356H135.198L141.104 102.996L135.198 112.957Z" fill="#2E3741"/>
<path d="M135.198 138.024H123.038L116.958 128.064L123.038 117.937H135.198L141.104 128.064L135.198 138.024Z" fill="#2E3741"/>
<path d="M135.024 162.925H123.038L117.132 152.964L123.038 143.17H135.024L140.931 152.964L135.024 162.925Z" fill="#2E3741"/>
<path d="M131.55 182.182H126.686L124.081 178.032L126.686 174.047H131.55L133.982 178.032L131.55 182.182Z" fill="#2E3741"/>
<path d="M381.693 771.51H375.092L371.792 766.031L375.092 760.553H381.693L384.993 766.031L381.693 771.51Z" fill="#2E3741"/>
<path d="M407.228 788.442H395.069L388.989 778.482L395.069 768.521H407.228L413.308 778.482L407.228 788.442Z" fill="#2E3741"/>
<path d="M429.463 800.23H418.172L412.613 790.933L418.172 781.637H429.463L435.022 790.933L429.463 800.23Z" fill="#2E3741"/>
<path d="M449.093 807.866H443.881L441.102 803.55L443.881 799.067H449.093L451.872 803.55L449.093 807.866Z" fill="#2E3741"/>
<path d="M112.442 0.403372H100.282L94.3762 -9.5571L100.282 -19.5176H112.442L118.522 -9.5571L112.442 0.403372Z" fill="#2E3741"/>
<path d="M112.442 25.4703H100.282L94.3762 15.5098L100.282 5.3833H112.442L118.522 15.5098L112.442 25.4703Z" fill="#2E3741"/>
<path d="M112.442 50.3716H100.282L94.3762 40.4112L100.282 30.4507H112.442L118.522 40.4112L112.442 50.3716Z" fill="#2E3741"/>
<path d="M112.442 75.4385H100.282L94.3762 65.4781L100.282 55.5176H112.442L118.522 65.4781L112.442 75.4385Z" fill="#2E3741"/>
<path d="M112.442 100.506H100.282L94.3762 90.5454L100.282 80.4189H112.442L118.522 90.5454L112.442 100.506Z" fill="#2E3741"/>
<path d="M112.095 124.909H100.803L95.071 115.446L100.803 106.15H112.095L117.653 115.446L112.095 124.909Z" fill="#2E3741"/>
<path d="M89.8597 12.8536H77.7L71.6201 2.89309L77.7 -7.06738H89.8597L95.7659 2.89309L89.8597 12.8536Z" fill="#2E3741"/>
<path d="M89.8597 37.9209H77.7L71.6201 27.9605L77.7 18H89.8597L95.7659 27.9605L89.8597 37.9209Z" fill="#2E3741"/>
<path d="M89.8597 62.9883H77.7L71.6201 53.0279L77.7 42.9014H89.8597L95.7659 53.0279L89.8597 62.9883Z" fill="#2E3741"/>
<path d="M89.6862 87.7232H77.8739L71.9678 77.9287L77.8739 68.1343H89.6862L95.5924 77.9287L89.6862 87.7232Z" fill="#2E3741"/>
<path d="M88.9913 111.629H78.5687L73.3574 102.996L78.5687 94.3638H88.9913L94.029 102.996L88.9913 111.629Z" fill="#2E3741"/>
<path d="M88.1228 135.367H79.2635L74.7471 128.063L79.2635 120.593H88.1228L92.6392 128.063L88.1228 135.367Z" fill="#2E3741"/>
<path d="M67.1037 0.403372H54.944L49.0378 -9.5571L54.944 -19.5176H67.1037L73.1836 -9.5571L67.1037 0.403372Z" fill="#2E3741"/>
<path d="M67.1037 25.4703H54.944L49.0378 15.5098L54.944 5.3833H67.1037L73.1836 15.5098L67.1037 25.4703Z" fill="#2E3741"/>
<path d="M67.1037 50.3716H54.944L49.0378 40.4112L54.944 30.4507H67.1037L73.1836 40.4112L67.1037 50.3716Z" fill="#2E3741"/>
<path d="M67.1037 75.4385H54.944L49.0378 65.4781L54.944 55.5176H67.1037L73.1836 65.4781L67.1037 75.4385Z" fill="#2E3741"/>
<path d="M66.7562 99.8419H55.4651L49.7327 90.5455L55.4651 81.083H66.7562L72.315 90.5455L66.7562 99.8419Z" fill="#2E3741"/>
<path d="M44.3476 12.8536H32.3616L26.2817 2.89309L32.3616 -7.06738H44.3476L50.4274 2.89309L44.3476 12.8536Z" fill="#2E3741"/>
<path d="M44.3476 37.9209H32.3616L26.2817 27.9605L32.3616 18H44.3476L50.4274 27.9605L44.3476 37.9209Z" fill="#2E3741"/>
<path d="M40.1786 56.0158H36.5307L34.6199 53.0277L36.5307 49.8735H40.1786L42.0894 53.0277L40.1786 56.0158Z" fill="#2E3741"/>
<path d="M17.9438 18.9957H13.601L11.3428 15.5096L13.601 11.8574H17.9438L20.0283 15.5096L17.9438 18.9957Z" fill="#2E3741"/>
</g>
<defs>
<filter id="filter0_dddd_536_1854" x="-125.806" y="-44.2644" width="898.613" height="1182.49" filterUnits="userSpaceOnUse" color-interpolation-filters="sRGB">
<feFlood flood-opacity="0" result="BackgroundImageFix"/>
<feColorMatrix in="SourceAlpha" type="matrix" values="0 0 0 0 0 0 0 0 0 0 0 0 0 0 0 0 0 0 127 0" result="hardAlpha"/>
<feOffset dy="8.94662"/>
<feGaussianBlur stdDeviation="0.846674"/>
<feColorMatrix type="matrix" values="0 0 0 0 0.270588 0 0 0 0 0.392157 0 0 0 0 0.388235 0 0 0 0.0414311 0"/>
<feBlend mode="normal" in2="BackgroundImageFix" result="effect1_dropShadow_536_1854"/>
<feColorMatrix in="SourceAlpha" type="matrix" values="0 0 0 0 0 0 0 0 0 0 0 0 0 0 0 0 0 0 127 0" result="hardAlpha"/>
<feOffset dy="24.7363"/>
<feGaussianBlur stdDeviation="9.32983"/>
<feColorMatrix type="matrix" values="0 0 0 0 0.270588 0 0 0 0 0.392157 0 0 0 0 0.388235 0 0 0 0.0458509 0"/>
<feBlend mode="normal" in2="effect1_dropShadow_536_1854" result="effect2_dropShadow_536_1854"/>
<feColorMatrix in="SourceAlpha" type="matrix" values="0 0 0 0 0 0 0 0 0 0 0 0 0 0 0 0 0 0 127 0" result="hardAlpha"/>
<feOffset dy="59.5554"/>
<feGaussianBlur stdDeviation="39.9099"/>
<feColorMatrix type="matrix" values="0 0 0 0 0.270588 0 0 0 0 0.392157 0 0 0 0 0.388235 0 0 0 0.0469633 0"/>
<feBlend mode="normal" in2="effect2_dropShadow_536_1854" result="effect3_dropShadow_536_1854"/>
<feColorMatrix in="SourceAlpha" type="matrix" values="0 0 0 0 0 0 0 0 0 0 0 0 0 0 0 0 0 0 127 0" result="hardAlpha"/>
<feOffset dy="197.549"/>
<feGaussianBlur stdDeviation="66.4032"/>
<feColorMatrix type="matrix" values="0 0 0 0 0.272535 0 0 0 0 0.391667 0 0 0 0 0.386651 0 0 0 0.07 0"/>
<feBlend mode="normal" in2="effect3_dropShadow_536_1854" result="effect4_dropShadow_536_1854"/>
<feBlend mode="normal" in="SourceGraphic" in2="effect4_dropShadow_536_1854" result="shape"/>
</filter>
</defs>
</svg>
