<svg width="26" height="26" viewBox="0 0 26 26" fill="none" xmlns="http://www.w3.org/2000/svg">
<path d="M12.9995 21.499C8.31203 21.499 4.5 17.687 4.5 12.9995C4.5 8.31203 8.31203 4.5 12.9995 4.5C17.687 4.5 21.499 8.31203 21.499 12.9995C21.499 17.687 17.687 21.499 12.9995 21.499ZM12.9995 5.34995C8.78375 5.34995 5.34995 8.78375 5.34995 12.9995C5.34995 17.2153 8.78375 20.6491 12.9995 20.6491C17.2153 20.6491 20.6491 17.2153 20.6491 12.9995C20.6491 8.78375 17.2153 5.34995 12.9995 5.34995Z" fill="#101820"/>
<path d="M14.7821 19.3954C14.7353 19.3954 14.6928 19.3911 14.6461 19.3826C14.1276 19.2721 14.0299 18.6644 13.9066 17.8995C13.7961 17.2067 13.6431 16.2548 13.1714 16.0636C12.381 15.7491 11.9347 15.3581 11.803 14.8694C11.6287 14.2277 12.0495 13.6412 12.4235 13.1652C12.228 13.1185 11.9772 13.0717 11.7562 13.0292C10.6343 12.8168 9.10014 12.5278 8.10995 11.6651C7.75297 11.3548 7.56173 10.9894 7.54048 10.5771C7.48948 9.68043 8.26294 8.82624 8.88341 8.13777C9.10864 7.89129 9.40188 7.56406 9.48688 7.39407C9.37213 7.30057 8.9769 7.12634 8.01645 7.05409L8.08021 6.20837C9.40613 6.31036 10.1158 6.60359 10.3113 7.13481C10.4941 7.61928 10.0818 8.07827 9.50812 8.71148C9.0194 9.2512 8.35219 9.99065 8.38194 10.5346C8.39044 10.6494 8.42444 10.8236 8.66242 11.0319C9.47838 11.7458 10.8808 12.0093 11.905 12.2005C11.9645 12.2133 12.024 12.2218 12.0792 12.2345C12.0452 12.1623 12.0197 12.0858 12.0027 12.005C11.8455 11.1211 13.1672 10.3859 14.6928 9.53168C15.4408 9.1152 16.21 8.68599 16.5117 8.37151C17.2257 7.62355 17.2554 7.21556 16.9962 6.36986L17.8079 6.11914C18.1309 7.16033 18.1181 7.92529 17.1279 8.96223C16.7412 9.3702 15.9465 9.81217 15.1093 10.2796C14.3316 10.7131 12.8867 11.5206 12.8442 11.8733C12.8442 11.8733 13.0354 12.124 14.2976 12.328C14.9266 12.43 18.1011 13.0122 18.6196 14.5506C19.2316 16.3823 18.1989 16.8795 17.3659 17.2832C16.9154 17.5 16.448 17.7252 16.159 18.1587C15.649 18.9279 15.2325 19.4124 14.7821 19.4124V19.3954ZM13.4561 13.0122C13.4561 13.1312 13.4179 13.2502 13.3414 13.3607C13.2776 13.4457 13.2139 13.5307 13.1459 13.6199C12.8697 13.9769 12.5509 14.3849 12.6232 14.6484C12.6784 14.8524 12.9844 15.0776 13.4901 15.2774C14.4081 15.6428 14.5993 16.82 14.7523 17.7677C14.7863 17.9844 14.8288 18.2522 14.8798 18.4349C14.9946 18.3202 15.1773 18.0992 15.4578 17.6742C15.8743 17.0495 16.4735 16.7605 17.0047 16.5055C17.8249 16.1103 18.1989 15.9318 17.8206 14.8099C17.6039 14.1639 16.0357 13.4542 14.1701 13.1567C13.9066 13.1142 13.6729 13.0675 13.4604 13.0165L13.4561 13.0122Z" fill="#101820"/>
</svg>
