<svg width="21" height="21" viewBox="0 0 21 21" fill="none" xmlns="http://www.w3.org/2000/svg">
<path d="M10.5 17.3647C6.71396 17.3647 3.63501 14.2858 3.63501 10.4998C3.63501 6.71371 6.71396 3.63477 10.5 3.63477C14.286 3.63477 17.365 6.71371 17.365 10.4998C17.365 14.2858 14.286 17.3647 10.5 17.3647ZM10.5 4.32126C7.09496 4.32126 4.32151 7.09472 4.32151 10.4998C4.32151 13.9048 7.09496 16.6782 10.5 16.6782C13.905 16.6782 16.6785 13.9048 16.6785 10.4998C16.6785 7.09472 13.905 4.32126 10.5 4.32126Z" fill="#F2F2F2"/>
<path d="M11.9392 15.6655C11.9014 15.6655 11.8671 15.6621 11.8293 15.6552C11.4106 15.5659 11.3316 15.0751 11.2321 14.4572C11.1428 13.8978 11.0193 13.1289 10.6382 12.9744C9.9998 12.7204 9.63939 12.4046 9.53298 12.0099C9.39225 11.4916 9.73208 11.0179 10.0341 10.6334C9.87624 10.5957 9.67372 10.5579 9.49523 10.5236C8.58905 10.352 7.34992 10.1186 6.55014 9.42178C6.26182 9.17121 6.10735 8.87602 6.09019 8.54307C6.049 7.81881 6.67372 7.12888 7.17486 6.57282C7.35678 6.37373 7.59363 6.10943 7.66228 5.97213C7.5696 5.89662 7.25037 5.75589 6.47463 5.69754L6.52613 5.01445C7.59706 5.09683 8.17029 5.33367 8.32819 5.76273C8.47578 6.15404 8.14283 6.52475 7.67944 7.0362C7.2847 7.47212 6.7458 8.06937 6.76983 8.50873C6.77669 8.60141 6.80416 8.74215 6.99638 8.91035C7.65541 9.48701 8.78814 9.69982 9.61537 9.85428C9.66343 9.86458 9.71147 9.87143 9.75609 9.88173C9.72863 9.82337 9.70804 9.7616 9.69431 9.69638C9.56731 8.98242 10.6348 8.3886 11.8671 7.69867C12.4712 7.36228 13.0925 7.01561 13.3362 6.7616C13.9129 6.15748 13.9369 5.82795 13.7275 5.14489L14.3831 4.94238C14.644 5.78334 14.6337 6.40119 13.8339 7.23872C13.5215 7.56824 12.8797 7.92521 12.2035 8.30279C11.5753 8.6529 10.4083 9.30508 10.3739 9.58997C10.3739 9.58997 10.5284 9.79249 11.5479 9.95725C12.0559 10.0396 14.6199 10.5099 15.0387 11.7524C15.533 13.2318 14.6989 13.6334 14.0261 13.9595C13.6623 14.1346 13.2847 14.3165 13.0513 14.6666C12.6394 15.2879 12.303 15.6792 11.9392 15.6792V15.6655ZM10.8682 10.5099C10.8682 10.606 10.8373 10.7021 10.7755 10.7913C10.7241 10.86 10.6726 10.9286 10.6177 11.0007C10.3945 11.2891 10.1371 11.6186 10.1955 11.8314C10.2401 11.9962 10.4872 12.1781 10.8957 12.3394C11.6371 12.6346 11.7916 13.5854 11.9151 14.3508C11.9426 14.5259 11.9769 14.7421 12.0181 14.8897C12.1108 14.7971 12.2584 14.6186 12.4849 14.2753C12.8213 13.7708 13.3053 13.5374 13.7344 13.3314C14.3968 13.0122 14.6989 12.868 14.3934 11.9618C14.2183 11.4401 12.9518 10.8669 11.4449 10.6266C11.2321 10.5923 11.0433 10.5545 10.8717 10.5133L10.8682 10.5099Z" fill="#F2F2F2"/>
</svg>
