<svg width="24" height="25" viewBox="0 0 24 25" fill="none" xmlns="http://www.w3.org/2000/svg">
<g clip-path="url(#clip0_536_2246)">
<path d="M12 2.81792C15.2063 2.81792 15.5859 2.83198 16.8469 2.88823C18.0188 2.93979 18.6516 3.13667 19.0734 3.30073C19.6313 3.51636 20.0344 3.77886 20.4516 4.19604C20.8734 4.61792 21.1313 5.01636 21.3469 5.57417C21.5109 5.99605 21.7078 6.63354 21.7594 7.80073C21.8156 9.06636 21.8297 9.44604 21.8297 12.6476C21.8297 15.8539 21.8156 16.2335 21.7594 17.4945C21.7078 18.6664 21.5109 19.2992 21.3469 19.721C21.1313 20.2789 20.8687 20.682 20.4516 21.0992C20.0297 21.521 19.6313 21.7789 19.0734 21.9945C18.6516 22.1585 18.0141 22.3554 16.8469 22.407C15.5813 22.4632 15.2016 22.4773 12 22.4773C8.79375 22.4773 8.41406 22.4632 7.15313 22.407C5.98125 22.3554 5.34844 22.1585 4.92656 21.9945C4.36875 21.7789 3.96563 21.5164 3.54844 21.0992C3.12656 20.6773 2.86875 20.2789 2.65313 19.721C2.48906 19.2992 2.29219 18.6617 2.24063 17.4945C2.18438 16.2289 2.17031 15.8492 2.17031 12.6476C2.17031 9.44136 2.18438 9.06167 2.24063 7.80073C2.29219 6.62886 2.48906 5.99605 2.65313 5.57417C2.86875 5.01636 3.13125 4.61323 3.54844 4.19604C3.97031 3.77417 4.36875 3.51636 4.92656 3.30073C5.34844 3.13667 5.98594 2.93979 7.15313 2.88823C8.41406 2.83198 8.79375 2.81792 12 2.81792ZM12 0.656982C8.74219 0.656982 8.33438 0.671045 7.05469 0.727295C5.77969 0.783545 4.90313 0.989795 4.14375 1.28511C3.35156 1.59448 2.68125 2.00229 2.01563 2.67261C1.34531 3.33823 0.9375 4.00855 0.628125 4.79605C0.332812 5.56011 0.126563 6.43198 0.0703125 7.70698C0.0140625 8.99136 0 9.39917 0 12.657C0 15.9148 0.0140625 16.3226 0.0703125 17.6023C0.126563 18.8773 0.332812 19.7539 0.628125 20.5132C0.9375 21.3054 1.34531 21.9757 2.01563 22.6414C2.68125 23.307 3.35156 23.7195 4.13906 24.0242C4.90313 24.3195 5.775 24.5257 7.05 24.582C8.32969 24.6382 8.7375 24.6523 11.9953 24.6523C15.2531 24.6523 15.6609 24.6382 16.9406 24.582C18.2156 24.5257 19.0922 24.3195 19.8516 24.0242C20.6391 23.7195 21.3094 23.307 21.975 22.6414C22.6406 21.9757 23.0531 21.3054 23.3578 20.5179C23.6531 19.7539 23.8594 18.882 23.9156 17.607C23.9719 16.3273 23.9859 15.9195 23.9859 12.6617C23.9859 9.40386 23.9719 8.99605 23.9156 7.71636C23.8594 6.44136 23.6531 5.5648 23.3578 4.80542C23.0625 4.00854 22.6547 3.33823 21.9844 2.67261C21.3188 2.00698 20.6484 1.59448 19.8609 1.28979C19.0969 0.994482 18.225 0.788232 16.95 0.731982C15.6656 0.671045 15.2578 0.656982 12 0.656982Z" fill="#DEDEDE"/>
<path d="M12 6.49292C8.59688 6.49292 5.83594 9.25386 5.83594 12.657C5.83594 16.0601 8.59688 18.821 12 18.821C15.4031 18.821 18.1641 16.0601 18.1641 12.657C18.1641 9.25386 15.4031 6.49292 12 6.49292ZM12 16.6554C9.79219 16.6554 8.00156 14.8648 8.00156 12.657C8.00156 10.4492 9.79219 8.65854 12 8.65854C14.2078 8.65854 15.9984 10.4492 15.9984 12.657C15.9984 14.8648 14.2078 16.6554 12 16.6554Z" fill="#DEDEDE"/>
<path d="M19.8469 6.24912C19.8469 7.046 19.2 7.68819 18.4078 7.68819C17.6109 7.68819 16.9688 7.04131 16.9688 6.24912C16.9688 5.45225 17.6156 4.81006 18.4078 4.81006C19.2 4.81006 19.8469 5.45693 19.8469 6.24912Z" fill="#DEDEDE"/>
</g>
<defs>
<clipPath id="clip0_536_2246">
<rect width="24" height="24" fill="white" transform="translate(0 0.656982)"/>
</clipPath>
</defs>
</svg>
