<svg width="24" height="25" viewBox="0 0 24 25" fill="none" xmlns="http://www.w3.org/2000/svg">
<g clip-path="url(#clip0_536_2247)">
<path d="M22.2234 0.656982H1.77187C0.792187 0.656982 0 1.43042 0 2.38667V22.9226C0 23.8789 0.792187 24.657 1.77187 24.657H22.2234C23.2031 24.657 24 23.8789 24 22.9273V2.38667C24 1.43042 23.2031 0.656982 22.2234 0.656982ZM7.12031 21.1085H3.55781V9.65229H7.12031V21.1085ZM5.33906 8.09136C4.19531 8.09136 3.27188 7.16792 3.27188 6.02886C3.27188 4.88979 4.19531 3.96636 5.33906 3.96636C6.47813 3.96636 7.40156 4.88979 7.40156 6.02886C7.40156 7.16323 6.47813 8.09136 5.33906 8.09136ZM20.4516 21.1085H16.8937V15.5398C16.8937 14.2132 16.8703 12.5023 15.0422 12.5023C13.1906 12.5023 12.9094 13.9507 12.9094 15.446V21.1085H9.35625V9.65229H12.7687V11.2179H12.8156C13.2891 10.3179 14.4516 9.36636 16.1813 9.36636C19.7859 9.36636 20.4516 11.7382 20.4516 14.8226V21.1085Z" fill="#DEDEDE"/>
</g>
<defs>
<clipPath id="clip0_536_2247">
<rect width="24" height="24" fill="white" transform="translate(0 0.656982)"/>
</clipPath>
</defs>
</svg>
