<svg width="125" height="32" viewBox="0 0 125 32" fill="none" xmlns="http://www.w3.org/2000/svg">
<path d="M0.484087 24.6159V23.4616C0.485729 23.4344 0.492716 23.4079 0.504634 23.3835C0.516553 23.3591 0.533169 23.3373 0.553541 23.3193C0.573914 23.3013 0.597641 23.2875 0.62335 23.2788C0.649059 23.27 0.676241 23.2663 0.703353 23.2681H11.6023C12.4326 23.2984 13.2567 23.1141 13.9949 22.7328C14.5912 22.4494 15.0946 22.002 15.4459 21.443C15.768 20.8979 15.9393 20.2769 15.9425 19.6437C15.9402 19.0878 15.7959 18.5417 15.5233 18.0573C15.2197 17.5288 14.7724 17.0972 14.2335 16.8126C13.5479 16.4627 12.7842 16.294 12.015 16.3225H5.83682C4.73253 16.3575 3.63341 16.1575 2.61228 15.7356C1.81301 15.4053 1.12884 14.8468 0.645314 14.1298C0.213299 13.4523 -0.010893 12.6631 0.000407059 11.8597C0.00188397 11.054 0.224993 10.2641 0.645314 9.57672C1.09707 8.83887 1.74443 8.24063 2.51555 7.84837C3.42543 7.39447 4.43352 7.17291 5.44987 7.20346H16.0005C16.0277 7.20172 16.0548 7.20535 16.0806 7.21413C16.1063 7.22292 16.13 7.2367 16.1504 7.25467C16.1707 7.27265 16.1874 7.29446 16.1993 7.31887C16.2112 7.34329 16.2182 7.36981 16.2198 7.39693V8.46748C16.2103 8.53384 16.1804 8.59559 16.1341 8.64413C16.0879 8.69268 16.0277 8.72562 15.9619 8.73835H5.61755C4.56333 8.64619 3.51427 8.96506 2.68967 9.62832C2.38852 9.90666 2.14739 10.2435 1.98104 10.6184C1.8147 10.9932 1.72666 11.3981 1.72231 11.8081C1.72729 12.2068 1.81799 12.5997 1.98824 12.9603C2.15849 13.3208 2.40431 13.6405 2.70901 13.8976C3.64084 14.5764 4.78402 14.9011 5.93355 14.8134H11.7377C12.9169 14.7746 14.0902 14.9948 15.1751 15.4583C15.993 15.8119 16.6932 16.3913 17.1936 17.1286C17.6484 17.8547 17.8836 18.6968 17.8708 19.5534C17.8677 20.4403 17.6127 21.3081 17.1356 22.0557C16.5963 22.9303 15.8346 23.646 14.9281 24.1298C14.0217 24.6136 13.0031 24.8481 11.9763 24.8094H0.703353C0.676241 24.8112 0.649059 24.8076 0.62335 24.7988C0.597641 24.79 0.573914 24.7762 0.553541 24.7582C0.533169 24.7402 0.516553 24.7184 0.504634 24.694C0.492716 24.6696 0.485729 24.6431 0.484087 24.6159Z" fill="#EDEDED"/>
<path d="M20.5729 24.5711V7.40365C20.5729 7.34037 20.598 7.27968 20.6428 7.23493C20.6875 7.19018 20.7482 7.16504 20.8115 7.16504H37.3082C37.3715 7.16504 37.4322 7.19018 37.4769 7.23493C37.5217 7.27968 37.5468 7.34037 37.5468 7.40365V8.5C37.5468 8.56329 37.5217 8.62398 37.4769 8.66873C37.4322 8.71348 37.3715 8.73861 37.3082 8.73861H22.6366C22.6055 8.73775 22.5747 8.74312 22.5457 8.7544C22.5168 8.76568 22.4905 8.78264 22.4682 8.80429C22.446 8.82593 22.4283 8.85182 22.4162 8.88041C22.4042 8.90901 22.3979 8.93973 22.398 8.97077V14.6975C22.398 14.7608 22.4231 14.8215 22.4678 14.8663C22.5126 14.911 22.5733 14.9362 22.6366 14.9362H35.8959C35.958 14.9361 36.0178 14.9604 36.0623 15.0038C36.1069 15.0471 36.1328 15.1062 36.1345 15.1683V16.2905C36.1345 16.3538 36.1093 16.4144 36.0646 16.4592C36.0198 16.5039 35.9591 16.5291 35.8959 16.5291H22.6108C22.5797 16.5282 22.5489 16.5336 22.5199 16.5449C22.491 16.5561 22.4647 16.5731 22.4424 16.5948C22.4202 16.6164 22.4025 16.6423 22.3904 16.6709C22.3784 16.6995 22.3721 16.7302 22.3722 16.7613V23.004C22.3722 23.0672 22.3973 23.1279 22.442 23.1727C22.4868 23.2174 22.5475 23.2426 22.6108 23.2426H37.4888C37.5198 23.2417 37.5507 23.2471 37.5796 23.2583C37.6085 23.2696 37.6349 23.2866 37.6571 23.3082C37.6794 23.3299 37.6971 23.3558 37.7091 23.3844C37.7212 23.413 37.7274 23.4437 37.7274 23.4747V24.5711C37.7283 24.6026 37.7227 24.6341 37.711 24.6634C37.6994 24.6928 37.6818 24.7194 37.6595 24.7418C37.6371 24.7641 37.6105 24.7817 37.5811 24.7933C37.5518 24.805 37.5203 24.8106 37.4888 24.8097H20.7857C20.7264 24.8048 20.6713 24.7772 20.6317 24.7328C20.5921 24.6884 20.571 24.6305 20.5729 24.5711Z" fill="#EDEDED"/>
<path d="M41.055 24.6098V7.36496C41.055 7.31194 41.0761 7.26108 41.1135 7.22359C41.151 7.1861 41.2019 7.16504 41.2549 7.16504H43.583C43.6201 7.16601 43.6562 7.17665 43.6879 7.19588C43.7196 7.21511 43.7457 7.24227 43.7636 7.27468L50.2127 19.9471L50.6383 20.8242C50.7995 21.166 50.9608 21.5207 51.122 21.8754C51.2832 22.2301 51.438 22.5525 51.5734 22.8298H51.7282C51.8314 22.5912 51.9539 22.301 52.1023 21.9657C52.2506 21.6303 52.4054 21.3207 52.5795 20.9532L53.0438 19.9987L59.4929 7.27468C59.5092 7.24234 59.5341 7.21505 59.5648 7.19574C59.5954 7.17643 59.6308 7.16581 59.667 7.16504H61.9951C62.0481 7.16504 62.099 7.1861 62.1365 7.22359C62.174 7.26108 62.195 7.31194 62.195 7.36496V24.6098C62.195 24.6628 62.174 24.7136 62.1365 24.7511C62.099 24.7886 62.0481 24.8097 61.9951 24.8097H60.5699C60.5169 24.8097 60.466 24.7886 60.4285 24.7511C60.391 24.7136 60.37 24.6628 60.37 24.6098V12.9563C60.37 12.6468 60.37 12.2727 60.37 11.8342C60.37 11.3956 60.37 10.9635 60.37 10.5443C60.37 10.1252 60.37 9.74466 60.37 9.4351H60.1636C60.0798 9.64147 59.9701 9.893 59.8282 10.1961C59.6863 10.4992 59.5509 10.8023 59.4026 11.1054C59.2543 11.4085 59.1188 11.6987 58.9834 11.9567L52.5343 24.7065C52.518 24.7389 52.4931 24.7661 52.4625 24.7854C52.4318 24.8047 52.3964 24.8154 52.3602 24.8161H50.7802C50.743 24.8158 50.7066 24.8055 50.6748 24.7862C50.643 24.7669 50.6171 24.7394 50.5996 24.7065L44.1506 11.9567L43.6862 10.9958C43.5314 10.6733 43.3896 10.3831 43.2606 10.1058C43.1316 9.8285 43.0284 9.60923 42.9381 9.46091H42.7576C42.7576 9.77046 42.7576 10.1381 42.7576 10.5573C42.7576 10.9764 42.7576 11.4021 42.7576 11.8471V24.6098C42.7584 24.6357 42.7541 24.6616 42.7447 24.6858C42.7354 24.71 42.7213 24.7321 42.7032 24.7508C42.6852 24.7694 42.6635 24.7842 42.6396 24.7944C42.6157 24.8045 42.59 24.8097 42.5641 24.8097H41.2098C41.1649 24.7993 41.125 24.7737 41.0968 24.7373C41.0686 24.7009 41.0538 24.6558 41.055 24.6098Z" fill="#EDEDED"/>
<path d="M66.2964 24.6162V7.3585C66.2964 7.30719 66.3168 7.25798 66.353 7.2217C66.3893 7.18542 66.4385 7.16504 66.4899 7.16504H78.4077C79.3912 7.13893 80.3638 7.37486 81.226 7.84864C81.9893 8.28803 82.613 8.9341 83.0253 9.71243C83.461 10.5457 83.6826 11.4743 83.6702 12.4146C83.6792 13.3545 83.4577 14.2822 83.0253 15.1167C82.62 15.8958 82.0001 16.5426 81.2389 16.9805C80.373 17.4409 79.4005 17.6634 78.4206 17.6254H68.3149C68.2636 17.6254 68.2144 17.6458 68.1781 17.6821C68.1418 17.7184 68.1215 17.7676 68.1215 17.8189V24.584C68.1223 24.6091 68.1181 24.6341 68.1091 24.6575C68.1001 24.681 68.0865 24.7024 68.069 24.7204C68.0516 24.7385 68.0307 24.7528 68.0075 24.7626C67.9844 24.7724 67.9595 24.7775 67.9344 24.7774H66.4899C66.4433 24.7795 66.3977 24.7641 66.3619 24.7343C66.3261 24.7045 66.3028 24.6624 66.2964 24.6162ZM68.1408 15.8777C68.1408 15.9029 68.1458 15.9277 68.1556 15.9508C68.1654 15.974 68.1798 15.9949 68.1978 16.0123C68.2159 16.0298 68.2373 16.0434 68.2607 16.0524C68.2842 16.0614 68.3092 16.0656 68.3343 16.0647H78.1433C78.6499 16.102 79.1586 16.0309 79.6357 15.8564C80.1127 15.6818 80.5471 15.4077 80.91 15.0523C81.5536 14.3281 81.8911 13.3826 81.8515 12.4146C81.8662 11.742 81.7109 11.0765 81.4001 10.4799C81.1033 9.93475 80.6554 9.48689 80.1103 9.19006C79.4977 8.87139 78.8142 8.7138 78.124 8.73216H68.3149C68.2898 8.73129 68.2648 8.73549 68.2414 8.7445C68.2179 8.75351 68.1966 8.76716 68.1785 8.78461C68.1604 8.80206 68.1461 8.82297 68.1363 8.84609C68.1265 8.86921 68.1214 8.89408 68.1215 8.91919L68.1408 15.8777Z" fill="#EDEDED"/>
<path d="M85.7407 24.6613V7.32616C85.7399 7.30614 85.7431 7.28616 85.7501 7.26741C85.7572 7.24866 85.768 7.23155 85.7818 7.21709C85.7957 7.20262 85.8123 7.19111 85.8308 7.18325C85.8492 7.1754 85.869 7.17137 85.8891 7.17139H102.56C102.58 7.17139 102.6 7.17538 102.619 7.18316C102.638 7.19093 102.655 7.20234 102.669 7.21671C102.684 7.23108 102.695 7.24814 102.703 7.26692C102.711 7.2857 102.715 7.30583 102.715 7.32616V8.61597C102.715 8.65702 102.698 8.69639 102.669 8.72542C102.64 8.75444 102.601 8.77074 102.56 8.77074H87.727C87.6877 8.77074 87.65 8.78638 87.6222 8.8142C87.5944 8.84202 87.5787 8.87974 87.5787 8.91908V14.8135C87.5779 14.8335 87.581 14.8535 87.5881 14.8723C87.5952 14.891 87.606 14.9081 87.6198 14.9226C87.6337 14.9371 87.6503 14.9486 87.6688 14.9564C87.6872 14.9643 87.707 14.9683 87.727 14.9683H101.186C101.206 14.9683 101.225 14.9721 101.243 14.9796C101.261 14.987 101.277 14.998 101.291 15.0117C101.305 15.0255 101.316 15.0419 101.323 15.0599C101.331 15.0779 101.335 15.0971 101.335 15.1166V16.4064C101.335 16.4458 101.319 16.4835 101.291 16.5113C101.263 16.5392 101.226 16.5548 101.186 16.5548H87.7142C87.6748 16.5548 87.6371 16.5704 87.6093 16.5982C87.5815 16.626 87.5658 16.6638 87.5658 16.7031V23.1135C87.5649 23.1335 87.5681 23.1535 87.5752 23.1722C87.5823 23.191 87.5931 23.2081 87.6069 23.2226C87.6208 23.237 87.6374 23.2485 87.6559 23.2564C87.6743 23.2642 87.6941 23.2683 87.7142 23.2683H102.766C102.786 23.2674 102.806 23.2706 102.825 23.2776C102.844 23.2847 102.861 23.2955 102.875 23.3093C102.89 23.3232 102.901 23.3399 102.909 23.3583C102.917 23.3767 102.921 23.3966 102.921 23.4166V24.7064C102.921 24.7264 102.917 24.7463 102.909 24.7647C102.901 24.7831 102.89 24.7998 102.875 24.8136C102.861 24.8275 102.844 24.8383 102.825 24.8453C102.806 24.8524 102.786 24.8556 102.766 24.8547H85.8891C85.8651 24.8559 85.8413 24.8512 85.8195 24.8411C85.7978 24.831 85.7788 24.8158 85.7643 24.7968C85.7497 24.7778 85.7399 24.7555 85.7358 24.7319C85.7317 24.7083 85.7334 24.6841 85.7407 24.6613Z" fill="#EDEDED"/>
<path d="M106.236 24.629V7.32616C106.236 7.27936 106.254 7.23438 106.286 7.20069C106.319 7.16701 106.363 7.14726 106.41 7.14559H108.035C108.059 7.14482 108.084 7.14966 108.106 7.15972C108.128 7.16977 108.148 7.18478 108.164 7.20363L120.417 20.1018C120.591 20.2759 120.785 20.4758 120.998 20.708L121.642 21.3916C121.849 21.6108 122.016 21.8108 122.152 21.9784H122.313V7.32616C122.315 7.27878 122.334 7.23378 122.368 7.20026C122.401 7.16674 122.446 7.14719 122.494 7.14559H123.938C123.985 7.14726 124.029 7.16701 124.062 7.20069C124.094 7.23438 124.112 7.27936 124.112 7.32616V24.6097C124.113 24.6331 124.109 24.6564 124.101 24.6783C124.093 24.7002 124.08 24.7201 124.064 24.737C124.047 24.7538 124.028 24.7672 124.006 24.7764C123.985 24.7855 123.962 24.7902 123.938 24.7902H122.519C122.495 24.7901 122.471 24.7849 122.449 24.7749C122.427 24.7649 122.407 24.7503 122.391 24.7322L110.06 11.7438C109.699 11.3826 109.35 11.015 109.009 10.641L108.209 9.76391H108.028C108.028 10.0928 108.028 10.5184 108.028 11.0537V24.6355C108.029 24.6589 108.025 24.6822 108.017 24.7041C108.009 24.726 107.996 24.7459 107.98 24.7628C107.964 24.7796 107.944 24.793 107.922 24.8022C107.901 24.8113 107.878 24.816 107.854 24.816H106.403C106.38 24.8152 106.357 24.8097 106.336 24.7998C106.314 24.7898 106.295 24.7757 106.28 24.7582C106.264 24.7408 106.252 24.7203 106.244 24.6981C106.237 24.6759 106.234 24.6524 106.236 24.629Z" fill="#EDEDED"/>
</svg>
