<svg width="82" height="83" viewBox="0 0 82 83" fill="none" xmlns="http://www.w3.org/2000/svg">
<path fill-rule="evenodd" clip-rule="evenodd" d="M61.4435 16.7553C61.137 16.1918 60.5407 15.8476 59.8995 15.8638C57.0233 15.9369 50.739 17.5058 46.9196 23.1719C43.0023 21.0027 38.914 21.3506 37.3029 21.8183C36.741 21.9815 36.3017 22.4208 36.1386 22.9826C35.5085 25.153 35.1191 30.4391 38.9192 34.2392C40.7017 36.0218 42.6024 36.7942 44.3868 36.8243C45.5202 36.8434 46.5401 36.5611 47.3772 36.1277C47.8149 36.5269 48.2599 36.8475 48.6754 37.0873C49.9643 37.8315 52.0671 38.4341 54.3853 37.9677C56.7798 37.4859 59.1924 35.9067 61.0714 32.6522C64.7973 26.1988 62.8933 19.4203 61.4435 16.7553ZM45.3311 33.2858C45.2315 33.0599 45.14 32.8255 45.0582 32.5827C44.4474 30.7704 44.4138 28.6121 45.3298 26.1985C43.0327 24.9065 40.6383 24.7863 39.2207 24.9295C38.9835 26.7683 39.2213 29.7095 41.3351 31.8233C42.5846 33.0728 43.6702 33.395 44.4444 33.4081C44.7677 33.4135 45.066 33.3657 45.3311 33.2858ZM49.2773 25.8429C51.8184 21.4416 56.2624 19.7877 58.8969 19.3832C59.8639 21.867 60.6536 26.5425 58.1125 30.9439C56.6592 33.461 55.0235 34.3541 53.7114 34.6181C52.3228 34.8975 51.0606 34.5192 50.3838 34.1284C49.707 33.7377 48.7482 32.8337 48.2959 31.4915C47.8685 30.2232 47.8241 28.36 49.2773 25.8429Z" fill="#57B6B2"/>
<path fill-rule="evenodd" clip-rule="evenodd" d="M50.6904 43.8842C51.4354 44.3788 51.8983 45.0883 52.1865 45.8702C52.7772 47.4728 52.5319 48.9969 51.6666 50.2471C51.6607 50.2556 51.6548 50.2641 51.6488 50.2726C53.05 49.8374 54.3898 49.3135 55.6527 48.7746C56.3839 48.4626 57.1198 48.1306 57.8334 47.8087C59.1777 47.2024 60.443 46.6316 61.4493 46.2969C62.2275 46.038 63.1463 45.8083 64.0246 45.9196C64.4991 45.9797 65.0019 46.1436 65.4552 46.485C65.9109 46.8283 66.2198 47.2782 66.4156 47.7587C66.8448 48.8119 66.5385 49.8715 66.1917 50.6157C65.8219 51.409 65.2364 52.2144 64.5565 52.9877C63.1863 54.546 61.199 56.2358 58.969 57.7878C56.7305 59.3457 54.1832 60.8096 51.6595 61.8901C49.1626 62.9591 46.5606 63.7085 44.2502 63.7085C42.2098 63.7085 37.0902 63.2061 32.0841 62.4767C29.5626 62.1093 27.0252 61.6779 24.8717 61.2115C22.7837 60.7592 20.8606 60.235 19.7051 59.6275C19.1434 59.3322 18.7917 58.7499 18.7917 58.1154V46.4611C18.7917 45.9821 18.9929 45.5251 19.346 45.2015C19.6992 44.8779 20.172 44.7174 20.6492 44.7593C31.5363 45.7133 38.5045 44.6601 42.9722 43.8948C43.2375 43.8494 43.4989 43.8038 43.7559 43.7591C45.5769 43.442 47.1798 43.163 48.4051 43.2152C49.1599 43.2474 49.9682 43.4047 50.6904 43.8842ZM22.2084 48.3097V56.9788C23.0145 57.2565 24.1617 57.5618 25.595 57.8722C27.6451 58.3163 30.0993 58.7347 32.5768 59.0957C37.5687 59.8231 42.4769 60.2919 44.2502 60.2919C45.8981 60.2919 48.009 59.7363 50.3148 58.7492C52.5937 57.7735 54.9387 56.4301 57.0173 54.9834C59.1044 53.5308 60.8589 52.0187 61.9906 50.7317C62.4534 50.2053 62.7745 49.7587 62.9743 49.405C62.8478 49.438 62.6998 49.4816 62.5278 49.5388C61.6757 49.8223 60.6964 50.2655 59.4959 50.8088C58.7538 51.1447 57.9271 51.5188 56.9936 51.9171C52.3703 53.8899 45.9442 56.0514 38.9993 53.9215C38.1527 53.6619 37.6449 52.7985 37.8293 51.9324C38.0137 51.0664 38.8293 50.4848 39.7082 50.5926C42.0844 50.8841 44.9396 50.5259 46.9354 49.6609C47.9374 49.2266 48.5569 48.7364 48.8573 48.3026C49.097 47.9563 49.1816 47.5971 48.9806 47.0519C48.9247 46.9001 48.8755 46.8189 48.8469 46.7795C48.8216 46.7448 48.8071 46.735 48.8006 46.7306C48.7867 46.7215 48.6673 46.6462 48.2594 46.6288C47.4301 46.5934 46.2423 46.7982 44.2788 47.1369C44.0466 47.1769 43.8036 47.2188 43.549 47.2624C39.1721 48.0122 32.4378 49.0296 22.2084 48.3097ZM63.2082 48.8488C63.2083 48.8487 63.2082 48.8504 63.2078 48.8537L63.2082 48.8488Z" fill="#57B6B2"/>
</svg>
