<svg width="1218" height="300" viewBox="0 0 1218 300" fill="none" xmlns="http://www.w3.org/2000/svg">
<path d="M48.9198 51.58C48.5432 51.1928 48.0282 50.9711 47.4881 50.9636C46.948 50.9561 46.427 51.1634 46.0398 51.54C45.6526 51.9167 45.4308 52.4317 45.4233 52.9718C45.4158 53.5119 45.6232 54.0328 45.9998 54.42L50.6798 59L45.9998 63.58C45.8123 63.766 45.6636 63.9872 45.562 64.2309C45.4605 64.4746 45.4082 64.736 45.4082 65C45.4082 65.2641 45.4605 65.5255 45.562 65.7692C45.6636 66.0129 45.8123 66.2341 45.9998 66.42C46.1857 66.6075 46.4069 66.7563 46.6506 66.8578C46.8944 66.9594 47.1558 67.0116 47.4198 67.0116C47.6838 67.0116 47.9452 66.9594 48.189 66.8578C48.4327 66.7563 48.6539 66.6075 48.8398 66.42L54.8398 60.42C55.0273 60.2341 55.176 60.0129 55.2776 59.7692C55.3791 59.5255 55.4314 59.2641 55.4314 59C55.4314 58.736 55.3791 58.4746 55.2776 58.2309C55.176 57.9872 55.0273 57.766 54.8398 57.58L48.9198 51.58ZM65.9198 57.58L59.9198 51.58C59.5432 51.2034 59.0324 50.9919 58.4998 50.9919C57.9672 50.9919 57.4564 51.2034 57.0798 51.58C56.7032 51.9567 56.4916 52.4674 56.4916 53C56.4916 53.5326 56.7032 54.0434 57.0798 54.42L61.6798 59L57.0798 63.58C56.8923 63.766 56.7436 63.9872 56.642 64.2309C56.5405 64.4746 56.4882 64.736 56.4882 65C56.4882 65.2641 56.5405 65.5255 56.642 65.7692C56.7436 66.0129 56.8923 66.2341 57.0798 66.42C57.2657 66.6075 57.4869 66.7563 57.7306 66.8578C57.9744 66.9594 58.2358 67.0116 58.4998 67.0116C58.7638 67.0116 59.0252 66.9594 59.269 66.8578C59.5127 66.7563 59.7339 66.6075 59.9198 66.42L65.9198 60.42C66.1126 60.2395 66.2677 60.0225 66.3762 59.7816C66.4846 59.5407 66.5443 59.2808 66.5517 59.0167C66.5592 58.7527 66.5142 58.4898 66.4195 58.2432C66.3248 57.9966 66.1821 57.7712 65.9998 57.58H65.9198Z" fill="#57B6B2"/>
<path d="M82.592 70V48.048H93.536C95.0933 48.048 96.384 48.336 97.408 48.912C98.432 49.488 99.2 50.288 99.712 51.312C100.245 52.3147 100.512 53.5093 100.512 54.896C100.512 56.2827 100.235 57.5093 99.68 58.576C99.1253 59.6213 98.3147 60.432 97.248 61.008C96.2027 61.584 94.9227 61.872 93.408 61.872H86.176V70H82.592ZM86.176 58.8H93.248C94.3787 58.8 95.264 58.4587 95.904 57.776C96.5653 57.0933 96.896 56.144 96.896 54.928C96.896 54.1173 96.7573 53.4347 96.48 52.88C96.2027 52.304 95.7973 51.8667 95.264 51.568C94.7307 51.2693 94.0587 51.12 93.248 51.12H86.176V58.8ZM103.168 70V53.168H105.92L106.208 55.888H106.4C106.592 55.3547 106.837 54.8533 107.136 54.384C107.456 53.9147 107.861 53.5307 108.352 53.232C108.864 52.9333 109.482 52.784 110.208 52.784C110.549 52.784 110.848 52.816 111.104 52.88C111.381 52.944 111.594 52.9973 111.744 53.04V56.176H110.624C109.941 56.176 109.333 56.2827 108.8 56.496C108.288 56.7093 107.85 57.0293 107.488 57.456C107.146 57.8613 106.89 58.3627 106.72 58.96C106.57 59.5573 106.496 60.2293 106.496 60.976V70H103.168ZM120.766 70.384C119.016 70.384 117.534 70.0747 116.318 69.456C115.123 68.816 114.216 67.8453 113.598 66.544C113 65.2427 112.702 63.5893 112.702 61.584C112.702 59.5573 113 57.904 113.598 56.624C114.216 55.3227 115.123 54.3627 116.318 53.744C117.534 53.104 119.016 52.784 120.766 52.784C122.558 52.784 124.051 53.104 125.246 53.744C126.44 54.3627 127.336 55.3227 127.934 56.624C128.552 57.904 128.862 59.5573 128.862 61.584C128.862 63.5893 128.552 65.2427 127.934 66.544C127.336 67.8453 126.44 68.816 125.246 69.456C124.051 70.0747 122.558 70.384 120.766 70.384ZM120.766 67.632C121.832 67.632 122.707 67.4293 123.39 67.024C124.072 66.5973 124.574 65.9573 124.894 65.104C125.235 64.2507 125.406 63.1733 125.406 61.872V61.296C125.406 59.9947 125.235 58.9173 124.894 58.064C124.574 57.2107 124.072 56.5813 123.39 56.176C122.707 55.7493 121.832 55.536 120.766 55.536C119.72 55.536 118.856 55.7493 118.174 56.176C117.491 56.5813 116.979 57.2107 116.638 58.064C116.318 58.9173 116.158 59.9947 116.158 61.296V61.872C116.158 63.1733 116.318 64.2507 116.638 65.104C116.979 65.9573 117.491 66.5973 118.174 67.024C118.856 67.4293 119.72 67.632 120.766 67.632ZM131.934 50.256V46.864H135.262V50.256H131.934ZM131.422 75.824C131.166 75.824 130.878 75.8027 130.558 75.76C130.259 75.7387 129.971 75.6853 129.694 75.6C129.395 75.536 129.15 75.472 128.958 75.408V73.104H130.494C130.963 73.104 131.315 72.976 131.55 72.72C131.806 72.464 131.934 72.1013 131.934 71.632V53.168H135.262V71.792C135.262 72.4747 135.145 73.1147 134.91 73.712C134.697 74.3307 134.313 74.832 133.758 75.216C133.203 75.6213 132.425 75.824 131.422 75.824ZM146.153 70.384C144.425 70.384 142.974 70.0747 141.801 69.456C140.649 68.816 139.774 67.8453 139.177 66.544C138.579 65.2427 138.281 63.5893 138.281 61.584C138.281 59.5573 138.579 57.904 139.177 56.624C139.774 55.3227 140.659 54.3627 141.833 53.744C143.006 53.104 144.467 52.784 146.217 52.784C147.817 52.784 149.15 53.0933 150.217 53.712C151.305 54.3093 152.126 55.2267 152.681 56.464C153.235 57.7013 153.513 59.2587 153.513 61.136V62.416H141.705C141.747 63.6107 141.929 64.6133 142.249 65.424C142.569 66.2133 143.049 66.8 143.689 67.184C144.35 67.5467 145.182 67.728 146.185 67.728C146.803 67.728 147.358 67.6533 147.849 67.504C148.339 67.3333 148.755 67.0987 149.097 66.8C149.438 66.48 149.705 66.1067 149.897 65.68C150.089 65.232 150.185 64.7307 150.185 64.176H153.449C153.449 65.1787 153.278 66.064 152.937 66.832C152.595 67.6 152.094 68.2507 151.433 68.784C150.793 69.296 150.025 69.6907 149.129 69.968C148.233 70.2453 147.241 70.384 146.153 70.384ZM141.769 59.984H150.025C150.025 59.152 149.929 58.4587 149.737 57.904C149.566 57.328 149.31 56.8587 148.969 56.496C148.627 56.1333 148.222 55.8773 147.753 55.728C147.283 55.5573 146.75 55.472 146.153 55.472C145.257 55.472 144.489 55.632 143.849 55.952C143.23 56.272 142.75 56.7733 142.409 57.456C142.067 58.1173 141.854 58.96 141.769 59.984ZM163.263 70.384C161.578 70.384 160.17 70.0747 159.039 69.456C157.909 68.816 157.055 67.8453 156.479 66.544C155.925 65.2427 155.647 63.5893 155.647 61.584C155.647 59.5787 155.935 57.936 156.511 56.656C157.087 55.3547 157.941 54.384 159.071 53.744C160.223 53.104 161.631 52.784 163.295 52.784C164.447 52.784 165.45 52.9333 166.303 53.232C167.157 53.5093 167.882 53.936 168.479 54.512C169.077 55.0667 169.514 55.76 169.791 56.592C170.09 57.424 170.239 58.3733 170.239 59.44H166.879C166.879 58.544 166.751 57.808 166.495 57.232C166.239 56.656 165.845 56.2293 165.311 55.952C164.778 55.6533 164.085 55.504 163.231 55.504C162.335 55.504 161.578 55.7173 160.959 56.144C160.341 56.5493 159.871 57.1787 159.551 58.032C159.231 58.864 159.071 59.9627 159.071 61.328V61.872C159.071 63.1733 159.221 64.2613 159.519 65.136C159.839 65.9893 160.309 66.6293 160.927 67.056C161.567 67.4613 162.378 67.664 163.359 67.664C164.213 67.664 164.895 67.5147 165.407 67.216C165.941 66.896 166.335 66.448 166.591 65.872C166.869 65.2747 167.007 64.56 167.007 63.728H170.239C170.239 64.7307 170.09 65.6373 169.791 66.448C169.514 67.2587 169.077 67.9627 168.479 68.56C167.903 69.136 167.178 69.584 166.303 69.904C165.429 70.224 164.415 70.384 163.263 70.384ZM177.479 70.384C176.519 70.384 175.761 70.2027 175.207 69.84C174.673 69.456 174.289 68.976 174.055 68.4C173.841 67.8027 173.735 67.1733 173.735 66.512V55.92H171.623V53.168H173.799L174.407 48.464H177.063V53.168H180.103V55.92H177.063V66.128C177.063 66.6187 177.169 66.992 177.383 67.248C177.596 67.504 177.948 67.632 178.439 67.632H180.103V69.872C179.889 69.9573 179.623 70.032 179.303 70.096C179.004 70.1813 178.695 70.2453 178.375 70.288C178.055 70.352 177.756 70.384 177.479 70.384ZM199.359 70.384C195.882 70.384 193.204 69.4667 191.327 67.632C189.471 65.7973 188.543 62.928 188.543 59.024C188.543 56.464 188.98 54.352 189.855 52.688C190.73 51.0027 191.999 49.744 193.663 48.912C195.327 48.08 197.354 47.664 199.743 47.664C201.172 47.664 202.495 47.824 203.711 48.144C204.948 48.464 206.026 48.9547 206.943 49.616C207.882 50.256 208.596 51.0667 209.087 52.048C209.599 53.0293 209.855 54.192 209.855 55.536H206.207C206.207 54.704 206.036 53.9893 205.695 53.392C205.375 52.7733 204.916 52.2613 204.319 51.856C203.743 51.4507 203.06 51.1627 202.271 50.992C201.503 50.8 200.682 50.704 199.807 50.704C198.591 50.704 197.503 50.864 196.543 51.184C195.604 51.504 194.815 51.9947 194.175 52.656C193.535 53.3173 193.055 54.1493 192.735 55.152C192.415 56.1547 192.255 57.3387 192.255 58.704V59.376C192.255 61.2533 192.522 62.7787 193.055 63.952C193.61 65.1253 194.42 65.9893 195.487 66.544C196.575 67.0773 197.898 67.344 199.455 67.344C200.927 67.344 202.164 67.1307 203.167 66.704C204.17 66.2773 204.938 65.648 205.471 64.816C206.004 63.9627 206.271 62.9067 206.271 61.648V61.328H198.879V58.352H209.855V70H207.263L206.911 67.376C206.314 68.08 205.631 68.656 204.863 69.104C204.095 69.5307 203.252 69.8507 202.335 70.064C201.439 70.2773 200.447 70.384 199.359 70.384ZM214.076 70V53.168H216.828L217.116 55.888H217.308C217.5 55.3547 217.746 54.8533 218.044 54.384C218.364 53.9147 218.77 53.5307 219.26 53.232C219.772 52.9333 220.391 52.784 221.116 52.784C221.458 52.784 221.756 52.816 222.012 52.88C222.29 52.944 222.503 52.9973 222.652 53.04V56.176H221.532C220.85 56.176 220.242 56.2827 219.708 56.496C219.196 56.7093 218.759 57.0293 218.396 57.456C218.055 57.8613 217.799 58.3627 217.628 58.96C217.479 59.5573 217.404 60.2293 217.404 60.976V70H214.076ZM231.675 70.384C229.925 70.384 228.443 70.0747 227.227 69.456C226.032 68.816 225.125 67.8453 224.507 66.544C223.909 65.2427 223.611 63.5893 223.611 61.584C223.611 59.5573 223.909 57.904 224.507 56.624C225.125 55.3227 226.032 54.3627 227.227 53.744C228.443 53.104 229.925 52.784 231.675 52.784C233.467 52.784 234.96 53.104 236.155 53.744C237.349 54.3627 238.245 55.3227 238.843 56.624C239.461 57.904 239.771 59.5573 239.771 61.584C239.771 63.5893 239.461 65.2427 238.843 66.544C238.245 67.8453 237.349 68.816 236.155 69.456C234.96 70.0747 233.467 70.384 231.675 70.384ZM231.675 67.632C232.741 67.632 233.616 67.4293 234.299 67.024C234.981 66.5973 235.483 65.9573 235.803 65.104C236.144 64.2507 236.315 63.1733 236.315 61.872V61.296C236.315 59.9947 236.144 58.9173 235.803 58.064C235.483 57.2107 234.981 56.5813 234.299 56.176C233.616 55.7493 232.741 55.536 231.675 55.536C230.629 55.536 229.765 55.7493 229.083 56.176C228.4 56.5813 227.888 57.2107 227.547 58.064C227.227 58.9173 227.067 59.9947 227.067 61.296V61.872C227.067 63.1733 227.227 64.2507 227.547 65.104C227.888 65.9573 228.4 66.5973 229.083 67.024C229.765 67.4293 230.629 67.632 231.675 67.632ZM249.051 70.384C247.877 70.384 246.843 70.256 245.947 70C245.051 69.744 244.304 69.392 243.707 68.944C243.109 68.496 242.651 67.9627 242.331 67.344C242.032 66.704 241.883 66 241.883 65.232C241.883 65.1253 241.883 65.0293 241.883 64.944C241.904 64.8587 241.915 64.784 241.915 64.72H245.211C245.211 64.784 245.211 64.848 245.211 64.912C245.211 64.9547 245.211 65.008 245.211 65.072C245.211 65.7333 245.392 66.2667 245.755 66.672C246.117 67.056 246.597 67.3333 247.195 67.504C247.813 67.6533 248.485 67.728 249.211 67.728C249.851 67.728 250.437 67.6533 250.971 67.504C251.525 67.3333 251.973 67.088 252.315 66.768C252.677 66.448 252.859 66.0427 252.859 65.552C252.859 64.912 252.635 64.4213 252.187 64.08C251.739 63.7387 251.152 63.472 250.427 63.28C249.701 63.0667 248.944 62.8427 248.155 62.608C247.451 62.416 246.747 62.2133 246.043 62C245.36 61.7653 244.741 61.4667 244.187 61.104C243.632 60.7413 243.184 60.2827 242.843 59.728C242.501 59.1733 242.331 58.48 242.331 57.648C242.331 56.8587 242.501 56.1653 242.843 55.568C243.184 54.9707 243.653 54.4693 244.251 54.064C244.869 53.6587 245.595 53.3493 246.427 53.136C247.28 52.9227 248.208 52.816 249.211 52.816C250.256 52.816 251.184 52.9333 251.995 53.168C252.805 53.3813 253.488 53.6907 254.043 54.096C254.619 54.5013 255.056 54.992 255.355 55.568C255.653 56.1227 255.803 56.72 255.803 57.36C255.803 57.488 255.792 57.6267 255.771 57.776C255.771 57.904 255.771 57.9893 255.771 58.032H252.507V57.744C252.507 57.3173 252.389 56.9333 252.155 56.592C251.92 56.2507 251.547 55.9733 251.035 55.76C250.544 55.5467 249.883 55.44 249.051 55.44C248.496 55.44 248.005 55.4933 247.579 55.6C247.152 55.6853 246.8 55.8133 246.523 55.984C246.245 56.1547 246.032 56.3573 245.883 56.592C245.755 56.8267 245.691 57.0933 245.691 57.392C245.691 57.8827 245.861 58.2667 246.203 58.544C246.565 58.8 247.035 59.024 247.611 59.216C248.187 59.3867 248.805 59.5787 249.467 59.792C250.235 60.0053 251.013 60.2293 251.803 60.464C252.592 60.6773 253.317 60.9547 253.979 61.296C254.661 61.6373 255.205 62.1067 255.611 62.704C256.037 63.3013 256.251 64.1013 256.251 65.104C256.251 66.0213 256.069 66.8213 255.707 67.504C255.344 68.1867 254.832 68.7413 254.171 69.168C253.531 69.5733 252.773 69.872 251.899 70.064C251.024 70.2773 250.075 70.384 249.051 70.384ZM265.512 70.384C264.339 70.384 263.304 70.256 262.408 70C261.512 69.744 260.765 69.392 260.168 68.944C259.571 68.496 259.112 67.9627 258.792 67.344C258.493 66.704 258.344 66 258.344 65.232C258.344 65.1253 258.344 65.0293 258.344 64.944C258.365 64.8587 258.376 64.784 258.376 64.72H261.672C261.672 64.784 261.672 64.848 261.672 64.912C261.672 64.9547 261.672 65.008 261.672 65.072C261.672 65.7333 261.853 66.2667 262.216 66.672C262.579 67.056 263.059 67.3333 263.656 67.504C264.275 67.6533 264.947 67.728 265.672 67.728C266.312 67.728 266.899 67.6533 267.432 67.504C267.987 67.3333 268.435 67.088 268.776 66.768C269.139 66.448 269.32 66.0427 269.32 65.552C269.32 64.912 269.096 64.4213 268.648 64.08C268.2 63.7387 267.613 63.472 266.888 63.28C266.163 63.0667 265.405 62.8427 264.616 62.608C263.912 62.416 263.208 62.2133 262.504 62C261.821 61.7653 261.203 61.4667 260.648 61.104C260.093 60.7413 259.645 60.2827 259.304 59.728C258.963 59.1733 258.792 58.48 258.792 57.648C258.792 56.8587 258.963 56.1653 259.304 55.568C259.645 54.9707 260.115 54.4693 260.712 54.064C261.331 53.6587 262.056 53.3493 262.888 53.136C263.741 52.9227 264.669 52.816 265.672 52.816C266.717 52.816 267.645 52.9333 268.456 53.168C269.267 53.3813 269.949 53.6907 270.504 54.096C271.08 54.5013 271.517 54.992 271.816 55.568C272.115 56.1227 272.264 56.72 272.264 57.36C272.264 57.488 272.253 57.6267 272.232 57.776C272.232 57.904 272.232 57.9893 272.232 58.032H268.968V57.744C268.968 57.3173 268.851 56.9333 268.616 56.592C268.381 56.2507 268.008 55.9733 267.496 55.76C267.005 55.5467 266.344 55.44 265.512 55.44C264.957 55.44 264.467 55.4933 264.04 55.6C263.613 55.6853 263.261 55.8133 262.984 55.984C262.707 56.1547 262.493 56.3573 262.344 56.592C262.216 56.8267 262.152 57.0933 262.152 57.392C262.152 57.8827 262.323 58.2667 262.664 58.544C263.027 58.8 263.496 59.024 264.072 59.216C264.648 59.3867 265.267 59.5787 265.928 59.792C266.696 60.0053 267.475 60.2293 268.264 60.464C269.053 60.6773 269.779 60.9547 270.44 61.296C271.123 61.6373 271.667 62.1067 272.072 62.704C272.499 63.3013 272.712 64.1013 272.712 65.104C272.712 66.0213 272.531 66.8213 272.168 67.504C271.805 68.1867 271.293 68.7413 270.632 69.168C269.992 69.5733 269.235 69.872 268.36 70.064C267.485 70.2773 266.536 70.384 265.512 70.384ZM282.933 70.384C281.184 70.384 279.701 70.0747 278.485 69.456C277.291 68.816 276.384 67.8453 275.765 66.544C275.168 65.2427 274.869 63.5893 274.869 61.584C274.869 59.5573 275.168 57.904 275.765 56.624C276.384 55.3227 277.291 54.3627 278.485 53.744C279.701 53.104 281.184 52.784 282.933 52.784C284.725 52.784 286.219 53.104 287.413 53.744C288.608 54.3627 289.504 55.3227 290.101 56.624C290.72 57.904 291.029 59.5573 291.029 61.584C291.029 63.5893 290.72 65.2427 290.101 66.544C289.504 67.8453 288.608 68.816 287.413 69.456C286.219 70.0747 284.725 70.384 282.933 70.384ZM282.933 67.632C284 67.632 284.875 67.4293 285.557 67.024C286.24 66.5973 286.741 65.9573 287.061 65.104C287.403 64.2507 287.573 63.1733 287.573 61.872V61.296C287.573 59.9947 287.403 58.9173 287.061 58.064C286.741 57.2107 286.24 56.5813 285.557 56.176C284.875 55.7493 284 55.536 282.933 55.536C281.888 55.536 281.024 55.7493 280.341 56.176C279.659 56.5813 279.147 57.2107 278.805 58.064C278.485 58.9173 278.325 59.9947 278.325 61.296V61.872C278.325 63.1733 278.485 64.2507 278.805 65.104C279.147 65.9573 279.659 66.5973 280.341 67.024C281.024 67.4293 281.888 67.632 282.933 67.632Z" fill="white"/>
<path d="M33.82 264V250.28H35.4V262.62H42.18V264H33.82ZM47.7506 264.24C46.7373 264.24 45.8706 264.047 45.1506 263.66C44.444 263.26 43.904 262.653 43.5306 261.84C43.1706 261.027 42.9906 259.993 42.9906 258.74C42.9906 257.473 43.1706 256.44 43.5306 255.64C43.904 254.827 44.444 254.227 45.1506 253.84C45.8706 253.44 46.7373 253.24 47.7506 253.24C48.7906 253.24 49.6573 253.44 50.3506 253.84C51.0573 254.227 51.5906 254.827 51.9506 255.64C52.324 256.44 52.5106 257.473 52.5106 258.74C52.5106 259.993 52.324 261.027 51.9506 261.84C51.5906 262.653 51.0573 263.26 50.3506 263.66C49.6573 264.047 48.7906 264.24 47.7506 264.24ZM47.7506 263.02C48.4573 263.02 49.0506 262.88 49.5306 262.6C50.0106 262.32 50.3773 261.887 50.6306 261.3C50.884 260.7 51.0106 259.927 51.0106 258.98V258.5C51.0106 257.553 50.884 256.787 50.6306 256.2C50.3773 255.6 50.0106 255.16 49.5306 254.88C49.0506 254.6 48.4573 254.46 47.7506 254.46C47.044 254.46 46.4506 254.6 45.9706 254.88C45.4906 255.16 45.124 255.6 44.8706 256.2C44.6173 256.787 44.4906 257.553 44.4906 258.5V258.98C44.4906 259.927 44.6173 260.7 44.8706 261.3C45.124 261.887 45.4906 262.32 45.9706 262.6C46.4506 262.88 47.044 263.02 47.7506 263.02ZM58.3439 264.24C57.3706 264.24 56.5439 264.04 55.8639 263.64C55.1972 263.24 54.6906 262.633 54.3439 261.82C53.9972 261.007 53.8239 259.98 53.8239 258.74C53.8239 257.513 53.9972 256.493 54.3439 255.68C54.6906 254.867 55.2039 254.26 55.8839 253.86C56.5772 253.447 57.4239 253.24 58.4239 253.24C59.1572 253.24 59.7772 253.34 60.2839 253.54C60.8039 253.727 61.2239 254 61.5439 254.36C61.8772 254.72 62.1172 255.153 62.2639 255.66C62.4106 256.167 62.4839 256.733 62.4839 257.36H61.0639C61.0639 256.68 60.9706 256.133 60.7839 255.72C60.6106 255.293 60.3239 254.98 59.9239 254.78C59.5372 254.567 59.0239 254.46 58.3839 254.46C57.7839 254.46 57.2506 254.593 56.7839 254.86C56.3306 255.127 55.9706 255.553 55.7039 256.14C55.4506 256.713 55.3239 257.5 55.3239 258.5V258.98C55.3239 259.927 55.4439 260.7 55.6839 261.3C55.9239 261.887 56.2706 262.32 56.7239 262.6C57.1906 262.88 57.7439 263.02 58.3839 263.02C59.0506 263.02 59.5772 262.907 59.9639 262.68C60.3639 262.44 60.6506 262.107 60.8239 261.68C60.9972 261.24 61.0839 260.72 61.0839 260.12H62.4839C62.4839 260.68 62.4106 261.213 62.2639 261.72C62.1172 262.213 61.8772 262.647 61.5439 263.02C61.2239 263.393 60.7972 263.693 60.2639 263.92C59.7439 264.133 59.1039 264.24 58.3439 264.24ZM67.0216 264.24C66.6082 264.24 66.2016 264.187 65.8016 264.08C65.4016 263.987 65.0416 263.833 64.7216 263.62C64.4149 263.393 64.1682 263.093 63.9816 262.72C63.7949 262.347 63.7016 261.887 63.7016 261.34C63.7016 260.62 63.8749 260.033 64.2216 259.58C64.5816 259.113 65.0816 258.753 65.7216 258.5C66.3616 258.233 67.1149 258.053 67.9816 257.96C68.8616 257.867 69.8149 257.82 70.8416 257.82V256.48C70.8416 256.053 70.7616 255.693 70.6016 255.4C70.4549 255.093 70.1882 254.86 69.8016 254.7C69.4282 254.527 68.8949 254.44 68.2016 254.44C67.5349 254.44 67.0082 254.527 66.6216 254.7C66.2349 254.873 65.9616 255.1 65.8016 255.38C65.6549 255.647 65.5816 255.947 65.5816 256.28V256.6H64.2016C64.1882 256.533 64.1816 256.467 64.1816 256.4C64.1816 256.333 64.1816 256.253 64.1816 256.16C64.1816 255.493 64.3549 254.947 64.7016 254.52C65.0482 254.093 65.5416 253.773 66.1816 253.56C66.8216 253.347 67.5549 253.24 68.3816 253.24C69.2216 253.24 69.9282 253.367 70.5016 253.62C71.0749 253.86 71.5149 254.207 71.8216 254.66C72.1282 255.113 72.2816 255.66 72.2816 256.3V262.34C72.2816 262.593 72.3282 262.773 72.4216 262.88C72.5282 262.973 72.6682 263.02 72.8416 263.02H73.6816V263.94C73.4816 264.02 73.2682 264.087 73.0416 264.14C72.8282 264.193 72.6016 264.22 72.3616 264.22C72.0149 264.22 71.7349 264.147 71.5216 264C71.3216 263.853 71.1749 263.647 71.0816 263.38C71.0016 263.113 70.9482 262.82 70.9216 262.5H70.7816C70.5282 262.86 70.2016 263.173 69.8016 263.44C69.4149 263.693 68.9882 263.887 68.5216 264.02C68.0549 264.167 67.5549 264.24 67.0216 264.24ZM67.3216 263.02C67.7616 263.02 68.1882 262.947 68.6016 262.8C69.0149 262.653 69.3882 262.453 69.7216 262.2C70.0549 261.933 70.3216 261.62 70.5216 261.26C70.7349 260.9 70.8416 260.5 70.8416 260.06V258.98C69.6016 258.98 68.5616 259.047 67.7216 259.18C66.8949 259.313 66.2682 259.547 65.8416 259.88C65.4282 260.213 65.2216 260.68 65.2216 261.28C65.2216 261.68 65.3082 262.013 65.4816 262.28C65.6682 262.533 65.9216 262.72 66.2416 262.84C66.5616 262.96 66.9216 263.02 67.3216 263.02ZM77.3028 264.22C76.8228 264.22 76.4361 264.133 76.1428 263.96C75.8628 263.787 75.6628 263.547 75.5428 263.24C75.4361 262.933 75.3828 262.593 75.3828 262.22V254.7H73.9628V253.48H75.3828L75.6628 250.56H76.8228V253.48H78.8428V254.7H76.8228V261.96C76.8228 262.32 76.8695 262.587 76.9628 262.76C77.0695 262.933 77.2961 263.02 77.6428 263.02H78.8428V263.94C78.7095 263.993 78.5495 264.04 78.3628 264.08C78.1895 264.133 78.0095 264.167 77.8228 264.18C77.6361 264.207 77.4628 264.22 77.3028 264.22ZM80.5641 251.32V249.54H82.0041V251.32H80.5641ZM80.5641 264V253.48H82.0041V264H80.5641ZM88.7819 264.24C87.7685 264.24 86.9019 264.047 86.1819 263.66C85.4752 263.26 84.9352 262.653 84.5619 261.84C84.2019 261.027 84.0219 259.993 84.0219 258.74C84.0219 257.473 84.2019 256.44 84.5619 255.64C84.9352 254.827 85.4752 254.227 86.1819 253.84C86.9019 253.44 87.7685 253.24 88.7819 253.24C89.8219 253.24 90.6885 253.44 91.3819 253.84C92.0885 254.227 92.6219 254.827 92.9819 255.64C93.3552 256.44 93.5419 257.473 93.5419 258.74C93.5419 259.993 93.3552 261.027 92.9819 261.84C92.6219 262.653 92.0885 263.26 91.3819 263.66C90.6885 264.047 89.8219 264.24 88.7819 264.24ZM88.7819 263.02C89.4885 263.02 90.0819 262.88 90.5619 262.6C91.0419 262.32 91.4085 261.887 91.6619 261.3C91.9152 260.7 92.0419 259.927 92.0419 258.98V258.5C92.0419 257.553 91.9152 256.787 91.6619 256.2C91.4085 255.6 91.0419 255.16 90.5619 254.88C90.0819 254.6 89.4885 254.46 88.7819 254.46C88.0752 254.46 87.4819 254.6 87.0019 254.88C86.5219 255.16 86.1552 255.6 85.9019 256.2C85.6485 256.787 85.5219 257.553 85.5219 258.5V258.98C85.5219 259.927 85.6485 260.7 85.9019 261.3C86.1552 261.887 86.5219 262.32 87.0019 262.6C87.4819 262.88 88.0752 263.02 88.7819 263.02ZM95.5352 264V253.48H96.6752L96.8152 255.14H96.9552C97.2485 254.66 97.5818 254.287 97.9552 254.02C98.3285 253.74 98.7285 253.54 99.1552 253.42C99.5952 253.3 100.062 253.24 100.555 253.24C101.222 253.24 101.802 253.353 102.295 253.58C102.802 253.793 103.195 254.147 103.475 254.64C103.755 255.133 103.895 255.807 103.895 256.66V264H102.455V256.8C102.455 256.333 102.395 255.953 102.275 255.66C102.155 255.367 101.988 255.14 101.775 254.98C101.562 254.807 101.308 254.687 101.015 254.62C100.735 254.553 100.422 254.52 100.075 254.52C99.5418 254.52 99.0352 254.653 98.5552 254.92C98.0885 255.173 97.7085 255.54 97.4152 256.02C97.1218 256.5 96.9752 257.087 96.9752 257.78V264H95.5352ZM106.91 255.36V253.48H108.59V255.36H106.91ZM106.91 264V262.12H108.59V264H106.91ZM115.936 264V250.28H123.216C123.976 250.28 124.643 250.42 125.216 250.7C125.79 250.967 126.236 251.353 126.556 251.86C126.89 252.367 127.056 252.96 127.056 253.64C127.056 254.16 126.956 254.633 126.756 255.06C126.57 255.487 126.303 255.847 125.956 256.14C125.623 256.433 125.243 256.653 124.816 256.8V256.88C125.31 256.987 125.75 257.187 126.136 257.48C126.536 257.76 126.85 258.133 127.076 258.6C127.316 259.053 127.436 259.6 127.436 260.24C127.436 261.107 127.243 261.82 126.856 262.38C126.483 262.94 125.983 263.353 125.356 263.62C124.73 263.873 124.016 264 123.216 264H115.936ZM118.176 262.08H123.036C123.65 262.08 124.15 261.92 124.536 261.6C124.936 261.267 125.136 260.733 125.136 260C125.136 259.56 125.05 259.187 124.876 258.88C124.716 258.56 124.47 258.32 124.136 258.16C123.803 257.987 123.383 257.9 122.876 257.9H118.176V262.08ZM118.176 256.02H122.696C123.123 256.02 123.49 255.94 123.796 255.78C124.103 255.62 124.336 255.393 124.496 255.1C124.67 254.807 124.756 254.48 124.756 254.12C124.756 253.467 124.576 252.987 124.216 252.68C123.87 252.36 123.41 252.2 122.836 252.2H118.176V256.02ZM129.499 264V253.48H131.219L131.399 255.18H131.519C131.639 254.847 131.793 254.533 131.979 254.24C132.179 253.947 132.433 253.707 132.739 253.52C133.059 253.333 133.446 253.24 133.899 253.24C134.113 253.24 134.299 253.26 134.459 253.3C134.633 253.34 134.766 253.373 134.859 253.4V255.36H134.159C133.733 255.36 133.353 255.427 133.019 255.56C132.699 255.693 132.426 255.893 132.199 256.16C131.986 256.413 131.826 256.727 131.719 257.1C131.626 257.473 131.579 257.893 131.579 258.36V264H129.499ZM138.678 264.24C138.345 264.24 137.985 264.2 137.598 264.12C137.211 264.04 136.845 263.893 136.498 263.68C136.165 263.467 135.891 263.173 135.678 262.8C135.465 262.413 135.358 261.913 135.358 261.3C135.358 260.58 135.525 259.987 135.858 259.52C136.191 259.053 136.658 258.687 137.258 258.42C137.858 258.153 138.571 257.967 139.398 257.86C140.238 257.753 141.151 257.7 142.138 257.7V256.66C142.138 256.313 142.078 256.007 141.958 255.74C141.851 255.473 141.645 255.267 141.338 255.12C141.045 254.973 140.618 254.9 140.058 254.9C139.498 254.9 139.058 254.973 138.738 255.12C138.431 255.253 138.211 255.427 138.078 255.64C137.958 255.84 137.898 256.06 137.898 256.3V256.6H135.898C135.885 256.533 135.878 256.467 135.878 256.4C135.878 256.333 135.878 256.253 135.878 256.16C135.878 255.533 136.051 255.007 136.398 254.58C136.758 254.14 137.258 253.807 137.898 253.58C138.538 253.353 139.278 253.24 140.118 253.24C141.025 253.24 141.778 253.373 142.378 253.64C142.991 253.893 143.451 254.26 143.758 254.74C144.065 255.22 144.218 255.8 144.218 256.48V261.82C144.218 262.073 144.278 262.253 144.398 262.36C144.531 262.467 144.685 262.52 144.858 262.52H145.578V263.92C145.418 263.987 145.218 264.053 144.978 264.12C144.738 264.187 144.458 264.22 144.138 264.22C143.778 264.22 143.471 264.153 143.218 264.02C142.978 263.9 142.778 263.727 142.618 263.5C142.471 263.26 142.371 262.993 142.318 262.7H142.198C141.958 263.007 141.665 263.28 141.318 263.52C140.985 263.747 140.598 263.92 140.158 264.04C139.718 264.173 139.225 264.24 138.678 264.24ZM139.258 262.52C139.671 262.52 140.051 262.46 140.398 262.34C140.758 262.207 141.065 262.027 141.318 261.8C141.571 261.56 141.771 261.28 141.918 260.96C142.065 260.627 142.138 260.267 142.138 259.88V259.18C141.218 259.18 140.411 259.233 139.718 259.34C139.025 259.447 138.485 259.647 138.098 259.94C137.711 260.22 137.518 260.613 137.518 261.12C137.518 261.427 137.585 261.687 137.718 261.9C137.851 262.1 138.051 262.253 138.318 262.36C138.585 262.467 138.898 262.52 139.258 262.52ZM146.034 264V262.96L151.634 255.2H146.414V253.48H154.634V254.5L149.014 262.28H154.914V264H146.034ZM156.673 251.66V249.54H158.753V251.66H156.673ZM156.673 264V253.48H158.753V264H156.673ZM161.238 264V249.54H163.318V264H161.238Z" fill="#EDEDED"/>
<path d="M280.82 264.24C280.087 264.24 279.373 264.173 278.68 264.04C277.987 263.907 277.373 263.68 276.84 263.36C276.307 263.04 275.887 262.62 275.58 262.1C275.273 261.58 275.12 260.933 275.12 260.16C275.12 260.093 275.12 260.033 275.12 259.98C275.12 259.913 275.127 259.847 275.14 259.78H276.72C276.72 259.833 276.713 259.907 276.7 260C276.7 260.093 276.7 260.173 276.7 260.24C276.7 260.827 276.873 261.32 277.22 261.72C277.58 262.107 278.06 262.4 278.66 262.6C279.273 262.787 279.96 262.88 280.72 262.88C280.973 262.88 281.273 262.867 281.62 262.84C281.98 262.8 282.34 262.733 282.7 262.64C283.073 262.533 283.413 262.393 283.72 262.22C284.027 262.033 284.273 261.8 284.46 261.52C284.66 261.227 284.76 260.867 284.76 260.44C284.76 259.947 284.627 259.54 284.36 259.22C284.093 258.9 283.74 258.64 283.3 258.44C282.873 258.227 282.38 258.04 281.82 257.88C281.26 257.72 280.687 257.567 280.1 257.42C279.513 257.273 278.94 257.107 278.38 256.92C277.833 256.733 277.34 256.5 276.9 256.22C276.46 255.94 276.107 255.593 275.84 255.18C275.587 254.753 275.46 254.233 275.46 253.62C275.46 253.087 275.567 252.6 275.78 252.16C275.993 251.72 276.32 251.347 276.76 251.04C277.2 250.72 277.76 250.473 278.44 250.3C279.12 250.127 279.927 250.04 280.86 250.04C281.567 250.04 282.227 250.113 282.84 250.26C283.453 250.407 283.993 250.64 284.46 250.96C284.927 251.267 285.287 251.66 285.54 252.14C285.807 252.607 285.94 253.173 285.94 253.84V254.08H284.38V253.74C284.38 253.247 284.227 252.833 283.92 252.5C283.613 252.153 283.2 251.887 282.68 251.7C282.173 251.5 281.593 251.4 280.94 251.4C280.047 251.4 279.313 251.493 278.74 251.68C278.167 251.853 277.74 252.1 277.46 252.42C277.18 252.727 277.04 253.073 277.04 253.46C277.04 253.913 277.173 254.293 277.44 254.6C277.707 254.893 278.06 255.14 278.5 255.34C278.94 255.527 279.433 255.7 279.98 255.86C280.54 256.007 281.113 256.153 281.7 256.3C282.287 256.447 282.853 256.62 283.4 256.82C283.96 257.007 284.46 257.247 284.9 257.54C285.353 257.82 285.707 258.173 285.96 258.6C286.227 259.027 286.36 259.553 286.36 260.18C286.36 261.127 286.12 261.9 285.64 262.5C285.173 263.1 284.527 263.54 283.7 263.82C282.873 264.1 281.913 264.24 280.82 264.24ZM291.016 264.22C290.536 264.22 290.149 264.133 289.856 263.96C289.576 263.787 289.376 263.547 289.256 263.24C289.149 262.933 289.096 262.593 289.096 262.22V254.7H287.676V253.48H289.096L289.376 250.56H290.536V253.48H292.556V254.7H290.536V261.96C290.536 262.32 290.583 262.587 290.676 262.76C290.783 262.933 291.009 263.02 291.356 263.02H292.556V263.94C292.423 263.993 292.263 264.04 292.076 264.08C291.903 264.133 291.723 264.167 291.536 264.18C291.349 264.207 291.176 264.22 291.016 264.22ZM296.897 264.24C296.484 264.24 296.077 264.187 295.677 264.08C295.277 263.987 294.917 263.833 294.597 263.62C294.291 263.393 294.044 263.093 293.857 262.72C293.671 262.347 293.577 261.887 293.577 261.34C293.577 260.62 293.751 260.033 294.097 259.58C294.457 259.113 294.957 258.753 295.597 258.5C296.237 258.233 296.991 258.053 297.857 257.96C298.737 257.867 299.691 257.82 300.717 257.82V256.48C300.717 256.053 300.637 255.693 300.477 255.4C300.331 255.093 300.064 254.86 299.677 254.7C299.304 254.527 298.771 254.44 298.077 254.44C297.411 254.44 296.884 254.527 296.497 254.7C296.111 254.873 295.837 255.1 295.677 255.38C295.531 255.647 295.457 255.947 295.457 256.28V256.6H294.077C294.064 256.533 294.057 256.467 294.057 256.4C294.057 256.333 294.057 256.253 294.057 256.16C294.057 255.493 294.231 254.947 294.577 254.52C294.924 254.093 295.417 253.773 296.057 253.56C296.697 253.347 297.431 253.24 298.257 253.24C299.097 253.24 299.804 253.367 300.377 253.62C300.951 253.86 301.391 254.207 301.697 254.66C302.004 255.113 302.157 255.66 302.157 256.3V262.34C302.157 262.593 302.204 262.773 302.297 262.88C302.404 262.973 302.544 263.02 302.717 263.02H303.557V263.94C303.357 264.02 303.144 264.087 302.917 264.14C302.704 264.193 302.477 264.22 302.237 264.22C301.891 264.22 301.611 264.147 301.397 264C301.197 263.853 301.051 263.647 300.957 263.38C300.877 263.113 300.824 262.82 300.797 262.5H300.657C300.404 262.86 300.077 263.173 299.677 263.44C299.291 263.693 298.864 263.887 298.397 264.02C297.931 264.167 297.431 264.24 296.897 264.24ZM297.197 263.02C297.637 263.02 298.064 262.947 298.477 262.8C298.891 262.653 299.264 262.453 299.597 262.2C299.931 261.933 300.197 261.62 300.397 261.26C300.611 260.9 300.717 260.5 300.717 260.06V258.98C299.477 258.98 298.437 259.047 297.597 259.18C296.771 259.313 296.144 259.547 295.717 259.88C295.304 260.213 295.097 260.68 295.097 261.28C295.097 261.68 295.184 262.013 295.357 262.28C295.544 262.533 295.797 262.72 296.117 262.84C296.437 262.96 296.797 263.02 297.197 263.02ZM307.179 264.22C306.699 264.22 306.312 264.133 306.019 263.96C305.739 263.787 305.539 263.547 305.419 263.24C305.312 262.933 305.259 262.593 305.259 262.22V254.7H303.839V253.48H305.259L305.539 250.56H306.699V253.48H308.719V254.7H306.699V261.96C306.699 262.32 306.745 262.587 306.839 262.76C306.945 262.933 307.172 263.02 307.519 263.02H308.719V263.94C308.585 263.993 308.425 264.04 308.239 264.08C308.065 264.133 307.885 264.167 307.699 264.18C307.512 264.207 307.339 264.22 307.179 264.22ZM313.68 264.24C312.68 264.24 311.873 263.987 311.26 263.48C310.647 262.973 310.34 262.087 310.34 260.82V253.48H311.78V260.68C311.78 261.147 311.84 261.527 311.96 261.82C312.08 262.113 312.247 262.347 312.46 262.52C312.673 262.68 312.92 262.793 313.2 262.86C313.493 262.927 313.807 262.96 314.14 262.96C314.673 262.96 315.173 262.833 315.64 262.58C316.12 262.313 316.507 261.94 316.8 261.46C317.093 260.967 317.24 260.38 317.24 259.7V253.48H318.68V264H317.56L317.4 262.34H317.26C316.967 262.82 316.633 263.2 316.26 263.48C315.9 263.747 315.5 263.94 315.06 264.06C314.633 264.18 314.173 264.24 313.68 264.24ZM324.795 264.24C324.101 264.24 323.488 264.167 322.955 264.02C322.421 263.887 321.975 263.687 321.615 263.42C321.268 263.14 321.001 262.807 320.815 262.42C320.641 262.033 320.555 261.587 320.555 261.08C320.555 261.027 320.555 260.973 320.555 260.92C320.555 260.853 320.561 260.793 320.575 260.74H321.995C321.981 260.807 321.975 260.867 321.975 260.92C321.975 260.96 321.975 261 321.975 261.04C321.988 261.56 322.115 261.967 322.355 262.26C322.595 262.54 322.935 262.74 323.375 262.86C323.815 262.98 324.321 263.04 324.895 263.04C325.388 263.04 325.828 262.973 326.215 262.84C326.615 262.693 326.928 262.487 327.155 262.22C327.395 261.953 327.515 261.627 327.515 261.24C327.515 260.747 327.361 260.373 327.055 260.12C326.761 259.867 326.375 259.673 325.895 259.54C325.415 259.393 324.915 259.24 324.395 259.08C323.968 258.96 323.548 258.833 323.135 258.7C322.721 258.553 322.341 258.373 321.995 258.16C321.661 257.947 321.395 257.673 321.195 257.34C320.995 257.007 320.895 256.587 320.895 256.08C320.895 255.64 320.981 255.247 321.155 254.9C321.341 254.553 321.601 254.26 321.935 254.02C322.281 253.767 322.701 253.573 323.195 253.44C323.688 253.307 324.248 253.24 324.875 253.24C325.568 253.24 326.161 253.32 326.655 253.48C327.148 253.64 327.548 253.86 327.855 254.14C328.161 254.407 328.388 254.713 328.535 255.06C328.681 255.393 328.755 255.747 328.755 256.12C328.755 256.173 328.748 256.233 328.735 256.3C328.735 256.367 328.735 256.427 328.735 256.48H327.315V256.22C327.315 255.94 327.241 255.667 327.095 255.4C326.961 255.133 326.715 254.907 326.355 254.72C326.008 254.533 325.488 254.44 324.795 254.44C324.381 254.44 324.021 254.48 323.715 254.56C323.421 254.627 323.168 254.727 322.955 254.86C322.755 254.993 322.601 255.16 322.495 255.36C322.401 255.547 322.355 255.767 322.355 256.02C322.355 256.407 322.475 256.707 322.715 256.92C322.968 257.12 323.295 257.287 323.695 257.42C324.095 257.54 324.521 257.673 324.975 257.82C325.428 257.953 325.888 258.093 326.355 258.24C326.835 258.387 327.275 258.567 327.675 258.78C328.075 258.993 328.395 259.28 328.635 259.64C328.875 259.987 328.995 260.447 328.995 261.02C328.995 261.553 328.888 262.027 328.675 262.44C328.461 262.84 328.168 263.173 327.795 263.44C327.421 263.707 326.975 263.907 326.455 264.04C325.948 264.173 325.395 264.24 324.795 264.24ZM331.517 255.36V253.48H333.197V255.36H331.517ZM331.517 264V262.12H333.197V264H331.517ZM340.465 264V250.28H347.305C348.279 250.28 349.085 250.46 349.725 250.82C350.365 251.18 350.845 251.68 351.165 252.32C351.499 252.947 351.665 253.693 351.665 254.56C351.665 255.427 351.492 256.193 351.145 256.86C350.799 257.513 350.292 258.02 349.625 258.38C348.972 258.74 348.172 258.92 347.225 258.92H342.705V264H340.465ZM342.705 257H347.125C347.832 257 348.385 256.787 348.785 256.36C349.199 255.933 349.405 255.34 349.405 254.58C349.405 254.073 349.319 253.647 349.145 253.3C348.972 252.94 348.719 252.667 348.385 252.48C348.052 252.293 347.632 252.2 347.125 252.2H342.705V257ZM353.325 264V253.48H355.045L355.225 255.18H355.345C355.465 254.847 355.618 254.533 355.805 254.24C356.005 253.947 356.258 253.707 356.565 253.52C356.885 253.333 357.272 253.24 357.725 253.24C357.938 253.24 358.125 253.26 358.285 253.3C358.458 253.34 358.592 253.373 358.685 253.4V255.36H357.985C357.558 255.36 357.178 255.427 356.845 255.56C356.525 255.693 356.252 255.893 356.025 256.16C355.812 256.413 355.652 256.727 355.545 257.1C355.452 257.473 355.405 257.893 355.405 258.36V264H353.325ZM364.204 264.24C363.124 264.24 362.217 264.047 361.484 263.66C360.764 263.26 360.217 262.653 359.844 261.84C359.471 261.027 359.284 259.993 359.284 258.74C359.284 257.473 359.471 256.44 359.844 255.64C360.217 254.827 360.771 254.227 361.504 253.84C362.237 253.44 363.151 253.24 364.244 253.24C365.244 253.24 366.077 253.433 366.744 253.82C367.424 254.193 367.937 254.767 368.284 255.54C368.631 256.313 368.804 257.287 368.804 258.46V259.26H361.424C361.451 260.007 361.564 260.633 361.764 261.14C361.964 261.633 362.264 262 362.664 262.24C363.077 262.467 363.597 262.58 364.224 262.58C364.611 262.58 364.957 262.533 365.264 262.44C365.571 262.333 365.831 262.187 366.044 262C366.257 261.8 366.424 261.567 366.544 261.3C366.664 261.02 366.724 260.707 366.724 260.36H368.764C368.764 260.987 368.657 261.54 368.444 262.02C368.231 262.5 367.917 262.907 367.504 263.24C367.104 263.56 366.624 263.807 366.064 263.98C365.504 264.153 364.884 264.24 364.204 264.24ZM361.464 257.74H366.624C366.624 257.22 366.564 256.787 366.444 256.44C366.337 256.08 366.177 255.787 365.964 255.56C365.751 255.333 365.497 255.173 365.204 255.08C364.911 254.973 364.577 254.92 364.204 254.92C363.644 254.92 363.164 255.02 362.764 255.22C362.377 255.42 362.077 255.733 361.864 256.16C361.651 256.573 361.517 257.1 361.464 257.74ZM370.178 259.6V257.6H375.238V259.6H370.178ZM377.458 264V250.28H387.258V252.2H379.698V256.26H386.538V258.16H379.698V264H377.458ZM392.998 264.24C391.918 264.24 391.012 264.047 390.278 263.66C389.558 263.26 389.012 262.653 388.638 261.84C388.265 261.027 388.078 259.993 388.078 258.74C388.078 257.473 388.265 256.44 388.638 255.64C389.012 254.827 389.565 254.227 390.298 253.84C391.032 253.44 391.945 253.24 393.038 253.24C394.038 253.24 394.872 253.433 395.538 253.82C396.218 254.193 396.732 254.767 397.078 255.54C397.425 256.313 397.598 257.287 397.598 258.46V259.26H390.218C390.245 260.007 390.358 260.633 390.558 261.14C390.758 261.633 391.058 262 391.458 262.24C391.872 262.467 392.392 262.58 393.018 262.58C393.405 262.58 393.752 262.533 394.058 262.44C394.365 262.333 394.625 262.187 394.838 262C395.052 261.8 395.218 261.567 395.338 261.3C395.458 261.02 395.518 260.707 395.518 260.36H397.558C397.558 260.987 397.452 261.54 397.238 262.02C397.025 262.5 396.712 262.907 396.298 263.24C395.898 263.56 395.418 263.807 394.858 263.98C394.298 264.153 393.678 264.24 392.998 264.24ZM390.258 257.74H395.418C395.418 257.22 395.358 256.787 395.238 256.44C395.132 256.08 394.972 255.787 394.758 255.56C394.545 255.333 394.292 255.173 393.998 255.08C393.705 254.973 393.372 254.92 392.998 254.92C392.438 254.92 391.958 255.02 391.558 255.22C391.172 255.42 390.872 255.733 390.658 256.16C390.445 256.573 390.312 257.1 390.258 257.74ZM402.173 264.24C401.839 264.24 401.479 264.2 401.093 264.12C400.706 264.04 400.339 263.893 399.993 263.68C399.659 263.467 399.386 263.173 399.173 262.8C398.959 262.413 398.853 261.913 398.853 261.3C398.853 260.58 399.019 259.987 399.353 259.52C399.686 259.053 400.153 258.687 400.753 258.42C401.353 258.153 402.066 257.967 402.893 257.86C403.733 257.753 404.646 257.7 405.633 257.7V256.66C405.633 256.313 405.573 256.007 405.453 255.74C405.346 255.473 405.139 255.267 404.833 255.12C404.539 254.973 404.113 254.9 403.553 254.9C402.993 254.9 402.553 254.973 402.233 255.12C401.926 255.253 401.706 255.427 401.573 255.64C401.453 255.84 401.393 256.06 401.393 256.3V256.6H399.393C399.379 256.533 399.373 256.467 399.373 256.4C399.373 256.333 399.373 256.253 399.373 256.16C399.373 255.533 399.546 255.007 399.893 254.58C400.253 254.14 400.753 253.807 401.393 253.58C402.033 253.353 402.773 253.24 403.613 253.24C404.519 253.24 405.273 253.373 405.873 253.64C406.486 253.893 406.946 254.26 407.253 254.74C407.559 255.22 407.713 255.8 407.713 256.48V261.82C407.713 262.073 407.773 262.253 407.893 262.36C408.026 262.467 408.179 262.52 408.353 262.52H409.073V263.92C408.913 263.987 408.713 264.053 408.473 264.12C408.233 264.187 407.953 264.22 407.633 264.22C407.273 264.22 406.966 264.153 406.713 264.02C406.473 263.9 406.273 263.727 406.113 263.5C405.966 263.26 405.866 262.993 405.813 262.7H405.693C405.453 263.007 405.159 263.28 404.813 263.52C404.479 263.747 404.093 263.92 403.653 264.04C403.213 264.173 402.719 264.24 402.173 264.24ZM402.753 262.52C403.166 262.52 403.546 262.46 403.893 262.34C404.253 262.207 404.559 262.027 404.813 261.8C405.066 261.56 405.266 261.28 405.413 260.96C405.559 260.627 405.633 260.267 405.633 259.88V259.18C404.713 259.18 403.906 259.233 403.213 259.34C402.519 259.447 401.979 259.647 401.593 259.94C401.206 260.22 401.013 260.613 401.013 261.12C401.013 261.427 401.079 261.687 401.213 261.9C401.346 262.1 401.546 262.253 401.813 262.36C402.079 262.467 402.393 262.52 402.753 262.52ZM414.189 264.24C413.455 264.24 412.809 264.16 412.249 264C411.689 263.84 411.222 263.62 410.849 263.34C410.475 263.06 410.189 262.727 409.989 262.34C409.802 261.94 409.709 261.5 409.709 261.02C409.709 260.953 409.709 260.893 409.709 260.84C409.722 260.787 409.729 260.74 409.729 260.7H411.789C411.789 260.74 411.789 260.78 411.789 260.82C411.789 260.847 411.789 260.88 411.789 260.92C411.789 261.333 411.902 261.667 412.129 261.92C412.355 262.16 412.655 262.333 413.029 262.44C413.415 262.533 413.835 262.58 414.289 262.58C414.689 262.58 415.055 262.533 415.389 262.44C415.735 262.333 416.015 262.18 416.229 261.98C416.455 261.78 416.569 261.527 416.569 261.22C416.569 260.82 416.429 260.513 416.149 260.3C415.869 260.087 415.502 259.92 415.049 259.8C414.595 259.667 414.122 259.527 413.629 259.38C413.189 259.26 412.749 259.133 412.309 259C411.882 258.853 411.495 258.667 411.149 258.44C410.802 258.213 410.522 257.927 410.309 257.58C410.095 257.233 409.989 256.8 409.989 256.28C409.989 255.787 410.095 255.353 410.309 254.98C410.522 254.607 410.815 254.293 411.189 254.04C411.575 253.787 412.029 253.593 412.549 253.46C413.082 253.327 413.662 253.26 414.289 253.26C414.942 253.26 415.522 253.333 416.029 253.48C416.535 253.613 416.962 253.807 417.309 254.06C417.669 254.313 417.942 254.62 418.129 254.98C418.315 255.327 418.409 255.7 418.409 256.1C418.409 256.18 418.402 256.267 418.389 256.36C418.389 256.44 418.389 256.493 418.389 256.52H416.349V256.34C416.349 256.073 416.275 255.833 416.129 255.62C415.982 255.407 415.749 255.233 415.429 255.1C415.122 254.967 414.709 254.9 414.189 254.9C413.842 254.9 413.535 254.933 413.269 255C413.002 255.053 412.782 255.133 412.609 255.24C412.435 255.347 412.302 255.473 412.209 255.62C412.129 255.767 412.089 255.933 412.089 256.12C412.089 256.427 412.195 256.667 412.409 256.84C412.635 257 412.929 257.14 413.289 257.26C413.649 257.367 414.035 257.487 414.449 257.62C414.929 257.753 415.415 257.893 415.909 258.04C416.402 258.173 416.855 258.347 417.269 258.56C417.695 258.773 418.035 259.067 418.289 259.44C418.555 259.813 418.689 260.313 418.689 260.94C418.689 261.513 418.575 262.013 418.349 262.44C418.122 262.867 417.802 263.213 417.389 263.48C416.989 263.733 416.515 263.92 415.969 264.04C415.422 264.173 414.829 264.24 414.189 264.24ZM420.597 251.66V249.54H422.677V251.66H420.597ZM420.597 264V253.48H422.677V264H420.597ZM430.443 264.24C429.749 264.24 429.123 264.1 428.563 263.82C428.003 263.54 427.543 263.12 427.183 262.56H427.043L426.863 264H425.163V249.54H427.243V254.76H427.363C427.589 254.413 427.856 254.127 428.163 253.9C428.483 253.673 428.843 253.507 429.243 253.4C429.643 253.293 430.076 253.24 430.543 253.24C431.343 253.24 432.049 253.433 432.663 253.82C433.276 254.207 433.749 254.8 434.083 255.6C434.429 256.4 434.603 257.433 434.603 258.7C434.603 259.993 434.436 261.047 434.103 261.86C433.769 262.673 433.289 263.273 432.663 263.66C432.049 264.047 431.309 264.24 430.443 264.24ZM429.863 262.44C430.463 262.44 430.949 262.32 431.323 262.08C431.709 261.84 431.996 261.467 432.183 260.96C432.369 260.44 432.463 259.767 432.463 258.94V258.58C432.463 257.753 432.369 257.08 432.183 256.56C432.009 256.04 431.729 255.66 431.343 255.42C430.956 255.167 430.449 255.04 429.823 255.04C429.436 255.04 429.083 255.107 428.763 255.24C428.443 255.373 428.169 255.587 427.943 255.88C427.716 256.16 427.543 256.527 427.423 256.98C427.303 257.433 427.243 257.98 427.243 258.62V258.9C427.243 259.66 427.329 260.307 427.503 260.84C427.689 261.36 427.976 261.76 428.363 262.04C428.749 262.307 429.249 262.44 429.863 262.44ZM436.545 251.66V249.54H438.625V251.66H436.545ZM436.545 264V253.48H438.625V264H436.545ZM441.11 264V249.54H443.19V264H441.11ZM445.676 251.66V249.54H447.756V251.66H445.676ZM445.676 264V253.48H447.756V264H445.676ZM452.862 264.24C452.262 264.24 451.788 264.127 451.442 263.9C451.108 263.66 450.868 263.36 450.722 263C450.588 262.627 450.522 262.233 450.522 261.82V255.2H449.202V253.48H450.562L450.942 250.54H452.602V253.48H454.502V255.2H452.602V261.58C452.602 261.887 452.668 262.12 452.802 262.28C452.935 262.44 453.155 262.52 453.462 262.52H454.502V263.92C454.368 263.973 454.202 264.02 454.002 264.06C453.815 264.113 453.622 264.153 453.422 264.18C453.222 264.22 453.035 264.24 452.862 264.24ZM457.275 267.64C456.875 267.64 456.542 267.607 456.275 267.54C456.009 267.487 455.842 267.453 455.775 267.44V265.94H456.775C457.069 265.94 457.362 265.873 457.655 265.74C457.962 265.607 458.235 265.393 458.475 265.1C458.715 264.807 458.915 264.44 459.075 264L454.975 253.48H457.155L459.195 258.72C459.289 258.96 459.389 259.26 459.495 259.62C459.615 259.98 459.729 260.347 459.835 260.72C459.955 261.093 460.055 261.427 460.135 261.72H460.235C460.302 261.52 460.369 261.293 460.435 261.04C460.515 260.773 460.595 260.5 460.675 260.22C460.755 259.94 460.835 259.673 460.915 259.42C460.995 259.153 461.062 258.927 461.115 258.74L462.815 253.48H464.935L461.375 263.6C461.175 264.16 460.955 264.687 460.715 265.18C460.475 265.673 460.195 266.1 459.875 266.46C459.569 266.833 459.202 267.12 458.775 267.32C458.349 267.533 457.849 267.64 457.275 267.64ZM470.429 264V250.28H481.069V252.2H472.669V256.02H480.189V257.94H472.669V262.08H481.189V264H470.429ZM482.326 264L486.086 258.6L482.546 253.48H485.066L487.386 257H487.506L489.846 253.48H492.226L488.666 258.54L492.426 264H489.926L487.366 260.14H487.266L484.706 264H482.326ZM497.703 264.24C496.623 264.24 495.716 264.047 494.983 263.66C494.263 263.26 493.716 262.653 493.343 261.84C492.97 261.027 492.783 259.993 492.783 258.74C492.783 257.473 492.97 256.44 493.343 255.64C493.716 254.827 494.27 254.227 495.003 253.84C495.736 253.44 496.65 253.24 497.743 253.24C498.743 253.24 499.576 253.433 500.243 253.82C500.923 254.193 501.436 254.767 501.783 255.54C502.13 256.313 502.303 257.287 502.303 258.46V259.26H494.923C494.95 260.007 495.063 260.633 495.263 261.14C495.463 261.633 495.763 262 496.163 262.24C496.576 262.467 497.096 262.58 497.723 262.58C498.11 262.58 498.456 262.533 498.763 262.44C499.07 262.333 499.33 262.187 499.543 262C499.756 261.8 499.923 261.567 500.043 261.3C500.163 261.02 500.223 260.707 500.223 260.36H502.263C502.263 260.987 502.156 261.54 501.943 262.02C501.73 262.5 501.416 262.907 501.003 263.24C500.603 263.56 500.123 263.807 499.563 263.98C499.003 264.153 498.383 264.24 497.703 264.24ZM494.963 257.74H500.123C500.123 257.22 500.063 256.787 499.943 256.44C499.836 256.08 499.676 255.787 499.463 255.56C499.25 255.333 498.996 255.173 498.703 255.08C498.41 254.973 498.076 254.92 497.703 254.92C497.143 254.92 496.663 255.02 496.263 255.22C495.876 255.42 495.576 255.733 495.363 256.16C495.15 256.573 495.016 257.1 494.963 257.74ZM508.397 264.24C507.344 264.24 506.464 264.047 505.757 263.66C505.051 263.26 504.517 262.653 504.157 261.84C503.811 261.027 503.637 259.993 503.637 258.74C503.637 257.487 503.817 256.46 504.177 255.66C504.537 254.847 505.071 254.24 505.777 253.84C506.497 253.44 507.377 253.24 508.417 253.24C509.137 253.24 509.764 253.333 510.297 253.52C510.831 253.693 511.284 253.96 511.657 254.32C512.031 254.667 512.304 255.1 512.477 255.62C512.664 256.14 512.757 256.733 512.757 257.4H510.657C510.657 256.84 510.577 256.38 510.417 256.02C510.257 255.66 510.011 255.393 509.677 255.22C509.344 255.033 508.911 254.94 508.377 254.94C507.817 254.94 507.344 255.073 506.957 255.34C506.571 255.593 506.277 255.987 506.077 256.52C505.877 257.04 505.777 257.727 505.777 258.58V258.92C505.777 259.733 505.871 260.413 506.057 260.96C506.257 261.493 506.551 261.893 506.937 262.16C507.337 262.413 507.844 262.54 508.457 262.54C508.991 262.54 509.417 262.447 509.737 262.26C510.071 262.06 510.317 261.78 510.477 261.42C510.651 261.047 510.737 260.6 510.737 260.08H512.757C512.757 260.707 512.664 261.273 512.477 261.78C512.304 262.287 512.031 262.727 511.657 263.1C511.297 263.46 510.844 263.74 510.297 263.94C509.751 264.14 509.117 264.24 508.397 264.24ZM517.962 264.24C516.949 264.24 516.129 263.973 515.502 263.44C514.875 262.893 514.562 261.967 514.562 260.66V253.48H516.642V260.34C516.642 260.74 516.689 261.073 516.782 261.34C516.889 261.607 517.035 261.82 517.222 261.98C517.409 262.14 517.629 262.253 517.882 262.32C518.135 262.387 518.415 262.42 518.722 262.42C519.202 262.42 519.635 262.307 520.022 262.08C520.422 261.84 520.742 261.513 520.982 261.1C521.222 260.673 521.342 260.187 521.342 259.64V253.48H523.422V264H521.722L521.542 262.5H521.402C521.149 262.887 520.849 263.207 520.502 263.46C520.155 263.713 519.769 263.907 519.342 264.04C518.929 264.173 518.469 264.24 517.962 264.24ZM528.527 264.24C527.927 264.24 527.454 264.127 527.107 263.9C526.774 263.66 526.534 263.36 526.387 263C526.254 262.627 526.187 262.233 526.187 261.82V255.2H524.867V253.48H526.227L526.607 250.54H528.267V253.48H530.167V255.2H528.267V261.58C528.267 261.887 528.334 262.12 528.467 262.28C528.601 262.44 528.821 262.52 529.127 262.52H530.167V263.92C530.034 263.973 529.867 264.02 529.667 264.06C529.481 264.113 529.287 264.153 529.087 264.18C528.887 264.22 528.701 264.24 528.527 264.24ZM536.161 264.24C535.081 264.24 534.174 264.047 533.441 263.66C532.721 263.26 532.174 262.653 531.801 261.84C531.428 261.027 531.241 259.993 531.241 258.74C531.241 257.473 531.428 256.44 531.801 255.64C532.174 254.827 532.728 254.227 533.461 253.84C534.194 253.44 535.108 253.24 536.201 253.24C537.201 253.24 538.034 253.433 538.701 253.82C539.381 254.193 539.894 254.767 540.241 255.54C540.588 256.313 540.761 257.287 540.761 258.46V259.26H533.381C533.408 260.007 533.521 260.633 533.721 261.14C533.921 261.633 534.221 262 534.621 262.24C535.034 262.467 535.554 262.58 536.181 262.58C536.568 262.58 536.914 262.533 537.221 262.44C537.528 262.333 537.788 262.187 538.001 262C538.214 261.8 538.381 261.567 538.501 261.3C538.621 261.02 538.681 260.707 538.681 260.36H540.721C540.721 260.987 540.614 261.54 540.401 262.02C540.188 262.5 539.874 262.907 539.461 263.24C539.061 263.56 538.581 263.807 538.021 263.98C537.461 264.153 536.841 264.24 536.161 264.24ZM533.421 257.74H538.581C538.581 257.22 538.521 256.787 538.401 256.44C538.294 256.08 538.134 255.787 537.921 255.56C537.708 255.333 537.454 255.173 537.161 255.08C536.868 254.973 536.534 254.92 536.161 254.92C535.601 254.92 535.121 255.02 534.721 255.22C534.334 255.42 534.034 255.733 533.821 256.16C533.608 256.573 533.474 257.1 533.421 257.74ZM546.295 264.24C545.442 264.24 544.702 264.047 544.075 263.66C543.448 263.273 542.962 262.673 542.615 261.86C542.282 261.047 542.115 259.993 542.115 258.7C542.115 257.433 542.288 256.4 542.635 255.6C542.982 254.8 543.462 254.207 544.075 253.82C544.688 253.433 545.395 253.24 546.195 253.24C546.662 253.24 547.095 253.293 547.495 253.4C547.895 253.507 548.248 253.673 548.555 253.9C548.875 254.127 549.142 254.413 549.355 254.76H549.495V249.54H551.575V264H549.875L549.675 262.56H549.535C549.188 263.12 548.728 263.54 548.155 263.82C547.595 264.1 546.975 264.24 546.295 264.24ZM546.875 262.44C547.488 262.44 547.982 262.307 548.355 262.04C548.742 261.76 549.028 261.36 549.215 260.84C549.402 260.307 549.495 259.66 549.495 258.9V258.62C549.495 257.98 549.435 257.433 549.315 256.98C549.195 256.527 549.022 256.16 548.795 255.88C548.568 255.587 548.295 255.373 547.975 255.24C547.655 255.107 547.295 255.04 546.895 255.04C546.282 255.04 545.782 255.167 545.395 255.42C545.008 255.66 544.722 256.04 544.535 256.56C544.362 257.08 544.275 257.753 544.275 258.58V258.94C544.275 259.767 544.368 260.44 544.555 260.96C544.742 261.467 545.022 261.84 545.395 262.08C545.782 262.32 546.275 262.44 546.875 262.44ZM554.477 264V261.68H556.697V264H554.477Z" fill="#EDEDED"/>
</svg>
