<svg width="24" height="24" viewBox="0 0 24 24" fill="none" xmlns="http://www.w3.org/2000/svg">
<path d="M22 19.9999H6.82L23.42 3.41988C23.7966 3.04328 24.0082 2.53249 24.0082 1.99988C24.0082 1.46728 23.7966 0.95649 23.42 0.579883C23.0434 0.203275 22.5326 -0.00830078 22 -0.00830078C21.4674 -0.00830078 20.9566 0.203275 20.58 0.579883L4 17.1799V1.99988C4 1.46945 3.78929 0.960742 3.41421 0.58567C3.03914 0.210597 2.53043 -0.000117302 2 -0.000117302C1.46957 -0.000117302 0.96086 0.210597 0.585787 0.58567C0.210714 0.960742 0 1.46945 0 1.99988V21.9999C0.00315997 22.2612 0.0575179 22.5194 0.16 22.7599C0.36295 23.2486 0.751301 23.6369 1.24 23.8399C1.48044 23.9424 1.73865 23.9967 2 23.9999H22C22.5304 23.9999 23.0391 23.7892 23.4142 23.4141C23.7893 23.039 24 22.5303 24 21.9999C24 21.4694 23.7893 20.9607 23.4142 20.5857C23.0391 20.2106 22.5304 19.9999 22 19.9999Z" fill="#62CBC9"/>
</svg>
