<svg width="1439" height="227" viewBox="0 0 1439 227" fill="none" xmlns="http://www.w3.org/2000/svg">
<path fill-rule="evenodd" clip-rule="evenodd" d="M1291.41 2.98622V224.233C1291.39 224.533 1291.43 224.833 1291.52 225.117C1291.62 225.401 1291.77 225.663 1291.97 225.886C1292.17 226.109 1292.42 226.29 1292.69 226.417C1292.96 226.544 1293.26 226.615 1293.56 226.625H1312.11C1312.41 226.625 1312.71 226.565 1312.98 226.448C1313.26 226.331 1313.51 226.16 1313.71 225.944C1313.92 225.728 1314.08 225.473 1314.19 225.194C1314.3 224.914 1314.35 224.615 1314.34 224.316V50.6496V34.1571H1316.65L1326.87 45.3722C1331.24 50.155 1335.69 54.8553 1340.31 59.4732L1497.98 225.553C1498.19 225.785 1498.44 225.971 1498.73 226.099C1499.01 226.227 1499.32 226.294 1499.63 226.295H1517.77C1518.07 226.295 1518.37 226.235 1518.64 226.118C1518.92 226.001 1519.17 225.83 1519.38 225.614C1519.58 225.398 1519.75 225.143 1519.85 224.864C1519.96 224.584 1520.01 224.285 1520 223.986V2.98622C1520 2.38787 1519.77 1.81263 1519.35 1.38191C1518.94 0.951191 1518.37 0.698643 1517.77 0.677273H1499.3C1498.69 0.697827 1498.12 0.947735 1497.69 1.37637C1497.26 1.80501 1497.01 2.38038 1496.99 2.98622V190.341H1494.93C1493.2 188.197 1491.05 185.641 1488.41 182.837L1480.17 174.096C1477.45 171.128 1474.97 168.571 1472.75 166.345L1316.07 1.41941C1315.87 1.17848 1315.61 0.986564 1315.33 0.857962C1315.04 0.72936 1314.73 0.667489 1314.42 0.677273H1293.64C1293.04 0.698643 1292.47 0.951191 1292.06 1.38191C1291.64 1.81263 1291.41 2.38787 1291.41 2.98622ZM780.716 3.39965V224.07C780.797 224.66 781.096 225.198 781.554 225.579C782.011 225.961 782.595 226.158 783.19 226.131H801.661C801.982 226.132 802.3 226.067 802.596 225.942C802.891 225.817 803.159 225.633 803.382 225.402C803.605 225.171 803.78 224.898 803.895 224.598C804.01 224.298 804.064 223.979 804.053 223.658V137.154C804.053 136.498 804.313 135.869 804.777 135.405C805.241 134.941 805.87 134.68 806.526 134.68H935.746C948.275 135.166 960.71 132.32 971.782 126.434C981.515 120.834 989.442 112.564 994.624 102.602C1000.15 91.9316 1002.99 80.0686 1002.87 68.0506C1003.03 56.0276 1000.2 44.1538 994.624 33.4987C989.352 23.5464 981.377 15.2852 971.617 9.66689C960.593 3.6088 948.155 0.592005 935.581 0.925867H783.19C782.534 0.925867 781.904 1.18644 781.44 1.65038C780.976 2.11433 780.716 2.74353 780.716 3.39965ZM804.49 113.268C804.364 112.972 804.3 112.654 804.3 112.333L804.053 23.3557C804.052 23.0346 804.117 22.7167 804.242 22.4211C804.367 22.1254 804.551 21.8581 804.782 21.6349C805.013 21.4117 805.286 21.2372 805.586 21.122C805.886 21.0068 806.206 20.9532 806.526 20.9642H931.952C940.778 20.7295 949.518 22.7445 957.351 26.8193C964.321 30.6149 970.048 36.3415 973.843 43.3118C977.818 50.9411 979.804 59.45 979.616 68.0506C980.122 80.4279 975.806 92.5187 967.576 101.778C962.936 106.323 957.381 109.827 951.282 112.06C945.182 114.292 938.677 115.2 932.2 114.724H806.774C806.453 114.735 806.133 114.682 805.833 114.566C805.534 114.451 805.26 114.277 805.029 114.054C804.798 113.831 804.615 113.563 804.49 113.268ZM196.061 3.97784V223.493C196.037 224.254 196.306 224.994 196.812 225.562C197.319 226.13 198.024 226.481 198.782 226.545H412.36C412.764 226.556 413.166 226.485 413.541 226.336C413.916 226.186 414.257 225.962 414.543 225.676C414.828 225.391 415.053 225.05 415.202 224.674C415.351 224.299 415.423 223.897 415.411 223.493V209.475C415.411 209.078 415.332 208.685 415.178 208.319C415.023 207.954 414.797 207.623 414.513 207.346C414.228 207.069 413.891 206.852 413.521 206.708C413.152 206.564 412.757 206.495 412.36 206.506H222.119C221.309 206.506 220.533 206.185 219.961 205.613C219.389 205.04 219.068 204.264 219.068 203.455V123.631C219.067 123.234 219.147 122.842 219.301 122.476C219.456 122.11 219.682 121.779 219.966 121.502C220.25 121.225 220.587 121.009 220.957 120.864C221.327 120.72 221.722 120.651 222.119 120.662H391.992C392.801 120.662 393.577 120.341 394.149 119.769C394.721 119.197 395.043 118.421 395.043 117.611V103.263C395.021 102.468 394.691 101.713 394.121 101.159C393.551 100.604 392.787 100.294 391.992 100.294H222.449C221.639 100.294 220.863 99.9727 220.291 99.4006C219.719 98.8284 219.397 98.0523 219.397 97.2431V24.0162C219.397 23.6193 219.477 23.2265 219.631 22.8609C219.785 22.4952 220.011 22.1642 220.296 21.8874C220.58 21.6107 220.917 21.3937 221.287 21.2495C221.657 21.1053 222.052 21.0366 222.449 21.0477H410.051C410.86 21.0477 411.636 20.7262 412.209 20.154C412.781 19.5818 413.102 18.8058 413.102 17.9966V3.97784C413.102 3.16863 412.781 2.39258 412.209 1.82039C411.636 1.24819 410.86 0.926758 410.051 0.926758H199.112C198.302 0.926758 197.526 1.24819 196.954 1.82039C196.382 2.39258 196.061 3.16863 196.061 3.97784ZM-60.8101 209.306V224.067C-60.7891 224.414 -60.6998 224.753 -60.5474 225.065C-60.395 225.377 -60.1825 225.657 -59.922 225.886C-59.6615 226.116 -59.3581 226.292 -59.0294 226.405C-58.7006 226.517 -58.3531 226.563 -58.0064 226.541H86.1385C99.2671 227.036 112.292 224.037 123.882 217.851C135.473 211.665 145.213 202.512 152.109 191.329C158.209 181.77 161.469 170.674 161.509 159.334C161.673 148.38 158.666 137.613 152.851 128.328C146.452 118.901 137.498 111.492 127.04 106.97C113.167 101.043 98.1646 98.2284 83.0872 98.7238H8.87084C-5.82787 99.8453 -20.4454 95.6941 -32.3605 87.0142C-36.2567 83.7262 -39.3999 79.6386 -41.5769 75.0286C-43.7539 70.4185 -44.9136 65.3941 -44.9773 60.2964C-44.9217 55.0531 -43.7959 49.8763 -41.6689 45.0835C-39.5419 40.2907 -36.4586 35.983 -32.6079 32.4239C-22.0638 23.943 -8.64986 19.8656 4.83025 21.044H137.1C137.942 20.8813 138.712 20.4601 139.303 19.8394C139.894 19.2186 140.277 18.4291 140.399 17.5805V3.89166C140.378 3.5449 140.289 3.20578 140.136 2.8936C139.984 2.58141 139.771 2.30254 139.511 2.07269C139.25 1.84285 138.947 1.66663 138.618 1.55428C138.289 1.44194 137.942 1.39554 137.595 1.41788H2.68614C-10.3097 1.02724 -23.1999 3.86028 -34.8343 9.66415C-44.6944 14.6799 -52.9721 22.3295 -58.7485 31.7641C-64.1231 40.554 -66.9759 50.6531 -66.9948 60.9559C-67.1393 71.2292 -64.2726 81.3199 -58.7485 89.9827C-52.5658 99.151 -43.8174 106.293 -33.5974 110.516C-20.5405 115.911 -6.48627 118.468 7.63395 118.02H86.6332C96.4686 117.657 106.234 119.814 115 124.287C121.892 127.927 127.61 133.446 131.493 140.203C134.978 146.398 136.823 153.38 136.853 160.488C136.812 168.585 134.621 176.525 130.503 183.496C126.01 190.644 119.575 196.364 111.949 199.988C102.51 204.863 91.9724 207.22 81.3556 206.832H-58.0064C-58.3531 206.81 -58.7006 206.857 -59.0294 206.969C-59.3581 207.081 -59.6615 207.257 -59.922 207.487C-60.1825 207.717 -60.395 207.996 -60.5474 208.308C-60.6998 208.62 -60.7891 208.959 -60.8101 209.306ZM457.957 223.988V3.48308C457.957 2.8051 458.226 2.15484 458.706 1.67543C459.185 1.19603 459.835 0.926758 460.513 0.926758H490.282C490.756 0.93922 491.218 1.07523 491.623 1.3211C492.028 1.56697 492.362 1.91429 492.591 2.32873L575.054 164.368L580.497 175.583C582.556 179.949 584.616 184.48 586.676 189.012L586.681 189.024C588.743 193.56 590.722 197.683 592.454 201.229H594.433C594.831 200.308 595.252 199.327 595.697 198.289L595.701 198.279L595.706 198.267C596.735 195.869 597.895 193.164 599.216 190.179C600.52 187.23 601.863 184.437 603.299 181.451L603.299 181.451L603.309 181.43C603.958 180.081 604.626 178.692 605.318 177.232L611.255 165.027L693.718 2.32873C693.927 1.91519 694.245 1.56627 694.637 1.31934C695.029 1.07241 695.481 0.936658 695.944 0.926758H725.713C726.391 0.926758 727.042 1.19603 727.521 1.67543C728 2.15484 728.27 2.8051 728.27 3.48308V223.988C728.27 224.666 728 225.316 727.521 225.796C727.042 226.275 726.391 226.545 725.713 226.545H707.489C706.811 226.545 706.161 226.275 705.682 225.796C705.202 225.316 704.933 224.666 704.933 223.988V74.9783V60.6297V44.1371V29.9535H702.294C701.222 32.5923 699.82 35.8086 698.006 39.6843C697.401 40.9758 696.806 42.2673 696.211 43.5587L696.21 43.5602L696.209 43.5617L696.209 43.5632L696.206 43.5683C695.016 46.1493 693.827 48.7303 692.563 51.3113C691.995 52.4733 691.441 53.6205 690.898 54.7462C689.628 57.3751 688.416 59.8869 687.203 62.1965L604.741 225.225C604.531 225.639 604.214 225.988 603.822 226.234C603.429 226.481 602.977 226.617 602.514 226.627H582.311C581.835 226.623 581.37 226.491 580.963 226.244C580.557 225.997 580.225 225.645 580.002 225.225L497.539 62.1965L491.602 49.9096C491.038 48.7346 490.487 47.5931 489.95 46.4794C488.602 43.6849 487.339 41.0651 486.159 38.5297C484.51 34.9838 483.191 32.1801 482.036 30.2835H479.727V44.3022V60.7947V223.988C479.738 224.32 479.682 224.651 479.563 224.96C479.444 225.27 479.263 225.553 479.032 225.791C478.802 226.03 478.525 226.219 478.219 226.349C477.914 226.478 477.585 226.545 477.253 226.545H459.936C459.362 226.412 458.852 226.085 458.491 225.619C458.131 225.153 457.942 224.577 457.957 223.988ZM1029.34 224.646V2.98586C1029.33 2.72994 1029.37 2.47438 1029.46 2.23467C1029.55 1.99495 1029.69 1.77613 1029.87 1.59118C1030.05 1.40623 1030.26 1.25902 1030.49 1.15859C1030.73 1.05816 1030.98 1.00659 1031.24 1.00684H1244.41C1244.67 1.00684 1244.92 1.05787 1245.16 1.15733C1245.4 1.25679 1245.62 1.40262 1245.81 1.5864C1245.99 1.77018 1246.13 1.98826 1246.23 2.22838C1246.33 2.46849 1246.38 2.72596 1246.38 2.98586V19.4784C1246.38 20.0033 1246.18 20.5067 1245.81 20.8779C1245.43 21.249 1244.93 21.4574 1244.41 21.4574H1054.74C1054.24 21.4574 1053.76 21.6574 1053.4 22.0131C1053.04 22.3688 1052.84 22.8511 1052.84 23.3541V98.7249C1052.83 98.9808 1052.87 99.2364 1052.96 99.4761C1053.06 99.7158 1053.19 99.9349 1053.37 100.12C1053.55 100.305 1053.76 100.452 1054 100.552C1054.23 100.653 1054.49 100.704 1054.74 100.704H1226.84C1227.09 100.704 1227.34 100.753 1227.57 100.848C1227.8 100.944 1228.01 101.083 1228.18 101.26C1228.36 101.436 1228.5 101.645 1228.59 101.875C1228.69 102.105 1228.74 102.352 1228.74 102.601V119.093C1228.74 119.596 1228.54 120.079 1228.18 120.435C1227.83 120.79 1227.34 120.99 1226.84 120.99H1054.58C1054.07 120.99 1053.59 121.19 1053.24 121.546C1052.88 121.901 1052.68 122.384 1052.68 122.887V204.855C1052.67 205.11 1052.71 205.366 1052.8 205.606C1052.89 205.845 1053.03 206.064 1053.21 206.249C1053.38 206.434 1053.6 206.581 1053.83 206.682C1054.07 206.782 1054.32 206.834 1054.58 206.834H1247.04C1247.3 206.822 1247.56 206.863 1247.8 206.954C1248.04 207.044 1248.25 207.182 1248.44 207.359C1248.62 207.536 1248.77 207.749 1248.87 207.985C1248.97 208.221 1249.02 208.474 1249.02 208.73V225.223C1249.02 225.479 1248.97 225.732 1248.87 225.968C1248.77 226.204 1248.62 226.417 1248.44 226.594C1248.25 226.771 1248.04 226.909 1247.8 226.999C1247.56 227.09 1247.3 227.13 1247.04 227.119H1031.24C1030.93 227.134 1030.63 227.074 1030.35 226.945C1030.07 226.816 1029.83 226.622 1029.64 226.379C1029.46 226.136 1029.33 225.851 1029.28 225.549C1029.23 225.247 1029.25 224.937 1029.34 224.646Z" fill="url(#paint0_linear_1388_90)"/>
<defs>
<linearGradient id="paint0_linear_1388_90" x1="726.5" y1="227.121" x2="726.5" y2="0.67627" gradientUnits="userSpaceOnUse">
<stop offset="0.055" stop-color="#223445" stop-opacity="0"/>
<stop offset="1" stop-color="#223445"/>
</linearGradient>
</defs>
</svg>
