<svg width="1323" height="145" viewBox="0 0 1323 145" fill="none" xmlns="http://www.w3.org/2000/svg">
<path d="M5.1602 186.417V174.112C5.17771 173.823 5.25218 173.54 5.37923 173.28C5.50628 173.02 5.6834 172.787 5.90056 172.595C6.11772 172.404 6.37065 172.257 6.6447 172.163C6.91875 172.07 7.2085 172.031 7.49751 172.05H123.676C132.527 172.373 141.311 170.408 149.181 166.344C155.538 163.323 160.903 158.554 164.648 152.595C168.081 146.784 169.908 140.164 169.942 133.415C169.917 127.489 168.379 121.668 165.473 116.504C162.236 110.871 157.469 106.27 151.724 103.236C144.416 99.5067 136.275 97.7084 128.076 98.0114H62.2185C50.4472 98.385 38.7309 96.2526 27.846 91.7556C19.3261 88.2352 12.033 82.281 6.87883 74.638C2.27369 67.4162 -0.116116 59.0041 0.00433911 50.4398C0.0200825 41.8509 2.39835 33.4318 6.87883 26.1041C11.6944 18.2389 18.595 11.8618 26.8149 7.6805C36.5139 2.84211 47.2598 0.480352 58.0937 0.806012H170.56C170.849 0.787382 171.139 0.826064 171.413 0.919719C171.687 1.01337 171.94 1.16028 172.157 1.35189C172.375 1.5435 172.552 1.77598 172.679 2.03624C172.806 2.29649 172.88 2.57919 172.898 2.86827V14.28C172.796 14.9873 172.477 15.6456 171.984 16.163C171.491 16.6805 170.85 17.0316 170.148 17.1673H59.8812C48.6435 16.185 37.461 19.5841 28.6709 26.6542C25.4608 29.6211 22.8904 33.2123 21.1172 37.2078C19.3441 41.2033 18.4056 45.5189 18.3592 49.89C18.4123 54.1397 19.3791 58.3283 21.1939 62.1714C23.0087 66.0146 25.6291 69.4222 28.8772 72.1632C38.8102 79.3992 50.996 82.8599 63.2496 81.9249H125.12C137.689 81.5119 150.196 83.8585 161.761 88.7994C170.48 92.569 177.944 98.7453 183.278 106.604C188.126 114.344 190.633 123.321 190.496 132.452C190.463 141.906 187.745 151.156 182.66 159.125C176.911 168.448 168.791 176.078 159.129 181.235C149.466 186.392 138.608 188.892 127.664 188.479H7.49751C7.2085 188.498 6.91875 188.46 6.6447 188.366C6.37065 188.272 6.11772 188.125 5.90056 187.934C5.6834 187.742 5.50628 187.509 5.37923 187.249C5.25218 186.989 5.17771 186.706 5.1602 186.417Z" fill="#223445"/>
<path d="M219.3 185.939V2.94001C219.3 2.26542 219.568 1.61847 220.045 1.14146C220.522 0.664448 221.169 0.396484 221.844 0.396484H397.693C398.368 0.396484 399.015 0.664448 399.492 1.14146C399.969 1.61847 400.236 2.26542 400.236 2.94001V14.6267C400.236 15.3013 399.969 15.9483 399.492 16.4253C399.015 16.9023 398.368 17.1702 397.693 17.1702H241.298C240.968 17.1611 240.638 17.2183 240.33 17.3385C240.022 17.4588 239.741 17.6396 239.504 17.8703C239.267 18.1011 239.078 18.377 238.95 18.6818C238.821 18.9866 238.755 19.3141 238.755 19.645V80.6904C238.755 81.365 239.023 82.012 239.5 82.489C239.977 82.966 240.624 83.234 241.298 83.234H382.638C383.301 83.2337 383.937 83.4924 384.413 83.9546C384.888 84.4169 385.163 85.0463 385.181 85.7089V97.6704C385.181 98.345 384.913 98.992 384.436 99.469C383.959 99.946 383.312 100.214 382.638 100.214H241.023C240.693 100.205 240.363 100.262 240.055 100.382C239.747 100.502 239.466 100.683 239.229 100.914C238.992 101.145 238.803 101.421 238.675 101.726C238.546 102.031 238.48 102.358 238.48 102.689V169.234C238.48 169.908 238.748 170.555 239.225 171.032C239.702 171.509 240.349 171.777 241.023 171.777H399.618C399.949 171.768 400.278 171.825 400.586 171.946C400.894 172.066 401.175 172.247 401.412 172.477C401.65 172.708 401.838 172.984 401.967 173.289C402.095 173.594 402.161 173.921 402.161 174.252V185.939C402.171 186.275 402.112 186.611 401.987 186.923C401.863 187.236 401.676 187.52 401.437 187.759C401.199 187.997 400.915 188.184 400.602 188.308C400.289 188.433 399.954 188.492 399.618 188.482H221.569C220.937 188.43 220.349 188.137 219.927 187.663C219.505 187.19 219.28 186.573 219.3 185.939Z" fill="#223445"/>
<path d="M437.63 186.351V2.52756C437.63 1.96236 437.854 1.42027 438.254 1.02062C438.653 0.620961 439.195 0.396484 439.761 0.396484H464.578C464.972 0.406874 465.358 0.52026 465.695 0.72523C466.033 0.930199 466.311 1.21974 466.502 1.56524L535.247 136.649L539.785 145.998C541.503 149.642 543.222 153.423 544.94 157.204C546.659 160.984 548.309 164.422 549.752 167.378H551.402C552.502 164.834 553.808 161.741 555.39 158.166C556.971 154.591 558.621 151.292 560.477 147.373L565.426 137.199L634.171 1.56524C634.346 1.22049 634.61 0.929612 634.937 0.723761C635.264 0.51791 635.641 0.404737 636.027 0.396484H660.844C661.409 0.396484 661.952 0.620961 662.351 1.02062C662.751 1.42027 662.975 1.96236 662.975 2.52756V186.351C662.975 186.917 662.751 187.459 662.351 187.858C661.952 188.258 661.409 188.482 660.844 188.482H645.652C645.086 188.482 644.544 188.258 644.145 187.858C643.745 187.459 643.521 186.917 643.521 186.351V62.1295C643.521 58.8297 643.521 54.8424 643.521 50.1677C643.521 45.4931 643.521 40.8871 643.521 36.4187C643.521 31.9503 643.521 27.8944 643.521 24.5946H641.321C640.427 26.7944 639.258 29.4757 637.746 32.7067C636.233 35.9377 634.79 39.1685 633.209 42.3995C631.628 45.6305 630.184 48.7241 628.74 51.4739L559.996 187.383C559.821 187.727 559.556 188.018 559.229 188.224C558.902 188.43 558.526 188.543 558.139 188.551H541.297C540.901 188.548 540.512 188.438 540.174 188.232C539.835 188.026 539.558 187.733 539.372 187.383L470.627 51.4739L465.678 41.231C464.028 37.7937 462.515 34.7002 461.14 31.7441C459.765 28.7881 458.666 26.4508 457.703 24.8696H455.778C455.778 28.1694 455.778 32.0879 455.778 36.5564C455.778 41.0248 455.778 45.5619 455.778 50.3053V186.351C455.787 186.628 455.741 186.904 455.641 187.162C455.542 187.42 455.391 187.655 455.199 187.854C455.007 188.053 454.776 188.211 454.521 188.319C454.267 188.427 453.993 188.483 453.716 188.482H439.28C438.801 188.372 438.376 188.099 438.075 187.711C437.774 187.322 437.617 186.842 437.63 186.351Z" fill="#223445"/>
<path d="M706.697 186.42V2.45858C706.697 1.91161 706.914 1.38708 707.301 1.00031C707.688 0.613548 708.213 0.39632 708.76 0.39632H835.8C846.283 0.117996 856.651 2.63294 865.842 7.68326C873.979 12.367 880.627 19.2539 885.021 27.5506C889.666 36.4332 892.029 46.3318 891.896 56.3547C891.992 66.3735 889.632 76.2631 885.021 85.1586C880.701 93.4636 874.093 100.358 865.979 105.026C856.749 109.933 846.383 112.305 835.938 111.901H728.214C727.667 111.901 727.143 112.118 726.756 112.505C726.369 112.891 726.152 113.416 726.152 113.963V186.076C726.161 186.344 726.116 186.61 726.02 186.86C725.924 187.11 725.779 187.338 725.593 187.531C725.407 187.723 725.184 187.876 724.937 187.981C724.691 188.085 724.426 188.139 724.158 188.139H708.76C708.263 188.16 707.777 187.996 707.396 187.678C707.014 187.361 706.765 186.912 706.697 186.42ZM726.358 93.2707C726.358 93.5384 726.412 93.8034 726.516 94.0499C726.621 94.2963 726.774 94.5192 726.966 94.7053C727.159 94.8913 727.387 95.0366 727.636 95.1326C727.886 95.2287 728.153 95.2734 728.42 95.2642H832.982C838.382 95.6609 843.804 94.9038 848.889 93.0429C853.974 91.182 858.605 88.2601 862.473 84.4714C869.333 76.7526 872.932 66.6731 872.51 56.3547C872.666 49.1849 871.011 42.0914 867.698 35.7313C864.533 29.9205 859.759 25.1465 853.949 21.9823C847.419 18.5854 840.133 16.9056 832.775 17.1013H728.214C727.947 17.092 727.68 17.1368 727.43 17.2328C727.18 17.3289 726.952 17.4743 726.76 17.6604C726.567 17.8464 726.414 18.0693 726.31 18.3158C726.205 18.5622 726.152 18.8272 726.152 19.0949L726.358 93.2707Z" fill="#223445"/>
<path d="M913.964 186.9V2.11368C913.955 1.90033 913.989 1.68728 914.064 1.48745C914.14 1.28761 914.255 1.10519 914.402 0.951007C914.55 0.796825 914.727 0.674096 914.924 0.590373C915.12 0.506649 915.332 0.463666 915.545 0.463868H1093.25C1093.47 0.463868 1093.68 0.50641 1093.88 0.589324C1094.08 0.672238 1094.26 0.793815 1094.42 0.94702C1094.57 1.10023 1094.69 1.28203 1094.78 1.4822C1094.86 1.68237 1094.9 1.89701 1094.9 2.11368V15.8627C1094.9 16.3002 1094.73 16.7199 1094.42 17.0293C1094.11 17.3387 1093.69 17.5125 1093.25 17.5125H935.138C934.718 17.5125 934.316 17.6792 934.02 17.9757C933.723 18.2722 933.557 18.6743 933.557 19.0937V81.9264C933.547 82.1397 933.581 82.3528 933.657 82.5526C933.732 82.7524 933.847 82.9351 933.995 83.0892C934.142 83.2434 934.32 83.366 934.516 83.4497C934.713 83.5334 934.924 83.5766 935.138 83.5764H1078.61C1078.82 83.5764 1079.02 83.6171 1079.21 83.6966C1079.41 83.7761 1079.58 83.8926 1079.73 84.0394C1079.87 84.1862 1079.99 84.3605 1080.07 84.5523C1080.15 84.7442 1080.19 84.9498 1080.19 85.1574V98.9064C1080.19 99.3257 1080.02 99.728 1079.73 100.025C1079.43 100.321 1079.03 100.488 1078.61 100.488H935C934.581 100.488 934.179 100.654 933.882 100.951C933.586 101.247 933.419 101.649 933.419 102.069V170.401C933.41 170.615 933.444 170.828 933.519 171.027C933.594 171.227 933.709 171.41 933.857 171.564C934.005 171.718 934.182 171.841 934.379 171.924C934.575 172.008 934.787 172.051 935 172.051H1095.45C1095.66 172.042 1095.88 172.076 1096.08 172.151C1096.28 172.226 1096.46 172.341 1096.61 172.489C1096.77 172.637 1096.89 172.814 1096.97 173.011C1097.06 173.207 1097.1 173.419 1097.1 173.632V187.381C1097.1 187.595 1097.06 187.806 1096.97 188.002C1096.89 188.199 1096.77 188.376 1096.61 188.524C1096.46 188.672 1096.28 188.787 1096.08 188.862C1095.88 188.937 1095.66 188.971 1095.45 188.962H915.545C915.29 188.974 915.036 188.925 914.804 188.817C914.573 188.71 914.37 188.548 914.215 188.345C914.06 188.142 913.956 187.905 913.912 187.653C913.868 187.402 913.886 187.143 913.964 186.9Z" fill="#223445"/>
<path d="M1132.44 186.556V2.11367C1132.44 1.61486 1132.63 1.13531 1132.98 0.776244C1133.32 0.417176 1133.8 0.206639 1134.29 0.188825H1151.62C1151.88 0.180669 1152.14 0.232247 1152.38 0.339456C1152.61 0.446665 1152.83 0.606657 1152.99 0.807503L1283.61 138.297C1285.46 140.153 1287.53 142.284 1289.79 144.759L1296.67 152.046C1298.87 154.384 1300.66 156.515 1302.1 158.302H1303.82V2.11367C1303.84 1.60862 1304.04 1.12896 1304.4 0.771629C1304.76 0.414295 1305.24 0.20596 1305.74 0.188825H1321.14C1321.64 0.206639 1322.11 0.417176 1322.46 0.776244C1322.81 1.13531 1323 1.61486 1323 2.11367V186.35C1323.01 186.599 1322.97 186.848 1322.88 187.081C1322.79 187.315 1322.65 187.527 1322.48 187.707C1322.31 187.887 1322.1 188.03 1321.87 188.127C1321.64 188.225 1321.39 188.275 1321.14 188.275H1306.02C1305.76 188.273 1305.5 188.218 1305.27 188.111C1305.03 188.005 1304.82 187.85 1304.64 187.656L1173.2 49.2039C1169.35 45.3542 1165.64 41.4358 1162 37.4486L1153.47 28.0992H1151.55C1151.55 31.6052 1151.55 36.1424 1151.55 41.8482V186.625C1151.56 186.874 1151.52 187.123 1151.43 187.356C1151.34 187.59 1151.2 187.802 1151.03 187.982C1150.86 188.162 1150.65 188.305 1150.42 188.402C1150.19 188.5 1149.94 188.55 1149.69 188.55H1134.23C1133.98 188.541 1133.73 188.482 1133.5 188.376C1133.28 188.271 1133.07 188.12 1132.91 187.934C1132.74 187.748 1132.61 187.53 1132.53 187.293C1132.45 187.056 1132.42 186.805 1132.44 186.556Z" fill="#223445" fill-opacity="0.96"/>
</svg>
