<svg width="48" height="48" viewBox="0 0 48 48" fill="none" xmlns="http://www.w3.org/2000/svg">
<path d="M37.124 29.2676L28.0006 24L37.124 18.7324C37.5832 18.4671 37.9182 18.0302 38.0554 17.5179C38.1926 17.0056 38.1207 16.4598 37.8556 16.0005C37.5904 15.5412 37.1538 15.206 36.6415 15.0685C36.1293 14.9311 35.5835 15.0027 35.124 15.2676L26 20.5355V10C26 9.46957 25.7893 8.96086 25.4142 8.58579C25.0392 8.21071 24.5305 8 24 8C23.4696 8 22.9609 8.21071 22.5858 8.58579C22.2107 8.96086 22 9.46957 22 10V20.5355L12.876 15.2675C12.4166 15.0026 11.8707 14.931 11.3585 15.0685C10.8463 15.2059 10.4096 15.5411 10.1445 16.0005C9.87936 16.4598 9.80749 17.0056 9.94467 17.5179C10.0818 18.0301 10.4168 18.467 10.876 18.7324L19.9994 24L10.876 29.2676C10.4168 29.5329 10.0818 29.9698 9.94467 30.4821C9.80749 30.9944 9.87936 31.5402 10.1445 31.9995C10.4096 32.4588 10.8463 32.794 11.3585 32.9315C11.8707 33.0689 12.4166 32.9973 12.876 32.7324L22 27.4645V38C22 38.5304 22.2107 39.0391 22.5858 39.4142C22.9609 39.7893 23.4696 40 24 40C24.5305 40 25.0392 39.7893 25.4142 39.4142C25.7893 39.0391 26 38.5304 26 38V27.4645L35.124 32.7325C35.5835 32.9974 36.1293 33.069 36.6415 32.9315C37.1538 32.7941 37.5904 32.4589 37.8556 31.9995C38.1207 31.5402 38.1926 30.9944 38.0554 30.4821C37.9182 29.9699 37.5832 29.533 37.124 29.2676V29.2676Z" fill="#57B6B2"/>
</svg>
