<svg width="61" height="62" viewBox="0 0 61 62" fill="none" xmlns="http://www.w3.org/2000/svg">
<path fill-rule="evenodd" clip-rule="evenodd" d="M31.7713 10.6668C31.7713 9.96497 31.2023 9.396 30.5004 9.396C29.7986 9.396 29.2296 9.96497 29.2296 10.6668V22.3213C27.7488 22.8446 26.6879 24.2568 26.6879 25.9168C26.6879 26.0116 26.6914 26.1055 26.6982 26.1985L15.8856 32.4412C15.2778 32.7921 15.0695 33.5693 15.4205 34.1772C15.7714 34.785 16.5486 34.9933 17.1565 34.6423L27.7311 28.5371C28.1421 28.9713 28.6541 29.309 29.2296 29.5124V47.521H27.9588C27.2569 47.521 26.6879 48.09 26.6879 48.7918C26.6879 49.4937 27.2569 50.0627 27.9588 50.0627H33.0421C33.744 50.0627 34.3129 49.4937 34.3129 48.7918C34.3129 48.09 33.744 47.521 33.0421 47.521H31.7713V29.5124C32.2749 29.3344 32.7299 29.0536 33.1112 28.6952L43.4122 34.6425C44.02 34.9934 44.7973 34.7852 45.1482 34.1773C45.4991 33.5695 45.2909 32.7923 44.683 32.4413L34.2782 26.4341C34.3011 26.2649 34.3129 26.0923 34.3129 25.9168C34.3129 24.2568 33.252 22.8446 31.7713 22.3213V10.6668ZM30.5004 24.646C29.7986 24.646 29.2296 25.215 29.2296 25.9168C29.2296 26.6187 29.7986 27.1877 30.5004 27.1877C31.2023 27.1877 31.7713 26.6187 31.7713 25.9168C31.7713 25.215 31.2023 24.646 30.5004 24.646Z" fill="#57B6B2"/>
</svg>
